<svg fill="none" stroke-linecap="square" stroke-miterlimit="10" width="602" height="678" xmlns="http://www.w3.org/2000/svg"><path fill="#fff" d="M0 0h602v678H0V0Z"/><path fill="#4b32c3" d="M208.681 49.282A270.9 270.9 0 0 1 301 33.067v135.45a135.45 135.45 0 0 0-46.16 8.108Z"/><path fill="#cdccfa" d="M146.129 81.702a270.9 270.9 0 0 1 62.552-32.42l46.16 127.343a135.45 135.45 0 0 0-31.277 16.21Z"/><path fill="#6358d4" d="M144.74 82.676c.462-.327.925-.651 1.389-.974l77.435 111.132-.694.487Z"/><path fill="#dfdefe" d="M55.254 189.968A270.9 270.9 0 0 1 144.74 82.676l78.13 110.645a135.45 135.45 0 0 0-44.744 53.646Z"/><path fill="#b7b6ff" d="M39.286 373.914a270.9 270.9 0 0 1 15.968-183.946l122.873 57a135.45 135.45 0 0 0-7.984 91.972Z"/><path fill="#a0a0f5" d="M248.023 569.636c-101.17-20.174-182.1-96.059-208.737-195.722l130.857-34.974c13.318 49.832 53.784 87.774 104.369 97.861Z"/><path fill="#8080f2" d="M301 33.067c103.162 0 197.37 58.592 242.982 151.122 45.612 92.53 34.712 202.936-28.115 284.76-62.827 81.823-166.674 120.861-267.844 100.687l26.489-132.835c50.584 10.088 102.508-9.431 133.921-50.343 31.414-40.912 36.864-96.115 14.058-142.38-22.806-46.265-69.91-75.561-121.491-75.561ZM131.5 604.9a6 6 0 1 1-12 0 6 6 0 0 1 12 0Z"/><path fill="#1a1a1a" d="M142.61 608.9v-7.578h-2.829v-1.016h6.813v1.016h-2.844v7.578h-1.14Zm4.437-2.766 1.062-.093q.078.656.36 1.062.281.406.86.672.593.25 1.327.25.64 0 1.14-.188.5-.203.735-.53.25-.345.25-.735 0-.406-.234-.703-.234-.313-.766-.516-.36-.14-1.547-.422-1.172-.281-1.64-.531-.625-.328-.922-.797-.297-.484-.297-1.078 0-.64.36-1.203.374-.578 1.077-.86.72-.296 1.579-.296.953 0 1.687.312.734.297 1.125.906.39.594.422 1.344l-1.094.078q-.094-.812-.61-1.219-.5-.421-1.483-.421-1.032 0-1.5.375-.47.375-.47.906 0 .469.329.765.328.297 1.703.61 1.39.312 1.906.547.75.36 1.11.89.359.516.359 1.22 0 .687-.39 1.296-.391.594-1.126.938-.734.328-1.656.328-1.172 0-1.969-.329-.78-.343-1.234-1.03-.438-.688-.453-1.548Zm14.516-.25 1.125.297q-.36 1.39-1.282 2.125-.922.735-2.265.735-1.391 0-2.266-.563-.875-.562-1.328-1.625-.453-1.078-.453-2.312 0-1.344.515-2.344.516-1 1.453-1.516.954-.515 2.094-.515 1.281 0 2.156.656.891.656 1.235 1.844l-1.125.265q-.297-.937-.875-1.36-.563-.437-1.422-.437-.984 0-1.656.485-.656.468-.938 1.265-.265.797-.265 1.657 0 1.093.312 1.906.328.812 1 1.219.672.406 1.469.406.953 0 1.61-.547.671-.547.905-1.64Zm5.828 3.016v-8.594h1.718l2.032 6.078q.28.86.406 1.282.14-.47.453-1.375l2.063-5.985h1.53v8.594H174.5v-7.188L172 608.9h-1.031l-2.485-7.313v7.313h-1.093Zm13.156-2 1.094.125q-.25.953-.953 1.484-.704.532-1.782.532-1.36 0-2.172-.844-.797-.844-.797-2.36 0-1.562.813-2.421.813-.875 2.094-.875 1.25 0 2.031.843.797.844.797 2.391v.281h-4.64q.062 1.031.577 1.578.516.532 1.297.532.578 0 .985-.297.422-.313.656-.969Zm-3.453-1.703h3.469q-.063-.797-.391-1.188-.516-.609-1.313-.609-.734 0-1.234.484-.484.485-.531 1.313Zm6.203 3.703v-6.219h.937v.875q.297-.469.782-.734.484-.281 1.109-.281.688 0 1.125.28.453.282.625.798.75-1.078 1.922-1.078.937 0 1.422.515.5.5.5 1.578v4.266h-1.047v-3.922q0-.625-.11-.906-.093-.281-.359-.453t-.64-.172q-.657 0-1.094.437-.422.438-.422 1.407v3.609h-1.063v-4.047q0-.703-.265-1.047-.25-.36-.828-.36-.453 0-.828.235-.375.235-.547.688-.172.453-.172 1.297v3.234h-1.047Zm11.969 0h-.985v-8.594h1.063v3.063q.672-.828 1.703-.828.578 0 1.078.234.516.219.844.64.344.423.531 1.016.188.594.188 1.266 0 1.594-.797 2.469-.797.875-1.891.875-1.11 0-1.734-.922v.781Zm-.016-3.156q0 1.11.313 1.61.5.812 1.343.812.688 0 1.188-.594.515-.594.515-1.797 0-1.219-.484-1.797-.484-.578-1.172-.578-.687 0-1.203.61-.5.593-.5 1.734Zm10.297 1.156 1.094.125q-.25.953-.953 1.484-.704.532-1.782.532-1.36 0-2.172-.844-.797-.844-.797-2.36 0-1.562.813-2.421.813-.875 2.094-.875 1.25 0 2.031.843.797.844.797 2.391v.281h-4.64q.062 1.031.577 1.578.516.532 1.297.532.578 0 .985-.297.422-.313.656-.969Zm-3.453-1.703h3.469q-.063-.797-.391-1.188-.516-.609-1.313-.609-.734 0-1.234.484-.484.485-.531 1.313Zm6.187 3.703v-6.219h.953v.938q.36-.657.657-.86.312-.218.687-.218.531 0 1.078.328l-.36.984q-.39-.234-.765-.234-.36 0-.64.218-.266.204-.375.579-.188.562-.188 1.218v3.266h-1.047Zm3.594-1.86 1.031-.156q.094.625.485.953.406.329 1.14.329.719 0 1.063-.282.36-.297.36-.703 0-.36-.313-.562-.22-.14-1.078-.36-1.157-.297-1.61-.5-.437-.218-.672-.593-.234-.375-.234-.844 0-.406.187-.766.188-.36.516-.594.25-.171.672-.296.422-.125.922-.125.719 0 1.265.218.563.203.828.563.266.36.36.953l-1.031.14q-.063-.468-.407-.734-.328-.281-.953-.281-.719 0-1.031.25-.313.234-.313.563 0 .203.125.359.141.172.407.281.156.063.937.266 1.125.312 1.563.5.437.187.687.547.25.359.25.906 0 .531-.312 1-.297.453-.875.719-.578.25-1.313.25-1.219 0-1.86-.5-.624-.516-.796-1.5Zm10.547 1.86v-8.594h3.25q.844 0 1.297.078.64.11 1.062.407.438.296.688.828.265.531.265 1.172 0 1.093-.703 1.859-.687.75-2.515.75h-2.203v3.5h-1.141Zm1.14-4.5h2.22q1.109 0 1.562-.406.469-.422.469-1.172 0-.531-.282-.906-.265-.391-.703-.516-.297-.078-1.062-.078h-2.203v3.078Zm10.797 3.734q-.593.5-1.14.703-.531.204-1.156.204-1.032 0-1.579-.5-.547-.5-.547-1.282 0-.453.204-.828.203-.39.547-.61.343-.234.765-.343.297-.094.938-.172 1.265-.14 1.875-.36v-.265q0-.656-.297-.922-.406-.343-1.203-.343-.735 0-1.094.265-.36.25-.531.906l-1.032-.14q.141-.656.47-1.063.327-.406.937-.625.609-.218 1.406-.218.797 0 1.297.187.5.188.734.469.234.281.328.719.047.265.047.968v1.407q0 1.468.063 1.859.078.39.28.75h-1.108q-.157-.328-.204-.766Zm-.093-2.359q-.578.234-1.72.406-.655.094-.921.219-.266.11-.422.328-.14.219-.14.5 0 .422.312.703.328.281.938.281.609 0 1.078-.265.484-.266.703-.735.172-.359.172-1.046v-.391Zm2.984 5.516-.125-.985q.344.094.61.094.343 0 .546-.125.219-.11.36-.313.093-.171.328-.796.015-.079.094-.25l-2.375-6.235h1.14l1.297 3.594q.25.688.453 1.453.188-.734.438-1.422l1.328-3.625h1.047l-2.36 6.328q-.39 1.016-.594 1.407-.28.53-.656.765-.36.25-.86.25-.296 0-.671-.14Z"/><path fill="#a0a0f5" d="M269.5 604.9a6 6 0 1 1-12 0 6 6 0 0 1 12 0Z"/><path fill="#1a1a1a" d="M278.438 608.9v-8.594h3.812q1.156 0 1.75.235.594.234.953.828.36.578.36 1.281 0 .922-.594 1.547-.594.625-1.828.797.453.218.687.422.5.453.938 1.14l1.5 2.344h-1.438l-1.125-1.781q-.5-.782-.828-1.188-.313-.406-.578-.562-.25-.172-.516-.25-.187-.032-.625-.032h-1.328v3.813h-1.14Zm1.14-4.797h2.453q.766 0 1.203-.156.454-.172.672-.516.235-.36.235-.781 0-.61-.454-1-.437-.39-1.39-.39h-2.719v2.843Zm11.969 2.797 1.094.125q-.25.953-.954 1.484-.703.532-1.78.532-1.36 0-2.173-.844-.796-.844-.796-2.36 0-1.562.812-2.421.813-.875 2.094-.875 1.25 0 2.031.843.797.844.797 2.391v.281h-4.64q.062 1.031.577 1.578.516.532 1.297.532.578 0 .985-.297.421-.313.656-.969Zm-3.453-1.703h3.469q-.063-.797-.391-1.188-.516-.609-1.313-.609-.734 0-1.234.484-.484.485-.531 1.313Zm7.922 3.703-2.36-6.219h1.11l1.343 3.719q.204.61.391 1.25.14-.484.39-1.172l1.391-3.797h1.078L297 608.9h-.984Zm3.28-7.375v-1.219h1.063v1.219h-1.062Zm0 7.375v-6.219h1.063v6.219h-1.062Zm7.25-2 1.095.125q-.25.953-.954 1.484-.703.532-1.78.532-1.36 0-2.173-.844-.796-.844-.796-2.36 0-1.562.812-2.421.813-.875 2.094-.875 1.25 0 2.031.843.797.844.797 2.391v.281h-4.64q.062 1.031.577 1.578.516.532 1.297.532.578 0 .985-.297.421-.313.656-.969Zm-3.452-1.703h3.469q-.063-.797-.391-1.188-.516-.609-1.313-.609-.734 0-1.234.484-.484.485-.531 1.313Zm7.344 3.703-1.907-6.219h1.094l.984 3.594.375 1.328q.032-.094.329-1.281l.984-3.64h1.078l.938 3.609.312 1.187.36-1.203 1.062-3.594h1.031l-1.953 6.219h-1.094l-.984-3.734-.25-1.047-1.25 4.781h-1.11Zm12.109-2 1.094.125q-.25.953-.954 1.484-.703.532-1.78.532-1.36 0-2.173-.844-.796-.844-.796-2.36 0-1.562.812-2.421.813-.875 2.094-.875 1.25 0 2.031.843.797.844.797 2.391v.281h-4.64q.062 1.031.577 1.578.516.532 1.297.532.578 0 .985-.297.421-.313.656-.969Zm-3.453-1.703h3.469q-.063-.797-.391-1.188-.516-.609-1.313-.609-.734 0-1.234.484-.484.485-.531 1.313Zm6.187 3.703v-6.219h.953v.938q.36-.657.657-.86.312-.218.687-.218.531 0 1.078.328l-.36.984q-.39-.234-.765-.234-.36 0-.64.218-.266.204-.375.579-.188.562-.188 1.218v3.266h-1.047Zm3.594-1.86 1.031-.156q.094.625.485.953.406.329 1.14.329.719 0 1.063-.282.36-.297.36-.703 0-.36-.313-.562-.22-.14-1.079-.36-1.156-.297-1.609-.5-.437-.218-.672-.593-.234-.375-.234-.844 0-.406.187-.766.188-.36.516-.594.25-.171.672-.296.422-.125.922-.125.719 0 1.265.218.563.203.829.563.265.36.359.953l-1.031.14q-.063-.468-.407-.734-.328-.281-.953-.281-.719 0-1.031.25-.313.234-.313.563 0 .203.125.359.141.172.407.281.156.063.937.266 1.125.312 1.563.5.437.187.687.547.25.359.25.906 0 .531-.312 1-.297.453-.875.719-.578.25-1.313.25-1.219 0-1.86-.5-.624-.516-.796-1.5Zm10.547 1.86v-8.594h3.25q.844 0 1.297.078.64.11 1.062.407.438.296.688.828.265.531.265 1.172 0 1.093-.703 1.859-.687.75-2.515.75h-2.204v3.5h-1.14Zm1.14-4.5h2.22q1.109 0 1.562-.406.469-.422.469-1.172 0-.531-.282-.906-.265-.391-.703-.516-.297-.078-1.062-.078h-2.204v3.078Zm10.797 3.734q-.593.5-1.14.703-.531.204-1.156.204-1.032 0-1.579-.5-.546-.5-.546-1.282 0-.453.203-.828.203-.39.546-.61.344-.234.766-.343.297-.094.938-.172 1.265-.14 1.875-.36v-.265q0-.656-.297-.922-.406-.343-1.203-.343-.735 0-1.094.265-.36.25-.531.906l-1.032-.14q.141-.656.47-1.063.327-.406.937-.625.609-.218 1.406-.218.797 0 1.297.187.5.188.734.469.235.281.328.719.047.265.047.968v1.407q0 1.468.063 1.859.078.39.28.75h-1.108q-.157-.328-.204-.766Zm-.093-2.359q-.579.234-1.72.406-.655.094-.921.219-.266.11-.422.328-.14.219-.14.5 0 .422.312.703.328.281.938.281.609 0 1.078-.265.484-.266.703-.735.172-.359.172-1.046v-.391Zm2.984 5.516-.125-.985q.344.094.61.094.343 0 .546-.125.219-.11.36-.313.093-.171.328-.796.015-.079.094-.25l-2.375-6.235h1.14l1.297 3.594q.25.688.453 1.453.188-.734.438-1.422l1.328-3.625h1.047l-2.36 6.328q-.39 1.016-.594 1.407-.28.53-.656.765-.36.25-.86.25-.296 0-.671-.14Z"/><path fill="#b7b6ff" d="M386.5 604.9a6 6 0 1 1-12 0 6 6 0 0 1 12 0Z"/><path fill="#1a1a1a" d="m401.563 605.884 1.125.297q-.36 1.39-1.282 2.125-.922.735-2.265.735-1.391 0-2.266-.563-.875-.562-1.328-1.625-.453-1.078-.453-2.312 0-1.344.515-2.344.516-1 1.454-1.516.953-.515 2.093-.515 1.281 0 2.156.656.891.656 1.235 1.844l-1.125.265q-.297-.937-.875-1.36-.563-.437-1.422-.437-.984 0-1.656.485-.656.468-.938 1.265-.265.797-.265 1.657 0 1.093.312 1.906.328.812 1 1.219.672.406 1.469.406.953 0 1.61-.547.671-.547.906-1.64Zm2.343-.093q0-1.735.953-2.563.797-.687 1.954-.687 1.28 0 2.093.843.828.828.828 2.313 0 1.203-.359 1.89-.36.688-1.063 1.079-.687.375-1.5.375-1.296 0-2.109-.829-.797-.843-.797-2.421Zm1.078 0q0 1.187.516 1.78.531.595 1.313.595.796 0 1.312-.594t.516-1.813q0-1.156-.532-1.75-.515-.593-1.296-.593-.782 0-1.313.593-.516.578-.516 1.782Zm6.313 3.109v-6.219h.937v.875q.297-.469.782-.734.484-.281 1.109-.281.688 0 1.125.28.453.282.625.798.75-1.078 1.922-1.078.937 0 1.422.515.5.5.5 1.578v4.266h-1.047v-3.922q0-.625-.11-.906-.093-.281-.359-.453-.265-.172-.64-.172-.657 0-1.094.437-.422.438-.422 1.407v3.609h-1.063v-4.047q0-.703-.265-1.047-.25-.36-.828-.36-.454 0-.829.235-.375.235-.546.688-.172.453-.172 1.297v3.234h-1.047Zm11 0v-6.219h.937v.875q.297-.469.782-.734.484-.281 1.109-.281.688 0 1.125.28.453.282.625.798.75-1.078 1.922-1.078.937 0 1.422.515.5.5.5 1.578v4.266h-1.047v-3.922q0-.625-.11-.906-.093-.281-.359-.453-.265-.172-.64-.172-.657 0-1.094.437-.422.438-.422 1.407v3.609h-1.063v-4.047q0-.703-.265-1.047-.25-.36-.828-.36-.454 0-.829.235-.375.235-.546.688-.172.453-.172 1.297v3.234h-1.047Zm11-7.375v-1.219h1.062v1.219h-1.062Zm0 7.375v-6.219h1.062v6.219h-1.062Zm5.297-.938.156.922q-.453.094-.797.094-.578 0-.89-.172-.313-.187-.454-.484-.125-.297-.125-1.25v-3.578h-.765v-.813h.765v-1.547l1.047-.625v2.172h1.063v.813h-1.063v3.64q0 .453.047.578.063.125.188.204.125.078.359.078.188 0 .469-.032Zm3 0 .156.922q-.453.094-.797.094-.578 0-.89-.172-.313-.187-.454-.484-.125-.297-.125-1.25v-3.578h-.765v-.813h.765v-1.547l1.047-.625v2.172h1.063v.813h-1.063v3.64q0 .453.047.578.063.125.188.204.125.078.359.078.188 0 .469-.032Zm4.953-1.062 1.094.125q-.25.953-.954 1.484-.703.532-1.78.532-1.36 0-2.173-.844-.796-.844-.796-2.36 0-1.562.812-2.421.813-.875 2.094-.875 1.25 0 2.031.843.797.844.797 2.391v.281h-4.64q.062 1.031.577 1.578.516.532 1.297.532.578 0 .985-.297.421-.313.656-.969Zm-3.453-1.703h3.469q-.063-.797-.391-1.188-.516-.609-1.313-.609-.734 0-1.234.484-.484.485-.531 1.313Zm6.187 3.703v-6.219h.953v.938q.36-.657.657-.86.312-.218.687-.218.531 0 1.078.328l-.36.984q-.39-.234-.765-.234-.36 0-.64.218-.266.204-.375.579-.188.562-.188 1.218v3.266h-1.047Zm3.594-1.86 1.031-.156q.094.625.485.953.406.329 1.14.329.719 0 1.063-.282.36-.297.36-.703 0-.36-.313-.562-.22-.14-1.079-.36-1.156-.297-1.609-.5-.437-.218-.672-.593-.234-.375-.234-.844 0-.406.187-.766.188-.36.516-.594.25-.171.672-.296.422-.125.922-.125.719 0 1.265.218.563.203.829.563.265.36.359.953l-1.031.14q-.063-.468-.407-.734-.328-.281-.953-.281-.719 0-1.031.25-.313.234-.313.563 0 .203.125.359.141.172.407.281.156.063.937.266 1.125.312 1.563.5.437.187.687.547.25.359.25.906 0 .531-.312 1-.297.453-.875.719-.578.25-1.313.25-1.219 0-1.86-.5-.624-.516-.796-1.5Zm10.547 1.86v-8.594h3.25q.844 0 1.297.078.64.11 1.062.407.438.296.688.828.265.531.265 1.172 0 1.093-.703 1.859-.687.75-2.515.75h-2.204v3.5h-1.14Zm1.14-4.5h2.22q1.109 0 1.562-.406.469-.422.469-1.172 0-.531-.282-.906-.265-.391-.703-.516-.297-.078-1.062-.078h-2.204v3.078Zm10.797 3.734q-.593.5-1.14.703-.531.204-1.156.204-1.032 0-1.579-.5-.546-.5-.546-1.282 0-.453.203-.828.203-.39.546-.61.344-.234.766-.343.297-.094.938-.172 1.265-.14 1.875-.36v-.265q0-.656-.297-.922-.406-.343-1.203-.343-.735 0-1.094.265-.36.25-.531.906l-1.032-.14q.141-.656.47-1.063.327-.406.937-.625.609-.218 1.406-.218.797 0 1.297.187.5.188.734.469.235.281.328.719.047.265.047.968v1.407q0 1.468.063 1.859.078.39.28.75h-1.108q-.157-.328-.204-.766Zm-.093-2.359q-.579.234-1.72.406-.655.094-.921.219-.266.11-.422.328-.14.219-.14.5 0 .422.312.703.328.281.938.281.609 0 1.078-.265.484-.266.703-.735.172-.359.172-1.046v-.391Zm2.984 5.516-.125-.985q.344.094.61.094.343 0 .546-.125.219-.11.36-.313.093-.171.328-.796.015-.079.094-.25l-2.375-6.235h1.14l1.297 3.594q.25.688.453 1.453.188-.734.438-1.422l1.328-3.625h1.047l-2.36 6.328q-.39 1.016-.594 1.407-.28.53-.656.765-.36.25-.86.25-.296 0-.671-.14Z"/><path fill="#dfdefe" d="M67.5 622.9a6 6 0 1 1-12 0 6 6 0 0 1 12 0Z"/><path fill="#1a1a1a" d="M76.422 626.9v-8.594h2.969q1 0 1.53.125.735.172 1.25.61.688.578 1.016 1.484.344.89.344 2.031 0 .985-.234 1.735-.219.75-.578 1.25-.36.5-.797.78-.422.282-1.016.438-.594.141-1.375.141h-3.11Zm1.14-1.016h1.829q.859 0 1.343-.156.485-.156.766-.453.406-.39.625-1.078.234-.688.234-1.656 0-1.344-.453-2.063-.437-.734-1.062-.984-.469-.172-1.469-.172h-1.813v6.562Zm11.985-.984 1.094.125q-.25.953-.954 1.484-.703.532-1.78.532-1.36 0-2.173-.844-.796-.844-.796-2.36 0-1.562.812-2.421.813-.875 2.094-.875 1.25 0 2.031.843.797.844.797 2.391v.281h-4.64q.062 1.031.577 1.578.516.532 1.297.532.578 0 .985-.297.421-.313.656-.969Zm-3.453-1.703h3.469q-.063-.797-.391-1.188-.516-.609-1.313-.609-.734 0-1.234.484-.484.485-.531 1.313Zm6.203 6.094v-8.61h.953v.797q.344-.469.766-.703.437-.234 1.046-.234.797 0 1.407.406t.906 1.156q.313.75.313 1.64 0 .954-.344 1.72-.328.765-.985 1.171-.656.407-1.375.407-.53 0-.953-.22-.422-.234-.687-.562v3.032h-1.047Zm.953-5.47q0 1.204.484 1.782.485.563 1.172.563.703 0 1.203-.594.5-.594.5-1.844 0-1.187-.484-1.765-.484-.594-1.172-.594-.672 0-1.187.625-.516.625-.516 1.828Zm10.297 1.079 1.094.125q-.25.953-.954 1.484-.703.532-1.78.532-1.36 0-2.173-.844-.796-.844-.796-2.36 0-1.562.812-2.421.813-.875 2.094-.875 1.25 0 2.031.843.797.844.797 2.391v.281h-4.64q.062 1.031.577 1.578.516.532 1.297.532.578 0 .985-.297.421-.313.656-.969Zm-3.453-1.703h3.469q-.063-.797-.391-1.188-.516-.609-1.313-.609-.734 0-1.234.484-.484.485-.531 1.313Zm6.203 3.703v-6.219h.937v.875q.688-1.015 1.985-1.015.562 0 1.031.203.484.203.719.531.234.328.328.766.047.296.047 1.03v3.829h-1.047v-3.781q0-.657-.125-.969-.125-.313-.438-.5-.312-.203-.734-.203-.672 0-1.172.437-.484.422-.484 1.61v3.406h-1.047Zm11.031 0v-.781q-.594.922-1.734.922-.75 0-1.375-.407-.625-.422-.969-1.156t-.344-1.687q0-.922.313-1.688.312-.765.937-1.156.625-.406 1.39-.406.563 0 1 .234.438.234.72.61v-3.079h1.046v8.594h-.984ZM114 623.79q0 1.204.5 1.798.5.578 1.188.578.687 0 1.171-.563.485-.562.485-1.719 0-1.28-.5-1.875-.485-.593-1.203-.593-.704 0-1.172.578-.469.562-.469 1.797Zm10.547 1.11 1.094.125q-.25.953-.954 1.484-.703.532-1.78.532-1.36 0-2.173-.844-.796-.844-.796-2.36 0-1.562.812-2.421.813-.875 2.094-.875 1.25 0 2.031.843.797.844.797 2.391v.281h-4.64q.062 1.031.577 1.578.516.532 1.297.532.578 0 .985-.297.421-.313.656-.969Zm-3.453-1.703h3.469q-.063-.797-.391-1.188-.516-.609-1.313-.609-.734 0-1.234.484-.484.485-.531 1.313Zm6.203 3.703v-6.219h.937v.875q.688-1.015 1.985-1.015.562 0 1.031.203.484.203.719.531.234.328.328.766.047.296.047 1.03v3.829h-1.047v-3.781q0-.657-.125-.969-.125-.313-.438-.5-.312-.203-.734-.203-.672 0-1.172.437-.484.422-.484 1.61v3.406h-1.047Zm11.062-2.281 1.032.14q-.172 1.063-.875 1.672-.703.61-1.72.61-1.28 0-2.062-.829-.765-.843-.765-2.406 0-1 .328-1.75.344-.765 1.016-1.14.687-.375 1.5-.375 1 0 1.64.515.656.5.844 1.453l-1.031.157q-.141-.625-.516-.938-.375-.328-.906-.328-.797 0-1.297.578-.5.563-.5 1.797 0 1.266.484 1.828.485.563 1.25.563.625 0 1.031-.375.422-.375.547-1.172Zm1.891 4.672-.125-.985q.344.094.61.094.343 0 .546-.125.219-.11.36-.313.093-.171.328-.796.015-.079.094-.25l-2.375-6.235h1.14l1.297 3.594q.25.688.453 1.453.188-.734.438-1.422l1.328-3.625h1.047l-2.36 6.328q-.39 1.016-.594 1.407-.28.53-.656.765-.36.25-.86.25-.296 0-.671-.14Zm7.797-5.157 1.062-.093q.078.656.36 1.062.281.406.86.672.593.25 1.327.25.64 0 1.14-.188.5-.203.735-.53.25-.345.25-.735 0-.406-.234-.703-.234-.313-.766-.516-.36-.14-1.547-.422-1.172-.281-1.64-.531-.625-.328-.922-.797-.297-.484-.297-1.078 0-.64.36-1.203.374-.578 1.077-.86.72-.296 1.579-.296.953 0 1.687.312.734.297 1.125.906.39.594.422 1.344l-1.094.078q-.094-.812-.61-1.219-.5-.421-1.483-.421-1.032 0-1.5.375-.47.375-.47.906 0 .469.329.765.328.297 1.703.61 1.39.312 1.906.547.75.36 1.11.89.359.516.359 1.22 0 .687-.39 1.296-.391.594-1.126.938-.734.328-1.656.328-1.172 0-1.969-.329-.78-.343-1.234-1.03-.438-.688-.453-1.548Zm8.25 5.157v-8.61h.953v.797q.344-.469.766-.703.437-.234 1.047-.234.796 0 1.406.406.61.406.906 1.156.313.75.313 1.64 0 .954-.344 1.72-.328.765-.985 1.171-.656.407-1.375.407-.53 0-.953-.22-.422-.234-.687-.562v3.032h-1.047Zm.953-5.47q0 1.204.484 1.782.485.563 1.172.563.703 0 1.203-.594.5-.594.5-1.844 0-1.187-.484-1.765-.484-.594-1.172-.594-.672 0-1.187.625-.516.625-.516 1.828Zm5.656-.03q0-1.735.953-2.563.797-.687 1.953-.687 1.282 0 2.094.843.828.828.828 2.313 0 1.203-.359 1.89-.36.688-1.063 1.079-.687.375-1.5.375-1.296 0-2.109-.829-.797-.843-.797-2.421Zm1.078 0q0 1.187.516 1.78.531.595 1.313.595.796 0 1.312-.594t.516-1.813q0-1.156-.532-1.75-.515-.593-1.297-.593-.78 0-1.312.593-.516.578-.516 1.782Zm6.313 3.109v-6.219h.937v.875q.688-1.015 1.985-1.015.562 0 1.031.203.484.203.719.531.234.328.328.766.047.296.047 1.03v3.829h-1.047v-3.781q0-.657-.125-.969-.125-.313-.438-.5-.312-.203-.734-.203-.672 0-1.172.437-.484.422-.484 1.61v3.406h-1.047Zm6.578-1.86 1.031-.156q.094.625.485.953.406.329 1.14.329.719 0 1.063-.282.36-.297.36-.703 0-.36-.313-.562-.22-.14-1.078-.36-1.157-.297-1.61-.5-.437-.218-.672-.593-.234-.375-.234-.844 0-.406.187-.766.188-.36.516-.594.25-.171.672-.296.422-.125.922-.125.719 0 1.265.218.563.203.828.563.266.36.36.953l-1.031.14q-.063-.468-.407-.734-.328-.281-.953-.281-.719 0-1.031.25-.313.234-.313.563 0 .203.125.359.141.172.407.281.156.063.937.266 1.125.312 1.563.5.437.187.687.547.25.359.25.906 0 .531-.312 1-.297.453-.875.719-.578.25-1.313.25-1.219 0-1.86-.5-.624-.516-.796-1.5Zm7.031-1.25q0-1.734.953-2.562.797-.687 1.953-.687 1.282 0 2.094.843.828.828.828 2.313 0 1.203-.359 1.89-.36.688-1.063 1.079-.687.375-1.5.375-1.296 0-2.109-.829-.797-.843-.797-2.421Zm1.078 0q0 1.188.516 1.782.531.594 1.313.594.796 0 1.312-.594t.516-1.813q0-1.156-.532-1.75-.515-.593-1.297-.593-.78 0-1.312.593-.516.578-.516 1.782Zm6.297 3.11v-6.219h.953v.938q.36-.657.657-.86.312-.218.687-.218.531 0 1.078.328l-.36.984q-.39-.234-.765-.234-.36 0-.64.218-.266.204-.375.579-.188.562-.188 1.218v3.266h-1.047Zm3.594-1.86 1.031-.156q.094.625.485.953.406.329 1.14.329.719 0 1.063-.282.36-.297.36-.703 0-.36-.313-.562-.22-.14-1.078-.36-1.157-.297-1.61-.5-.437-.218-.672-.593-.234-.375-.234-.844 0-.406.187-.766.188-.36.516-.594.25-.171.672-.296.422-.125.922-.125.719 0 1.265.218.563.203.828.563.266.36.36.953l-1.031.14q-.063-.468-.407-.734-.328-.281-.953-.281-.719 0-1.031.25-.313.234-.313.563 0 .203.125.359.141.172.407.281.156.063.937.266 1.125.312 1.563.5.437.187.687.547.25.359.25.906 0 .531-.312 1-.297.453-.875.719-.578.25-1.313.25-1.219 0-1.86-.5-.624-.516-.796-1.5Zm7.422 1.86v-8.594h1.047v3.078q.734-.843 1.86-.843.702 0 1.202.28.516.266.735.75.218.47.218 1.391v3.938h-1.047v-3.938q0-.796-.343-1.156-.344-.36-.969-.36-.469 0-.89.25-.407.235-.594.657-.172.406-.172 1.14v3.407h-1.047Zm7-7.375v-1.219h1.062v1.219h-1.062Zm0 7.375v-6.219h1.062v6.219h-1.062Zm3 2.39v-8.609h.953v.797q.344-.469.766-.703.437-.234 1.047-.234.796 0 1.406.406.61.406.906 1.156.313.75.313 1.64 0 .954-.344 1.72-.328.765-.985 1.171-.656.407-1.375.407-.53 0-.953-.22-.422-.234-.687-.562v3.032h-1.047Zm.953-5.468q0 1.203.484 1.781.485.563 1.172.563.703 0 1.203-.594.5-.594.5-1.844 0-1.187-.484-1.765-.484-.594-1.172-.594-.672 0-1.187.625-.516.625-.516 1.828Zm5.625 1.219 1.031-.157q.094.625.485.953.406.329 1.14.329.719 0 1.063-.282.36-.297.36-.703 0-.36-.313-.562-.22-.14-1.078-.36-1.157-.297-1.61-.5-.437-.218-.672-.593-.234-.375-.234-.844 0-.406.187-.766.188-.36.516-.594.25-.171.672-.296.422-.125.922-.125.719 0 1.265.218.563.203.828.563.266.36.36.953l-1.031.14q-.063-.468-.407-.734-.328-.281-.953-.281-.719 0-1.031.25-.313.234-.313.563 0 .203.125.359.141.172.407.281.156.063.937.266 1.125.312 1.563.5.437.187.687.547.25.359.25.906 0 .531-.312 1-.297.453-.875.719-.578.25-1.313.25-1.219 0-1.86-.5-.624-.516-.796-1.5Z"/><path fill="#6358d4" d="M253.5 622.9a6 6 0 1 1-12 0 6 6 0 0 1 12 0Z"/><path fill="#1a1a1a" d="M266.453 623.525v-1l3.625-.016v3.188q-.828.672-1.719 1.015-.89.329-1.828.329-1.265 0-2.312-.532-1.031-.547-1.563-1.562-.515-1.031-.515-2.297 0-1.266.515-2.344.531-1.094 1.516-1.61.984-.53 2.265-.53.938 0 1.688.296.75.297 1.172.844.437.531.656 1.406l-1.015.282q-.204-.657-.5-1.032-.282-.375-.813-.593-.531-.235-1.172-.235-.781 0-1.36.235-.562.234-.921.625-.344.39-.531.86-.329.796-.329 1.718 0 1.156.391 1.937.406.766 1.156 1.141.75.375 1.61.375.734 0 1.437-.281.703-.297 1.063-.61v-1.609h-2.516Zm4.453.266q0-1.735.953-2.563.797-.687 1.954-.687 1.28 0 2.093.843.828.828.828 2.313 0 1.203-.359 1.89-.36.688-1.063 1.079-.687.375-1.5.375-1.296 0-2.109-.829-.797-.843-.797-2.421Zm1.078 0q0 1.187.516 1.78.531.595 1.313.595.796 0 1.312-.594t.516-1.813q0-1.156-.532-1.75-.515-.593-1.296-.593-.782 0-1.313.593-.516.578-.516 1.782Zm5.922 0q0-1.735.953-2.563.797-.687 1.954-.687 1.28 0 2.093.843.828.828.828 2.313 0 1.203-.359 1.89-.36.688-1.063 1.079-.687.375-1.5.375-1.296 0-2.109-.829-.797-.843-.797-2.421Zm1.078 0q0 1.187.516 1.78.531.595 1.313.595.796 0 1.312-.594t.516-1.813q0-1.156-.532-1.75-.515-.593-1.296-.593-.782 0-1.313.593-.516.578-.516 1.782Zm6.11 3.625 1.031.156q.063.469.36.687.39.297 1.062.297.734 0 1.125-.297.406-.297.547-.812.094-.328.078-1.36-.688.813-1.719.813-1.281 0-1.984-.922-.703-.937-.703-2.219 0-.89.312-1.64.328-.766.938-1.172.609-.406 1.437-.406 1.11 0 1.828.89v-.75h.969v5.375q0 1.453-.297 2.063-.297.61-.937.953-.641.36-1.579.36-1.109 0-1.796-.5-.688-.5-.672-1.516Zm.875-3.735q0 1.219.484 1.781.485.563 1.219.563.734 0 1.219-.563.5-.562.5-1.75 0-1.14-.516-1.718-.5-.578-1.219-.578-.703 0-1.203.578-.484.562-.484 1.687Zm6.297 3.219v-8.594h1.062v8.594h-1.062Zm7.28-2 1.095.125q-.25.953-.954 1.484-.703.532-1.78.532-1.36 0-2.173-.844-.796-.844-.796-2.36 0-1.562.812-2.421.813-.875 2.094-.875 1.25 0 2.031.843.797.844.797 2.391v.281h-4.64q.062 1.031.577 1.578.516.532 1.297.532.578 0 .985-.297.421-.313.656-.969Zm-3.452-1.703h3.469q-.063-.797-.391-1.188-.516-.609-1.313-.609-.734 0-1.234.484-.484.485-.531 1.313Zm10.828 3.703-2.281-8.594h1.171l1.313 5.64q.203.876.36 1.75.327-1.374.39-1.593l1.625-5.797h1.375l1.234 4.344q.454 1.625.672 3.047.156-.813.422-1.875l1.344-5.516h1.14l-2.343 8.594h-1.11l-1.796-6.547q-.235-.812-.282-1-.125.578-.25 1l-1.812 6.547h-1.172Zm8.984-3.11q0-1.734.953-2.562.797-.687 1.954-.687 1.28 0 2.093.843.828.828.828 2.313 0 1.203-.359 1.89-.36.688-1.063 1.079-.687.375-1.5.375-1.296 0-2.109-.829-.797-.843-.797-2.421Zm1.078 0q0 1.188.516 1.782.531.594 1.313.594.796 0 1.312-.594t.516-1.813q0-1.156-.532-1.75-.515-.593-1.296-.593-.782 0-1.313.593-.516.578-.516 1.782Zm6.297 3.11v-6.219h.953v.938q.36-.657.657-.86.312-.218.687-.218.531 0 1.078.328l-.36.984q-.39-.234-.765-.234-.36 0-.64.218-.266.204-.375.579-.188.562-.188 1.218v3.266h-1.047Zm4.016 0v-8.594h1.062v4.906l2.485-2.53h1.375l-2.39 2.296 2.624 3.922h-1.297l-2.062-3.188-.735.72v2.468h-1.062Zm5.578-1.86 1.031-.156q.094.625.485.953.406.329 1.14.329.719 0 1.063-.282.36-.297.36-.703 0-.36-.313-.562-.22-.14-1.079-.36-1.156-.297-1.609-.5-.437-.218-.672-.593-.234-.375-.234-.844 0-.406.187-.766.188-.36.516-.594.25-.171.672-.296.422-.125.922-.125.719 0 1.265.218.563.203.829.563.265.36.359.953l-1.031.14q-.063-.468-.407-.734-.328-.281-.953-.281-.719 0-1.031.25-.313.234-.313.563 0 .203.125.359.141.172.407.281.156.063.937.266 1.125.312 1.563.5.437.187.687.547.25.359.25.906 0 .531-.312 1-.297.453-.875.719-.578.25-1.313.25-1.219 0-1.86-.5-.624-.516-.796-1.5Zm7.422 4.25v-8.609h.953v.797q.344-.469.766-.703.437-.234 1.046-.234.797 0 1.407.406t.906 1.156q.313.75.313 1.64 0 .954-.344 1.72-.328.765-.985 1.171-.656.407-1.375.407-.53 0-.953-.22-.422-.234-.687-.562v3.032h-1.047Zm.953-5.468q0 1.203.484 1.781.485.563 1.172.563.703 0 1.203-.594.5-.594.5-1.844 0-1.187-.484-1.765-.484-.594-1.172-.594-.672 0-1.187.625-.516.625-.516 1.828Zm10.11 2.312q-.594.5-1.141.703-.531.204-1.156.204-1.032 0-1.579-.5-.546-.5-.546-1.282 0-.453.203-.828.203-.39.546-.61.344-.234.766-.343.297-.094.938-.172 1.265-.14 1.875-.36v-.265q0-.656-.297-.922-.406-.343-1.203-.343-.735 0-1.094.265-.36.25-.531.906l-1.032-.14q.141-.656.47-1.063.327-.406.937-.625.609-.218 1.406-.218.797 0 1.297.187.5.188.734.469.235.281.328.719.047.265.047.968v1.407q0 1.468.063 1.859.078.39.28.75h-1.108q-.157-.328-.204-.766Zm-.094-2.359q-.579.234-1.72.406-.655.094-.921.219-.266.11-.422.328-.14.219-.14.5 0 .422.312.703.328.281.938.281.609 0 1.078-.265.484-.266.703-.735.172-.359.172-1.046v-.391Zm7.093.844 1.032.14q-.172 1.063-.875 1.672-.704.61-1.72.61-1.28 0-2.062-.829-.765-.843-.765-2.406 0-1 .328-1.75.344-.765 1.015-1.14.688-.375 1.5-.375 1 0 1.641.515.656.5.844 1.453l-1.031.157q-.141-.625-.516-.938-.375-.328-.906-.328-.797 0-1.297.578-.5.563-.5 1.797 0 1.266.484 1.828.485.563 1.25.563.625 0 1.031-.375.422-.375.547-1.172Zm6.188.281 1.094.125q-.25.953-.954 1.484-.703.532-1.78.532-1.36 0-2.173-.844-.796-.844-.796-2.36 0-1.562.812-2.421.813-.875 2.094-.875 1.25 0 2.031.843.797.844.797 2.391v.281h-4.64q.062 1.031.577 1.578.516.532 1.297.532.578 0 .985-.297.421-.313.656-.969Zm-3.453-1.703h3.469q-.063-.797-.391-1.188-.516-.609-1.313-.609-.734 0-1.234.484-.484.485-.531 1.313Z"/><path fill="#cdccfa" d="M394.5 622.9a6 6 0 1 1-12 0 6 6 0 0 1 12 0Z"/><path fill="#1a1a1a" d="m409.563 623.884 1.125.297q-.36 1.39-1.282 2.125-.922.735-2.265.735-1.391 0-2.266-.563-.875-.562-1.328-1.625-.453-1.078-.453-2.312 0-1.344.515-2.344.516-1 1.454-1.516.953-.515 2.093-.515 1.281 0 2.156.656.891.656 1.235 1.844l-1.125.265q-.297-.937-.875-1.36-.563-.437-1.422-.437-.984 0-1.656.485-.656.468-.938 1.265-.265.797-.265 1.657 0 1.093.312 1.906.328.812 1 1.219.672.406 1.469.406.953 0 1.61-.547.671-.547.906-1.64Zm2.343-.093q0-1.735.953-2.563.797-.687 1.954-.687 1.28 0 2.093.843.828.828.828 2.313 0 1.203-.359 1.89-.36.688-1.063 1.079-.687.375-1.5.375-1.296 0-2.109-.829-.797-.843-.797-2.421Zm1.078 0q0 1.187.516 1.78.531.595 1.313.595.796 0 1.312-.594t.516-1.813q0-1.156-.532-1.75-.515-.593-1.296-.593-.782 0-1.313.593-.516.578-.516 1.782Zm6.313 3.109v-6.219h.937v.875q.297-.469.782-.734.484-.281 1.109-.281.688 0 1.125.28.453.282.625.798.75-1.078 1.922-1.078.937 0 1.422.515.5.5.5 1.578v4.266h-1.047v-3.922q0-.625-.11-.906-.093-.281-.359-.453-.265-.172-.64-.172-.657 0-1.094.437-.422.438-.422 1.407v3.609h-1.063v-4.047q0-.703-.265-1.047-.25-.36-.828-.36-.454 0-.829.235-.375.235-.546.688-.172.453-.172 1.297v3.234h-1.047Zm11 0v-6.219h.937v.875q.297-.469.782-.734.484-.281 1.109-.281.688 0 1.125.28.453.282.625.798.75-1.078 1.922-1.078.937 0 1.422.515.5.5.5 1.578v4.266h-1.047v-3.922q0-.625-.11-.906-.093-.281-.359-.453-.265-.172-.64-.172-.657 0-1.094.437-.422.438-.422 1.407v3.609h-1.063v-4.047q0-.703-.265-1.047-.25-.36-.828-.36-.454 0-.829.235-.375.235-.546.688-.172.453-.172 1.297v3.234h-1.047Zm15.078 0v-.922q-.734 1.063-1.984 1.063-.547 0-1.032-.204-.468-.218-.703-.53-.234-.329-.328-.798-.062-.297-.062-.984v-3.844h1.062v3.453q0 .813.063 1.11.093.406.406.656.328.234.812.234.47 0 .875-.234.422-.25.594-.672.188-.422.188-1.219v-3.328h1.046v6.219h-.937Zm2.922 0v-6.219h.937v.875q.688-1.015 1.985-1.015.562 0 1.031.203.484.203.719.531.234.328.328.766.047.296.047 1.03v3.829h-1.047v-3.781q0-.657-.125-.969-.125-.313-.438-.5-.312-.203-.734-.203-.672 0-1.172.437-.484.422-.484 1.61v3.406h-1.047Zm7-7.375v-1.219h1.062v1.219h-1.062Zm0 7.375v-6.219h1.062v6.219h-1.062Zm5.297-.938.156.922q-.453.094-.797.094-.578 0-.89-.172-.313-.187-.454-.484-.125-.297-.125-1.25v-3.578h-.765v-.813h.765v-1.547l1.047-.625v2.172h1.063v.813h-1.063v3.64q0 .453.047.578.063.125.188.204.125.078.359.078.188 0 .469-.032Zm.656 3.329-.125-.985q.344.094.61.094.343 0 .546-.125.219-.11.36-.313.093-.171.328-.796.015-.079.094-.25l-2.375-6.235h1.14l1.297 3.594q.25.688.453 1.453.188-.734.438-1.422l1.328-3.625h1.047l-2.36 6.328q-.39 1.016-.594 1.407-.28.53-.656.765-.36.25-.86.25-.296 0-.671-.14Zm7.797-5.157 1.062-.093q.079.656.36 1.062.281.406.86.672.593.25 1.327.25.64 0 1.14-.188.5-.203.735-.53.25-.345.25-.735 0-.406-.234-.703-.235-.313-.766-.516-.36-.14-1.547-.422-1.171-.281-1.64-.531-.625-.328-.922-.797-.297-.484-.297-1.078 0-.64.36-1.203.374-.578 1.077-.86.72-.296 1.579-.296.953 0 1.687.312.735.297 1.125.906.39.594.422 1.344l-1.094.078q-.094-.812-.61-1.219-.5-.421-1.483-.421-1.032 0-1.5.375-.47.375-.47.906 0 .469.329.765.328.297 1.703.61 1.39.312 1.906.547.75.36 1.11.89.359.516.359 1.22 0 .687-.39 1.296-.391.594-1.126.938-.734.328-1.656.328-1.172 0-1.969-.329-.78-.343-1.234-1.03-.438-.688-.453-1.548Zm8.25 5.157v-8.61h.953v.797q.344-.469.766-.703.437-.234 1.046-.234.797 0 1.407.406t.906 1.156q.313.75.313 1.64 0 .954-.344 1.72-.328.765-.985 1.171-.656.407-1.375.407-.53 0-.953-.22-.422-.234-.687-.562v3.032h-1.047Zm.953-5.47q0 1.204.484 1.782.485.563 1.172.563.703 0 1.203-.594.5-.594.5-1.844 0-1.187-.484-1.765-.484-.594-1.172-.594-.672 0-1.187.625-.516.625-.516 1.828Zm5.656-.03q0-1.735.953-2.563.797-.687 1.954-.687 1.28 0 2.093.843.828.828.828 2.313 0 1.203-.359 1.89-.36.688-1.063 1.079-.687.375-1.5.375-1.296 0-2.109-.829-.797-.843-.797-2.421Zm1.078 0q0 1.187.516 1.78.531.595 1.313.595.796 0 1.312-.594t.516-1.813q0-1.156-.532-1.75-.515-.593-1.296-.593-.782 0-1.313.593-.516.578-.516 1.782Zm6.313 3.109v-6.219h.937v.875q.688-1.015 1.985-1.015.562 0 1.031.203.484.203.719.531.234.328.328.766.047.296.047 1.03v3.829h-1.047v-3.781q0-.657-.125-.969-.125-.313-.438-.5-.312-.203-.734-.203-.672 0-1.172.437-.484.422-.484 1.61v3.406h-1.047Zm6.578-1.86 1.031-.156q.094.625.485.953.406.329 1.14.329.719 0 1.063-.282.36-.297.36-.703 0-.36-.313-.562-.22-.14-1.079-.36-1.156-.297-1.609-.5-.437-.218-.672-.593-.234-.375-.234-.844 0-.406.187-.766.188-.36.516-.594.25-.171.672-.296.422-.125.922-.125.719 0 1.265.218.563.203.829.563.265.36.359.953l-1.031.14q-.063-.468-.407-.734-.328-.281-.953-.281-.719 0-1.031.25-.313.234-.313.563 0 .203.125.359.141.172.407.281.156.063.937.266 1.125.312 1.563.5.437.187.687.547.25.359.25.906 0 .531-.312 1-.297.453-.875.719-.578.25-1.313.25-1.219 0-1.86-.5-.624-.516-.796-1.5Zm7.031-1.25q0-1.734.953-2.562.797-.687 1.954-.687 1.28 0 2.093.843.828.828.828 2.313 0 1.203-.359 1.89-.36.688-1.063 1.079-.687.375-1.5.375-1.296 0-2.109-.829-.797-.843-.797-2.421Zm1.078 0q0 1.188.516 1.782.531.594 1.313.594.796 0 1.312-.594t.516-1.813q0-1.156-.532-1.75-.515-.593-1.296-.593-.782 0-1.313.593-.516.578-.516 1.782Zm6.297 3.11v-6.219h.953v.938q.36-.657.657-.86.312-.218.687-.218.531 0 1.078.328l-.36.984q-.39-.234-.765-.234-.36 0-.64.218-.266.204-.375.579-.188.562-.188 1.218v3.266h-1.047Zm3.594-1.86 1.031-.156q.094.625.485.953.406.329 1.14.329.719 0 1.063-.282.36-.297.36-.703 0-.36-.313-.562-.22-.14-1.078-.36-1.157-.297-1.61-.5-.437-.218-.672-.593-.234-.375-.234-.844 0-.406.187-.766.188-.36.516-.594.25-.171.672-.296.422-.125.922-.125.718 0 1.265.218.563.203.828.563.266.36.36.953l-1.031.14q-.063-.468-.407-.734-.328-.281-.953-.281-.718 0-1.031.25-.313.234-.313.563 0 .203.125.359.141.172.407.281.156.063.937.266 1.125.312 1.563.5.437.187.687.547.25.359.25.906 0 .531-.312 1-.297.453-.875.719-.578.25-1.313.25-1.218 0-1.86-.5-.624-.516-.796-1.5Zm7.422 1.86v-8.594h1.047v3.078q.734-.843 1.86-.843.702 0 1.202.28.516.266.735.75.218.47.218 1.391v3.938h-1.047v-3.938q0-.796-.343-1.156-.344-.36-.969-.36-.469 0-.89.25-.407.235-.594.657-.172.406-.172 1.14v3.407h-1.047Zm7-7.375v-1.219h1.062v1.219h-1.062Zm0 7.375v-6.219h1.062v6.219h-1.062Zm3 2.39v-8.609h.953v.797q.344-.469.766-.703.437-.234 1.047-.234.796 0 1.406.406.61.406.906 1.156.313.75.313 1.64 0 .954-.344 1.72-.328.765-.985 1.171-.656.407-1.375.407-.53 0-.953-.22-.422-.234-.687-.562v3.032h-1.047Zm.953-5.468q0 1.203.484 1.781.485.563 1.172.563.703 0 1.203-.594.5-.594.5-1.844 0-1.187-.484-1.765-.484-.594-1.172-.594-.672 0-1.187.625-.516.625-.516 1.828Zm5.625 1.219 1.031-.157q.094.625.485.953.406.329 1.14.329.719 0 1.063-.282.36-.297.36-.703 0-.36-.313-.562-.22-.14-1.078-.36-1.157-.297-1.61-.5-.437-.218-.672-.593-.234-.375-.234-.844 0-.406.187-.766.188-.36.516-.594.25-.171.672-.296.422-.125.922-.125.718 0 1.265.218.563.203.828.563.266.36.36.953l-1.031.14q-.063-.468-.407-.734-.328-.281-.953-.281-.718 0-1.031.25-.313.234-.313.563 0 .203.125.359.141.172.407.281.156.063.937.266 1.125.312 1.563.5.437.187.687.547.25.359.25.906 0 .531-.312 1-.297.453-.875.719-.578.25-1.313.25-1.218 0-1.86-.5-.624-.516-.796-1.5Z"/><path fill="#4b32c3" d="M258.5 640.9a6 6 0 1 1-12 0 6 6 0 0 1 12 0Z"/><path fill="#1a1a1a" d="m273.563 641.884 1.125.297q-.36 1.39-1.282 2.125-.922.735-2.265.735-1.391 0-2.266-.563-.875-.562-1.328-1.625-.453-1.078-.453-2.312 0-1.344.515-2.344.516-1 1.454-1.516.953-.515 2.093-.515 1.281 0 2.156.656.891.656 1.235 1.844l-1.125.265q-.297-.937-.875-1.36-.563-.437-1.422-.437-.984 0-1.656.485-.656.468-.938 1.265-.265.797-.265 1.657 0 1.093.312 1.906.328.812 1 1.219.672.406 1.469.406.953 0 1.61-.547.671-.547.906-1.64Zm2.343-.093q0-1.735.953-2.563.797-.687 1.954-.687 1.28 0 2.093.843.828.828.828 2.313 0 1.203-.359 1.89-.36.688-1.063 1.079-.687.375-1.5.375-1.296 0-2.109-.829-.797-.843-.797-2.421Zm1.078 0q0 1.187.516 1.78.531.595 1.313.595.796 0 1.312-.594t.516-1.813q0-1.156-.532-1.75-.515-.593-1.296-.593-.782 0-1.313.593-.516.578-.516 1.782Zm6.313 3.109v-6.219h.937v.875q.688-1.015 1.985-1.015.562 0 1.031.203.484.203.719.531.234.328.328.766.047.296.047 1.03v3.829h-1.047v-3.781q0-.657-.125-.969-.125-.313-.438-.5-.312-.203-.734-.203-.672 0-1.172.437-.484.422-.484 1.61v3.406h-1.047Zm9.297-.938.156.922q-.453.094-.797.094-.578 0-.89-.172-.313-.187-.454-.484-.125-.297-.125-1.25v-3.578h-.765v-.813h.765v-1.547l1.047-.625v2.172h1.063v.813h-1.063v3.64q0 .453.047.578.063.125.188.204.125.078.359.078.188 0 .469-.032Zm.687.938v-6.219h.953v.938q.36-.657.657-.86.312-.218.687-.218.531 0 1.078.328l-.36.984q-.39-.234-.765-.234-.36 0-.64.218-.266.204-.375.579-.188.562-.188 1.218v3.266h-1.047Zm4.016-7.375v-1.219h1.062v1.219h-1.062Zm0 7.375v-6.219h1.062v6.219h-1.062Zm3.969 0h-.985v-8.594h1.063v3.063q.672-.828 1.703-.828.578 0 1.078.234.516.219.844.64.344.423.531 1.016.188.594.188 1.266 0 1.594-.797 2.469-.797.875-1.891.875-1.11 0-1.734-.922v.781Zm-.016-3.156q0 1.11.313 1.61.5.812 1.343.812.688 0 1.188-.594.515-.594.515-1.797 0-1.219-.484-1.797-.484-.578-1.172-.578-.687 0-1.203.61-.5.593-.5 1.734Zm10.125 3.156v-.922q-.734 1.063-1.984 1.063-.547 0-1.032-.204-.468-.218-.703-.53-.234-.329-.328-.798-.062-.297-.062-.984v-3.844h1.062v3.453q0 .813.063 1.11.093.406.406.656.328.234.812.234.47 0 .875-.234.422-.25.594-.672.188-.422.188-1.219v-3.328h1.046v6.219h-.937Zm5.219-.938.156.922q-.453.094-.797.094-.578 0-.89-.172-.313-.187-.454-.484-.125-.297-.125-1.25v-3.578h-.765v-.813h.765v-1.547l1.047-.625v2.172h1.063v.813h-1.063v3.64q0 .453.047.578.063.125.188.204.125.078.359.078.188 0 .469-.032Zm.312-2.171q0-1.735.953-2.563.797-.687 1.954-.687 1.28 0 2.093.843.828.828.828 2.313 0 1.203-.359 1.89-.36.688-1.063 1.079-.687.375-1.5.375-1.296 0-2.109-.829-.797-.843-.797-2.421Zm1.078 0q0 1.187.516 1.78.531.595 1.313.595.796 0 1.312-.594t.516-1.813q0-1.156-.532-1.75-.515-.593-1.296-.593-.782 0-1.313.593-.516.578-.516 1.782Zm6.297 3.109v-6.219h.953v.938q.36-.657.657-.86.312-.218.687-.218.531 0 1.078.328l-.36.984q-.39-.234-.765-.234-.36 0-.64.218-.266.204-.375.579-.188.562-.188 1.218v3.266h-1.047Zm7.14 0v-8.594h3.25q.845 0 1.298.078.64.11 1.062.407.438.296.688.828.265.531.265 1.172 0 1.093-.703 1.859-.687.75-2.515.75h-2.204v3.5h-1.14Zm1.142-4.5h2.218q1.11 0 1.563-.406.469-.422.469-1.172 0-.531-.282-.906-.265-.391-.703-.516-.297-.078-1.062-.078h-2.204v3.078Zm6.343 1.39q0-1.734.953-2.562.797-.687 1.954-.687 1.28 0 2.093.843.828.828.828 2.313 0 1.203-.359 1.89-.36.688-1.063 1.079-.687.375-1.5.375-1.296 0-2.109-.829-.797-.843-.797-2.421Zm1.078 0q0 1.188.516 1.782.531.594 1.313.594.796 0 1.312-.594t.516-1.813q0-1.156-.532-1.75-.515-.593-1.296-.593-.782 0-1.313.593-.516.578-.516 1.782Zm5.922 0q0-1.734.953-2.562.797-.687 1.954-.687 1.28 0 2.093.843.828.828.828 2.313 0 1.203-.359 1.89-.36.688-1.063 1.079-.687.375-1.5.375-1.296 0-2.109-.829-.797-.843-.797-2.421Zm1.078 0q0 1.188.516 1.782.531.594 1.313.594.796 0 1.312-.594t.516-1.813q0-1.156-.532-1.75-.515-.593-1.296-.593-.782 0-1.313.593-.516.578-.516 1.782Zm6.282 3.11v-8.594h1.062v8.594h-1.062Z"/></svg>