<svg version="1.1" viewBox="0.0 0.0 602.0 678.0" fill="none" stroke="none" stroke-linecap="square" stroke-miterlimit="10" width="602" height="678" xmlns:xlink="http://www.w3.org/1999/xlink" xmlns="http://www.w3.org/2000/svg"><path fill="#ffffff" d="M0 0L602.0 0L602.0 678.0L0 678.0L0 0Z" fill-rule="nonzero"/><path fill="#4b32c3" d="M208.68124 49.282433C238.27818 38.554043 269.51862 33.066666 301.0 33.066666L301.0 168.51666C285.2593 168.51666 269.6391 171.26036 254.84062 176.62456Z" fill-rule="nonzero"/><path fill="#cdccfa" d="M146.12872 81.70174C165.47943 68.21842 186.50807 57.31984 208.68124 49.282433L254.84062 176.62456C243.75404 180.64325 233.23972 186.09254 223.56436 192.8342Z" fill-rule="nonzero"/><path fill="#6358d4" d="M144.7405 82.67551C145.20222 82.34947 145.66496 82.02488 146.12872 81.70174L223.56436 192.8342C223.33249 192.99577 223.1011 193.15807 222.87025 193.32109Z" fill-rule="nonzero"/><path fill="#dfdefe" d="M55.253887 189.96817C75.18863 146.99492 106.04365 110.00037 144.7405 82.67551L222.87025 193.32109C203.52182 206.98352 188.09431 225.48079 178.12694 246.96742Z" fill-rule="nonzero"/><path fill="#b7b6ff" d="M39.286045 373.9139C22.904425 312.62057 28.555473 247.52184 55.253887 189.96817L178.12694 246.96742C164.77774 275.74426 161.95221 308.2936 170.14302 338.94028Z" fill-rule="nonzero"/><path fill="#a0a0f5" d="M248.023 569.6361C146.85312 549.46185 65.92273 473.57748 39.286045 373.9139L170.14302 338.94028C183.46136 388.77206 223.92656 426.71426 274.5115 436.8014Z" fill-rule="nonzero"/><path fill="#8080f2" d="M301.0 33.066666C404.16174 33.066666 498.36942 91.65917 543.98193 184.18939C589.5944 276.7196 578.6938 387.12497 515.8668 468.94864C453.0399 550.77234 349.19287 589.8103 248.023 569.6361L274.5115 436.8014C325.09644 446.8885 377.01993 427.3695 408.4334 386.45764C439.8469 345.5458 445.2972 290.34314 422.49097 244.07803C399.6847 197.81293 352.58087 168.51666 301.0 168.51666Z" fill-rule="nonzero"/><path fill="#8080f2" d="M131.5 604.9C131.5 608.2137 128.8137 610.9 125.5 610.9C122.186295 610.9 119.5 608.2137 119.5 604.9C119.5 601.5863 122.186295 598.9 125.5 598.9C128.8137 598.9 131.5 601.5863 131.5 604.9Z" fill-rule="nonzero"/><path fill="#1a1a1a" d="M142.60938 608.9L142.60938 601.3219L139.78125 601.3219L139.78125 600.3063L146.59375 600.3063L146.59375 601.3219L143.75 601.3219L143.75 608.9L142.60938 608.9ZM147.04688 606.1344L148.10938 606.04065Q148.1875 606.6969 148.46875 607.10315Q148.75 607.5094 149.32812 607.775Q149.92188 608.025 150.65625 608.025Q151.29688 608.025 151.79688 607.8375Q152.29688 607.6344 152.53125 607.3063Q152.78125 606.9625 152.78125 606.5719Q152.78125 606.16565 152.54688 605.8688Q152.3125 605.5563 151.78125 605.35315Q151.42188 605.2125 150.23438 604.9313Q149.0625 604.65 148.59375 604.4Q147.96875 604.0719 147.67188 603.60315Q147.375 603.1188 147.375 602.525Q147.375 601.8844 147.73438 601.3219Q148.10938 600.7438 148.8125 600.4625Q149.53125 600.16565 150.39062 600.16565Q151.34375 600.16565 152.07812 600.47815Q152.8125 600.775 153.20312 601.3844Q153.59375 601.97815 153.625 602.72815L152.53125 602.8063Q152.4375 601.9938 151.92188 601.5875Q151.42188 601.16565 150.4375 601.16565Q149.40625 601.16565 148.9375 601.54065Q148.46875 601.91565 148.46875 602.4469Q148.46875 602.91565 148.79688 603.2125Q149.125 603.5094 150.5 603.8219Q151.89062 604.1344 152.40625 604.3688Q153.15625 604.72815 153.51562 605.2594Q153.875 605.775 153.875 606.47815Q153.875 607.16565 153.48438 607.775Q153.09375 608.3688 152.35938 608.7125Q151.625 609.04065 150.70312 609.04065Q149.53125 609.04065 148.73438 608.7125Q147.95312 608.3688 147.5 607.6813Q147.0625 606.9938 147.04688 606.1344ZM161.5625 605.8844L162.6875 606.1813Q162.32812 607.5719 161.40625 608.3063Q160.48438 609.04065 159.14062 609.04065Q157.75 609.04065 156.875 608.47815Q156.0 607.91565 155.54688 606.85315Q155.09375 605.775 155.09375 604.54065Q155.09375 603.1969 155.60938 602.1969Q156.125 601.1969 157.0625 600.6813Q158.01562 600.16565 159.15625 600.16565Q160.4375 600.16565 161.3125 600.8219Q162.20312 601.47815 162.54688 602.66565L161.42188 602.9313Q161.125 601.9938 160.54688 601.5719Q159.98438 601.1344 159.125 601.1344Q158.14062 601.1344 157.46875 601.6188Q156.8125 602.0875 156.53125 602.8844Q156.26562 603.6813 156.26562 604.54065Q156.26562 605.6344 156.57812 606.4469Q156.90625 607.2594 157.57812 607.66565Q158.25 608.0719 159.04688 608.0719Q160.0 608.0719 160.65625 607.525Q161.32812 606.97815 161.5625 605.8844ZM167.39062 608.9L167.39062 600.3063L169.10938 600.3063L171.14062 606.3844Q171.42188 607.2438 171.54688 607.66565Q171.6875 607.1969 172.0 606.29065L174.0625 600.3063L175.59375 600.3063L175.59375 608.9L174.5 608.9L174.5 601.7125L172.0 608.9L170.96875 608.9L168.48438 601.5875L168.48438 608.9L167.39062 608.9ZM180.54688 606.9L181.64062 607.025Q181.39062 607.97815 180.6875 608.5094Q179.98438 609.04065 178.90625 609.04065Q177.54688 609.04065 176.73438 608.1969Q175.9375 607.35315 175.9375 605.8375Q175.9375 604.275 176.75 603.41565Q177.5625 602.54065 178.84375 602.54065Q180.09375 602.54065 180.875 603.3844Q181.67188 604.22815 181.67188 605.775Q181.67188 605.8688 181.67188 606.0563L177.03125 606.0563Q177.09375 607.0875 177.60938 607.6344Q178.125 608.16565 178.90625 608.16565Q179.48438 608.16565 179.89062 607.8688Q180.3125 607.5563 180.54688 606.9ZM177.09375 605.1969L180.5625 605.1969Q180.5 604.4 180.17188 604.0094Q179.65625 603.4 178.85938 603.4Q178.125 603.4 177.625 603.8844Q177.14062 604.3688 177.09375 605.1969ZM183.29688 608.9L183.29688 602.6813L184.23438 602.6813L184.23438 603.5563Q184.53125 603.0875 185.01562 602.8219Q185.5 602.54065 186.125 602.54065Q186.8125 602.54065 187.25 602.8219Q187.70312 603.10315 187.875 603.6188Q188.625 602.54065 189.79688 602.54065Q190.73438 602.54065 191.21875 603.0563Q191.71875 603.5563 191.71875 604.6344L191.71875 608.9L190.67188 608.9L190.67188 604.97815Q190.67188 604.35315 190.5625 604.0719Q190.46875 603.79065 190.20312 603.6188Q189.9375 603.4469 189.5625 603.4469Q188.90625 603.4469 188.46875 603.8844Q188.04688 604.3219 188.04688 605.29065L188.04688 608.9L186.98438 608.9L186.98438 604.85315Q186.98438 604.15 186.71875 603.8063Q186.46875 603.4469 185.89062 603.4469Q185.4375 603.4469 185.0625 603.6813Q184.6875 603.91565 184.51562 604.3688Q184.34375 604.8219 184.34375 605.66565L184.34375 608.9L183.29688 608.9ZM195.26562 608.9L194.28125 608.9L194.28125 600.3063L195.34375 600.3063L195.34375 603.3688Q196.01562 602.54065 197.04688 602.54065Q197.625 602.54065 198.125 602.775Q198.64062 602.9938 198.96875 603.41565Q199.3125 603.8375 199.5 604.4313Q199.6875 605.025 199.6875 605.6969Q199.6875 607.29065 198.89062 608.16565Q198.09375 609.04065 197.0 609.04065Q195.89062 609.04065 195.26562 608.1188L195.26562 608.9ZM195.25 605.7438Q195.25 606.85315 195.5625 607.35315Q196.0625 608.16565 196.90625 608.16565Q197.59375 608.16565 198.09375 607.5719Q198.60938 606.97815 198.60938 605.775Q198.60938 604.5563 198.125 603.97815Q197.64062 603.4 196.95312 603.4Q196.26562 603.4 195.75 604.0094Q195.25 604.60315 195.25 605.7438ZM205.54688 606.9L206.64062 607.025Q206.39062 607.97815 205.6875 608.5094Q204.98438 609.04065 203.90625 609.04065Q202.54688 609.04065 201.73438 608.1969Q200.9375 607.35315 200.9375 605.8375Q200.9375 604.275 201.75 603.41565Q202.5625 602.54065 203.84375 602.54065Q205.09375 602.54065 205.875 603.3844Q206.67188 604.22815 206.67188 605.775Q206.67188 605.8688 206.67188 606.0563L202.03125 606.0563Q202.09375 607.0875 202.60938 607.6344Q203.125 608.16565 203.90625 608.16565Q204.48438 608.16565 204.89062 607.8688Q205.3125 607.5563 205.54688 606.9ZM202.09375 605.1969L205.5625 605.1969Q205.5 604.4 205.17188 604.0094Q204.65625 603.4 203.85938 603.4Q203.125 603.4 202.625 603.8844Q202.14062 604.3688 202.09375 605.1969ZM208.28125 608.9L208.28125 602.6813L209.23438 602.6813L209.23438 603.6188Q209.59375 602.9625 209.89062 602.7594Q210.20312 602.54065 210.57812 602.54065Q211.10938 602.54065 211.65625 602.8688L211.29688 603.85315Q210.90625 603.6188 210.53125 603.6188Q210.17188 603.6188 209.89062 603.8375Q209.625 604.04065 209.51562 604.41565Q209.32812 604.97815 209.32812 605.6344L209.32812 608.9L208.28125 608.9ZM211.875 607.04065L212.90625 606.8844Q213.0 607.5094 213.39062 607.8375Q213.79688 608.16565 214.53125 608.16565Q215.25 608.16565 215.59375 607.8844Q215.95312 607.5875 215.95312 607.1813Q215.95312 606.8219 215.64062 606.6188Q215.42188 606.47815 214.5625 606.2594Q213.40625 605.9625 212.95312 605.7594Q212.51562 605.54065 212.28125 605.16565Q212.04688 604.79065 212.04688 604.3219Q212.04688 603.91565 212.23438 603.5563Q212.42188 603.1969 212.75 602.9625Q213.0 602.79065 213.42188 602.66565Q213.84375 602.54065 214.34375 602.54065Q215.0625 602.54065 215.60938 602.7594Q216.17188 602.9625 216.4375 603.3219Q216.70312 603.6813 216.79688 604.275L215.76562 604.41565Q215.70312 603.9469 215.35938 603.6813Q215.03125 603.4 214.40625 603.4Q213.6875 603.4 213.375 603.65Q213.0625 603.8844 213.0625 604.2125Q213.0625 604.41565 213.1875 604.5719Q213.32812 604.7438 213.59375 604.85315Q213.75 604.91565 214.53125 605.1188Q215.65625 605.4313 216.09375 605.6188Q216.53125 605.8063 216.78125 606.16565Q217.03125 606.525 217.03125 607.0719Q217.03125 607.60315 216.71875 608.0719Q216.42188 608.525 215.84375 608.79065Q215.26562 609.04065 214.53125 609.04065Q213.3125 609.04065 212.67188 608.54065Q212.04688 608.025 211.875 607.04065ZM222.42188 608.9L222.42188 600.3063L225.67188 600.3063Q226.51562 600.3063 226.96875 600.3844Q227.60938 600.4938 228.03125 600.79065Q228.46875 601.0875 228.71875 601.6188Q228.98438 602.15 228.98438 602.79065Q228.98438 603.8844 228.28125 604.65Q227.59375 605.4 225.76562 605.4L223.5625 605.4L223.5625 608.9L222.42188 608.9ZM223.5625 604.4L225.78125 604.4Q226.89062 604.4 227.34375 603.9938Q227.8125 603.5719 227.8125 602.8219Q227.8125 602.29065 227.53125 601.91565Q227.26562 601.525 226.82812 601.4Q226.53125 601.3219 225.76562 601.3219L223.5625 601.3219L223.5625 604.4ZM234.35938 608.1344Q233.76562 608.6344 233.21875 608.8375Q232.6875 609.04065 232.0625 609.04065Q231.03125 609.04065 230.48438 608.54065Q229.9375 608.04065 229.9375 607.2594Q229.9375 606.8063 230.14062 606.4313Q230.34375 606.04065 230.6875 605.8219Q231.03125 605.5875 231.45312 605.47815Q231.75 605.3844 232.39062 605.3063Q233.65625 605.16565 234.26562 604.9469Q234.26562 604.72815 234.26562 604.6813Q234.26562 604.025 233.96875 603.7594Q233.5625 603.41565 232.76562 603.41565Q232.03125 603.41565 231.67188 603.6813Q231.3125 603.9313 231.14062 604.5875L230.10938 604.4469Q230.25 603.79065 230.57812 603.3844Q230.90625 602.97815 231.51562 602.7594Q232.125 602.54065 232.92188 602.54065Q233.71875 602.54065 234.21875 602.72815Q234.71875 602.91565 234.95312 603.1969Q235.1875 603.47815 235.28125 603.91565Q235.32812 604.1813 235.32812 604.8844L235.32812 606.29065Q235.32812 607.7594 235.39062 608.15Q235.46875 608.54065 235.67188 608.9L234.5625 608.9Q234.40625 608.5719 234.35938 608.1344ZM234.26562 605.775Q233.6875 606.0094 232.54688 606.1813Q231.89062 606.275 231.625 606.4Q231.35938 606.5094 231.20312 606.72815Q231.0625 606.9469 231.0625 607.22815Q231.0625 607.65 231.375 607.9313Q231.70312 608.2125 232.3125 608.2125Q232.92188 608.2125 233.39062 607.9469Q233.875 607.6813 234.09375 607.2125Q234.26562 606.85315 234.26562 606.16565L234.26562 605.775ZM237.25 611.29065L237.125 610.3063Q237.46875 610.4 237.73438 610.4Q238.07812 610.4 238.28125 610.275Q238.5 610.16565 238.64062 609.9625Q238.73438 609.79065 238.96875 609.16565Q238.98438 609.0875 239.0625 608.91565L236.6875 602.6813L237.82812 602.6813L239.125 606.275Q239.375 606.9625 239.57812 607.72815Q239.76562 606.9938 240.01562 606.3063L241.34375 602.6813L242.39062 602.6813L240.03125 609.0094Q239.64062 610.025 239.4375 610.41565Q239.15625 610.9469 238.78125 611.1813Q238.42188 611.4313 237.92188 611.4313Q237.625 611.4313 237.25 611.29065Z" fill-rule="nonzero"/><path fill="#a0a0f5" d="M269.5 604.9C269.5 608.2137 266.81372 610.9 263.5 610.9C260.18628 610.9 257.5 608.2137 257.5 604.9C257.5 601.5863 260.18628 598.9 263.5 598.9C266.81372 598.9 269.5 601.5863 269.5 604.9Z" fill-rule="nonzero"/><path fill="#1a1a1a" d="M278.4375 608.9L278.4375 600.3063L282.25 600.3063Q283.40625 600.3063 284.0 600.54065Q284.59375 600.775 284.95312 601.3688Q285.3125 601.9469 285.3125 602.65Q285.3125 603.5719 284.71875 604.1969Q284.125 604.8219 282.89062 604.9938Q283.34375 605.2125 283.57812 605.41565Q284.07812 605.8688 284.51562 606.5563L286.01562 608.9L284.57812 608.9L283.45312 607.1188Q282.95312 606.3375 282.625 605.9313Q282.3125 605.525 282.04688 605.3688Q281.79688 605.1969 281.53125 605.1188Q281.34375 605.0875 280.90625 605.0875L279.57812 605.0875L279.57812 608.9L278.4375 608.9ZM279.57812 604.10315L282.03125 604.10315Q282.79688 604.10315 283.23438 603.9469Q283.6875 603.775 283.90625 603.4313Q284.14062 603.0719 284.14062 602.65Q284.14062 602.04065 283.6875 601.65Q283.25 601.2594 282.29688 601.2594L279.57812 601.2594L279.57812 604.10315ZM291.54688 606.9L292.64062 607.025Q292.39062 607.97815 291.6875 608.5094Q290.98438 609.04065 289.90625 609.04065Q288.54688 609.04065 287.73438 608.1969Q286.9375 607.35315 286.9375 605.8375Q286.9375 604.275 287.75 603.41565Q288.5625 602.54065 289.84375 602.54065Q291.09375 602.54065 291.875 603.3844Q292.67188 604.22815 292.67188 605.775Q292.67188 605.8688 292.67188 606.0563L288.03125 606.0563Q288.09375 607.0875 288.60938 607.6344Q289.125 608.16565 289.90625 608.16565Q290.48438 608.16565 290.89062 607.8688Q291.3125 607.5563 291.54688 606.9ZM288.09375 605.1969L291.5625 605.1969Q291.5 604.4 291.17188 604.0094Q290.65625 603.4 289.85938 603.4Q289.125 603.4 288.625 603.8844Q288.14062 604.3688 288.09375 605.1969ZM296.01562 608.9L293.65625 602.6813L294.76562 602.6813L296.10938 606.4Q296.3125 607.0094 296.5 607.65Q296.64062 607.16565 296.89062 606.47815L298.28125 602.6813L299.35938 602.6813L297.0 608.9L296.01562 608.9ZM299.29688 601.525L299.29688 600.3063L300.35938 600.3063L300.35938 601.525L299.29688 601.525ZM299.29688 608.9L299.29688 602.6813L300.35938 602.6813L300.35938 608.9L299.29688 608.9ZM306.54688 606.9L307.64062 607.025Q307.39062 607.97815 306.6875 608.5094Q305.98438 609.04065 304.90625 609.04065Q303.54688 609.04065 302.73438 608.1969Q301.9375 607.35315 301.9375 605.8375Q301.9375 604.275 302.75 603.41565Q303.5625 602.54065 304.84375 602.54065Q306.09375 602.54065 306.875 603.3844Q307.67188 604.22815 307.67188 605.775Q307.67188 605.8688 307.67188 606.0563L303.03125 606.0563Q303.09375 607.0875 303.60938 607.6344Q304.125 608.16565 304.90625 608.16565Q305.48438 608.16565 305.89062 607.8688Q306.3125 607.5563 306.54688 606.9ZM303.09375 605.1969L306.5625 605.1969Q306.5 604.4 306.17188 604.0094Q305.65625 603.4 304.85938 603.4Q304.125 603.4 303.625 603.8844Q303.14062 604.3688 303.09375 605.1969ZM310.4375 608.9L308.53125 602.6813L309.625 602.6813L310.60938 606.275L310.98438 607.60315Q311.01562 607.5094 311.3125 606.3219L312.29688 602.6813L313.375 602.6813L314.3125 606.29065L314.625 607.47815L314.98438 606.275L316.04688 602.6813L317.07812 602.6813L315.125 608.9L314.03125 608.9L313.04688 605.16565L312.79688 604.1188L311.54688 608.9L310.4375 608.9ZM322.54688 606.9L323.64062 607.025Q323.39062 607.97815 322.6875 608.5094Q321.98438 609.04065 320.90625 609.04065Q319.54688 609.04065 318.73438 608.1969Q317.9375 607.35315 317.9375 605.8375Q317.9375 604.275 318.75 603.41565Q319.5625 602.54065 320.84375 602.54065Q322.09375 602.54065 322.875 603.3844Q323.67188 604.22815 323.67188 605.775Q323.67188 605.8688 323.67188 606.0563L319.03125 606.0563Q319.09375 607.0875 319.60938 607.6344Q320.125 608.16565 320.90625 608.16565Q321.48438 608.16565 321.89062 607.8688Q322.3125 607.5563 322.54688 606.9ZM319.09375 605.1969L322.5625 605.1969Q322.5 604.4 322.17188 604.0094Q321.65625 603.4 320.85938 603.4Q320.125 603.4 319.625 603.8844Q319.14062 604.3688 319.09375 605.1969ZM325.28125 608.9L325.28125 602.6813L326.23438 602.6813L326.23438 603.6188Q326.59375 602.9625 326.89062 602.7594Q327.20312 602.54065 327.57812 602.54065Q328.10938 602.54065 328.65625 602.8688L328.29688 603.85315Q327.90625 603.6188 327.53125 603.6188Q327.17188 603.6188 326.89062 603.8375Q326.625 604.04065 326.51562 604.41565Q326.32812 604.97815 326.32812 605.6344L326.32812 608.9L325.28125 608.9ZM328.875 607.04065L329.90625 606.8844Q330.0 607.5094 330.39062 607.8375Q330.79688 608.16565 331.53125 608.16565Q332.25 608.16565 332.59375 607.8844Q332.95312 607.5875 332.95312 607.1813Q332.95312 606.8219 332.64062 606.6188Q332.42188 606.47815 331.5625 606.2594Q330.40625 605.9625 329.95312 605.7594Q329.51562 605.54065 329.28125 605.16565Q329.04688 604.79065 329.04688 604.3219Q329.04688 603.91565 329.23438 603.5563Q329.42188 603.1969 329.75 602.9625Q330.0 602.79065 330.42188 602.66565Q330.84375 602.54065 331.34375 602.54065Q332.0625 602.54065 332.60938 602.7594Q333.17188 602.9625 333.4375 603.3219Q333.70312 603.6813 333.79688 604.275L332.76562 604.41565Q332.70312 603.9469 332.35938 603.6813Q332.03125 603.4 331.40625 603.4Q330.6875 603.4 330.375 603.65Q330.0625 603.8844 330.0625 604.2125Q330.0625 604.41565 330.1875 604.5719Q330.32812 604.7438 330.59375 604.85315Q330.75 604.91565 331.53125 605.1188Q332.65625 605.4313 333.09375 605.6188Q333.53125 605.8063 333.78125 606.16565Q334.03125 606.525 334.03125 607.0719Q334.03125 607.60315 333.71875 608.0719Q333.42188 608.525 332.84375 608.79065Q332.26562 609.04065 331.53125 609.04065Q330.3125 609.04065 329.67188 608.54065Q329.04688 608.025 328.875 607.04065ZM339.42188 608.9L339.42188 600.3063L342.67188 600.3063Q343.51562 600.3063 343.96875 600.3844Q344.60938 600.4938 345.03125 600.79065Q345.46875 601.0875 345.71875 601.6188Q345.98438 602.15 345.98438 602.79065Q345.98438 603.8844 345.28125 604.65Q344.59375 605.4 342.76562 605.4L340.5625 605.4L340.5625 608.9L339.42188 608.9ZM340.5625 604.4L342.78125 604.4Q343.89062 604.4 344.34375 603.9938Q344.8125 603.5719 344.8125 602.8219Q344.8125 602.29065 344.53125 601.91565Q344.26562 601.525 343.82812 601.4Q343.53125 601.3219 342.76562 601.3219L340.5625 601.3219L340.5625 604.4ZM351.35938 608.1344Q350.76562 608.6344 350.21875 608.8375Q349.6875 609.04065 349.0625 609.04065Q348.03125 609.04065 347.48438 608.54065Q346.9375 608.04065 346.9375 607.2594Q346.9375 606.8063 347.14062 606.4313Q347.34375 606.04065 347.6875 605.8219Q348.03125 605.5875 348.45312 605.47815Q348.75 605.3844 349.39062 605.3063Q350.65625 605.16565 351.26562 604.9469Q351.26562 604.72815 351.26562 604.6813Q351.26562 604.025 350.96875 603.7594Q350.5625 603.41565 349.76562 603.41565Q349.03125 603.41565 348.67188 603.6813Q348.3125 603.9313 348.14062 604.5875L347.10938 604.4469Q347.25 603.79065 347.57812 603.3844Q347.90625 602.97815 348.51562 602.7594Q349.125 602.54065 349.92188 602.54065Q350.71875 602.54065 351.21875 602.72815Q351.71875 602.91565 351.95312 603.1969Q352.1875 603.47815 352.28125 603.91565Q352.32812 604.1813 352.32812 604.8844L352.32812 606.29065Q352.32812 607.7594 352.39062 608.15Q352.46875 608.54065 352.67188 608.9L351.5625 608.9Q351.40625 608.5719 351.35938 608.1344ZM351.26562 605.775Q350.6875 606.0094 349.54688 606.1813Q348.89062 606.275 348.625 606.4Q348.35938 606.5094 348.20312 606.72815Q348.0625 606.9469 348.0625 607.22815Q348.0625 607.65 348.375 607.9313Q348.70312 608.2125 349.3125 608.2125Q349.92188 608.2125 350.39062 607.9469Q350.875 607.6813 351.09375 607.2125Q351.26562 606.85315 351.26562 606.16565L351.26562 605.775ZM354.25 611.29065L354.125 610.3063Q354.46875 610.4 354.73438 610.4Q355.07812 610.4 355.28125 610.275Q355.5 610.16565 355.64062 609.9625Q355.73438 609.79065 355.96875 609.16565Q355.98438 609.0875 356.0625 608.91565L353.6875 602.6813L354.82812 602.6813L356.125 606.275Q356.375 606.9625 356.57812 607.72815Q356.76562 606.9938 357.01562 606.3063L358.34375 602.6813L359.39062 602.6813L357.03125 609.0094Q356.64062 610.025 356.4375 610.41565Q356.15625 610.9469 355.78125 611.1813Q355.42188 611.4313 354.92188 611.4313Q354.625 611.4313 354.25 611.29065Z" fill-rule="nonzero"/><path fill="#b7b6ff" d="M386.5 604.9C386.5 608.2137 383.81372 610.9 380.5 610.9C377.18628 610.9 374.5 608.2137 374.5 604.9C374.5 601.5863 377.18628 598.9 380.5 598.9C383.81372 598.9 386.5 601.5863 386.5 604.9Z" fill-rule="nonzero"/><path fill="#1a1a1a" d="M401.5625 605.8844L402.6875 606.1813Q402.32812 607.5719 401.40625 608.3063Q400.48438 609.04065 399.14062 609.04065Q397.75 609.04065 396.875 608.47815Q396.0 607.91565 395.54688 606.85315Q395.09375 605.775 395.09375 604.54065Q395.09375 603.1969 395.60938 602.1969Q396.125 601.1969 397.0625 600.6813Q398.01562 600.16565 399.15625 600.16565Q400.4375 600.16565 401.3125 600.8219Q402.20312 601.47815 402.54688 602.66565L401.42188 602.9313Q401.125 601.9938 400.54688 601.5719Q399.98438 601.1344 399.125 601.1344Q398.14062 601.1344 397.46875 601.6188Q396.8125 602.0875 396.53125 602.8844Q396.26562 603.6813 396.26562 604.54065Q396.26562 605.6344 396.57812 606.4469Q396.90625 607.2594 397.57812 607.66565Q398.25 608.0719 399.04688 608.0719Q400.0 608.0719 400.65625 607.525Q401.32812 606.97815 401.5625 605.8844ZM403.90625 605.79065Q403.90625 604.0563 404.85938 603.22815Q405.65625 602.54065 406.8125 602.54065Q408.09375 602.54065 408.90625 603.3844Q409.73438 604.2125 409.73438 605.6969Q409.73438 606.9 409.375 607.5875Q409.01562 608.275 408.3125 608.66565Q407.625 609.04065 406.8125 609.04065Q405.51562 609.04065 404.70312 608.2125Q403.90625 607.3688 403.90625 605.79065ZM404.98438 605.79065Q404.98438 606.97815 405.5 607.5719Q406.03125 608.16565 406.8125 608.16565Q407.60938 608.16565 408.125 607.5719Q408.64062 606.97815 408.64062 605.7594Q408.64062 604.60315 408.10938 604.0094Q407.59375 603.41565 406.8125 603.41565Q406.03125 603.41565 405.5 604.0094Q404.98438 604.5875 404.98438 605.79065ZM411.29688 608.9L411.29688 602.6813L412.23438 602.6813L412.23438 603.5563Q412.53125 603.0875 413.01562 602.8219Q413.5 602.54065 414.125 602.54065Q414.8125 602.54065 415.25 602.8219Q415.70312 603.10315 415.875 603.6188Q416.625 602.54065 417.79688 602.54065Q418.73438 602.54065 419.21875 603.0563Q419.71875 603.5563 419.71875 604.6344L419.71875 608.9L418.67188 608.9L418.67188 604.97815Q418.67188 604.35315 418.5625 604.0719Q418.46875 603.79065 418.20312 603.6188Q417.9375 603.4469 417.5625 603.4469Q416.90625 603.4469 416.46875 603.8844Q416.04688 604.3219 416.04688 605.29065L416.04688 608.9L414.98438 608.9L414.98438 604.85315Q414.98438 604.15 414.71875 603.8063Q414.46875 603.4469 413.89062 603.4469Q413.4375 603.4469 413.0625 603.6813Q412.6875 603.91565 412.51562 604.3688Q412.34375 604.8219 412.34375 605.66565L412.34375 608.9L411.29688 608.9ZM422.29688 608.9L422.29688 602.6813L423.23438 602.6813L423.23438 603.5563Q423.53125 603.0875 424.01562 602.8219Q424.5 602.54065 425.125 602.54065Q425.8125 602.54065 426.25 602.8219Q426.70312 603.10315 426.875 603.6188Q427.625 602.54065 428.79688 602.54065Q429.73438 602.54065 430.21875 603.0563Q430.71875 603.5563 430.71875 604.6344L430.71875 608.9L429.67188 608.9L429.67188 604.97815Q429.67188 604.35315 429.5625 604.0719Q429.46875 603.79065 429.20312 603.6188Q428.9375 603.4469 428.5625 603.4469Q427.90625 603.4469 427.46875 603.8844Q427.04688 604.3219 427.04688 605.29065L427.04688 608.9L425.98438 608.9L425.98438 604.85315Q425.98438 604.15 425.71875 603.8063Q425.46875 603.4469 424.89062 603.4469Q424.4375 603.4469 424.0625 603.6813Q423.6875 603.91565 423.51562 604.3688Q423.34375 604.8219 423.34375 605.66565L423.34375 608.9L422.29688 608.9ZM433.29688 601.525L433.29688 600.3063L434.35938 600.3063L434.35938 601.525L433.29688 601.525ZM433.29688 608.9L433.29688 602.6813L434.35938 602.6813L434.35938 608.9L433.29688 608.9ZM438.59375 607.9625L438.75 608.8844Q438.29688 608.97815 437.95312 608.97815Q437.375 608.97815 437.0625 608.8063Q436.75 608.6188 436.60938 608.3219Q436.48438 608.025 436.48438 607.0719L436.48438 603.4938L435.71875 603.4938L435.71875 602.6813L436.48438 602.6813L436.48438 601.1344L437.53125 600.5094L437.53125 602.6813L438.59375 602.6813L438.59375 603.4938L437.53125 603.4938L437.53125 607.1344Q437.53125 607.5875 437.57812 607.7125Q437.64062 607.8375 437.76562 607.91565Q437.89062 607.9938 438.125 607.9938Q438.3125 607.9938 438.59375 607.9625ZM441.59375 607.9625L441.75 608.8844Q441.29688 608.97815 440.95312 608.97815Q440.375 608.97815 440.0625 608.8063Q439.75 608.6188 439.60938 608.3219Q439.48438 608.025 439.48438 607.0719L439.48438 603.4938L438.71875 603.4938L438.71875 602.6813L439.48438 602.6813L439.48438 601.1344L440.53125 600.5094L440.53125 602.6813L441.59375 602.6813L441.59375 603.4938L440.53125 603.4938L440.53125 607.1344Q440.53125 607.5875 440.57812 607.7125Q440.64062 607.8375 440.76562 607.91565Q440.89062 607.9938 441.125 607.9938Q441.3125 607.9938 441.59375 607.9625ZM446.54688 606.9L447.64062 607.025Q447.39062 607.97815 446.6875 608.5094Q445.98438 609.04065 444.90625 609.04065Q443.54688 609.04065 442.73438 608.1969Q441.9375 607.35315 441.9375 605.8375Q441.9375 604.275 442.75 603.41565Q443.5625 602.54065 444.84375 602.54065Q446.09375 602.54065 446.875 603.3844Q447.67188 604.22815 447.67188 605.775Q447.67188 605.8688 447.67188 606.0563L443.03125 606.0563Q443.09375 607.0875 443.60938 607.6344Q444.125 608.16565 444.90625 608.16565Q445.48438 608.16565 445.89062 607.8688Q446.3125 607.5563 446.54688 606.9ZM443.09375 605.1969L446.5625 605.1969Q446.5 604.4 446.17188 604.0094Q445.65625 603.4 444.85938 603.4Q444.125 603.4 443.625 603.8844Q443.14062 604.3688 443.09375 605.1969ZM449.28125 608.9L449.28125 602.6813L450.23438 602.6813L450.23438 603.6188Q450.59375 602.9625 450.89062 602.7594Q451.20312 602.54065 451.57812 602.54065Q452.10938 602.54065 452.65625 602.8688L452.29688 603.85315Q451.90625 603.6188 451.53125 603.6188Q451.17188 603.6188 450.89062 603.8375Q450.625 604.04065 450.51562 604.41565Q450.32812 604.97815 450.32812 605.6344L450.32812 608.9L449.28125 608.9ZM452.875 607.04065L453.90625 606.8844Q454.0 607.5094 454.39062 607.8375Q454.79688 608.16565 455.53125 608.16565Q456.25 608.16565 456.59375 607.8844Q456.95312 607.5875 456.95312 607.1813Q456.95312 606.8219 456.64062 606.6188Q456.42188 606.47815 455.5625 606.2594Q454.40625 605.9625 453.95312 605.7594Q453.51562 605.54065 453.28125 605.16565Q453.04688 604.79065 453.04688 604.3219Q453.04688 603.91565 453.23438 603.5563Q453.42188 603.1969 453.75 602.9625Q454.0 602.79065 454.42188 602.66565Q454.84375 602.54065 455.34375 602.54065Q456.0625 602.54065 456.60938 602.7594Q457.17188 602.9625 457.4375 603.3219Q457.70312 603.6813 457.79688 604.275L456.76562 604.41565Q456.70312 603.9469 456.35938 603.6813Q456.03125 603.4 455.40625 603.4Q454.6875 603.4 454.375 603.65Q454.0625 603.8844 454.0625 604.2125Q454.0625 604.41565 454.1875 604.5719Q454.32812 604.7438 454.59375 604.85315Q454.75 604.91565 455.53125 605.1188Q456.65625 605.4313 457.09375 605.6188Q457.53125 605.8063 457.78125 606.16565Q458.03125 606.525 458.03125 607.0719Q458.03125 607.60315 457.71875 608.0719Q457.42188 608.525 456.84375 608.79065Q456.26562 609.04065 455.53125 609.04065Q454.3125 609.04065 453.67188 608.54065Q453.04688 608.025 452.875 607.04065ZM463.42188 608.9L463.42188 600.3063L466.67188 600.3063Q467.51562 600.3063 467.96875 600.3844Q468.60938 600.4938 469.03125 600.79065Q469.46875 601.0875 469.71875 601.6188Q469.98438 602.15 469.98438 602.79065Q469.98438 603.8844 469.28125 604.65Q468.59375 605.4 466.76562 605.4L464.5625 605.4L464.5625 608.9L463.42188 608.9ZM464.5625 604.4L466.78125 604.4Q467.89062 604.4 468.34375 603.9938Q468.8125 603.5719 468.8125 602.8219Q468.8125 602.29065 468.53125 601.91565Q468.26562 601.525 467.82812 601.4Q467.53125 601.3219 466.76562 601.3219L464.5625 601.3219L464.5625 604.4ZM475.35938 608.1344Q474.76562 608.6344 474.21875 608.8375Q473.6875 609.04065 473.0625 609.04065Q472.03125 609.04065 471.48438 608.54065Q470.9375 608.04065 470.9375 607.2594Q470.9375 606.8063 471.14062 606.4313Q471.34375 606.04065 471.6875 605.8219Q472.03125 605.5875 472.45312 605.47815Q472.75 605.3844 473.39062 605.3063Q474.65625 605.16565 475.26562 604.9469Q475.26562 604.72815 475.26562 604.6813Q475.26562 604.025 474.96875 603.7594Q474.5625 603.41565 473.76562 603.41565Q473.03125 603.41565 472.67188 603.6813Q472.3125 603.9313 472.14062 604.5875L471.10938 604.4469Q471.25 603.79065 471.57812 603.3844Q471.90625 602.97815 472.51562 602.7594Q473.125 602.54065 473.92188 602.54065Q474.71875 602.54065 475.21875 602.72815Q475.71875 602.91565 475.95312 603.1969Q476.1875 603.47815 476.28125 603.91565Q476.32812 604.1813 476.32812 604.8844L476.32812 606.29065Q476.32812 607.7594 476.39062 608.15Q476.46875 608.54065 476.67188 608.9L475.5625 608.9Q475.40625 608.5719 475.35938 608.1344ZM475.26562 605.775Q474.6875 606.0094 473.54688 606.1813Q472.89062 606.275 472.625 606.4Q472.35938 606.5094 472.20312 606.72815Q472.0625 606.9469 472.0625 607.22815Q472.0625 607.65 472.375 607.9313Q472.70312 608.2125 473.3125 608.2125Q473.92188 608.2125 474.39062 607.9469Q474.875 607.6813 475.09375 607.2125Q475.26562 606.85315 475.26562 606.16565L475.26562 605.775ZM478.25 611.29065L478.125 610.3063Q478.46875 610.4 478.73438 610.4Q479.07812 610.4 479.28125 610.275Q479.5 610.16565 479.64062 609.9625Q479.73438 609.79065 479.96875 609.16565Q479.98438 609.0875 480.0625 608.91565L477.6875 602.6813L478.82812 602.6813L480.125 606.275Q480.375 606.9625 480.57812 607.72815Q480.76562 606.9938 481.01562 606.3063L482.34375 602.6813L483.39062 602.6813L481.03125 609.0094Q480.64062 610.025 480.4375 610.41565Q480.15625 610.9469 479.78125 611.1813Q479.42188 611.4313 478.92188 611.4313Q478.625 611.4313 478.25 611.29065Z" fill-rule="nonzero"/><path fill="#dfdefe" d="M67.5 622.9C67.5 626.2137 64.813705 628.9 61.5 628.9C58.18629 628.9 55.5 626.2137 55.5 622.9C55.5 619.5863 58.18629 616.9 61.5 616.9C64.813705 616.9 67.5 619.5863 67.5 622.9Z" fill-rule="nonzero"/><path fill="#1a1a1a" d="M76.421875 626.9L76.421875 618.3063L79.390625 618.3063Q80.390625 618.3063 80.921875 618.4313Q81.65625 618.60315 82.171875 619.04065Q82.859375 619.6188 83.1875 620.525Q83.53125 621.41565 83.53125 622.5563Q83.53125 623.54065 83.296875 624.29065Q83.078125 625.04065 82.71875 625.54065Q82.359375 626.04065 81.921875 626.3219Q81.5 626.60315 80.90625 626.7594Q80.3125 626.9 79.53125 626.9L76.421875 626.9ZM77.5625 625.8844L79.390625 625.8844Q80.25 625.8844 80.734375 625.72815Q81.21875 625.5719 81.5 625.275Q81.90625 624.8844 82.125 624.1969Q82.359375 623.5094 82.359375 622.54065Q82.359375 621.1969 81.90625 620.47815Q81.46875 619.7438 80.84375 619.4938Q80.375 619.3219 79.375 619.3219L77.5625 619.3219L77.5625 625.8844ZM89.546875 624.9L90.640625 625.025Q90.390625 625.97815 89.6875 626.5094Q88.984375 627.04065 87.90625 627.04065Q86.546875 627.04065 85.734375 626.1969Q84.9375 625.35315 84.9375 623.8375Q84.9375 622.275 85.75 621.41565Q86.5625 620.54065 87.84375 620.54065Q89.09375 620.54065 89.875 621.3844Q90.671875 622.22815 90.671875 623.775Q90.671875 623.8688 90.671875 624.0563L86.03125 624.0563Q86.09375 625.0875 86.609375 625.6344Q87.125 626.16565 87.90625 626.16565Q88.484375 626.16565 88.890625 625.8688Q89.3125 625.5563 89.546875 624.9ZM86.09375 623.1969L89.5625 623.1969Q89.5 622.4 89.171875 622.0094Q88.65625 621.4 87.859375 621.4Q87.125 621.4 86.625 621.8844Q86.140625 622.3688 86.09375 623.1969ZM92.296875 629.29065L92.296875 620.6813L93.25 620.6813L93.25 621.47815Q93.59375 621.0094 94.015625 620.775Q94.453125 620.54065 95.0625 620.54065Q95.859375 620.54065 96.46875 620.9469Q97.078125 621.35315 97.375 622.10315Q97.6875 622.85315 97.6875 623.7438Q97.6875 624.6969 97.34375 625.4625Q97.015625 626.22815 96.359375 626.6344Q95.703125 627.04065 94.984375 627.04065Q94.453125 627.04065 94.03125 626.8219Q93.609375 626.5875 93.34375 626.2594L93.34375 629.29065L92.296875 629.29065ZM93.25 623.8219Q93.25 625.025 93.734375 625.60315Q94.21875 626.16565 94.90625 626.16565Q95.609375 626.16565 96.109375 625.5719Q96.609375 624.97815 96.609375 623.72815Q96.609375 622.54065 96.125 621.9625Q95.640625 621.3688 94.953125 621.3688Q94.28125 621.3688 93.765625 621.9938Q93.25 622.6188 93.25 623.8219ZM103.546875 624.9L104.640625 625.025Q104.390625 625.97815 103.6875 626.5094Q102.984375 627.04065 101.90625 627.04065Q100.546875 627.04065 99.734375 626.1969Q98.9375 625.35315 98.9375 623.8375Q98.9375 622.275 99.75 621.41565Q100.5625 620.54065 101.84375 620.54065Q103.09375 620.54065 103.875 621.3844Q104.671875 622.22815 104.671875 623.775Q104.671875 623.8688 104.671875 624.0563L100.03125 624.0563Q100.09375 625.0875 100.609375 625.6344Q101.125 626.16565 101.90625 626.16565Q102.484375 626.16565 102.890625 625.8688Q103.3125 625.5563 103.546875 624.9ZM100.09375 623.1969L103.5625 623.1969Q103.5 622.4 103.171875 622.0094Q102.65625 621.4 101.859375 621.4Q101.125 621.4 100.625 621.8844Q100.140625 622.3688 100.09375 623.1969ZM106.296875 626.9L106.296875 620.6813L107.234375 620.6813L107.234375 621.5563Q107.921875 620.54065 109.21875 620.54065Q109.78125 620.54065 110.25 620.7438Q110.734375 620.9469 110.96875 621.275Q111.203125 621.60315 111.296875 622.04065Q111.34375 622.3375 111.34375 623.0719L111.34375 626.9L110.296875 626.9L110.296875 623.1188Q110.296875 622.4625 110.171875 622.15Q110.046875 621.8375 109.734375 621.65Q109.421875 621.4469 109.0 621.4469Q108.328125 621.4469 107.828125 621.8844Q107.34375 622.3063 107.34375 623.4938L107.34375 626.9L106.296875 626.9ZM117.328125 626.9L117.328125 626.1188Q116.734375 627.04065 115.59375 627.04065Q114.84375 627.04065 114.21875 626.6344Q113.59375 626.2125 113.25 625.47815Q112.90625 624.7438 112.90625 623.79065Q112.90625 622.8688 113.21875 622.10315Q113.53125 621.3375 114.15625 620.9469Q114.78125 620.54065 115.546875 620.54065Q116.109375 620.54065 116.546875 620.775Q116.984375 621.0094 117.265625 621.3844L117.265625 618.3063L118.3125 618.3063L118.3125 626.9L117.328125 626.9ZM114.0 623.79065Q114.0 624.9938 114.5 625.5875Q115.0 626.16565 115.6875 626.16565Q116.375 626.16565 116.859375 625.60315Q117.34375 625.04065 117.34375 623.8844Q117.34375 622.60315 116.84375 622.0094Q116.359375 621.41565 115.640625 621.41565Q114.9375 621.41565 114.46875 621.9938Q114.0 622.5563 114.0 623.79065ZM124.546875 624.9L125.640625 625.025Q125.390625 625.97815 124.6875 626.5094Q123.984375 627.04065 122.90625 627.04065Q121.546875 627.04065 120.734375 626.1969Q119.9375 625.35315 119.9375 623.8375Q119.9375 622.275 120.75 621.41565Q121.5625 620.54065 122.84375 620.54065Q124.09375 620.54065 124.875 621.3844Q125.671875 622.22815 125.671875 623.775Q125.671875 623.8688 125.671875 624.0563L121.03125 624.0563Q121.09375 625.0875 121.609375 625.6344Q122.125 626.16565 122.90625 626.16565Q123.484375 626.16565 123.890625 625.8688Q124.3125 625.5563 124.546875 624.9ZM121.09375 623.1969L124.5625 623.1969Q124.5 622.4 124.171875 622.0094Q123.65625 621.4 122.859375 621.4Q122.125 621.4 121.625 621.8844Q121.140625 622.3688 121.09375 623.1969ZM127.296875 626.9L127.296875 620.6813L128.23438 620.6813L128.23438 621.5563Q128.92188 620.54065 130.21875 620.54065Q130.78125 620.54065 131.25 620.7438Q131.73438 620.9469 131.96875 621.275Q132.20312 621.60315 132.29688 622.04065Q132.34375 622.3375 132.34375 623.0719L132.34375 626.9L131.29688 626.9L131.29688 623.1188Q131.29688 622.4625 131.17188 622.15Q131.04688 621.8375 130.73438 621.65Q130.42188 621.4469 130.0 621.4469Q129.32812 621.4469 128.82812 621.8844Q128.34375 622.3063 128.34375 623.4938L128.34375 626.9L127.296875 626.9ZM138.35938 624.6188L139.39062 624.7594Q139.21875 625.8219 138.51562 626.4313Q137.8125 627.04065 136.79688 627.04065Q135.51562 627.04065 134.73438 626.2125Q133.96875 625.3688 133.96875 623.8063Q133.96875 622.8063 134.29688 622.0563Q134.64062 621.29065 135.3125 620.91565Q136.0 620.54065 136.8125 620.54065Q137.8125 620.54065 138.45312 621.0563Q139.10938 621.5563 139.29688 622.5094L138.26562 622.66565Q138.125 622.04065 137.75 621.72815Q137.375 621.4 136.84375 621.4Q136.04688 621.4 135.54688 621.97815Q135.04688 622.54065 135.04688 623.775Q135.04688 625.04065 135.53125 625.60315Q136.01562 626.16565 136.78125 626.16565Q137.40625 626.16565 137.8125 625.79065Q138.23438 625.41565 138.35938 624.6188ZM140.25 629.29065L140.125 628.3063Q140.46875 628.4 140.73438 628.4Q141.07812 628.4 141.28125 628.275Q141.5 628.16565 141.64062 627.9625Q141.73438 627.79065 141.96875 627.16565Q141.98438 627.0875 142.0625 626.91565L139.6875 620.6813L140.82812 620.6813L142.125 624.275Q142.375 624.9625 142.57812 625.72815Q142.76562 624.9938 143.01562 624.3063L144.34375 620.6813L145.39062 620.6813L143.03125 627.0094Q142.64062 628.025 142.4375 628.41565Q142.15625 628.9469 141.78125 629.1813Q141.42188 629.4313 140.92188 629.4313Q140.625 629.4313 140.25 629.29065ZM148.04688 624.1344L149.10938 624.04065Q149.1875 624.6969 149.46875 625.10315Q149.75 625.5094 150.32812 625.775Q150.92188 626.025 151.65625 626.025Q152.29688 626.025 152.79688 625.8375Q153.29688 625.6344 153.53125 625.3063Q153.78125 624.9625 153.78125 624.5719Q153.78125 624.16565 153.54688 623.8688Q153.3125 623.5563 152.78125 623.35315Q152.42188 623.2125 151.23438 622.9313Q150.0625 622.65 149.59375 622.4Q148.96875 622.0719 148.67188 621.60315Q148.375 621.1188 148.375 620.525Q148.375 619.8844 148.73438 619.3219Q149.10938 618.7438 149.8125 618.4625Q150.53125 618.16565 151.39062 618.16565Q152.34375 618.16565 153.07812 618.47815Q153.8125 618.775 154.20312 619.3844Q154.59375 619.97815 154.625 620.72815L153.53125 620.8063Q153.4375 619.9938 152.92188 619.5875Q152.42188 619.16565 151.4375 619.16565Q150.40625 619.16565 149.9375 619.54065Q149.46875 619.91565 149.46875 620.4469Q149.46875 620.91565 149.79688 621.2125Q150.125 621.5094 151.5 621.8219Q152.89062 622.1344 153.40625 622.3688Q154.15625 622.72815 154.51562 623.2594Q154.875 623.775 154.875 624.47815Q154.875 625.16565 154.48438 625.775Q154.09375 626.3688 153.35938 626.7125Q152.625 627.04065 151.70312 627.04065Q150.53125 627.04065 149.73438 626.7125Q148.95312 626.3688 148.5 625.6813Q148.0625 624.9938 148.04688 624.1344ZM156.29688 629.29065L156.29688 620.6813L157.25 620.6813L157.25 621.47815Q157.59375 621.0094 158.01562 620.775Q158.45312 620.54065 159.0625 620.54065Q159.85938 620.54065 160.46875 620.9469Q161.07812 621.35315 161.375 622.10315Q161.6875 622.85315 161.6875 623.7438Q161.6875 624.6969 161.34375 625.4625Q161.01562 626.22815 160.35938 626.6344Q159.70312 627.04065 158.98438 627.04065Q158.45312 627.04065 158.03125 626.8219Q157.60938 626.5875 157.34375 626.2594L157.34375 629.29065L156.29688 629.29065ZM157.25 623.8219Q157.25 625.025 157.73438 625.60315Q158.21875 626.16565 158.90625 626.16565Q159.60938 626.16565 160.10938 625.5719Q160.60938 624.97815 160.60938 623.72815Q160.60938 622.54065 160.125 621.9625Q159.64062 621.3688 158.95312 621.3688Q158.28125 621.3688 157.76562 621.9938Q157.25 622.6188 157.25 623.8219ZM162.90625 623.79065Q162.90625 622.0563 163.85938 621.22815Q164.65625 620.54065 165.8125 620.54065Q167.09375 620.54065 167.90625 621.3844Q168.73438 622.2125 168.73438 623.6969Q168.73438 624.9 168.375 625.5875Q168.01562 626.275 167.3125 626.66565Q166.625 627.04065 165.8125 627.04065Q164.51562 627.04065 163.70312 626.2125Q162.90625 625.3688 162.90625 623.79065ZM163.98438 623.79065Q163.98438 624.97815 164.5 625.5719Q165.03125 626.16565 165.8125 626.16565Q166.60938 626.16565 167.125 625.5719Q167.64062 624.97815 167.64062 623.7594Q167.64062 622.60315 167.10938 622.0094Q166.59375 621.41565 165.8125 621.41565Q165.03125 621.41565 164.5 622.0094Q163.98438 622.5875 163.98438 623.79065ZM170.29688 626.9L170.29688 620.6813L171.23438 620.6813L171.23438 621.5563Q171.92188 620.54065 173.21875 620.54065Q173.78125 620.54065 174.25 620.7438Q174.73438 620.9469 174.96875 621.275Q175.20312 621.60315 175.29688 622.04065Q175.34375 622.3375 175.34375 623.0719L175.34375 626.9L174.29688 626.9L174.29688 623.1188Q174.29688 622.4625 174.17188 622.15Q174.04688 621.8375 173.73438 621.65Q173.42188 621.4469 173.0 621.4469Q172.32812 621.4469 171.82812 621.8844Q171.34375 622.3063 171.34375 623.4938L171.34375 626.9L170.29688 626.9ZM176.875 625.04065L177.90625 624.8844Q178.0 625.5094 178.39062 625.8375Q178.79688 626.16565 179.53125 626.16565Q180.25 626.16565 180.59375 625.8844Q180.95312 625.5875 180.95312 625.1813Q180.95312 624.8219 180.64062 624.6188Q180.42188 624.47815 179.5625 624.2594Q178.40625 623.9625 177.95312 623.7594Q177.51562 623.54065 177.28125 623.16565Q177.04688 622.79065 177.04688 622.3219Q177.04688 621.91565 177.23438 621.5563Q177.42188 621.1969 177.75 620.9625Q178.0 620.79065 178.42188 620.66565Q178.84375 620.54065 179.34375 620.54065Q180.0625 620.54065 180.60938 620.7594Q181.17188 620.9625 181.4375 621.3219Q181.70312 621.6813 181.79688 622.275L180.76562 622.41565Q180.70312 621.9469 180.35938 621.6813Q180.03125 621.4 179.40625 621.4Q178.6875 621.4 178.375 621.65Q178.0625 621.8844 178.0625 622.2125Q178.0625 622.41565 178.1875 622.5719Q178.32812 622.7438 178.59375 622.85315Q178.75 622.91565 179.53125 623.1188Q180.65625 623.4313 181.09375 623.6188Q181.53125 623.8063 181.78125 624.16565Q182.03125 624.525 182.03125 625.0719Q182.03125 625.60315 181.71875 626.0719Q181.42188 626.525 180.84375 626.79065Q180.26562 627.04065 179.53125 627.04065Q178.3125 627.04065 177.67188 626.54065Q177.04688 626.025 176.875 625.04065ZM183.90625 623.79065Q183.90625 622.0563 184.85938 621.22815Q185.65625 620.54065 186.8125 620.54065Q188.09375 620.54065 188.90625 621.3844Q189.73438 622.2125 189.73438 623.6969Q189.73438 624.9 189.375 625.5875Q189.01562 626.275 188.3125 626.66565Q187.625 627.04065 186.8125 627.04065Q185.51562 627.04065 184.70312 626.2125Q183.90625 625.3688 183.90625 623.79065ZM184.98438 623.79065Q184.98438 624.97815 185.5 625.5719Q186.03125 626.16565 186.8125 626.16565Q187.60938 626.16565 188.125 625.5719Q188.64062 624.97815 188.64062 623.7594Q188.64062 622.60315 188.10938 622.0094Q187.59375 621.41565 186.8125 621.41565Q186.03125 621.41565 185.5 622.0094Q184.98438 622.5875 184.98438 623.79065ZM191.28125 626.9L191.28125 620.6813L192.23438 620.6813L192.23438 621.6188Q192.59375 620.9625 192.89062 620.7594Q193.20312 620.54065 193.57812 620.54065Q194.10938 620.54065 194.65625 620.8688L194.29688 621.85315Q193.90625 621.6188 193.53125 621.6188Q193.17188 621.6188 192.89062 621.8375Q192.625 622.04065 192.51562 622.41565Q192.32812 622.97815 192.32812 623.6344L192.32812 626.9L191.28125 626.9ZM194.875 625.04065L195.90625 624.8844Q196.0 625.5094 196.39062 625.8375Q196.79688 626.16565 197.53125 626.16565Q198.25 626.16565 198.59375 625.8844Q198.95312 625.5875 198.95312 625.1813Q198.95312 624.8219 198.64062 624.6188Q198.42188 624.47815 197.5625 624.2594Q196.40625 623.9625 195.95312 623.7594Q195.51562 623.54065 195.28125 623.16565Q195.04688 622.79065 195.04688 622.3219Q195.04688 621.91565 195.23438 621.5563Q195.42188 621.1969 195.75 620.9625Q196.0 620.79065 196.42188 620.66565Q196.84375 620.54065 197.34375 620.54065Q198.0625 620.54065 198.60938 620.7594Q199.17188 620.9625 199.4375 621.3219Q199.70312 621.6813 199.79688 622.275L198.76562 622.41565Q198.70312 621.9469 198.35938 621.6813Q198.03125 621.4 197.40625 621.4Q196.6875 621.4 196.375 621.65Q196.0625 621.8844 196.0625 622.2125Q196.0625 622.41565 196.1875 622.5719Q196.32812 622.7438 196.59375 622.85315Q196.75 622.91565 197.53125 623.1188Q198.65625 623.4313 199.09375 623.6188Q199.53125 623.8063 199.78125 624.16565Q200.03125 624.525 200.03125 625.0719Q200.03125 625.60315 199.71875 626.0719Q199.42188 626.525 198.84375 626.79065Q198.26562 627.04065 197.53125 627.04065Q196.3125 627.04065 195.67188 626.54065Q195.04688 626.025 194.875 625.04065ZM202.29688 626.9L202.29688 618.3063L203.34375 618.3063L203.34375 621.3844Q204.07812 620.54065 205.20312 620.54065Q205.90625 620.54065 206.40625 620.8219Q206.92188 621.0875 207.14062 621.5719Q207.35938 622.04065 207.35938 622.9625L207.35938 626.9L206.3125 626.9L206.3125 622.9625Q206.3125 622.16565 205.96875 621.8063Q205.625 621.4469 205.0 621.4469Q204.53125 621.4469 204.10938 621.6969Q203.70312 621.9313 203.51562 622.35315Q203.34375 622.7594 203.34375 623.4938L203.34375 626.9L202.29688 626.9ZM209.29688 619.525L209.29688 618.3063L210.35938 618.3063L210.35938 619.525L209.29688 619.525ZM209.29688 626.9L209.29688 620.6813L210.35938 620.6813L210.35938 626.9L209.29688 626.9ZM212.29688 629.29065L212.29688 620.6813L213.25 620.6813L213.25 621.47815Q213.59375 621.0094 214.01562 620.775Q214.45312 620.54065 215.0625 620.54065Q215.85938 620.54065 216.46875 620.9469Q217.07812 621.35315 217.375 622.10315Q217.6875 622.85315 217.6875 623.7438Q217.6875 624.6969 217.34375 625.4625Q217.01562 626.22815 216.35938 626.6344Q215.70312 627.04065 214.98438 627.04065Q214.45312 627.04065 214.03125 626.8219Q213.60938 626.5875 213.34375 626.2594L213.34375 629.29065L212.29688 629.29065ZM213.25 623.8219Q213.25 625.025 213.73438 625.60315Q214.21875 626.16565 214.90625 626.16565Q215.60938 626.16565 216.10938 625.5719Q216.60938 624.97815 216.60938 623.72815Q216.60938 622.54065 216.125 621.9625Q215.64062 621.3688 214.95312 621.3688Q214.28125 621.3688 213.76562 621.9938Q213.25 622.6188 213.25 623.8219ZM218.875 625.04065L219.90625 624.8844Q220.0 625.5094 220.39062 625.8375Q220.79688 626.16565 221.53125 626.16565Q222.25 626.16565 222.59375 625.8844Q222.95312 625.5875 222.95312 625.1813Q222.95312 624.8219 222.64062 624.6188Q222.42188 624.47815 221.5625 624.2594Q220.40625 623.9625 219.95312 623.7594Q219.51562 623.54065 219.28125 623.16565Q219.04688 622.79065 219.04688 622.3219Q219.04688 621.91565 219.23438 621.5563Q219.42188 621.1969 219.75 620.9625Q220.0 620.79065 220.42188 620.66565Q220.84375 620.54065 221.34375 620.54065Q222.0625 620.54065 222.60938 620.7594Q223.17188 620.9625 223.4375 621.3219Q223.70312 621.6813 223.79688 622.275L222.76562 622.41565Q222.70312 621.9469 222.35938 621.6813Q222.03125 621.4 221.40625 621.4Q220.6875 621.4 220.375 621.65Q220.0625 621.8844 220.0625 622.2125Q220.0625 622.41565 220.1875 622.5719Q220.32812 622.7438 220.59375 622.85315Q220.75 622.91565 221.53125 623.1188Q222.65625 623.4313 223.09375 623.6188Q223.53125 623.8063 223.78125 624.16565Q224.03125 624.525 224.03125 625.0719Q224.03125 625.60315 223.71875 626.0719Q223.42188 626.525 222.84375 626.79065Q222.26562 627.04065 221.53125 627.04065Q220.3125 627.04065 219.67188 626.54065Q219.04688 626.025 218.875 625.04065Z" fill-rule="nonzero"/><path fill="#6358d4" d="M253.5 622.9C253.5 626.2137 250.8137 628.9 247.5 628.9C244.1863 628.9 241.5 626.2137 241.5 622.9C241.5 619.5863 244.1863 616.9 247.5 616.9C250.8137 616.9 253.5 619.5863 253.5 622.9Z" fill-rule="nonzero"/><path fill="#1a1a1a" d="M266.45312 623.525L266.45312 622.525L270.07812 622.5094L270.07812 625.6969Q269.25 626.3688 268.35938 626.7125Q267.46875 627.04065 266.53125 627.04065Q265.26562 627.04065 264.21875 626.5094Q263.1875 625.9625 262.65625 624.9469Q262.14062 623.91565 262.14062 622.65Q262.14062 621.3844 262.65625 620.3063Q263.1875 619.2125 264.17188 618.6969Q265.15625 618.16565 266.4375 618.16565Q267.375 618.16565 268.125 618.4625Q268.875 618.7594 269.29688 619.3063Q269.73438 619.8375 269.95312 620.7125L268.9375 620.9938Q268.73438 620.3375 268.4375 619.9625Q268.15625 619.5875 267.625 619.3688Q267.09375 619.1344 266.45312 619.1344Q265.67188 619.1344 265.09375 619.3688Q264.53125 619.60315 264.17188 619.9938Q263.82812 620.3844 263.64062 620.85315Q263.3125 621.65 263.3125 622.5719Q263.3125 623.72815 263.70312 624.5094Q264.10938 625.275 264.85938 625.65Q265.60938 626.025 266.46875 626.025Q267.20312 626.025 267.90625 625.7438Q268.60938 625.4469 268.96875 625.1344L268.96875 623.525L266.45312 623.525ZM270.90625 623.79065Q270.90625 622.0563 271.85938 621.22815Q272.65625 620.54065 273.8125 620.54065Q275.09375 620.54065 275.90625 621.3844Q276.73438 622.2125 276.73438 623.6969Q276.73438 624.9 276.375 625.5875Q276.01562 626.275 275.3125 626.66565Q274.625 627.04065 273.8125 627.04065Q272.51562 627.04065 271.70312 626.2125Q270.90625 625.3688 270.90625 623.79065ZM271.98438 623.79065Q271.98438 624.97815 272.5 625.5719Q273.03125 626.16565 273.8125 626.16565Q274.60938 626.16565 275.125 625.5719Q275.64062 624.97815 275.64062 623.7594Q275.64062 622.60315 275.10938 622.0094Q274.59375 621.41565 273.8125 621.41565Q273.03125 621.41565 272.5 622.0094Q271.98438 622.5875 271.98438 623.79065ZM277.90625 623.79065Q277.90625 622.0563 278.85938 621.22815Q279.65625 620.54065 280.8125 620.54065Q282.09375 620.54065 282.90625 621.3844Q283.73438 622.2125 283.73438 623.6969Q283.73438 624.9 283.375 625.5875Q283.01562 626.275 282.3125 626.66565Q281.625 627.04065 280.8125 627.04065Q279.51562 627.04065 278.70312 626.2125Q277.90625 625.3688 277.90625 623.79065ZM278.98438 623.79065Q278.98438 624.97815 279.5 625.5719Q280.03125 626.16565 280.8125 626.16565Q281.60938 626.16565 282.125 625.5719Q282.64062 624.97815 282.64062 623.7594Q282.64062 622.60315 282.10938 622.0094Q281.59375 621.41565 280.8125 621.41565Q280.03125 621.41565 279.5 622.0094Q278.98438 622.5875 278.98438 623.79065ZM285.09375 627.41565L286.125 627.5719Q286.1875 628.04065 286.48438 628.2594Q286.875 628.5563 287.54688 628.5563Q288.28125 628.5563 288.67188 628.2594Q289.07812 627.9625 289.21875 627.4469Q289.3125 627.1188 289.29688 626.0875Q288.60938 626.9 287.57812 626.9Q286.29688 626.9 285.59375 625.97815Q284.89062 625.04065 284.89062 623.7594Q284.89062 622.8688 285.20312 622.1188Q285.53125 621.35315 286.14062 620.9469Q286.75 620.54065 287.57812 620.54065Q288.6875 620.54065 289.40625 621.4313L289.40625 620.6813L290.375 620.6813L290.375 626.0563Q290.375 627.5094 290.07812 628.1188Q289.78125 628.72815 289.14062 629.0719Q288.5 629.4313 287.5625 629.4313Q286.45312 629.4313 285.76562 628.9313Q285.07812 628.4313 285.09375 627.41565ZM285.96875 623.6813Q285.96875 624.9 286.45312 625.4625Q286.9375 626.025 287.67188 626.025Q288.40625 626.025 288.89062 625.4625Q289.39062 624.9 289.39062 623.7125Q289.39062 622.5719 288.875 621.9938Q288.375 621.41565 287.65625 621.41565Q286.95312 621.41565 286.45312 621.9938Q285.96875 622.5563 285.96875 623.6813ZM292.26562 626.9L292.26562 618.3063L293.32812 618.3063L293.32812 626.9L292.26562 626.9ZM299.54688 624.9L300.64062 625.025Q300.39062 625.97815 299.6875 626.5094Q298.98438 627.04065 297.90625 627.04065Q296.54688 627.04065 295.73438 626.1969Q294.9375 625.35315 294.9375 623.8375Q294.9375 622.275 295.75 621.41565Q296.5625 620.54065 297.84375 620.54065Q299.09375 620.54065 299.875 621.3844Q300.67188 622.22815 300.67188 623.775Q300.67188 623.8688 300.67188 624.0563L296.03125 624.0563Q296.09375 625.0875 296.60938 625.6344Q297.125 626.16565 297.90625 626.16565Q298.48438 626.16565 298.89062 625.8688Q299.3125 625.5563 299.54688 624.9ZM296.09375 623.1969L299.5625 623.1969Q299.5 622.4 299.17188 622.0094Q298.65625 621.4 297.85938 621.4Q297.125 621.4 296.625 621.8844Q296.14062 622.3688 296.09375 623.1969ZM306.92188 626.9L304.64062 618.3063L305.8125 618.3063L307.125 623.9469Q307.32812 624.8219 307.48438 625.6969Q307.8125 624.3219 307.875 624.10315L309.5 618.3063L310.875 618.3063L312.10938 622.65Q312.5625 624.275 312.78125 625.6969Q312.9375 624.8844 313.20312 623.8219L314.54688 618.3063L315.6875 618.3063L313.34375 626.9L312.23438 626.9L310.4375 620.35315Q310.20312 619.54065 310.15625 619.35315Q310.03125 619.9313 309.90625 620.35315L308.09375 626.9L306.92188 626.9ZM315.90625 623.79065Q315.90625 622.0563 316.85938 621.22815Q317.65625 620.54065 318.8125 620.54065Q320.09375 620.54065 320.90625 621.3844Q321.73438 622.2125 321.73438 623.6969Q321.73438 624.9 321.375 625.5875Q321.01562 626.275 320.3125 626.66565Q319.625 627.04065 318.8125 627.04065Q317.51562 627.04065 316.70312 626.2125Q315.90625 625.3688 315.90625 623.79065ZM316.98438 623.79065Q316.98438 624.97815 317.5 625.5719Q318.03125 626.16565 318.8125 626.16565Q319.60938 626.16565 320.125 625.5719Q320.64062 624.97815 320.64062 623.7594Q320.64062 622.60315 320.10938 622.0094Q319.59375 621.41565 318.8125 621.41565Q318.03125 621.41565 317.5 622.0094Q316.98438 622.5875 316.98438 623.79065ZM323.28125 626.9L323.28125 620.6813L324.23438 620.6813L324.23438 621.6188Q324.59375 620.9625 324.89062 620.7594Q325.20312 620.54065 325.57812 620.54065Q326.10938 620.54065 326.65625 620.8688L326.29688 621.85315Q325.90625 621.6188 325.53125 621.6188Q325.17188 621.6188 324.89062 621.8375Q324.625 622.04065 324.51562 622.41565Q324.32812 622.97815 324.32812 623.6344L324.32812 626.9L323.28125 626.9ZM327.29688 626.9L327.29688 618.3063L328.35938 618.3063L328.35938 623.2125L330.84375 620.6813L332.21875 620.6813L329.82812 622.97815L332.45312 626.9L331.15625 626.9L329.09375 623.7125L328.35938 624.4313L328.35938 626.9L327.29688 626.9ZM332.875 625.04065L333.90625 624.8844Q334.0 625.5094 334.39062 625.8375Q334.79688 626.16565 335.53125 626.16565Q336.25 626.16565 336.59375 625.8844Q336.95312 625.5875 336.95312 625.1813Q336.95312 624.8219 336.64062 624.6188Q336.42188 624.47815 335.5625 624.2594Q334.40625 623.9625 333.95312 623.7594Q333.51562 623.54065 333.28125 623.16565Q333.04688 622.79065 333.04688 622.3219Q333.04688 621.91565 333.23438 621.5563Q333.42188 621.1969 333.75 620.9625Q334.0 620.79065 334.42188 620.66565Q334.84375 620.54065 335.34375 620.54065Q336.0625 620.54065 336.60938 620.7594Q337.17188 620.9625 337.4375 621.3219Q337.70312 621.6813 337.79688 622.275L336.76562 622.41565Q336.70312 621.9469 336.35938 621.6813Q336.03125 621.4 335.40625 621.4Q334.6875 621.4 334.375 621.65Q334.0625 621.8844 334.0625 622.2125Q334.0625 622.41565 334.1875 622.5719Q334.32812 622.7438 334.59375 622.85315Q334.75 622.91565 335.53125 623.1188Q336.65625 623.4313 337.09375 623.6188Q337.53125 623.8063 337.78125 624.16565Q338.03125 624.525 338.03125 625.0719Q338.03125 625.60315 337.71875 626.0719Q337.42188 626.525 336.84375 626.79065Q336.26562 627.04065 335.53125 627.04065Q334.3125 627.04065 333.67188 626.54065Q333.04688 626.025 332.875 625.04065ZM340.29688 629.29065L340.29688 620.6813L341.25 620.6813L341.25 621.47815Q341.59375 621.0094 342.01562 620.775Q342.45312 620.54065 343.0625 620.54065Q343.85938 620.54065 344.46875 620.9469Q345.07812 621.35315 345.375 622.10315Q345.6875 622.85315 345.6875 623.7438Q345.6875 624.6969 345.34375 625.4625Q345.01562 626.22815 344.35938 626.6344Q343.70312 627.04065 342.98438 627.04065Q342.45312 627.04065 342.03125 626.8219Q341.60938 626.5875 341.34375 626.2594L341.34375 629.29065L340.29688 629.29065ZM341.25 623.8219Q341.25 625.025 341.73438 625.60315Q342.21875 626.16565 342.90625 626.16565Q343.60938 626.16565 344.10938 625.5719Q344.60938 624.97815 344.60938 623.72815Q344.60938 622.54065 344.125 621.9625Q343.64062 621.3688 342.95312 621.3688Q342.28125 621.3688 341.76562 621.9938Q341.25 622.6188 341.25 623.8219ZM351.35938 626.1344Q350.76562 626.6344 350.21875 626.8375Q349.6875 627.04065 349.0625 627.04065Q348.03125 627.04065 347.48438 626.54065Q346.9375 626.04065 346.9375 625.2594Q346.9375 624.8063 347.14062 624.4313Q347.34375 624.04065 347.6875 623.8219Q348.03125 623.5875 348.45312 623.47815Q348.75 623.3844 349.39062 623.3063Q350.65625 623.16565 351.26562 622.9469Q351.26562 622.72815 351.26562 622.6813Q351.26562 622.025 350.96875 621.7594Q350.5625 621.41565 349.76562 621.41565Q349.03125 621.41565 348.67188 621.6813Q348.3125 621.9313 348.14062 622.5875L347.10938 622.4469Q347.25 621.79065 347.57812 621.3844Q347.90625 620.97815 348.51562 620.7594Q349.125 620.54065 349.92188 620.54065Q350.71875 620.54065 351.21875 620.72815Q351.71875 620.91565 351.95312 621.1969Q352.1875 621.47815 352.28125 621.91565Q352.32812 622.1813 352.32812 622.8844L352.32812 624.29065Q352.32812 625.7594 352.39062 626.15Q352.46875 626.54065 352.67188 626.9L351.5625 626.9Q351.40625 626.5719 351.35938 626.1344ZM351.26562 623.775Q350.6875 624.0094 349.54688 624.1813Q348.89062 624.275 348.625 624.4Q348.35938 624.5094 348.20312 624.72815Q348.0625 624.9469 348.0625 625.22815Q348.0625 625.65 348.375 625.9313Q348.70312 626.2125 349.3125 626.2125Q349.92188 626.2125 350.39062 625.9469Q350.875 625.6813 351.09375 625.2125Q351.26562 624.85315 351.26562 624.16565L351.26562 623.775ZM358.35938 624.6188L359.39062 624.7594Q359.21875 625.8219 358.51562 626.4313Q357.8125 627.04065 356.79688 627.04065Q355.51562 627.04065 354.73438 626.2125Q353.96875 625.3688 353.96875 623.8063Q353.96875 622.8063 354.29688 622.0563Q354.64062 621.29065 355.3125 620.91565Q356.0 620.54065 356.8125 620.54065Q357.8125 620.54065 358.45312 621.0563Q359.10938 621.5563 359.29688 622.5094L358.26562 622.66565Q358.125 622.04065 357.75 621.72815Q357.375 621.4 356.84375 621.4Q356.04688 621.4 355.54688 621.97815Q355.04688 622.54065 355.04688 623.775Q355.04688 625.04065 355.53125 625.60315Q356.01562 626.16565 356.78125 626.16565Q357.40625 626.16565 357.8125 625.79065Q358.23438 625.41565 358.35938 624.6188ZM364.54688 624.9L365.64062 625.025Q365.39062 625.97815 364.6875 626.5094Q363.98438 627.04065 362.90625 627.04065Q361.54688 627.04065 360.73438 626.1969Q359.9375 625.35315 359.9375 623.8375Q359.9375 622.275 360.75 621.41565Q361.5625 620.54065 362.84375 620.54065Q364.09375 620.54065 364.875 621.3844Q365.67188 622.22815 365.67188 623.775Q365.67188 623.8688 365.67188 624.0563L361.03125 624.0563Q361.09375 625.0875 361.60938 625.6344Q362.125 626.16565 362.90625 626.16565Q363.48438 626.16565 363.89062 625.8688Q364.3125 625.5563 364.54688 624.9ZM361.09375 623.1969L364.5625 623.1969Q364.5 622.4 364.17188 622.0094Q363.65625 621.4 362.85938 621.4Q362.125 621.4 361.625 621.8844Q361.14062 622.3688 361.09375 623.1969Z" fill-rule="nonzero"/><path fill="#cdccfa" d="M394.5 622.9C394.5 626.2137 391.81372 628.9 388.5 628.9C385.18628 628.9 382.5 626.2137 382.5 622.9C382.5 619.5863 385.18628 616.9 388.5 616.9C391.81372 616.9 394.5 619.5863 394.5 622.9Z" fill-rule="nonzero"/><path fill="#1a1a1a" d="M409.5625 623.8844L410.6875 624.1813Q410.32812 625.5719 409.40625 626.3063Q408.48438 627.04065 407.14062 627.04065Q405.75 627.04065 404.875 626.47815Q404.0 625.91565 403.54688 624.85315Q403.09375 623.775 403.09375 622.54065Q403.09375 621.1969 403.60938 620.1969Q404.125 619.1969 405.0625 618.6813Q406.01562 618.16565 407.15625 618.16565Q408.4375 618.16565 409.3125 618.8219Q410.20312 619.47815 410.54688 620.66565L409.42188 620.9313Q409.125 619.9938 408.54688 619.5719Q407.98438 619.1344 407.125 619.1344Q406.14062 619.1344 405.46875 619.6188Q404.8125 620.0875 404.53125 620.8844Q404.26562 621.6813 404.26562 622.54065Q404.26562 623.6344 404.57812 624.4469Q404.90625 625.2594 405.57812 625.66565Q406.25 626.0719 407.04688 626.0719Q408.0 626.0719 408.65625 625.525Q409.32812 624.97815 409.5625 623.8844ZM411.90625 623.79065Q411.90625 622.0563 412.85938 621.22815Q413.65625 620.54065 414.8125 620.54065Q416.09375 620.54065 416.90625 621.3844Q417.73438 622.2125 417.73438 623.6969Q417.73438 624.9 417.375 625.5875Q417.01562 626.275 416.3125 626.66565Q415.625 627.04065 414.8125 627.04065Q413.51562 627.04065 412.70312 626.2125Q411.90625 625.3688 411.90625 623.79065ZM412.98438 623.79065Q412.98438 624.97815 413.5 625.5719Q414.03125 626.16565 414.8125 626.16565Q415.60938 626.16565 416.125 625.5719Q416.64062 624.97815 416.64062 623.7594Q416.64062 622.60315 416.10938 622.0094Q415.59375 621.41565 414.8125 621.41565Q414.03125 621.41565 413.5 622.0094Q412.98438 622.5875 412.98438 623.79065ZM419.29688 626.9L419.29688 620.6813L420.23438 620.6813L420.23438 621.5563Q420.53125 621.0875 421.01562 620.8219Q421.5 620.54065 422.125 620.54065Q422.8125 620.54065 423.25 620.8219Q423.70312 621.10315 423.875 621.6188Q424.625 620.54065 425.79688 620.54065Q426.73438 620.54065 427.21875 621.0563Q427.71875 621.5563 427.71875 622.6344L427.71875 626.9L426.67188 626.9L426.67188 622.97815Q426.67188 622.35315 426.5625 622.0719Q426.46875 621.79065 426.20312 621.6188Q425.9375 621.4469 425.5625 621.4469Q424.90625 621.4469 424.46875 621.8844Q424.04688 622.3219 424.04688 623.29065L424.04688 626.9L422.98438 626.9L422.98438 622.85315Q422.98438 622.15 422.71875 621.8063Q422.46875 621.4469 421.89062 621.4469Q421.4375 621.4469 421.0625 621.6813Q420.6875 621.91565 420.51562 622.3688Q420.34375 622.8219 420.34375 623.66565L420.34375 626.9L419.29688 626.9ZM430.29688 626.9L430.29688 620.6813L431.23438 620.6813L431.23438 621.5563Q431.53125 621.0875 432.01562 620.8219Q432.5 620.54065 433.125 620.54065Q433.8125 620.54065 434.25 620.8219Q434.70312 621.10315 434.875 621.6188Q435.625 620.54065 436.79688 620.54065Q437.73438 620.54065 438.21875 621.0563Q438.71875 621.5563 438.71875 622.6344L438.71875 626.9L437.67188 626.9L437.67188 622.97815Q437.67188 622.35315 437.5625 622.0719Q437.46875 621.79065 437.20312 621.6188Q436.9375 621.4469 436.5625 621.4469Q435.90625 621.4469 435.46875 621.8844Q435.04688 622.3219 435.04688 623.29065L435.04688 626.9L433.98438 626.9L433.98438 622.85315Q433.98438 622.15 433.71875 621.8063Q433.46875 621.4469 432.89062 621.4469Q432.4375 621.4469 432.0625 621.6813Q431.6875 621.91565 431.51562 622.3688Q431.34375 622.8219 431.34375 623.66565L431.34375 626.9L430.29688 626.9ZM445.375 626.9L445.375 625.97815Q444.64062 627.04065 443.39062 627.04065Q442.84375 627.04065 442.35938 626.8375Q441.89062 626.6188 441.65625 626.3063Q441.42188 625.97815 441.32812 625.5094Q441.26562 625.2125 441.26562 624.525L441.26562 620.6813L442.32812 620.6813L442.32812 624.1344Q442.32812 624.9469 442.39062 625.2438Q442.48438 625.65 442.79688 625.9Q443.125 626.1344 443.60938 626.1344Q444.07812 626.1344 444.48438 625.9Q444.90625 625.65 445.07812 625.22815Q445.26562 624.8063 445.26562 624.0094L445.26562 620.6813L446.3125 620.6813L446.3125 626.9L445.375 626.9ZM448.29688 626.9L448.29688 620.6813L449.23438 620.6813L449.23438 621.5563Q449.92188 620.54065 451.21875 620.54065Q451.78125 620.54065 452.25 620.7438Q452.73438 620.9469 452.96875 621.275Q453.20312 621.60315 453.29688 622.04065Q453.34375 622.3375 453.34375 623.0719L453.34375 626.9L452.29688 626.9L452.29688 623.1188Q452.29688 622.4625 452.17188 622.15Q452.04688 621.8375 451.73438 621.65Q451.42188 621.4469 451.0 621.4469Q450.32812 621.4469 449.82812 621.8844Q449.34375 622.3063 449.34375 623.4938L449.34375 626.9L448.29688 626.9ZM455.29688 619.525L455.29688 618.3063L456.35938 618.3063L456.35938 619.525L455.29688 619.525ZM455.29688 626.9L455.29688 620.6813L456.35938 620.6813L456.35938 626.9L455.29688 626.9ZM460.59375 625.9625L460.75 626.8844Q460.29688 626.97815 459.95312 626.97815Q459.375 626.97815 459.0625 626.8063Q458.75 626.6188 458.60938 626.3219Q458.48438 626.025 458.48438 625.0719L458.48438 621.4938L457.71875 621.4938L457.71875 620.6813L458.48438 620.6813L458.48438 619.1344L459.53125 618.5094L459.53125 620.6813L460.59375 620.6813L460.59375 621.4938L459.53125 621.4938L459.53125 625.1344Q459.53125 625.5875 459.57812 625.7125Q459.64062 625.8375 459.76562 625.91565Q459.89062 625.9938 460.125 625.9938Q460.3125 625.9938 460.59375 625.9625ZM461.25 629.29065L461.125 628.3063Q461.46875 628.4 461.73438 628.4Q462.07812 628.4 462.28125 628.275Q462.5 628.16565 462.64062 627.9625Q462.73438 627.79065 462.96875 627.16565Q462.98438 627.0875 463.0625 626.91565L460.6875 620.6813L461.82812 620.6813L463.125 624.275Q463.375 624.9625 463.57812 625.72815Q463.76562 624.9938 464.01562 624.3063L465.34375 620.6813L466.39062 620.6813L464.03125 627.0094Q463.64062 628.025 463.4375 628.41565Q463.15625 628.9469 462.78125 629.1813Q462.42188 629.4313 461.92188 629.4313Q461.625 629.4313 461.25 629.29065ZM469.04688 624.1344L470.10938 624.04065Q470.1875 624.6969 470.46875 625.10315Q470.75 625.5094 471.32812 625.775Q471.92188 626.025 472.65625 626.025Q473.29688 626.025 473.79688 625.8375Q474.29688 625.6344 474.53125 625.3063Q474.78125 624.9625 474.78125 624.5719Q474.78125 624.16565 474.54688 623.8688Q474.3125 623.5563 473.78125 623.35315Q473.42188 623.2125 472.23438 622.9313Q471.0625 622.65 470.59375 622.4Q469.96875 622.0719 469.67188 621.60315Q469.375 621.1188 469.375 620.525Q469.375 619.8844 469.73438 619.3219Q470.10938 618.7438 470.8125 618.4625Q471.53125 618.16565 472.39062 618.16565Q473.34375 618.16565 474.07812 618.47815Q474.8125 618.775 475.20312 619.3844Q475.59375 619.97815 475.625 620.72815L474.53125 620.8063Q474.4375 619.9938 473.92188 619.5875Q473.42188 619.16565 472.4375 619.16565Q471.40625 619.16565 470.9375 619.54065Q470.46875 619.91565 470.46875 620.4469Q470.46875 620.91565 470.79688 621.2125Q471.125 621.5094 472.5 621.8219Q473.89062 622.1344 474.40625 622.3688Q475.15625 622.72815 475.51562 623.2594Q475.875 623.775 475.875 624.47815Q475.875 625.16565 475.48438 625.775Q475.09375 626.3688 474.35938 626.7125Q473.625 627.04065 472.70312 627.04065Q471.53125 627.04065 470.73438 626.7125Q469.95312 626.3688 469.5 625.6813Q469.0625 624.9938 469.04688 624.1344ZM477.29688 629.29065L477.29688 620.6813L478.25 620.6813L478.25 621.47815Q478.59375 621.0094 479.01562 620.775Q479.45312 620.54065 480.0625 620.54065Q480.85938 620.54065 481.46875 620.9469Q482.07812 621.35315 482.375 622.10315Q482.6875 622.85315 482.6875 623.7438Q482.6875 624.6969 482.34375 625.4625Q482.01562 626.22815 481.35938 626.6344Q480.70312 627.04065 479.98438 627.04065Q479.45312 627.04065 479.03125 626.8219Q478.60938 626.5875 478.34375 626.2594L478.34375 629.29065L477.29688 629.29065ZM478.25 623.8219Q478.25 625.025 478.73438 625.60315Q479.21875 626.16565 479.90625 626.16565Q480.60938 626.16565 481.10938 625.5719Q481.60938 624.97815 481.60938 623.72815Q481.60938 622.54065 481.125 621.9625Q480.64062 621.3688 479.95312 621.3688Q479.28125 621.3688 478.76562 621.9938Q478.25 622.6188 478.25 623.8219ZM483.90625 623.79065Q483.90625 622.0563 484.85938 621.22815Q485.65625 620.54065 486.8125 620.54065Q488.09375 620.54065 488.90625 621.3844Q489.73438 622.2125 489.73438 623.6969Q489.73438 624.9 489.375 625.5875Q489.01562 626.275 488.3125 626.66565Q487.625 627.04065 486.8125 627.04065Q485.51562 627.04065 484.70312 626.2125Q483.90625 625.3688 483.90625 623.79065ZM484.98438 623.79065Q484.98438 624.97815 485.5 625.5719Q486.03125 626.16565 486.8125 626.16565Q487.60938 626.16565 488.125 625.5719Q488.64062 624.97815 488.64062 623.7594Q488.64062 622.60315 488.10938 622.0094Q487.59375 621.41565 486.8125 621.41565Q486.03125 621.41565 485.5 622.0094Q484.98438 622.5875 484.98438 623.79065ZM491.29688 626.9L491.29688 620.6813L492.23438 620.6813L492.23438 621.5563Q492.92188 620.54065 494.21875 620.54065Q494.78125 620.54065 495.25 620.7438Q495.73438 620.9469 495.96875 621.275Q496.20312 621.60315 496.29688 622.04065Q496.34375 622.3375 496.34375 623.0719L496.34375 626.9L495.29688 626.9L495.29688 623.1188Q495.29688 622.4625 495.17188 622.15Q495.04688 621.8375 494.73438 621.65Q494.42188 621.4469 494.0 621.4469Q493.32812 621.4469 492.82812 621.8844Q492.34375 622.3063 492.34375 623.4938L492.34375 626.9L491.29688 626.9ZM497.875 625.04065L498.90625 624.8844Q499.0 625.5094 499.39062 625.8375Q499.79688 626.16565 500.53125 626.16565Q501.25 626.16565 501.59375 625.8844Q501.95312 625.5875 501.95312 625.1813Q501.95312 624.8219 501.64062 624.6188Q501.42188 624.47815 500.5625 624.2594Q499.40625 623.9625 498.95312 623.7594Q498.51562 623.54065 498.28125 623.16565Q498.04688 622.79065 498.04688 622.3219Q498.04688 621.91565 498.23438 621.5563Q498.42188 621.1969 498.75 620.9625Q499.0 620.79065 499.42188 620.66565Q499.84375 620.54065 500.34375 620.54065Q501.0625 620.54065 501.60938 620.7594Q502.17188 620.9625 502.4375 621.3219Q502.70312 621.6813 502.79688 622.275L501.76562 622.41565Q501.70312 621.9469 501.35938 621.6813Q501.03125 621.4 500.40625 621.4Q499.6875 621.4 499.375 621.65Q499.0625 621.8844 499.0625 622.2125Q499.0625 622.41565 499.1875 622.5719Q499.32812 622.7438 499.59375 622.85315Q499.75 622.91565 500.53125 623.1188Q501.65625 623.4313 502.09375 623.6188Q502.53125 623.8063 502.78125 624.16565Q503.03125 624.525 503.03125 625.0719Q503.03125 625.60315 502.71875 626.0719Q502.42188 626.525 501.84375 626.79065Q501.26562 627.04065 500.53125 627.04065Q499.3125 627.04065 498.67188 626.54065Q498.04688 626.025 497.875 625.04065ZM504.90625 623.79065Q504.90625 622.0563 505.85938 621.22815Q506.65625 620.54065 507.8125 620.54065Q509.09375 620.54065 509.90625 621.3844Q510.73438 622.2125 510.73438 623.6969Q510.73438 624.9 510.375 625.5875Q510.01562 626.275 509.3125 626.66565Q508.625 627.04065 507.8125 627.04065Q506.51562 627.04065 505.70312 626.2125Q504.90625 625.3688 504.90625 623.79065ZM505.98438 623.79065Q505.98438 624.97815 506.5 625.5719Q507.03125 626.16565 507.8125 626.16565Q508.60938 626.16565 509.125 625.5719Q509.64062 624.97815 509.64062 623.7594Q509.64062 622.60315 509.10938 622.0094Q508.59375 621.41565 507.8125 621.41565Q507.03125 621.41565 506.5 622.0094Q505.98438 622.5875 505.98438 623.79065ZM512.28125 626.9L512.28125 620.6813L513.2344 620.6813L513.2344 621.6188Q513.59375 620.9625 513.8906 620.7594Q514.2031 620.54065 514.5781 620.54065Q515.1094 620.54065 515.65625 620.8688L515.2969 621.85315Q514.90625 621.6188 514.53125 621.6188Q514.1719 621.6188 513.8906 621.8375Q513.625 622.04065 513.5156 622.41565Q513.3281 622.97815 513.3281 623.6344L513.3281 626.9L512.28125 626.9ZM515.875 625.04065L516.90625 624.8844Q517.0 625.5094 517.3906 625.8375Q517.7969 626.16565 518.53125 626.16565Q519.25 626.16565 519.59375 625.8844Q519.9531 625.5875 519.9531 625.1813Q519.9531 624.8219 519.6406 624.6188Q519.4219 624.47815 518.5625 624.2594Q517.40625 623.9625 516.9531 623.7594Q516.5156 623.54065 516.28125 623.16565Q516.0469 622.79065 516.0469 622.3219Q516.0469 621.91565 516.2344 621.5563Q516.4219 621.1969 516.75 620.9625Q517.0 620.79065 517.4219 620.66565Q517.84375 620.54065 518.34375 620.54065Q519.0625 620.54065 519.6094 620.7594Q520.1719 620.9625 520.4375 621.3219Q520.7031 621.6813 520.7969 622.275L519.7656 622.41565Q519.7031 621.9469 519.3594 621.6813Q519.03125 621.4 518.40625 621.4Q517.6875 621.4 517.375 621.65Q517.0625 621.8844 517.0625 622.2125Q517.0625 622.41565 517.1875 622.5719Q517.3281 622.7438 517.59375 622.85315Q517.75 622.91565 518.53125 623.1188Q519.65625 623.4313 520.09375 623.6188Q520.53125 623.8063 520.78125 624.16565Q521.03125 624.525 521.03125 625.0719Q521.03125 625.60315 520.71875 626.0719Q520.4219 626.525 519.84375 626.79065Q519.2656 627.04065 518.53125 627.04065Q517.3125 627.04065 516.6719 626.54065Q516.0469 626.025 515.875 625.04065ZM523.2969 626.9L523.2969 618.3063L524.34375 618.3063L524.34375 621.3844Q525.0781 620.54065 526.2031 620.54065Q526.90625 620.54065 527.40625 620.8219Q527.9219 621.0875 528.1406 621.5719Q528.3594 622.04065 528.3594 622.9625L528.3594 626.9L527.3125 626.9L527.3125 622.9625Q527.3125 622.16565 526.96875 621.8063Q526.625 621.4469 526.0 621.4469Q525.53125 621.4469 525.1094 621.6969Q524.7031 621.9313 524.5156 622.35315Q524.34375 622.7594 524.34375 623.4938L524.34375 626.9L523.2969 626.9ZM530.2969 619.525L530.2969 618.3063L531.3594 618.3063L531.3594 619.525L530.2969 619.525ZM530.2969 626.9L530.2969 620.6813L531.3594 620.6813L531.3594 626.9L530.2969 626.9ZM533.2969 629.29065L533.2969 620.6813L534.25 620.6813L534.25 621.47815Q534.59375 621.0094 535.0156 620.775Q535.4531 620.54065 536.0625 620.54065Q536.8594 620.54065 537.46875 620.9469Q538.0781 621.35315 538.375 622.10315Q538.6875 622.85315 538.6875 623.7438Q538.6875 624.6969 538.34375 625.4625Q538.0156 626.22815 537.3594 626.6344Q536.7031 627.04065 535.9844 627.04065Q535.4531 627.04065 535.03125 626.8219Q534.6094 626.5875 534.34375 626.2594L534.34375 629.29065L533.2969 629.29065ZM534.25 623.8219Q534.25 625.025 534.7344 625.60315Q535.21875 626.16565 535.90625 626.16565Q536.6094 626.16565 537.1094 625.5719Q537.6094 624.97815 537.6094 623.72815Q537.6094 622.54065 537.125 621.9625Q536.6406 621.3688 535.9531 621.3688Q535.28125 621.3688 534.7656 621.9938Q534.25 622.6188 534.25 623.8219ZM539.875 625.04065L540.90625 624.8844Q541.0 625.5094 541.3906 625.8375Q541.7969 626.16565 542.53125 626.16565Q543.25 626.16565 543.59375 625.8844Q543.9531 625.5875 543.9531 625.1813Q543.9531 624.8219 543.6406 624.6188Q543.4219 624.47815 542.5625 624.2594Q541.40625 623.9625 540.9531 623.7594Q540.5156 623.54065 540.28125 623.16565Q540.0469 622.79065 540.0469 622.3219Q540.0469 621.91565 540.2344 621.5563Q540.4219 621.1969 540.75 620.9625Q541.0 620.79065 541.4219 620.66565Q541.84375 620.54065 542.34375 620.54065Q543.0625 620.54065 543.6094 620.7594Q544.1719 620.9625 544.4375 621.3219Q544.7031 621.6813 544.7969 622.275L543.7656 622.41565Q543.7031 621.9469 543.3594 621.6813Q543.03125 621.4 542.40625 621.4Q541.6875 621.4 541.375 621.65Q541.0625 621.8844 541.0625 622.2125Q541.0625 622.41565 541.1875 622.5719Q541.3281 622.7438 541.59375 622.85315Q541.75 622.91565 542.53125 623.1188Q543.65625 623.4313 544.09375 623.6188Q544.53125 623.8063 544.78125 624.16565Q545.03125 624.525 545.03125 625.0719Q545.03125 625.60315 544.71875 626.0719Q544.4219 626.525 543.84375 626.79065Q543.2656 627.04065 542.53125 627.04065Q541.3125 627.04065 540.6719 626.54065Q540.0469 626.025 539.875 625.04065Z" fill-rule="nonzero"/><path fill="#4b32c3" d="M258.5 640.9C258.5 644.2137 255.8137 646.9 252.5 646.9C249.1863 646.9 246.5 644.2137 246.5 640.9C246.5 637.5863 249.1863 634.9 252.5 634.9C255.8137 634.9 258.5 637.5863 258.5 640.9Z" fill-rule="nonzero"/><path fill="#1a1a1a" d="M273.5625 641.8844L274.6875 642.1813Q274.32812 643.5719 273.40625 644.3063Q272.48438 645.04065 271.14062 645.04065Q269.75 645.04065 268.875 644.47815Q268.0 643.91565 267.54688 642.85315Q267.09375 641.775 267.09375 640.54065Q267.09375 639.1969 267.60938 638.1969Q268.125 637.1969 269.0625 636.6813Q270.01562 636.16565 271.15625 636.16565Q272.4375 636.16565 273.3125 636.8219Q274.20312 637.47815 274.54688 638.66565L273.42188 638.9313Q273.125 637.9938 272.54688 637.5719Q271.98438 637.1344 271.125 637.1344Q270.14062 637.1344 269.46875 637.6188Q268.8125 638.0875 268.53125 638.8844Q268.26562 639.6813 268.26562 640.54065Q268.26562 641.6344 268.57812 642.4469Q268.90625 643.2594 269.57812 643.66565Q270.25 644.0719 271.04688 644.0719Q272.0 644.0719 272.65625 643.525Q273.32812 642.97815 273.5625 641.8844ZM275.90625 641.79065Q275.90625 640.0563 276.85938 639.22815Q277.65625 638.54065 278.8125 638.54065Q280.09375 638.54065 280.90625 639.3844Q281.73438 640.2125 281.73438 641.6969Q281.73438 642.9 281.375 643.5875Q281.01562 644.275 280.3125 644.66565Q279.625 645.04065 278.8125 645.04065Q277.51562 645.04065 276.70312 644.2125Q275.90625 643.3688 275.90625 641.79065ZM276.98438 641.79065Q276.98438 642.97815 277.5 643.5719Q278.03125 644.16565 278.8125 644.16565Q279.60938 644.16565 280.125 643.5719Q280.64062 642.97815 280.64062 641.7594Q280.64062 640.60315 280.10938 640.0094Q279.59375 639.41565 278.8125 639.41565Q278.03125 639.41565 277.5 640.0094Q276.98438 640.5875 276.98438 641.79065ZM283.29688 644.9L283.29688 638.6813L284.23438 638.6813L284.23438 639.5563Q284.92188 638.54065 286.21875 638.54065Q286.78125 638.54065 287.25 638.7438Q287.73438 638.9469 287.96875 639.275Q288.20312 639.60315 288.29688 640.04065Q288.34375 640.3375 288.34375 641.0719L288.34375 644.9L287.29688 644.9L287.29688 641.1188Q287.29688 640.4625 287.17188 640.15Q287.04688 639.8375 286.73438 639.65Q286.42188 639.4469 286.0 639.4469Q285.32812 639.4469 284.82812 639.8844Q284.34375 640.3063 284.34375 641.4938L284.34375 644.9L283.29688 644.9ZM292.59375 643.9625L292.75 644.8844Q292.29688 644.97815 291.95312 644.97815Q291.375 644.97815 291.0625 644.8063Q290.75 644.6188 290.60938 644.3219Q290.48438 644.025 290.48438 643.0719L290.48438 639.4938L289.71875 639.4938L289.71875 638.6813L290.48438 638.6813L290.48438 637.1344L291.53125 636.5094L291.53125 638.6813L292.59375 638.6813L292.59375 639.4938L291.53125 639.4938L291.53125 643.1344Q291.53125 643.5875 291.57812 643.7125Q291.64062 643.8375 291.76562 643.91565Q291.89062 643.9938 292.125 643.9938Q292.3125 643.9938 292.59375 643.9625ZM293.28125 644.9L293.28125 638.6813L294.23438 638.6813L294.23438 639.6188Q294.59375 638.9625 294.89062 638.7594Q295.20312 638.54065 295.57812 638.54065Q296.10938 638.54065 296.65625 638.8688L296.29688 639.85315Q295.90625 639.6188 295.53125 639.6188Q295.17188 639.6188 294.89062 639.8375Q294.625 640.04065 294.51562 640.41565Q294.32812 640.97815 294.32812 641.6344L294.32812 644.9L293.28125 644.9ZM297.29688 637.525L297.29688 636.3063L298.35938 636.3063L298.35938 637.525L297.29688 637.525ZM297.29688 644.9L297.29688 638.6813L298.35938 638.6813L298.35938 644.9L297.29688 644.9ZM301.26562 644.9L300.28125 644.9L300.28125 636.3063L301.34375 636.3063L301.34375 639.3688Q302.01562 638.54065 303.04688 638.54065Q303.625 638.54065 304.125 638.775Q304.64062 638.9938 304.96875 639.41565Q305.3125 639.8375 305.5 640.4313Q305.6875 641.025 305.6875 641.6969Q305.6875 643.29065 304.89062 644.16565Q304.09375 645.04065 303.0 645.04065Q301.89062 645.04065 301.26562 644.1188L301.26562 644.9ZM301.25 641.7438Q301.25 642.85315 301.5625 643.35315Q302.0625 644.16565 302.90625 644.16565Q303.59375 644.16565 304.09375 643.5719Q304.60938 642.97815 304.60938 641.775Q304.60938 640.5563 304.125 639.97815Q303.64062 639.4 302.95312 639.4Q302.26562 639.4 301.75 640.0094Q301.25 640.60315 301.25 641.7438ZM311.375 644.9L311.375 643.97815Q310.64062 645.04065 309.39062 645.04065Q308.84375 645.04065 308.35938 644.8375Q307.89062 644.6188 307.65625 644.3063Q307.42188 643.97815 307.32812 643.5094Q307.26562 643.2125 307.26562 642.525L307.26562 638.6813L308.32812 638.6813L308.32812 642.1344Q308.32812 642.9469 308.39062 643.2438Q308.48438 643.65 308.79688 643.9Q309.125 644.1344 309.60938 644.1344Q310.07812 644.1344 310.48438 643.9Q310.90625 643.65 311.07812 643.22815Q311.26562 642.8063 311.26562 642.0094L311.26562 638.6813L312.3125 638.6813L312.3125 644.9L311.375 644.9ZM316.59375 643.9625L316.75 644.8844Q316.29688 644.97815 315.95312 644.97815Q315.375 644.97815 315.0625 644.8063Q314.75 644.6188 314.60938 644.3219Q314.48438 644.025 314.48438 643.0719L314.48438 639.4938L313.71875 639.4938L313.71875 638.6813L314.48438 638.6813L314.48438 637.1344L315.53125 636.5094L315.53125 638.6813L316.59375 638.6813L316.59375 639.4938L315.53125 639.4938L315.53125 643.1344Q315.53125 643.5875 315.57812 643.7125Q315.64062 643.8375 315.76562 643.91565Q315.89062 643.9938 316.125 643.9938Q316.3125 643.9938 316.59375 643.9625ZM316.90625 641.79065Q316.90625 640.0563 317.85938 639.22815Q318.65625 638.54065 319.8125 638.54065Q321.09375 638.54065 321.90625 639.3844Q322.73438 640.2125 322.73438 641.6969Q322.73438 642.9 322.375 643.5875Q322.01562 644.275 321.3125 644.66565Q320.625 645.04065 319.8125 645.04065Q318.51562 645.04065 317.70312 644.2125Q316.90625 643.3688 316.90625 641.79065ZM317.98438 641.79065Q317.98438 642.97815 318.5 643.5719Q319.03125 644.16565 319.8125 644.16565Q320.60938 644.16565 321.125 643.5719Q321.64062 642.97815 321.64062 641.7594Q321.64062 640.60315 321.10938 640.0094Q320.59375 639.41565 319.8125 639.41565Q319.03125 639.41565 318.5 640.0094Q317.98438 640.5875 317.98438 641.79065ZM324.28125 644.9L324.28125 638.6813L325.23438 638.6813L325.23438 639.6188Q325.59375 638.9625 325.89062 638.7594Q326.20312 638.54065 326.57812 638.54065Q327.10938 638.54065 327.65625 638.8688L327.29688 639.85315Q326.90625 639.6188 326.53125 639.6188Q326.17188 639.6188 325.89062 639.8375Q325.625 640.04065 325.51562 640.41565Q325.32812 640.97815 325.32812 641.6344L325.32812 644.9L324.28125 644.9ZM331.42188 644.9L331.42188 636.3063L334.67188 636.3063Q335.51562 636.3063 335.96875 636.3844Q336.60938 636.4938 337.03125 636.79065Q337.46875 637.0875 337.71875 637.6188Q337.98438 638.15 337.98438 638.79065Q337.98438 639.8844 337.28125 640.65Q336.59375 641.4 334.76562 641.4L332.5625 641.4L332.5625 644.9L331.42188 644.9ZM332.5625 640.4L334.78125 640.4Q335.89062 640.4 336.34375 639.9938Q336.8125 639.5719 336.8125 638.8219Q336.8125 638.29065 336.53125 637.91565Q336.26562 637.525 335.82812 637.4Q335.53125 637.3219 334.76562 637.3219L332.5625 637.3219L332.5625 640.4ZM338.90625 641.79065Q338.90625 640.0563 339.85938 639.22815Q340.65625 638.54065 341.8125 638.54065Q343.09375 638.54065 343.90625 639.3844Q344.73438 640.2125 344.73438 641.6969Q344.73438 642.9 344.375 643.5875Q344.01562 644.275 343.3125 644.66565Q342.625 645.04065 341.8125 645.04065Q340.51562 645.04065 339.70312 644.2125Q338.90625 643.3688 338.90625 641.79065ZM339.98438 641.79065Q339.98438 642.97815 340.5 643.5719Q341.03125 644.16565 341.8125 644.16565Q342.60938 644.16565 343.125 643.5719Q343.64062 642.97815 343.64062 641.7594Q343.64062 640.60315 343.10938 640.0094Q342.59375 639.41565 341.8125 639.41565Q341.03125 639.41565 340.5 640.0094Q339.98438 640.5875 339.98438 641.79065ZM345.90625 641.79065Q345.90625 640.0563 346.85938 639.22815Q347.65625 638.54065 348.8125 638.54065Q350.09375 638.54065 350.90625 639.3844Q351.73438 640.2125 351.73438 641.6969Q351.73438 642.9 351.375 643.5875Q351.01562 644.275 350.3125 644.66565Q349.625 645.04065 348.8125 645.04065Q347.51562 645.04065 346.70312 644.2125Q345.90625 643.3688 345.90625 641.79065ZM346.98438 641.79065Q346.98438 642.97815 347.5 643.5719Q348.03125 644.16565 348.8125 644.16565Q349.60938 644.16565 350.125 643.5719Q350.64062 642.97815 350.64062 641.7594Q350.64062 640.60315 350.10938 640.0094Q349.59375 639.41565 348.8125 639.41565Q348.03125 639.41565 347.5 640.0094Q346.98438 640.5875 346.98438 641.79065ZM353.26562 644.9L353.26562 636.3063L354.32812 636.3063L354.32812 644.9L353.26562 644.9Z" fill-rule="nonzero"/></svg>
