<svg width="592" height="684" viewBox="0 0 592 684" fill="none" xmlns="http://www.w3.org/2000/svg">
<path d="M592 296C592 459.476 459.476 592 296 592C132.524 592 0 459.476 0 296C0 132.524 132.524 0 296 0C459.476 0 592 132.524 592 296ZM148 296C148 377.738 214.262 444 296 444C377.738 444 444 377.738 444 296C444 214.262 377.738 148 296 148C214.262 148 148 214.262 148 296Z" fill="#DEDEFF"/>
<path d="M296 0C358.509 7.45413e-07 419.414 19.7891 469.984 56.531C520.555 93.2729 558.196 145.081 577.513 204.531L436.756 250.265C427.098 220.541 408.278 194.636 382.992 176.265C357.707 157.895 327.255 148 296 148V0Z" fill="#8080F2"/>
<path d="M577.513 204.531C594.382 256.448 596.565 312.019 583.821 365.1C571.078 418.181 543.904 466.703 505.304 505.304C466.703 543.904 418.181 571.078 365.1 583.821C312.019 596.565 256.448 594.382 204.531 577.513L250.266 436.756C276.224 445.191 304.01 446.283 330.55 439.911C357.09 433.539 381.352 419.952 400.652 400.652C419.952 381.352 433.539 357.09 439.911 330.55C446.283 304.01 445.191 276.224 436.756 250.265L577.513 204.531Z" fill="#A0A0F5"/>
<path d="M204.531 577.513C145.081 558.196 93.2729 520.555 56.531 469.984L176.265 382.992C194.636 408.278 220.541 427.098 250.265 436.756L204.531 577.513Z" fill="#B7B7FF"/>
<path d="M56.531 469.984C12.2786 409.076 -7.10188 333.594 2.33405 258.901L149.167 277.451C144.449 314.797 154.139 352.538 176.265 382.992L56.531 469.984Z" fill="#CCCCFA"/>
<circle cx="78" cy="650" r="4" fill="#7F56D9"/>
<path d="M90.6761 645.912H93.8778V655H95.1108V645.912H98.3125V644.818H90.6761V645.912ZM102.151 655.159C103.702 655.159 104.835 654.384 105.193 653.23L104.06 652.912C103.761 653.707 103.07 654.105 102.151 654.105C100.773 654.105 99.8239 653.215 99.7692 651.58H105.312V651.082C105.312 648.239 103.622 647.264 102.031 647.264C99.9631 647.264 98.5909 648.895 98.5909 651.241C98.5909 653.588 99.9432 655.159 102.151 655.159ZM99.7692 650.565C99.8487 649.377 100.689 648.318 102.031 648.318C103.304 648.318 104.119 649.273 104.119 650.565H99.7692ZM109.344 655.179C110.677 655.179 111.373 654.463 111.612 653.966H111.671V655H112.844V649.969C112.844 647.543 110.995 647.264 110.021 647.264C108.867 647.264 107.555 647.662 106.958 649.054L108.072 649.452C108.33 648.895 108.942 648.298 110.06 648.298C111.139 648.298 111.671 648.87 111.671 649.849V649.889C111.671 650.456 111.094 650.406 109.702 650.585C108.286 650.769 106.739 651.082 106.739 652.832C106.739 654.324 107.893 655.179 109.344 655.179ZM109.523 654.125C108.589 654.125 107.913 653.707 107.913 652.892C107.913 651.997 108.728 651.719 109.643 651.599C110.14 651.54 111.472 651.401 111.671 651.162V652.236C111.671 653.19 110.915 654.125 109.523 654.125ZM114.986 655H116.159V650.227C116.159 649.109 116.975 648.318 117.889 648.318C118.779 648.318 119.401 648.9 119.401 649.77V655H120.594V650.028C120.594 649.044 121.21 648.318 122.284 648.318C123.119 648.318 123.835 648.761 123.835 649.889V655H125.009V649.889C125.009 648.094 124.044 647.264 122.682 647.264C121.588 647.264 120.788 647.766 120.395 648.557H120.316C119.938 647.741 119.271 647.264 118.267 647.264C117.273 647.264 116.537 647.741 116.219 648.557H116.119V647.364H114.986V655ZM134.393 655C137.495 655 139.245 653.071 139.245 649.889C139.245 646.727 137.495 644.818 134.532 644.818H131.251V655H134.393ZM132.483 653.906V645.912H134.452C136.839 645.912 138.052 647.423 138.052 649.889C138.052 652.375 136.839 653.906 134.313 653.906H132.483ZM144.356 655.159C145.907 655.159 147.04 654.384 147.398 653.23L146.265 652.912C145.966 653.707 145.275 654.105 144.356 654.105C142.979 654.105 142.029 653.215 141.974 651.58H147.518V651.082C147.518 648.239 145.827 647.264 144.236 647.264C142.168 647.264 140.796 648.895 140.796 651.241C140.796 653.588 142.148 655.159 144.356 655.159ZM141.974 650.565C142.054 649.377 142.894 648.318 144.236 648.318C145.509 648.318 146.324 649.273 146.324 650.565H141.974ZM155.314 647.364H154.042L151.934 653.449H151.854L149.746 647.364H148.473L151.297 655H152.49L155.314 647.364ZM159.791 655.159C161.342 655.159 162.476 654.384 162.834 653.23L161.7 652.912C161.402 653.707 160.711 654.105 159.791 654.105C158.414 654.105 157.464 653.215 157.41 651.58H162.953V651.082C162.953 648.239 161.263 647.264 159.672 647.264C157.604 647.264 156.232 648.895 156.232 651.241C156.232 653.588 157.584 655.159 159.791 655.159ZM157.41 650.565C157.489 649.377 158.33 648.318 159.672 648.318C160.945 648.318 161.76 649.273 161.76 650.565H157.41ZM165.911 644.818H164.738V655H165.911V644.818ZM171.162 655.159C173.231 655.159 174.623 653.588 174.623 651.222C174.623 648.835 173.231 647.264 171.162 647.264C169.094 647.264 167.702 648.835 167.702 651.222C167.702 653.588 169.094 655.159 171.162 655.159ZM171.162 654.105C169.591 654.105 168.876 652.753 168.876 651.222C168.876 649.69 169.591 648.318 171.162 648.318C172.733 648.318 173.449 649.69 173.449 651.222C173.449 652.753 172.733 654.105 171.162 654.105ZM176.414 657.864H177.587V653.827H177.686C177.945 654.244 178.442 655.159 179.914 655.159C181.823 655.159 183.155 653.628 183.155 651.202C183.155 648.795 181.823 647.264 179.894 647.264C178.402 647.264 177.945 648.179 177.686 648.577H177.547V647.364H176.414V657.864ZM177.567 651.182C177.567 649.472 178.323 648.318 179.755 648.318C181.246 648.318 181.982 649.571 181.982 651.182C181.982 652.812 181.226 654.105 179.755 654.105C178.343 654.105 177.567 652.912 177.567 651.182ZM184.945 655H186.118V650.227C186.118 649.109 186.934 648.318 187.848 648.318C188.738 648.318 189.36 648.9 189.36 649.77V655H190.553V650.028C190.553 649.044 191.169 648.318 192.243 648.318C193.078 648.318 193.794 648.761 193.794 649.889V655H194.968V649.889C194.968 648.094 194.003 647.264 192.641 647.264C191.547 647.264 190.747 647.766 190.354 648.557H190.275C189.897 647.741 189.23 647.264 188.226 647.264C187.232 647.264 186.496 647.741 186.178 648.557H186.078V647.364H184.945V655ZM200.315 655.159C201.866 655.159 202.999 654.384 203.357 653.23L202.224 652.912C201.925 653.707 201.234 654.105 200.315 654.105C198.938 654.105 197.988 653.215 197.933 651.58H203.477V651.082C203.477 648.239 201.786 647.264 200.195 647.264C198.127 647.264 196.755 648.895 196.755 651.241C196.755 653.588 198.107 655.159 200.315 655.159ZM197.933 650.565C198.013 649.377 198.853 648.318 200.195 648.318C201.468 648.318 202.283 649.273 202.283 650.565H197.933ZM206.435 650.406C206.435 649.074 207.26 648.318 208.384 648.318C209.472 648.318 210.134 649.029 210.134 650.227V655H211.307V650.148C211.307 648.199 210.268 647.264 208.722 647.264C207.568 647.264 206.852 647.781 206.494 648.557H206.395V647.364H205.261V655H206.435V650.406ZM216.772 647.364H215.141V645.534H213.968V647.364H212.814V648.358H213.968V653.131C213.968 654.463 215.042 655.099 216.036 655.099C216.474 655.099 216.752 655.02 216.911 654.96L216.672 653.906C216.573 653.926 216.414 653.966 216.155 653.966C215.638 653.966 215.141 653.807 215.141 652.812V648.358H216.772V647.364Z" fill="#667085"/>
<circle cx="254" cy="650" r="4" fill="#F4EBFF"/>
<path d="M275.426 648C275.048 645.912 273.378 644.679 271.33 644.679C268.724 644.679 266.835 646.688 266.835 649.909C266.835 653.131 268.724 655.139 271.33 655.139C273.378 655.139 275.048 653.906 275.426 651.818H274.193C273.895 653.23 272.682 653.986 271.33 653.986C269.48 653.986 268.028 652.554 268.028 649.909C268.028 647.264 269.48 645.832 271.33 645.832C272.682 645.832 273.895 646.588 274.193 648H275.426ZM280.362 655.159C282.43 655.159 283.822 653.588 283.822 651.222C283.822 648.835 282.43 647.264 280.362 647.264C278.294 647.264 276.901 648.835 276.901 651.222C276.901 653.588 278.294 655.159 280.362 655.159ZM280.362 654.105C278.791 654.105 278.075 652.753 278.075 651.222C278.075 649.69 278.791 648.318 280.362 648.318C281.933 648.318 282.649 649.69 282.649 651.222C282.649 652.753 281.933 654.105 280.362 654.105ZM286.786 650.406C286.786 649.074 287.612 648.318 288.735 648.318C289.824 648.318 290.485 649.029 290.485 650.227V655H291.658V650.148C291.658 648.199 290.619 647.264 289.073 647.264C287.92 647.264 287.204 647.781 286.846 648.557H286.746V647.364H285.613V655H286.786V650.406ZM297.123 647.364H295.493V645.534H294.319V647.364H293.166V648.358H294.319V653.131C294.319 654.463 295.393 655.099 296.388 655.099C296.825 655.099 297.104 655.02 297.263 654.96L297.024 653.906C296.925 653.926 296.765 653.966 296.507 653.966C295.99 653.966 295.493 653.807 295.493 652.812V648.358H297.123V647.364ZM298.888 655H300.062V650.168C300.062 649.134 300.877 648.378 301.991 648.378C302.304 648.378 302.627 648.438 302.706 648.457V647.264C302.572 647.254 302.264 647.244 302.09 647.244C301.175 647.244 300.38 647.761 300.101 648.517H300.022V647.364H298.888V655ZM304.097 655H305.271V647.364H304.097V655ZM304.694 646.091C305.151 646.091 305.529 645.733 305.529 645.295C305.529 644.858 305.151 644.5 304.694 644.5C304.237 644.5 303.859 644.858 303.859 645.295C303.859 645.733 304.237 646.091 304.694 646.091ZM307.579 655H308.712V653.827H308.851C309.11 654.244 309.607 655.159 311.079 655.159C312.988 655.159 314.32 653.628 314.32 651.202C314.32 648.795 312.988 647.264 311.059 647.264C309.567 647.264 309.11 648.179 308.851 648.577H308.752V644.818H307.579V655ZM308.732 651.182C308.732 649.472 309.488 648.318 310.92 648.318C312.411 648.318 313.147 649.571 313.147 651.182C313.147 652.812 312.391 654.105 310.92 654.105C309.508 654.105 308.732 652.912 308.732 651.182ZM320.927 651.878C320.927 653.31 319.834 653.966 318.959 653.966C317.984 653.966 317.288 653.25 317.288 652.136V647.364H316.115V652.216C316.115 654.165 317.149 655.099 318.581 655.099C319.734 655.099 320.49 654.483 320.848 653.707H320.927V655H322.101V647.364H320.927V651.878ZM327.571 647.364H325.94V645.534H324.767V647.364H323.613V648.358H324.767V653.131C324.767 654.463 325.841 655.099 326.835 655.099C327.272 655.099 327.551 655.02 327.71 654.96L327.471 653.906C327.372 653.926 327.213 653.966 326.954 653.966C326.437 653.966 325.94 653.807 325.94 652.812V648.358H327.571V647.364ZM332.356 655.159C334.424 655.159 335.816 653.588 335.816 651.222C335.816 648.835 334.424 647.264 332.356 647.264C330.288 647.264 328.896 648.835 328.896 651.222C328.896 653.588 330.288 655.159 332.356 655.159ZM332.356 654.105C330.785 654.105 330.069 652.753 330.069 651.222C330.069 649.69 330.785 648.318 332.356 648.318C333.927 648.318 334.643 649.69 334.643 651.222C334.643 652.753 333.927 654.105 332.356 654.105ZM337.607 655H338.78V650.168C338.78 649.134 339.596 648.378 340.709 648.378C341.023 648.378 341.346 648.438 341.425 648.457V647.264C341.291 647.254 340.983 647.244 340.809 647.244C339.894 647.244 339.099 647.761 338.82 648.517H338.741V647.364H337.607V655ZM346.913 655H348.146V651.281H350.373C352.744 651.281 353.813 649.839 353.813 648.04C353.813 646.24 352.744 644.818 350.353 644.818H346.913V655ZM348.146 650.188V645.912H350.313C351.969 645.912 352.6 646.817 352.6 648.04C352.6 649.263 351.969 650.188 350.333 650.188H348.146ZM358.661 655.159C360.729 655.159 362.121 653.588 362.121 651.222C362.121 648.835 360.729 647.264 358.661 647.264C356.592 647.264 355.2 648.835 355.2 651.222C355.2 653.588 356.592 655.159 358.661 655.159ZM358.661 654.105C357.089 654.105 356.374 652.753 356.374 651.222C356.374 649.69 357.089 648.318 358.661 648.318C360.232 648.318 360.947 649.69 360.947 651.222C360.947 652.753 360.232 654.105 358.661 654.105ZM367.014 655.159C369.082 655.159 370.474 653.588 370.474 651.222C370.474 648.835 369.082 647.264 367.014 647.264C364.946 647.264 363.554 648.835 363.554 651.222C363.554 653.588 364.946 655.159 367.014 655.159ZM367.014 654.105C365.443 654.105 364.727 652.753 364.727 651.222C364.727 649.69 365.443 648.318 367.014 648.318C368.585 648.318 369.301 649.69 369.301 651.222C369.301 652.753 368.585 654.105 367.014 654.105ZM373.439 644.818H372.265V655H373.439V644.818Z" fill="#667085"/>
<circle cx="411" cy="650" r="4" fill="#9E77ED"/>
<path d="M427.375 655C430.477 655 432.227 653.071 432.227 649.889C432.227 646.727 430.477 644.818 427.514 644.818H424.233V655H427.375ZM425.466 653.906V645.912H427.435C429.821 645.912 431.034 647.423 431.034 649.889C431.034 652.375 429.821 653.906 427.295 653.906H425.466ZM437.338 655.159C438.889 655.159 440.023 654.384 440.381 653.23L439.247 652.912C438.949 653.707 438.258 654.105 437.338 654.105C435.961 654.105 435.011 653.215 434.957 651.58H440.5V651.082C440.5 648.239 438.81 647.264 437.219 647.264C435.151 647.264 433.778 648.895 433.778 651.241C433.778 653.588 435.131 655.159 437.338 655.159ZM434.957 650.565C435.036 649.377 435.876 648.318 437.219 648.318C438.491 648.318 439.307 649.273 439.307 650.565H434.957ZM442.285 657.864H443.458V653.827H443.558C443.816 654.244 444.313 655.159 445.785 655.159C447.694 655.159 449.026 653.628 449.026 651.202C449.026 648.795 447.694 647.264 445.765 647.264C444.273 647.264 443.816 648.179 443.558 648.577H443.418V647.364H442.285V657.864ZM443.438 651.182C443.438 649.472 444.194 648.318 445.626 648.318C447.117 648.318 447.853 649.571 447.853 651.182C447.853 652.812 447.097 654.105 445.626 654.105C444.214 654.105 443.438 652.912 443.438 651.182ZM454.018 655.159C455.569 655.159 456.702 654.384 457.06 653.23L455.927 652.912C455.629 653.707 454.938 654.105 454.018 654.105C452.641 654.105 451.691 653.215 451.636 651.58H457.18V651.082C457.18 648.239 455.489 647.264 453.898 647.264C451.83 647.264 450.458 648.895 450.458 651.241C450.458 653.588 451.81 655.159 454.018 655.159ZM451.636 650.565C451.716 649.377 452.556 648.318 453.898 648.318C455.171 648.318 455.987 649.273 455.987 650.565H451.636ZM460.138 650.406C460.138 649.074 460.963 648.318 462.087 648.318C463.175 648.318 463.837 649.029 463.837 650.227V655H465.01V650.148C465.01 648.199 463.971 647.264 462.425 647.264C461.271 647.264 460.555 647.781 460.197 648.557H460.098V647.364H458.964V655H460.138V650.406ZM470.037 655.159C471.509 655.159 472.006 654.244 472.265 653.827H472.404V655H473.537V644.818H472.364V648.577H472.265C472.006 648.179 471.549 647.264 470.057 647.264C468.128 647.264 466.796 648.795 466.796 651.202C466.796 653.628 468.128 655.159 470.037 655.159ZM470.197 654.105C468.725 654.105 467.969 652.812 467.969 651.182C467.969 649.571 468.705 648.318 470.197 648.318C471.628 648.318 472.384 649.472 472.384 651.182C472.384 652.912 471.608 654.105 470.197 654.105ZM479.051 655.159C480.602 655.159 481.736 654.384 482.094 653.23L480.96 652.912C480.662 653.707 479.971 654.105 479.051 654.105C477.674 654.105 476.724 653.215 476.67 651.58H482.213V651.082C482.213 648.239 480.523 647.264 478.932 647.264C476.863 647.264 475.491 648.895 475.491 651.241C475.491 653.588 476.844 655.159 479.051 655.159ZM476.67 650.565C476.749 649.377 477.589 648.318 478.932 648.318C480.204 648.318 481.02 649.273 481.02 650.565H476.67ZM485.171 650.406C485.171 649.074 485.996 648.318 487.12 648.318C488.209 648.318 488.87 649.029 488.87 650.227V655H490.043V650.148C490.043 648.199 489.004 647.264 487.458 647.264C486.305 647.264 485.589 647.781 485.231 648.557H485.131V647.364H483.998V655H485.171V650.406ZM495.289 655.159C496.98 655.159 498.093 654.125 498.292 652.773H497.119C496.9 653.608 496.204 654.105 495.289 654.105C493.897 654.105 493.002 652.952 493.002 651.182C493.002 649.452 493.917 648.318 495.289 648.318C496.324 648.318 496.94 648.955 497.119 649.651H498.292C498.093 648.219 496.88 647.264 495.27 647.264C493.201 647.264 491.829 648.895 491.829 651.222C491.829 653.509 493.142 655.159 495.289 655.159ZM500.007 655H501.181V647.364H500.007V655ZM500.604 646.091C501.061 646.091 501.439 645.733 501.439 645.295C501.439 644.858 501.061 644.5 500.604 644.5C500.147 644.5 499.769 644.858 499.769 645.295C499.769 645.733 500.147 646.091 500.604 646.091ZM506.531 655.159C508.083 655.159 509.216 654.384 509.574 653.23L508.441 652.912C508.142 653.707 507.451 654.105 506.531 654.105C505.154 654.105 504.205 653.215 504.15 651.58H509.693V651.082C509.693 648.239 508.003 647.264 506.412 647.264C504.344 647.264 502.972 648.895 502.972 651.241C502.972 653.588 504.324 655.159 506.531 655.159ZM504.15 650.565C504.23 649.377 505.07 648.318 506.412 648.318C507.685 648.318 508.5 649.273 508.5 650.565H504.15ZM516.887 649.074C516.519 647.99 515.694 647.264 514.183 647.264C512.572 647.264 511.379 648.179 511.379 649.472C511.379 650.526 512.005 651.232 513.407 651.56L514.68 651.858C515.45 652.037 515.813 652.405 515.813 652.932C515.813 653.588 515.117 654.125 514.024 654.125C513.064 654.125 512.463 653.712 512.254 652.892L511.14 653.17C511.414 654.468 512.482 655.159 514.044 655.159C515.818 655.159 517.026 654.19 517.026 652.872C517.026 651.808 516.36 651.137 514.998 650.804L513.865 650.526C512.96 650.302 512.552 649.999 512.552 649.412C512.552 648.756 513.248 648.278 514.183 648.278C515.207 648.278 515.629 648.845 515.833 649.372L516.887 649.074Z" fill="#667085"/>
<circle cx="144" cy="674" r="4" fill="#B692F6"/>
<path d="M165.426 672C165.048 669.912 163.378 668.679 161.33 668.679C158.724 668.679 156.835 670.688 156.835 673.909C156.835 677.131 158.724 679.139 161.33 679.139C163.378 679.139 165.048 677.906 165.426 675.818H164.193C163.895 677.23 162.682 677.986 161.33 677.986C159.48 677.986 158.028 676.554 158.028 673.909C158.028 671.264 159.48 669.832 161.33 669.832C162.682 669.832 163.895 670.588 164.193 672H165.426ZM170.362 679.159C172.43 679.159 173.822 677.588 173.822 675.222C173.822 672.835 172.43 671.264 170.362 671.264C168.294 671.264 166.901 672.835 166.901 675.222C166.901 677.588 168.294 679.159 170.362 679.159ZM170.362 678.105C168.791 678.105 168.075 676.753 168.075 675.222C168.075 673.69 168.791 672.318 170.362 672.318C171.933 672.318 172.649 673.69 172.649 675.222C172.649 676.753 171.933 678.105 170.362 678.105ZM175.613 679H176.786V674.227C176.786 673.109 177.602 672.318 178.516 672.318C179.406 672.318 180.028 672.9 180.028 673.77V679H181.221V674.028C181.221 673.044 181.837 672.318 182.911 672.318C183.746 672.318 184.462 672.761 184.462 673.889V679H185.636V673.889C185.636 672.094 184.671 671.264 183.309 671.264C182.215 671.264 181.415 671.766 181.022 672.557H180.942C180.565 671.741 179.898 671.264 178.894 671.264C177.9 671.264 177.164 671.741 176.846 672.557H176.746V671.364H175.613V679ZM187.781 679H188.954V674.227C188.954 673.109 189.77 672.318 190.684 672.318C191.574 672.318 192.196 672.9 192.196 673.77V679H193.389V674.028C193.389 673.044 194.005 672.318 195.079 672.318C195.914 672.318 196.63 672.761 196.63 673.889V679H197.804V673.889C197.804 672.094 196.839 671.264 195.477 671.264C194.383 671.264 193.583 671.766 193.19 672.557H193.11C192.733 671.741 192.066 671.264 191.062 671.264C190.068 671.264 189.332 671.741 189.014 672.557H188.914V671.364H187.781V679ZM204.761 675.878C204.761 677.31 203.668 677.966 202.793 677.966C201.818 677.966 201.122 677.25 201.122 676.136V671.364H199.949V676.216C199.949 678.165 200.983 679.099 202.415 679.099C203.568 679.099 204.324 678.483 204.682 677.707H204.761V679H205.935V671.364H204.761V675.878ZM209.257 674.406C209.257 673.074 210.082 672.318 211.206 672.318C212.295 672.318 212.956 673.029 212.956 674.227V679H214.129V674.148C214.129 672.199 213.09 671.264 211.544 671.264C210.39 671.264 209.675 671.781 209.317 672.557H209.217V671.364H208.084V679H209.257V674.406ZM216.273 679H217.446V671.364H216.273V679ZM216.87 670.091C217.327 670.091 217.705 669.733 217.705 669.295C217.705 668.858 217.327 668.5 216.87 668.5C216.412 668.5 216.034 668.858 216.034 669.295C216.034 669.733 216.412 670.091 216.87 670.091ZM222.916 671.364H221.286V669.534H220.112V671.364H218.959V672.358H220.112V677.131C220.112 678.463 221.186 679.099 222.181 679.099C222.618 679.099 222.896 679.02 223.056 678.96L222.817 677.906C222.718 677.926 222.558 677.966 222.3 677.966C221.783 677.966 221.286 677.807 221.286 676.812V672.358H222.916V671.364ZM225.437 681.864C226.496 681.864 227.242 681.302 227.684 680.114L230.936 671.384L229.653 671.364L227.545 677.449H227.465L225.357 671.364H224.085L226.909 679.04L226.69 679.636C226.262 680.8 225.735 680.909 224.88 680.69L224.582 681.724C224.701 681.784 225.039 681.864 225.437 681.864ZM236.585 679H237.817V675.281H240.045C242.416 675.281 243.485 673.839 243.485 672.04C243.485 670.24 242.416 668.818 240.025 668.818H236.585V679ZM237.817 674.188V669.912H239.985C241.641 669.912 242.272 670.817 242.272 672.04C242.272 673.263 241.641 674.188 240.005 674.188H237.817ZM245.312 679H246.485V674.168C246.485 673.134 247.301 672.378 248.414 672.378C248.728 672.378 249.051 672.438 249.13 672.457V671.264C248.996 671.254 248.688 671.244 248.514 671.244C247.599 671.244 246.804 671.761 246.525 672.517H246.446V671.364H245.312V679ZM253.391 679.159C255.459 679.159 256.851 677.588 256.851 675.222C256.851 672.835 255.459 671.264 253.391 671.264C251.323 671.264 249.931 672.835 249.931 675.222C249.931 677.588 251.323 679.159 253.391 679.159ZM253.391 678.105C251.82 678.105 251.104 676.753 251.104 675.222C251.104 673.69 251.82 672.318 253.391 672.318C254.962 672.318 255.678 673.69 255.678 675.222C255.678 676.753 254.962 678.105 253.391 678.105ZM258.642 671.364V679.557C258.642 680.332 258.324 680.77 257.608 680.77H257.389V681.864H257.628C259.1 681.864 259.816 680.969 259.816 679.557V671.364H258.642ZM259.219 670.091C259.676 670.091 260.054 669.733 260.054 669.295C260.054 668.858 259.676 668.5 259.219 668.5C258.762 668.5 258.384 668.858 258.384 669.295C258.384 669.733 258.762 670.091 259.219 670.091ZM265.166 679.159C266.717 679.159 267.851 678.384 268.209 677.23L267.075 676.912C266.777 677.707 266.086 678.105 265.166 678.105C263.789 678.105 262.839 677.215 262.785 675.58H268.328V675.082C268.328 672.239 266.638 671.264 265.047 671.264C262.979 671.264 261.607 672.895 261.607 675.241C261.607 677.588 262.959 679.159 265.166 679.159ZM262.785 674.565C262.864 673.377 263.705 672.318 265.047 672.318C266.32 672.318 267.135 673.273 267.135 674.565H262.785ZM273.215 679.159C274.906 679.159 276.019 678.125 276.218 676.773H275.045C274.826 677.608 274.13 678.105 273.215 678.105C271.823 678.105 270.928 676.952 270.928 675.182C270.928 673.452 271.843 672.318 273.215 672.318C274.249 672.318 274.866 672.955 275.045 673.651H276.218C276.019 672.219 274.806 671.264 273.195 671.264C271.127 671.264 269.755 672.895 269.755 675.222C269.755 677.509 271.067 679.159 273.215 679.159ZM281.254 671.364H279.624V669.534H278.45V671.364H277.297V672.358H278.45V677.131C278.45 678.463 279.524 679.099 280.518 679.099C280.956 679.099 281.234 679.02 281.393 678.96L281.155 677.906C281.055 677.926 280.896 677.966 280.638 677.966C280.121 677.966 279.624 677.807 279.624 676.812V672.358H281.254V671.364ZM288.292 673.074C287.924 671.99 287.098 671.264 285.587 671.264C283.976 671.264 282.783 672.179 282.783 673.472C282.783 674.526 283.409 675.232 284.811 675.56L286.084 675.858C286.855 676.037 287.218 676.405 287.218 676.932C287.218 677.588 286.522 678.125 285.428 678.125C284.468 678.125 283.867 677.712 283.658 676.892L282.544 677.17C282.818 678.468 283.887 679.159 285.448 679.159C287.223 679.159 288.431 678.19 288.431 676.872C288.431 675.808 287.765 675.137 286.402 674.804L285.269 674.526C284.364 674.302 283.956 673.999 283.956 673.412C283.956 672.756 284.652 672.278 285.587 672.278C286.611 672.278 287.034 672.845 287.238 673.372L288.292 673.074Z" fill="#667085"/>
<circle cx="326" cy="674" r="4" fill="#D6BBFB"/>
<path d="M344.801 671.364H345.994C345.94 669.827 344.523 668.679 342.554 668.679C340.605 668.679 339.074 669.812 339.074 671.523C339.074 672.895 340.068 673.71 341.659 674.168L342.912 674.526C343.986 674.824 344.94 675.202 344.94 676.216C344.94 677.33 343.866 678.065 342.455 678.065C341.241 678.065 340.168 677.528 340.068 676.375H338.795C338.915 678.045 340.267 679.179 342.455 679.179C344.801 679.179 346.134 677.886 346.134 676.236C346.134 674.327 344.324 673.71 343.27 673.432L342.236 673.153C341.48 672.955 340.267 672.557 340.267 671.463C340.267 670.489 341.162 669.773 342.514 669.773C343.747 669.773 344.682 670.359 344.801 671.364ZM352.814 675.878C352.814 677.31 351.72 677.966 350.845 677.966C349.871 677.966 349.175 677.25 349.175 676.136V671.364H348.002V676.216C348.002 678.165 349.036 679.099 350.468 679.099C351.621 679.099 352.377 678.483 352.735 677.707H352.814V679H353.987V671.364H352.814V675.878ZM356.136 681.864H357.31V677.827H357.409C357.668 678.244 358.165 679.159 359.636 679.159C361.545 679.159 362.878 677.628 362.878 675.202C362.878 672.795 361.545 671.264 359.616 671.264C358.125 671.264 357.668 672.179 357.409 672.577H357.27V671.364H356.136V681.864ZM357.29 675.182C357.29 673.472 358.045 672.318 359.477 672.318C360.969 672.318 361.705 673.571 361.705 675.182C361.705 676.812 360.949 678.105 359.477 678.105C358.065 678.105 357.29 676.912 357.29 675.182ZM364.668 681.864H365.841V677.827H365.94C366.199 678.244 366.696 679.159 368.168 679.159C370.077 679.159 371.409 677.628 371.409 675.202C371.409 672.795 370.077 671.264 368.148 671.264C366.656 671.264 366.199 672.179 365.94 672.577H365.801V671.364H364.668V681.864ZM365.821 675.182C365.821 673.472 366.577 672.318 368.009 672.318C369.5 672.318 370.236 673.571 370.236 675.182C370.236 676.812 369.48 678.105 368.009 678.105C366.597 678.105 365.821 676.912 365.821 675.182ZM376.301 679.159C378.369 679.159 379.761 677.588 379.761 675.222C379.761 672.835 378.369 671.264 376.301 671.264C374.233 671.264 372.841 672.835 372.841 675.222C372.841 677.588 374.233 679.159 376.301 679.159ZM376.301 678.105C374.73 678.105 374.014 676.753 374.014 675.222C374.014 673.69 374.73 672.318 376.301 672.318C377.872 672.318 378.588 673.69 378.588 675.222C378.588 676.753 377.872 678.105 376.301 678.105ZM381.552 679H382.726V674.168C382.726 673.134 383.541 672.378 384.655 672.378C384.968 672.378 385.291 672.438 385.371 672.457V671.264C385.236 671.254 384.928 671.244 384.754 671.244C383.839 671.244 383.044 671.761 382.765 672.517H382.686V671.364H381.552V679ZM390.561 671.364H388.93V669.534H387.757V671.364H386.604V672.358H387.757V677.131C387.757 678.463 388.831 679.099 389.825 679.099C390.263 679.099 390.541 679.02 390.7 678.96L390.461 677.906C390.362 677.926 390.203 677.966 389.944 677.966C389.427 677.966 388.93 677.807 388.93 676.812V672.358H390.561V671.364ZM401.991 671.364H403.184C403.129 669.827 401.712 668.679 399.743 668.679C397.795 668.679 396.263 669.812 396.263 671.523C396.263 672.895 397.258 673.71 398.849 674.168L400.101 674.526C401.175 674.824 402.13 675.202 402.13 676.216C402.13 677.33 401.056 678.065 399.644 678.065C398.431 678.065 397.357 677.528 397.258 676.375H395.985C396.104 678.045 397.456 679.179 399.644 679.179C401.991 679.179 403.323 677.886 403.323 676.236C403.323 674.327 401.513 673.71 400.459 673.432L399.425 673.153C398.67 672.955 397.456 672.557 397.456 671.463C397.456 670.489 398.351 669.773 399.704 669.773C400.937 669.773 401.871 670.359 401.991 671.364ZM405.947 681.864C407.006 681.864 407.751 681.302 408.194 680.114L411.445 671.384L410.163 671.364L408.055 677.449H407.975L405.867 671.364H404.594L407.418 679.04L407.2 679.636C406.772 680.8 406.245 680.909 405.39 680.69L405.092 681.724C405.211 681.784 405.549 681.864 405.947 681.864ZM418.407 673.074C418.039 671.99 417.214 671.264 415.702 671.264C414.091 671.264 412.898 672.179 412.898 673.472C412.898 674.526 413.525 675.232 414.927 675.56L416.199 675.858C416.97 676.037 417.333 676.405 417.333 676.932C417.333 677.588 416.637 678.125 415.543 678.125C414.584 678.125 413.982 677.712 413.773 676.892L412.66 677.17C412.933 678.468 414.002 679.159 415.563 679.159C417.338 679.159 418.546 678.19 418.546 676.872C418.546 675.808 417.88 675.137 416.518 674.804L415.384 674.526C414.479 674.302 414.072 673.999 414.072 673.412C414.072 672.756 414.768 672.278 415.702 672.278C416.726 672.278 417.149 672.845 417.353 673.372L418.407 673.074ZM423.633 671.364H422.002V669.534H420.829V671.364H419.676V672.358H420.829V677.131C420.829 678.463 421.903 679.099 422.897 679.099C423.335 679.099 423.613 679.02 423.772 678.96L423.534 677.906C423.434 677.926 423.275 677.966 423.017 677.966C422.5 677.966 422.002 677.807 422.002 676.812V672.358H423.633V671.364ZM428.518 679.159C430.069 679.159 431.202 678.384 431.56 677.23L430.427 676.912C430.129 677.707 429.438 678.105 428.518 678.105C427.141 678.105 426.191 677.215 426.136 675.58H431.68V675.082C431.68 672.239 429.989 671.264 428.398 671.264C426.33 671.264 424.958 672.895 424.958 675.241C424.958 677.588 426.31 679.159 428.518 679.159ZM426.136 674.565C426.216 673.377 427.056 672.318 428.398 672.318C429.671 672.318 430.487 673.273 430.487 674.565H426.136ZM433.464 679H434.638V674.227C434.638 673.109 435.453 672.318 436.368 672.318C437.258 672.318 437.879 672.9 437.879 673.77V679H439.072V674.028C439.072 673.044 439.689 672.318 440.763 672.318C441.598 672.318 442.314 672.761 442.314 673.889V679H443.487V673.889C443.487 672.094 442.523 671.264 441.161 671.264C440.067 671.264 439.266 671.766 438.874 672.557H438.794C438.416 671.741 437.75 671.264 436.746 671.264C435.751 671.264 435.016 671.741 434.697 672.557H434.598V671.364H433.464V679ZM451.042 673.074C450.674 671.99 449.848 671.264 448.337 671.264C446.726 671.264 445.533 672.179 445.533 673.472C445.533 674.526 446.159 675.232 447.561 675.56L448.834 675.858C449.605 676.037 449.968 676.405 449.968 676.932C449.968 677.588 449.272 678.125 448.178 678.125C447.218 678.125 446.617 677.712 446.408 676.892L445.294 677.17C445.568 678.468 446.637 679.159 448.198 679.159C449.973 679.159 451.181 678.19 451.181 676.872C451.181 675.808 450.515 675.137 449.152 674.804L448.019 674.526C447.114 674.302 446.706 673.999 446.706 673.412C446.706 672.756 447.402 672.278 448.337 672.278C449.361 672.278 449.784 672.845 449.988 673.372L451.042 673.074Z" fill="#667085"/>
</svg>
