<svg width="592" height="684" fill="none" xmlns="http://www.w3.org/2000/svg"><path d="M592 296c0 163.476-132.524 296-296 296S0 459.476 0 296 132.524 0 296 0s296 132.524 296 296Zm-444 0c0 81.738 66.262 148 148 148s148-66.262 148-148-66.262-148-148-148-148 66.262-148 148Z" fill="#DEDEFF"/><path d="M296 0a295.997 295.997 0 0 1 281.513 204.531l-140.757 45.734A148 148 0 0 0 296 148V0Z" fill="#8080F2"/><path d="M577.513 204.531a295.999 295.999 0 0 1-372.982 372.982l45.735-140.757a147.991 147.991 0 0 0 150.386-36.104 148.004 148.004 0 0 0 36.104-150.387l140.757-45.734Z" fill="#A0A0F5"/><path d="M204.531 577.513a296.003 296.003 0 0 1-148-107.529l119.734-86.992a148 148 0 0 0 74 53.764l-45.734 140.757Z" fill="#B7B7FF"/><path d="M56.531 469.984A296 296 0 0 1 2.334 258.901l146.833 18.55a148 148 0 0 0 27.098 105.541L56.531 469.984Z" fill="#CCCCFA"/><circle cx="78" cy="650" r="4" fill="#7F56D9"/><path d="M90.676 645.912h3.202V655h1.233v-9.088h3.201v-1.094h-7.636v1.094Zm11.475 9.247c1.551 0 2.684-.775 3.042-1.929l-1.133-.318c-.299.795-.99 1.193-1.909 1.193-1.378 0-2.327-.89-2.382-2.525h5.543v-.498c0-2.843-1.69-3.818-3.281-3.818-2.068 0-3.44 1.631-3.44 3.977 0 2.347 1.352 3.918 3.56 3.918Zm-2.382-4.594c.08-1.188.92-2.247 2.262-2.247 1.273 0 2.088.955 2.088 2.247h-4.35Zm9.575 4.614c1.333 0 2.029-.716 2.268-1.213h.059V655h1.173v-5.031c0-2.426-1.849-2.705-2.823-2.705-1.154 0-2.466.398-3.063 1.79l1.114.398c.258-.557.87-1.154 1.988-1.154 1.079 0 1.611.572 1.611 1.551v.04c0 .567-.577.517-1.969.696-1.416.184-2.963.497-2.963 2.247 0 1.492 1.154 2.347 2.605 2.347Zm.179-1.054c-.934 0-1.61-.418-1.61-1.233 0-.895.815-1.173 1.73-1.293.497-.059 1.829-.198 2.028-.437v1.074c0 .954-.756 1.889-2.148 1.889Zm5.463.875h1.173v-4.773c0-1.118.816-1.909 1.73-1.909.89 0 1.512.582 1.512 1.452V655h1.193v-4.972c0-.984.616-1.71 1.69-1.71.835 0 1.551.443 1.551 1.571V655h1.174v-5.111c0-1.795-.965-2.625-2.327-2.625-1.094 0-1.894.502-2.287 1.293h-.079c-.378-.816-1.045-1.293-2.049-1.293-.994 0-1.73.477-2.048 1.293h-.1v-1.193h-1.133V655Zm19.407 0c3.102 0 4.852-1.929 4.852-5.111 0-3.162-1.75-5.071-4.713-5.071h-3.281V655h3.142Zm-1.91-1.094v-7.994h1.969c2.387 0 3.6 1.511 3.6 3.977 0 2.486-1.213 4.017-3.739 4.017h-1.83Zm11.873 1.253c1.551 0 2.684-.775 3.042-1.929l-1.133-.318c-.299.795-.99 1.193-1.909 1.193-1.377 0-2.327-.89-2.382-2.525h5.544v-.498c0-2.843-1.691-3.818-3.282-3.818-2.068 0-3.44 1.631-3.44 3.977 0 2.347 1.352 3.918 3.56 3.918Zm-2.382-4.594c.08-1.188.92-2.247 2.262-2.247 1.273 0 2.088.955 2.088 2.247h-4.35Zm13.34-3.201h-1.272l-2.108 6.085h-.08l-2.108-6.085h-1.273l2.824 7.636h1.193l2.824-7.636Zm4.477 7.795c1.551 0 2.685-.775 3.043-1.929l-1.134-.318c-.298.795-.989 1.193-1.909 1.193-1.377 0-2.327-.89-2.381-2.525h5.543v-.498c0-2.843-1.69-3.818-3.281-3.818-2.068 0-3.44 1.631-3.44 3.977 0 2.347 1.352 3.918 3.559 3.918Zm-2.381-4.594c.079-1.188.92-2.247 2.262-2.247 1.273 0 2.088.955 2.088 2.247h-4.35Zm8.501-5.747h-1.173V655h1.173v-10.182Zm5.251 10.341c2.069 0 3.461-1.571 3.461-3.937 0-2.387-1.392-3.958-3.461-3.958-2.068 0-3.46 1.571-3.46 3.958 0 2.366 1.392 3.937 3.46 3.937Zm0-1.054c-1.571 0-2.286-1.352-2.286-2.883 0-1.532.715-2.904 2.286-2.904 1.571 0 2.287 1.372 2.287 2.904 0 1.531-.716 2.883-2.287 2.883Zm5.252 3.759h1.173v-4.037h.099c.259.417.756 1.332 2.228 1.332 1.909 0 3.241-1.531 3.241-3.957 0-2.407-1.332-3.938-3.261-3.938-1.492 0-1.949.915-2.208 1.313h-.139v-1.213h-1.133v10.5Zm1.153-6.682c0-1.71.756-2.864 2.188-2.864 1.491 0 2.227 1.253 2.227 2.864 0 1.63-.756 2.923-2.227 2.923-1.412 0-2.188-1.193-2.188-2.923Zm7.378 3.818h1.173v-4.773c0-1.118.816-1.909 1.73-1.909.89 0 1.512.582 1.512 1.452V655h1.193v-4.972c0-.984.616-1.71 1.69-1.71.835 0 1.551.443 1.551 1.571V655h1.174v-5.111c0-1.795-.965-2.625-2.327-2.625-1.094 0-1.894.502-2.287 1.293h-.079c-.378-.816-1.045-1.293-2.049-1.293-.994 0-1.73.477-2.048 1.293h-.1v-1.193h-1.133V655Zm15.37.159c1.551 0 2.684-.775 3.042-1.929l-1.133-.318c-.299.795-.99 1.193-1.909 1.193-1.377 0-2.327-.89-2.382-2.525h5.544v-.498c0-2.843-1.691-3.818-3.282-3.818-2.068 0-3.44 1.631-3.44 3.977 0 2.347 1.352 3.918 3.56 3.918Zm-2.382-4.594c.08-1.188.92-2.247 2.262-2.247 1.273 0 2.088.955 2.088 2.247h-4.35Zm8.502-.159c0-1.332.825-2.088 1.949-2.088 1.088 0 1.75.711 1.75 1.909V655h1.173v-4.852c0-1.949-1.039-2.884-2.585-2.884-1.154 0-1.87.517-2.228 1.293h-.099v-1.193h-1.134V655h1.174v-4.594Zm10.337-3.042h-1.631v-1.83h-1.173v1.83h-1.154v.994h1.154v4.773c0 1.332 1.074 1.968 2.068 1.968.438 0 .716-.079.875-.139l-.239-1.054c-.099.02-.258.06-.517.06-.517 0-1.014-.159-1.014-1.154v-4.454h1.631v-.994Z" fill="#667085"/><circle cx="254" cy="650" r="4" fill="#F4EBFF"/><path d="M275.426 648c-.378-2.088-2.048-3.321-4.096-3.321-2.606 0-4.495 2.009-4.495 5.23 0 3.222 1.889 5.23 4.495 5.23 2.048 0 3.718-1.233 4.096-3.321h-1.233c-.298 1.412-1.511 2.168-2.863 2.168-1.85 0-3.302-1.432-3.302-4.077s1.452-4.077 3.302-4.077c1.352 0 2.565.756 2.863 2.168h1.233Zm4.936 7.159c2.068 0 3.46-1.571 3.46-3.937 0-2.387-1.392-3.958-3.46-3.958s-3.461 1.571-3.461 3.958c0 2.366 1.393 3.937 3.461 3.937Zm0-1.054c-1.571 0-2.287-1.352-2.287-2.883 0-1.532.716-2.904 2.287-2.904s2.287 1.372 2.287 2.904c0 1.531-.716 2.883-2.287 2.883Zm6.424-3.699c0-1.332.826-2.088 1.949-2.088 1.089 0 1.75.711 1.75 1.909V655h1.173v-4.852c0-1.949-1.039-2.884-2.585-2.884-1.153 0-1.869.517-2.227 1.293h-.1v-1.193h-1.133V655h1.173v-4.594Zm10.337-3.042h-1.63v-1.83h-1.174v1.83h-1.153v.994h1.153v4.773c0 1.332 1.074 1.968 2.069 1.968.437 0 .716-.079.875-.139l-.239-1.054c-.099.02-.259.06-.517.06-.517 0-1.014-.159-1.014-1.154v-4.454h1.63v-.994Zm1.765 7.636h1.174v-4.832c0-1.034.815-1.79 1.929-1.79.313 0 .636.06.715.079v-1.193c-.134-.01-.442-.02-.616-.02-.915 0-1.71.517-1.989 1.273h-.079v-1.153h-1.134V655Zm5.209 0h1.174v-7.636h-1.174V655Zm.597-8.909c.457 0 .835-.358.835-.796 0-.437-.378-.795-.835-.795-.457 0-.835.358-.835.795 0 .438.378.796.835.796Zm2.885 8.909h1.133v-1.173h.139c.259.417.756 1.332 2.228 1.332 1.909 0 3.241-1.531 3.241-3.957 0-2.407-1.332-3.938-3.261-3.938-1.492 0-1.949.915-2.208 1.313h-.099v-3.759h-1.173V655Zm1.153-3.818c0-1.71.756-2.864 2.188-2.864 1.491 0 2.227 1.253 2.227 2.864 0 1.63-.756 2.923-2.227 2.923-1.412 0-2.188-1.193-2.188-2.923Zm12.195.696c0 1.432-1.093 2.088-1.968 2.088-.975 0-1.671-.716-1.671-1.83v-4.772h-1.173v4.852c0 1.949 1.034 2.883 2.466 2.883 1.153 0 1.909-.616 2.267-1.392h.079V655h1.174v-7.636h-1.174v4.514Zm6.644-4.514h-1.631v-1.83h-1.173v1.83h-1.154v.994h1.154v4.773c0 1.332 1.074 1.968 2.068 1.968.437 0 .716-.079.875-.139l-.239-1.054c-.099.02-.258.06-.517.06-.517 0-1.014-.159-1.014-1.154v-4.454h1.631v-.994Zm4.785 7.795c2.068 0 3.46-1.571 3.46-3.937 0-2.387-1.392-3.958-3.46-3.958s-3.46 1.571-3.46 3.958c0 2.366 1.392 3.937 3.46 3.937Zm0-1.054c-1.571 0-2.287-1.352-2.287-2.883 0-1.532.716-2.904 2.287-2.904s2.287 1.372 2.287 2.904c0 1.531-.716 2.883-2.287 2.883Zm5.251.895h1.173v-4.832c0-1.034.816-1.79 1.929-1.79.314 0 .637.06.716.079v-1.193c-.134-.01-.442-.02-.616-.02-.915 0-1.71.517-1.989 1.273h-.079v-1.153h-1.134V655Zm9.306 0h1.233v-3.719h2.227c2.371 0 3.44-1.442 3.44-3.241 0-1.8-1.069-3.222-3.46-3.222h-3.44V655Zm1.233-4.812v-4.276h2.167c1.656 0 2.287.905 2.287 2.128s-.631 2.148-2.267 2.148h-2.187Zm10.515 4.971c2.068 0 3.46-1.571 3.46-3.937 0-2.387-1.392-3.958-3.46-3.958-2.069 0-3.461 1.571-3.461 3.958 0 2.366 1.392 3.937 3.461 3.937Zm0-1.054c-1.572 0-2.287-1.352-2.287-2.883 0-1.532.715-2.904 2.287-2.904 1.571 0 2.286 1.372 2.286 2.904 0 1.531-.715 2.883-2.286 2.883Zm8.353 1.054c2.068 0 3.46-1.571 3.46-3.937 0-2.387-1.392-3.958-3.46-3.958s-3.46 1.571-3.46 3.958c0 2.366 1.392 3.937 3.46 3.937Zm0-1.054c-1.571 0-2.287-1.352-2.287-2.883 0-1.532.716-2.904 2.287-2.904s2.287 1.372 2.287 2.904c0 1.531-.716 2.883-2.287 2.883Zm6.425-9.287h-1.174V655h1.174v-10.182Z" fill="#667085"/><circle cx="411" cy="650" r="4" fill="#9E77ED"/><path d="M427.375 655c3.102 0 4.852-1.929 4.852-5.111 0-3.162-1.75-5.071-4.713-5.071h-3.281V655h3.142Zm-1.909-1.094v-7.994h1.969c2.386 0 3.599 1.511 3.599 3.977 0 2.486-1.213 4.017-3.739 4.017h-1.829Zm11.872 1.253c1.551 0 2.685-.775 3.043-1.929l-1.134-.318c-.298.795-.989 1.193-1.909 1.193-1.377 0-2.327-.89-2.381-2.525h5.543v-.498c0-2.843-1.69-3.818-3.281-3.818-2.068 0-3.441 1.631-3.441 3.977 0 2.347 1.353 3.918 3.56 3.918Zm-2.381-4.594c.079-1.188.919-2.247 2.262-2.247 1.272 0 2.088.955 2.088 2.247h-4.35Zm7.328 7.299h1.173v-4.037h.1c.258.417.755 1.332 2.227 1.332 1.909 0 3.241-1.531 3.241-3.957 0-2.407-1.332-3.938-3.261-3.938-1.492 0-1.949.915-2.207 1.313h-.14v-1.213h-1.133v10.5Zm1.153-6.682c0-1.71.756-2.864 2.188-2.864 1.491 0 2.227 1.253 2.227 2.864 0 1.63-.756 2.923-2.227 2.923-1.412 0-2.188-1.193-2.188-2.923Zm10.58 3.977c1.551 0 2.684-.775 3.042-1.929l-1.133-.318c-.298.795-.989 1.193-1.909 1.193-1.377 0-2.327-.89-2.382-2.525h5.544v-.498c0-2.843-1.691-3.818-3.282-3.818-2.068 0-3.44 1.631-3.44 3.977 0 2.347 1.352 3.918 3.56 3.918Zm-2.382-4.594c.08-1.188.92-2.247 2.262-2.247 1.273 0 2.089.955 2.089 2.247h-4.351Zm8.502-.159c0-1.332.825-2.088 1.949-2.088 1.088 0 1.75.711 1.75 1.909V655h1.173v-4.852c0-1.949-1.039-2.884-2.585-2.884-1.154 0-1.87.517-2.228 1.293h-.099v-1.193h-1.134V655h1.174v-4.594Zm9.899 4.753c1.472 0 1.969-.915 2.228-1.332h.139V655h1.133v-10.182h-1.173v3.759h-.099c-.259-.398-.716-1.313-2.208-1.313-1.929 0-3.261 1.531-3.261 3.938 0 2.426 1.332 3.957 3.241 3.957Zm.16-1.054c-1.472 0-2.228-1.293-2.228-2.923 0-1.611.736-2.864 2.228-2.864 1.431 0 2.187 1.154 2.187 2.864 0 1.73-.776 2.923-2.187 2.923Zm8.854 1.054c1.551 0 2.685-.775 3.043-1.929l-1.134-.318c-.298.795-.989 1.193-1.909 1.193-1.377 0-2.327-.89-2.381-2.525h5.543v-.498c0-2.843-1.69-3.818-3.281-3.818-2.069 0-3.441 1.631-3.441 3.977 0 2.347 1.353 3.918 3.56 3.918Zm-2.381-4.594c.079-1.188.919-2.247 2.262-2.247 1.272 0 2.088.955 2.088 2.247h-4.35Zm8.501-.159c0-1.332.825-2.088 1.949-2.088 1.089 0 1.75.711 1.75 1.909V655h1.173v-4.852c0-1.949-1.039-2.884-2.585-2.884-1.153 0-1.869.517-2.227 1.293h-.1v-1.193h-1.133V655h1.173v-4.594Zm10.118 4.753c1.691 0 2.804-1.034 3.003-2.386h-1.173c-.219.835-.915 1.332-1.83 1.332-1.392 0-2.287-1.153-2.287-2.923 0-1.73.915-2.864 2.287-2.864 1.035 0 1.651.637 1.83 1.333h1.173c-.199-1.432-1.412-2.387-3.022-2.387-2.069 0-3.441 1.631-3.441 3.958 0 2.287 1.313 3.937 3.46 3.937Zm4.718-.159h1.174v-7.636h-1.174V655Zm.597-8.909c.457 0 .835-.358.835-.796 0-.437-.378-.795-.835-.795-.457 0-.835.358-.835.795 0 .438.378.796.835.796Zm5.927 9.068c1.552 0 2.685-.775 3.043-1.929l-1.133-.318c-.299.795-.99 1.193-1.91 1.193-1.377 0-2.326-.89-2.381-2.525h5.543v-.498c0-2.843-1.69-3.818-3.281-3.818-2.068 0-3.44 1.631-3.44 3.977 0 2.347 1.352 3.918 3.559 3.918Zm-2.381-4.594c.08-1.188.92-2.247 2.262-2.247 1.273 0 2.088.955 2.088 2.247h-4.35Zm12.737-1.491c-.368-1.084-1.193-1.81-2.704-1.81-1.611 0-2.804.915-2.804 2.208 0 1.054.626 1.76 2.028 2.088l1.273.298c.77.179 1.133.547 1.133 1.074 0 .656-.696 1.193-1.789 1.193-.96 0-1.561-.413-1.77-1.233l-1.114.278c.274 1.298 1.342 1.989 2.904 1.989 1.774 0 2.982-.969 2.982-2.287 0-1.064-.666-1.735-2.028-2.068l-1.133-.278c-.905-.224-1.313-.527-1.313-1.114 0-.656.696-1.134 1.631-1.134 1.024 0 1.446.567 1.65 1.094l1.054-.298Z" fill="#667085"/><circle cx="144" cy="674" r="4" fill="#B692F6"/><path d="M165.426 672c-.378-2.088-2.048-3.321-4.096-3.321-2.606 0-4.495 2.009-4.495 5.23 0 3.222 1.889 5.23 4.495 5.23 2.048 0 3.718-1.233 4.096-3.321h-1.233c-.298 1.412-1.511 2.168-2.863 2.168-1.85 0-3.302-1.432-3.302-4.077s1.452-4.077 3.302-4.077c1.352 0 2.565.756 2.863 2.168h1.233Zm4.936 7.159c2.068 0 3.46-1.571 3.46-3.937 0-2.387-1.392-3.958-3.46-3.958s-3.461 1.571-3.461 3.958c0 2.366 1.393 3.937 3.461 3.937Zm0-1.054c-1.571 0-2.287-1.352-2.287-2.883 0-1.532.716-2.904 2.287-2.904s2.287 1.372 2.287 2.904c0 1.531-.716 2.883-2.287 2.883Zm5.251.895h1.173v-4.773c0-1.118.816-1.909 1.73-1.909.89 0 1.512.582 1.512 1.452V679h1.193v-4.972c0-.984.616-1.71 1.69-1.71.835 0 1.551.443 1.551 1.571V679h1.174v-5.111c0-1.795-.965-2.625-2.327-2.625-1.094 0-1.894.502-2.287 1.293h-.08c-.377-.816-1.044-1.293-2.048-1.293-.994 0-1.73.477-2.048 1.293h-.1v-1.193h-1.133V679Zm12.168 0h1.173v-4.773c0-1.118.816-1.909 1.73-1.909.89 0 1.512.582 1.512 1.452V679h1.193v-4.972c0-.984.616-1.71 1.69-1.71.835 0 1.551.443 1.551 1.571V679h1.174v-5.111c0-1.795-.965-2.625-2.327-2.625-1.094 0-1.894.502-2.287 1.293h-.08c-.377-.816-1.044-1.293-2.048-1.293-.994 0-1.73.477-2.048 1.293h-.1v-1.193h-1.133V679Zm16.98-3.122c0 1.432-1.093 2.088-1.968 2.088-.975 0-1.671-.716-1.671-1.83v-4.772h-1.173v4.852c0 1.949 1.034 2.883 2.466 2.883 1.153 0 1.909-.616 2.267-1.392h.079V679h1.174v-7.636h-1.174v4.514Zm4.496-1.472c0-1.332.825-2.088 1.949-2.088 1.089 0 1.75.711 1.75 1.909V679h1.173v-4.852c0-1.949-1.039-2.884-2.585-2.884-1.154 0-1.869.517-2.227 1.293h-.1v-1.193h-1.133V679h1.173v-4.594Zm7.016 4.594h1.173v-7.636h-1.173V679Zm.597-8.909c.457 0 .835-.358.835-.796 0-.437-.378-.795-.835-.795-.458 0-.836.358-.836.795 0 .438.378.796.836.796Zm6.046 1.273h-1.63v-1.83h-1.174v1.83h-1.153v.994h1.153v4.773c0 1.332 1.074 1.968 2.069 1.968.437 0 .715-.079.875-.139l-.239-1.054c-.099.02-.259.06-.517.06-.517 0-1.014-.159-1.014-1.154v-4.454h1.63v-.994Zm2.521 10.5c1.059 0 1.805-.562 2.247-1.75l3.252-8.73-1.283-.02-2.108 6.085h-.08l-2.108-6.085h-1.272l2.824 7.676-.219.596c-.428 1.164-.955 1.273-1.81 1.054l-.298 1.034c.119.06.457.14.855.14ZM236.585 679h1.232v-3.719h2.228c2.371 0 3.44-1.442 3.44-3.241 0-1.8-1.069-3.222-3.46-3.222h-3.44V679Zm1.232-4.812v-4.276h2.168c1.656 0 2.287.905 2.287 2.128s-.631 2.148-2.267 2.148h-2.188Zm7.495 4.812h1.173v-4.832c0-1.034.816-1.79 1.929-1.79.314 0 .637.06.716.079v-1.193c-.134-.01-.442-.02-.616-.02-.915 0-1.71.517-1.989 1.273h-.079v-1.153h-1.134V679Zm8.079.159c2.068 0 3.46-1.571 3.46-3.937 0-2.387-1.392-3.958-3.46-3.958s-3.46 1.571-3.46 3.958c0 2.366 1.392 3.937 3.46 3.937Zm0-1.054c-1.571 0-2.287-1.352-2.287-2.883 0-1.532.716-2.904 2.287-2.904s2.287 1.372 2.287 2.904c0 1.531-.716 2.883-2.287 2.883Zm5.251-6.741v8.193c0 .775-.318 1.213-1.034 1.213h-.219v1.094h.239c1.472 0 2.188-.895 2.188-2.307v-8.193h-1.174Zm.577-1.273c.457 0 .835-.358.835-.796 0-.437-.378-.795-.835-.795-.457 0-.835.358-.835.795 0 .438.378.796.835.796Zm5.947 9.068c1.551 0 2.685-.775 3.043-1.929l-1.134-.318c-.298.795-.989 1.193-1.909 1.193-1.377 0-2.327-.89-2.381-2.525h5.543v-.498c0-2.843-1.69-3.818-3.281-3.818-2.068 0-3.44 1.631-3.44 3.977 0 2.347 1.352 3.918 3.559 3.918Zm-2.381-4.594c.079-1.188.92-2.247 2.262-2.247 1.273 0 2.088.955 2.088 2.247h-4.35Zm10.43 4.594c1.691 0 2.804-1.034 3.003-2.386h-1.173c-.219.835-.915 1.332-1.83 1.332-1.392 0-2.287-1.153-2.287-2.923 0-1.73.915-2.864 2.287-2.864 1.034 0 1.651.637 1.83 1.333h1.173c-.199-1.432-1.412-2.387-3.023-2.387-2.068 0-3.44 1.631-3.44 3.958 0 2.287 1.312 3.937 3.46 3.937Zm8.039-7.795h-1.63v-1.83h-1.174v1.83h-1.153v.994h1.153v4.773c0 1.332 1.074 1.968 2.068 1.968.438 0 .716-.079.875-.139l-.238-1.054c-.1.02-.259.06-.517.06-.517 0-1.014-.159-1.014-1.154v-4.454h1.63v-.994Zm7.038 1.71c-.368-1.084-1.194-1.81-2.705-1.81-1.611 0-2.804.915-2.804 2.208 0 1.054.626 1.76 2.028 2.088l1.273.298c.771.179 1.134.547 1.134 1.074 0 .656-.696 1.193-1.79 1.193-.96 0-1.561-.413-1.77-1.233l-1.114.278c.274 1.298 1.343 1.989 2.904 1.989 1.775 0 2.983-.969 2.983-2.287 0-1.064-.666-1.735-2.029-2.068l-1.133-.278c-.905-.224-1.313-.527-1.313-1.114 0-.656.696-1.134 1.631-1.134 1.024 0 1.447.567 1.651 1.094l1.054-.298Z" fill="#667085"/><circle cx="326" cy="674" r="4" fill="#D6BBFB"/><path d="M344.801 671.364h1.193c-.054-1.537-1.471-2.685-3.44-2.685-1.949 0-3.48 1.133-3.48 2.844 0 1.372.994 2.187 2.585 2.645l1.253.358c1.074.298 2.028.676 2.028 1.69 0 1.114-1.074 1.849-2.485 1.849-1.214 0-2.287-.537-2.387-1.69h-1.273c.12 1.67 1.472 2.804 3.66 2.804 2.346 0 3.679-1.293 3.679-2.943 0-1.909-1.81-2.526-2.864-2.804l-1.034-.279c-.756-.198-1.969-.596-1.969-1.69 0-.974.895-1.69 2.247-1.69 1.233 0 2.168.586 2.287 1.591Zm8.013 4.514c0 1.432-1.094 2.088-1.969 2.088-.974 0-1.67-.716-1.67-1.83v-4.772h-1.173v4.852c0 1.949 1.034 2.883 2.466 2.883 1.153 0 1.909-.616 2.267-1.392h.079V679h1.173v-7.636h-1.173v4.514Zm3.322 5.986h1.174v-4.037h.099c.259.417.756 1.332 2.227 1.332 1.909 0 3.242-1.531 3.242-3.957 0-2.407-1.333-3.938-3.262-3.938-1.491 0-1.948.915-2.207 1.313h-.139v-1.213h-1.134v10.5Zm1.154-6.682c0-1.71.755-2.864 2.187-2.864 1.492 0 2.228 1.253 2.228 2.864 0 1.63-.756 2.923-2.228 2.923-1.412 0-2.187-1.193-2.187-2.923Zm7.378 6.682h1.173v-4.037h.099c.259.417.756 1.332 2.228 1.332 1.909 0 3.241-1.531 3.241-3.957 0-2.407-1.332-3.938-3.261-3.938-1.492 0-1.949.915-2.208 1.313h-.139v-1.213h-1.133v10.5Zm1.153-6.682c0-1.71.756-2.864 2.188-2.864 1.491 0 2.227 1.253 2.227 2.864 0 1.63-.756 2.923-2.227 2.923-1.412 0-2.188-1.193-2.188-2.923Zm10.48 3.977c2.068 0 3.46-1.571 3.46-3.937 0-2.387-1.392-3.958-3.46-3.958s-3.46 1.571-3.46 3.958c0 2.366 1.392 3.937 3.46 3.937Zm0-1.054c-1.571 0-2.287-1.352-2.287-2.883 0-1.532.716-2.904 2.287-2.904s2.287 1.372 2.287 2.904c0 1.531-.716 2.883-2.287 2.883Zm5.251.895h1.174v-4.832c0-1.034.815-1.79 1.929-1.79.313 0 .636.06.716.079v-1.193a11.26 11.26 0 0 0-.617-.02c-.915 0-1.71.517-1.989 1.273h-.079v-1.153h-1.134V679Zm9.009-7.636h-1.631v-1.83h-1.173v1.83h-1.153v.994h1.153v4.773c0 1.332 1.074 1.968 2.068 1.968.438 0 .716-.079.875-.139l-.239-1.054c-.099.02-.258.06-.517.06-.517 0-1.014-.159-1.014-1.154v-4.454h1.631v-.994Zm11.43 0h1.193c-.055-1.537-1.472-2.685-3.441-2.685-1.948 0-3.48 1.133-3.48 2.844 0 1.372.995 2.187 2.586 2.645l1.252.358c1.074.298 2.029.676 2.029 1.69 0 1.114-1.074 1.849-2.486 1.849-1.213 0-2.287-.537-2.386-1.69h-1.273c.119 1.67 1.471 2.804 3.659 2.804 2.347 0 3.679-1.293 3.679-2.943 0-1.909-1.81-2.526-2.864-2.804l-1.034-.279c-.755-.198-1.969-.596-1.969-1.69 0-.974.895-1.69 2.248-1.69 1.233 0 2.167.586 2.287 1.591Zm3.956 10.5c1.059 0 1.804-.562 2.247-1.75l3.251-8.73-1.282-.02-2.108 6.085h-.08l-2.108-6.085h-1.273l2.824 7.676-.218.596c-.428 1.164-.955 1.273-1.81 1.054l-.298 1.034c.119.06.457.14.855.14Zm12.46-8.79c-.368-1.084-1.193-1.81-2.705-1.81-1.611 0-2.804.915-2.804 2.208 0 1.054.627 1.76 2.029 2.088l1.272.298c.771.179 1.134.547 1.134 1.074 0 .656-.696 1.193-1.79 1.193-.959 0-1.561-.413-1.77-1.233l-1.113.278c.273 1.298 1.342 1.989 2.903 1.989 1.775 0 2.983-.969 2.983-2.287 0-1.064-.666-1.735-2.028-2.068l-1.134-.278c-.905-.224-1.312-.527-1.312-1.114 0-.656.696-1.134 1.63-1.134 1.024 0 1.447.567 1.651 1.094l1.054-.298Zm5.226-1.71h-1.631v-1.83h-1.173v1.83h-1.153v.994h1.153v4.773c0 1.332 1.074 1.968 2.068 1.968.438 0 .716-.079.875-.139l-.238-1.054c-.1.02-.259.06-.517.06-.517 0-1.015-.159-1.015-1.154v-4.454h1.631v-.994Zm4.885 7.795c1.551 0 2.684-.775 3.042-1.929l-1.133-.318c-.298.795-.989 1.193-1.909 1.193-1.377 0-2.327-.89-2.382-2.525h5.544v-.498c0-2.843-1.691-3.818-3.282-3.818-2.068 0-3.44 1.631-3.44 3.977 0 2.347 1.352 3.918 3.56 3.918Zm-2.382-4.594c.08-1.188.92-2.247 2.262-2.247 1.273 0 2.089.955 2.089 2.247h-4.351Zm7.328 4.435h1.174v-4.773c0-1.118.815-1.909 1.73-1.909.89 0 1.511.582 1.511 1.452V679h1.193v-4.972c0-.984.617-1.71 1.691-1.71.835 0 1.551.443 1.551 1.571V679h1.173v-5.111c0-1.795-.964-2.625-2.326-2.625-1.094 0-1.895.502-2.287 1.293h-.08c-.378-.816-1.044-1.293-2.048-1.293-.995 0-1.73.477-2.049 1.293h-.099v-1.193h-1.134V679Zm17.578-5.926c-.368-1.084-1.194-1.81-2.705-1.81-1.611 0-2.804.915-2.804 2.208 0 1.054.626 1.76 2.028 2.088l1.273.298c.771.179 1.134.547 1.134 1.074 0 .656-.696 1.193-1.79 1.193-.96 0-1.561-.413-1.77-1.233l-1.114.278c.274 1.298 1.343 1.989 2.904 1.989 1.775 0 2.983-.969 2.983-2.287 0-1.064-.666-1.735-2.029-2.068l-1.133-.278c-.905-.224-1.313-.527-1.313-1.114 0-.656.696-1.134 1.631-1.134 1.024 0 1.447.567 1.651 1.094l1.054-.298Z" fill="#667085"/></svg>