<svg width="255" height="9" fill="none" xmlns="http://www.w3.org/2000/svg"><path d="m2 2 3.575 3.205a3 3 0 0 0 4.005 0l1.573-1.41a3 3 0 0 1 4.005 0l1.573 1.41a3 3 0 0 0 4.005 0l1.573-1.41a3 3 0 0 1 4.005 0l1.572 1.41a3 3 0 0 0 4.005 0l1.573-1.41a3 3 0 0 1 4.005 0l1.573 1.41a3 3 0 0 0 4.005 0l1.573-1.41a3 3 0 0 1 4.005 0l1.572 1.41a3 3 0 0 0 4.005 0l1.573-1.41a3 3 0 0 1 4.005 0l1.573 1.41a3 3 0 0 0 4.005 0l1.573-1.41a3 3 0 0 1 4.005 0l1.573 1.41a3 3 0 0 0 4.005 0l1.572-1.41a3 3 0 0 1 4.005 0l1.573 1.41a3 3 0 0 0 4.005 0l1.573-1.41a3 3 0 0 1 4.005 0l1.573 1.41a3 3 0 0 0 4.005 0l1.573-1.41a2.999 2.999 0 0 1 4.004 0l1.573 1.41a3 3 0 0 0 4.005 0l1.573-1.41a3 3 0 0 1 4.005 0l1.573 1.41a3 3 0 0 0 4.005 0l1.573-1.41a3 3 0 0 1 4.005 0l1.572 1.41a3 3 0 0 0 4.005 0l1.573-1.41a3 3 0 0 1 4.005 0l1.573 1.41a3 3 0 0 0 4.005 0l1.573-1.41a3 3 0 0 1 4.005 0l1.573 1.41a2.999 2.999 0 0 0 4.004 0l1.573-1.41a3 3 0 0 1 4.005 0l1.573 1.41a3 3 0 0 0 4.005 0l1.573-1.41a3 3 0 0 1 4.005 0l1.573 1.41a3 3 0 0 0 4.005 0l1.572-1.41a3 3 0 0 1 4.005 0l1.573 1.41a3 3 0 0 0 4.005 0l1.573-1.41a3 3 0 0 1 4.005 0l1.573 1.41a3 3 0 0 0 4.005 0l1.573-1.41a2.999 2.999 0 0 1 4.004 0l1.573 1.41a3 3 0 0 0 4.005 0l1.573-1.41a3 3 0 0 1 4.005 0l1.573 1.41a3 3 0 0 0 4.005 0l1.573-1.41a3 3 0 0 1 4.005 0l1.572 1.41a3 3 0 0 0 4.005 0l1.573-1.41a3 3 0 0 1 4.005 0l1.573 1.41a3 3 0 0 0 4.005 0l1.573-1.41a3 3 0 0 1 4.005 0L253 7" stroke="#F63D68" stroke-width="3" stroke-linecap="round"/></svg>