<svg width="100" height="29" viewBox="0 0 100 29" fill="none" xmlns="http://www.w3.org/2000/svg">
<path d="M22.3235 10.2306L16.2458 6.72166C16.0937 6.63382 15.9063 6.63382 15.7542 6.72166L9.67635 10.2306C9.52438 10.3184 9.43052 10.4807 9.43052 10.6564V17.6742C9.43052 17.8498 9.52438 18.0122 9.67635 18.1002L15.7542 21.6091C15.9063 21.6969 16.0937 21.6969 16.2458 21.6091L22.3235 18.1002C22.4756 18.0123 22.5694 17.8499 22.5694 17.6742V10.6564C22.5693 10.4807 22.4755 10.3184 22.3235 10.2306Z" fill="#8080F2"/>
<path d="M6.28374 20.2988L6.2839 20.2989L15.5337 25.6356C15.8182 25.7998 16.1721 25.7998 16.4567 25.6357C16.4568 25.6356 16.4568 25.6356 16.4569 25.6356L25.7137 20.299L25.7141 20.2987C25.9811 20.1444 26.1873 19.8497 26.1873 19.5019V8.82843C26.1873 8.4828 25.9848 8.18712 25.7154 8.03154L25.7153 8.03146L16.4661 2.69492L6.28374 20.2988ZM6.28374 20.2988C6.01546 20.1439 5.81098 19.8486 5.81098 19.5019V8.82843C5.81098 8.47957 6.01899 8.18532 6.28525 8.03154L6.28553 8.03138M6.28374 20.2988L6.28553 8.03138M6.28553 8.03138L15.5427 2.69492M6.28553 8.03138L15.5427 2.69492M15.5427 2.69492C15.8274 2.5304 16.1812 2.53035 16.4658 2.69477L15.5427 2.69492ZM0.544701 13.6263L0.54426 13.6271C0.351881 13.9601 0.351917 14.343 0.544321 14.6758L7.80595 27.2259L7.80618 27.2263C7.98426 27.5349 8.323 27.7096 8.73821 27.7096H23.2617C23.6729 27.7096 24.0141 27.5309 24.1941 27.2193L24.1944 27.2187L31.4557 14.6896C31.4558 14.6895 31.4558 14.6894 31.4559 14.6894C31.6481 14.3562 31.648 13.9322 31.4557 13.5991L31.4556 13.5988L24.1941 0.993752C24.194 0.993661 24.194 0.99357 24.1939 0.993479C23.9869 0.635155 23.6192 0.4 23.2617 0.4H8.73809C8.38094 0.4 8.01347 0.634943 7.80636 0.993123C7.80624 0.993333 7.80612 0.993542 7.80599 0.993752L0.544701 13.6263Z" fill="#4B32C3" stroke="#4B32C3" stroke-width="0.8"/>
<path d="M41.38 21.0548V7.05481H50.3V9.23481H43.8V12.9148H49.74V15.0948H43.8V18.8748H50.4V21.0548H41.38ZM57.1133 21.3348C56.0466 21.3348 55.0999 21.1481 54.2733 20.7748C53.4599 20.3881 52.8199 19.8348 52.3533 19.1148C51.8866 18.3948 51.6533 17.5148 51.6533 16.4748V15.9548H54.0333V16.4748C54.0333 17.3948 54.3133 18.0815 54.8733 18.5348C55.4333 18.9881 56.1799 19.2148 57.1133 19.2148C58.0599 19.2148 58.7733 19.0215 59.2533 18.6348C59.7333 18.2481 59.9733 17.7481 59.9733 17.1348C59.9733 16.7215 59.8599 16.3881 59.6333 16.1348C59.4066 15.8681 59.0733 15.6548 58.6333 15.4948C58.2066 15.3348 57.6866 15.1815 57.0733 15.0348L56.4733 14.9148C55.5533 14.7015 54.7533 14.4348 54.0733 14.1148C53.4066 13.7815 52.8933 13.3548 52.5333 12.8348C52.1733 12.3148 51.9933 11.6348 51.9933 10.7948C51.9933 9.95481 52.1933 9.23481 52.5933 8.63481C52.9933 8.03481 53.5599 7.57481 54.2933 7.25481C55.0266 6.93481 55.8866 6.77481 56.8733 6.77481C57.8599 6.77481 58.7399 6.94148 59.5133 7.27481C60.2866 7.60814 60.8933 8.10814 61.3333 8.77481C61.7866 9.44148 62.0133 10.2748 62.0133 11.2748V11.9348H59.6333V11.2748C59.6333 10.7015 59.5199 10.2415 59.2933 9.89481C59.0666 9.54814 58.7466 9.29481 58.3333 9.13481C57.9199 8.97481 57.4333 8.89481 56.8733 8.89481C56.0466 8.89481 55.4199 9.05481 54.9933 9.37481C54.5666 9.69481 54.3533 10.1481 54.3533 10.7348C54.3533 11.1081 54.4466 11.4281 54.6333 11.6948C54.8333 11.9481 55.1199 12.1615 55.4933 12.3348C55.8799 12.4948 56.3599 12.6348 56.9333 12.7548L57.5333 12.8948C58.4933 13.1081 59.3333 13.3815 60.0533 13.7148C60.7733 14.0348 61.3333 14.4615 61.7333 14.9948C62.1466 15.5281 62.3533 16.2215 62.3533 17.0748C62.3533 17.9148 62.1333 18.6548 61.6933 19.2948C61.2666 19.9348 60.6599 20.4348 59.8733 20.7948C59.0999 21.1548 58.1799 21.3348 57.1133 21.3348ZM64.2612 21.0548V7.05481H66.6812V18.8748H73.2412V21.0548H64.2612ZM75.0006 21.0548V11.1748H77.3006V21.0548H75.0006ZM76.1406 9.91481C75.7273 9.91481 75.3673 9.78148 75.0606 9.51481C74.7673 9.23481 74.6206 8.86814 74.6206 8.41481C74.6206 7.96148 74.7673 7.60148 75.0606 7.33481C75.3673 7.05481 75.7273 6.91481 76.1406 6.91481C76.5806 6.91481 76.9406 7.05481 77.2206 7.33481C77.514 7.60148 77.6606 7.96148 77.6606 8.41481C77.6606 8.86814 77.514 9.23481 77.2206 9.51481C76.9406 9.78148 76.5806 9.91481 76.1406 9.91481ZM80.0155 21.0548V11.1748H82.2755V12.5548H82.6155C82.7888 12.1815 83.1021 11.8281 83.5555 11.4948C84.0088 11.1615 84.6955 10.9948 85.6155 10.9948C86.3755 10.9948 87.0488 11.1681 87.6355 11.5148C88.2221 11.8615 88.6755 12.3415 88.9955 12.9548C89.3288 13.5681 89.4955 14.2948 89.4955 15.1348V21.0548H87.1955V15.3148C87.1955 14.5148 86.9955 13.9215 86.5955 13.5348C86.2088 13.1348 85.6555 12.9348 84.9355 12.9348C84.1221 12.9348 83.4821 13.2081 83.0155 13.7548C82.5488 14.2881 82.3155 15.0548 82.3155 16.0548V21.0548H80.0155ZM95.6067 21.0548C94.9667 21.0548 94.4534 20.8681 94.0667 20.4948C93.6934 20.1081 93.5067 19.5881 93.5067 18.9348V13.0748H90.9267V11.1748H93.5067V7.99481H95.8067V11.1748H98.6467V13.0748H95.8067V18.5548C95.8067 18.9548 95.9934 19.1548 96.3667 19.1548H98.3467V21.0548H95.6067Z" fill="#101828"/>
</svg>
