<svg viewBox="0 0 678 420" fill="none" stroke-linecap="square" stroke-miterlimit="10" xmlns="http://www.w3.org/2000/svg"><path fill="#fff" d="M0 0h678v420H0V0Z"/><path fill="#b3cefb" d="M337.37 59.008c.543-.005 1.087-.008 1.63-.008v170Z"/><path fill="#7ed1d7" d="M336.148 59.024a170.1 170.1 0 0 1 1.222-.016L339 229Z"/><path fill="#ff994d" d="m335.557 59.035.59-.011L339 229Z"/><path fill="#71c287" d="M334.53 59.059c.342-.01.685-.017 1.027-.024L339 229Z"/><path fill="#fcd04f" d="M330.662 59.205a166.18 166.18 0 0 1 3.868-.146L339 229Z"/><path fill="#f07b72" d="M265.893 75.522a170 170 0 0 1 64.769-16.317L339 229Z"/><path fill="#7baaf7" d="M219.942 107.653a170 170 0 0 1 45.95-32.13L339 229Z"/><path fill="#46bdc6" d="M187.275 152.322a170 170 0 0 1 32.667-44.669L339 229Z"/><path fill="#ff6d01" d="M179.845 169.253a169.996 169.996 0 0 1 7.43-16.931L339 229Z"/><path fill="#34a853" d="M173.57 268.153a170 170 0 0 1 6.275-98.9L339 229Z"/><path fill="#fbbc04" d="M174.002 269.935c-.147-.593-.291-1.187-.432-1.782L339 229Z"/><path fill="#ea4335" d="M200.118 327.04a170 170 0 0 1-26.116-57.105L339 229Z"/><path fill="#4285f4" d="M339 59c80.557 0 150.053 56.54 166.444 135.41 16.39 78.873-24.826 158.42-98.713 190.515s-160.156 7.926-206.613-57.885L339 229Z"/><path fill="#1a1a1a" d="m28.063 66.984 1.125.297q-.36 1.39-1.282 2.125-.922.735-2.265.735-1.391 0-2.266-.563-.875-.562-1.328-1.625-.453-1.078-.453-2.312 0-1.344.515-2.344.516-1 1.453-1.516.954-.515 2.094-.515 1.282 0 2.157.656.89.656 1.234 1.844l-1.125.265q-.297-.937-.875-1.36-.563-.437-1.422-.437-.984 0-1.656.485-.657.468-.938 1.265-.265.797-.265 1.657 0 1.093.312 1.906.328.812 1 1.219.672.406 1.469.406.953 0 1.61-.547.671-.547.905-1.64Zm2.343-.093q0-1.735.953-2.563.797-.687 1.953-.687 1.282 0 2.094.843.828.829.828 2.313 0 1.203-.359 1.89-.36.688-1.063 1.079-.687.375-1.5.375-1.296 0-2.109-.829-.797-.843-.797-2.421Zm1.078 0q0 1.187.516 1.78.531.595 1.313.595.796 0 1.312-.594t.516-1.813q0-1.156-.532-1.75-.515-.593-1.297-.593-.78 0-1.312.593-.516.579-.516 1.782ZM37.797 70v-6.219h.937v.875q.297-.469.782-.734.484-.281 1.109-.281.688 0 1.125.28.453.282.625.798.75-1.078 1.922-1.078.937 0 1.422.515.5.5.5 1.578V70h-1.047v-3.922q0-.625-.11-.906-.093-.281-.359-.453t-.64-.172q-.657 0-1.094.437-.422.438-.422 1.407V70h-1.063v-4.047q0-.703-.265-1.047-.25-.36-.828-.36-.453 0-.828.235-.376.235-.547.688-.172.453-.172 1.297V70h-1.047Zm11 0v-6.219h.937v.875q.297-.469.782-.734.484-.281 1.109-.281.688 0 1.125.28.453.282.625.798.75-1.078 1.922-1.078.937 0 1.422.515.5.5.5 1.578V70h-1.047v-3.922q0-.625-.11-.906-.093-.281-.359-.453t-.64-.172q-.657 0-1.094.437-.422.438-.422 1.407V70h-1.063v-4.047q0-.703-.265-1.047-.25-.36-.828-.36-.453 0-.828.235-.376.235-.547.688-.172.453-.172 1.297V70h-1.047Zm15.078 0v-.922q-.734 1.063-1.984 1.063-.547 0-1.032-.204-.468-.218-.703-.53-.234-.329-.328-.798-.062-.296-.062-.984v-3.844h1.062v3.453q0 .813.063 1.11.093.406.406.656.328.234.812.234.47 0 .875-.234.422-.25.594-.672.188-.422.188-1.219v-3.328h1.047V70h-.938Zm2.922 0v-6.219h.937v.875q.688-1.015 1.985-1.015.562 0 1.031.203.484.203.719.531.234.328.328.766.047.296.047 1.03V70h-1.047v-3.781q0-.656-.125-.969-.125-.313-.438-.5-.312-.203-.734-.203-.672 0-1.172.437-.484.422-.484 1.61V70h-1.047Zm7-7.375v-1.219h1.062v1.219h-1.062Zm0 7.375v-6.219h1.062V70h-1.062Zm5.297-.938.156.922q-.453.094-.797.094-.578 0-.89-.172-.313-.187-.454-.484-.125-.297-.125-1.25v-3.578h-.765v-.813h.765v-1.547l1.047-.625v2.172h1.063v.813H78.03v3.64q0 .454.047.579.063.124.188.203.125.078.359.078.188 0 .469-.031Zm.656 3.329-.125-.985q.344.094.61.094.343 0 .546-.125.219-.11.36-.313.093-.171.328-.796.015-.079.094-.25l-2.376-6.235h1.141l1.297 3.594q.25.688.453 1.453.188-.734.438-1.422l1.328-3.625h1.047l-2.36 6.328q-.39 1.016-.594 1.407-.28.53-.656.765-.36.25-.86.25-.296 0-.671-.14ZM87.89 70v-8.594h1.72l2.03 6.078q.282.86.407 1.282.14-.47.453-1.375l2.063-5.985h1.53V70H95v-7.188L92.5 70h-1.031l-2.485-7.313V70h-1.093Zm12.97-.766q-.594.5-1.141.704-.531.203-1.156.203-1.032 0-1.579-.5-.546-.5-.546-1.282 0-.453.203-.828.203-.39.546-.61.344-.234.766-.343.297-.094.938-.172 1.265-.14 1.875-.36v-.265q0-.656-.297-.922-.406-.343-1.203-.343-.735 0-1.094.265-.36.25-.531.906l-1.032-.14q.141-.656.47-1.063.327-.406.937-.625.609-.218 1.406-.218.797 0 1.297.187.5.188.734.469.234.281.328.719.047.265.047.968v1.407q0 1.468.063 1.859.078.39.28.75h-1.109q-.156-.328-.203-.766Zm-.094-2.359q-.579.234-1.72.406-.655.094-.921.219-.266.11-.422.328-.14.219-.14.5 0 .422.312.703.328.281.938.281.609 0 1.078-.265.484-.266.703-.734.172-.36.172-1.047v-.391Zm3.03 3.125v-6.219h.938v.875q.688-1.015 1.985-1.015.562 0 1.031.203.484.203.719.531.234.328.328.766.047.296.047 1.03V70h-1.047v-3.781q0-.656-.125-.969-.125-.313-.438-.5-.312-.203-.734-.203-.672 0-1.172.437-.484.422-.484 1.61V70h-1.047Zm11.063-.766q-.593.5-1.14.704-.531.203-1.156.203-1.032 0-1.579-.5-.546-.5-.546-1.282 0-.453.203-.828.203-.39.546-.61.344-.234.766-.343.297-.094.938-.172 1.265-.14 1.875-.36v-.265q0-.656-.297-.922-.406-.343-1.203-.343-.735 0-1.094.265-.36.25-.531.906l-1.032-.14q.141-.656.47-1.063.327-.406.937-.625.609-.218 1.406-.218.797 0 1.297.187.5.188.734.469.234.281.328.719.047.265.047.968v1.407q0 1.468.063 1.859.078.39.28.75h-1.109q-.156-.328-.203-.766Zm-.093-2.359q-.579.234-1.72.406-.655.094-.921.219-.266.11-.422.328-.14.219-.14.5 0 .422.312.703.328.281.938.281.609 0 1.078-.265.484-.266.703-.734.172-.36.172-1.047v-.391Zm2.828 3.64 1.031.157q.063.469.36.687.39.297 1.062.297.734 0 1.125-.297.406-.296.547-.812.094-.328.078-1.36-.688.813-1.719.813-1.281 0-1.984-.922-.703-.937-.703-2.219 0-.89.312-1.64.328-.766.938-1.172.609-.406 1.437-.406 1.11 0 1.828.89v-.75h.969v5.375q0 1.453-.297 2.063-.297.61-.937.953-.641.36-1.579.36-1.109 0-1.796-.5-.688-.5-.672-1.516Zm.875-3.734q0 1.219.484 1.781.484.563 1.219.563.734 0 1.219-.563.5-.562.5-1.75 0-1.14-.516-1.718-.5-.578-1.219-.578-.703 0-1.203.578-.484.562-.484 1.687ZM129.047 68l1.094.125q-.25.953-.953 1.484-.704.532-1.782.532-1.36 0-2.172-.844-.796-.844-.796-2.36 0-1.562.812-2.421.813-.875 2.094-.875 1.25 0 2.031.843.797.844.797 2.391v.281h-4.64q.062 1.031.577 1.578.516.532 1.297.532.578 0 .985-.297.422-.313.656-.969Zm-3.453-1.703h3.469q-.063-.797-.391-1.188-.516-.609-1.313-.609-.734 0-1.234.484-.484.485-.531 1.313ZM131.797 70v-6.219h.937v.875q.297-.469.782-.734.484-.281 1.109-.281.688 0 1.125.28.453.282.625.798.75-1.078 1.922-1.078.937 0 1.422.515.5.5.5 1.578V70h-1.047v-3.922q0-.625-.11-.906-.093-.281-.359-.453t-.64-.172q-.657 0-1.094.437-.422.438-.422 1.407V70h-1.063v-4.047q0-.703-.265-1.047-.25-.36-.828-.36-.453 0-.828.235-.375.235-.547.688-.172.453-.172 1.297V70h-1.047Zm15.25-2 1.094.125q-.25.953-.953 1.484-.704.532-1.782.532-1.36 0-2.172-.844-.797-.844-.797-2.36 0-1.562.813-2.421.813-.875 2.094-.875 1.25 0 2.031.843.797.844.797 2.391v.281h-4.64q.062 1.031.577 1.578.516.532 1.297.532.578 0 .985-.297.422-.313.656-.969Zm-3.453-1.703h3.469q-.063-.797-.391-1.188-.516-.609-1.313-.609-.734 0-1.234.484-.484.485-.531 1.313ZM149.797 70v-6.219h.937v.875q.688-1.015 1.985-1.015.562 0 1.031.203.484.203.719.531.234.328.328.766.047.296.047 1.03V70h-1.047v-3.781q0-.656-.125-.969-.125-.313-.438-.5-.312-.203-.734-.203-.672 0-1.172.437-.484.422-.484 1.61V70h-1.047Zm9.297-.938.156.922q-.453.094-.797.094-.578 0-.89-.172-.313-.187-.454-.484-.125-.297-.125-1.25v-3.578h-.765v-.813h.765v-1.547l1.047-.625v2.172h1.063v.813h-1.063v3.64q0 .454.047.579.063.124.188.203.125.078.359.078.188 0 .469-.031Z"/><path fill="#9e9e9e" d="M21.5 82.766q0-1.532.313-2.454.312-.937.921-1.437.625-.5 1.563-.5.687 0 1.203.281.531.281.875.813.344.515.531 1.265.188.75.188 2.032 0 1.515-.313 2.437-.297.922-.922 1.438-.609.5-1.562.5-1.235 0-1.953-.891-.844-1.063-.844-3.484Zm1.078 0q0 2.109.5 2.812.5.703 1.219.703.734 0 1.219-.703.5-.703.5-2.812 0-2.125-.5-2.813-.485-.703-1.235-.703-.718 0-1.156.61-.547.78-.547 2.906ZM29.094 87v-1.203h1.203V87h-1.203Zm5.781 0v-2.063h-3.719v-.968l3.922-5.563h.86v5.563h1.156v.969h-1.157V87h-1.062Zm0-3.031v-3.86l-2.688 3.86h2.688Zm3.828-3.5q0-.922.453-1.563.469-.64 1.344-.64.813 0 1.344.578.531.578.531 1.687 0 1.094-.547 1.688-.531.578-1.312.578-.782 0-1.297-.578-.516-.578-.516-1.75Zm1.828-1.485q-.39 0-.656.344-.25.344-.25 1.25 0 .828.25 1.172.266.328.656.328.407 0 .657-.344.265-.343.265-1.234 0-.844-.266-1.172-.265-.344-.656-.344Zm0 8.329 4.703-9.047h.86l-4.688 9.046h-.875Zm3.719-2.329q0-.921.453-1.562.469-.64 1.36-.64.812 0 1.343.577.532.563.532 1.688 0 1.094-.547 1.687-.532.579-1.328.579-.766 0-1.297-.579-.516-.578-.516-1.75Zm1.844-1.484q-.407 0-.672.344-.25.344-.25 1.25 0 .812.266 1.156.265.344.656.344.39 0 .656-.344t.266-1.25q0-.828-.266-1.156-.266-.344-.656-.344Z"/><path stroke="#757575" stroke-linecap="butt" d="M21 74.5h142l169.916-6.885"/><path fill="#9e9e9e" d="M334.916 67.615a2 2 0 1 0-4 0 2 2 0 0 0 4 0"/><path fill="#1a1a1a" d="M21.953 101v-8.594h6.203v1.016h-5.062v2.625h4.75v1.016h-4.75v2.921h5.265V101h-6.406Zm11.906-2.281 1.032.14q-.172 1.063-.875 1.672-.703.61-1.72.61-1.28 0-2.062-.829-.765-.843-.765-2.406 0-1 .328-1.75.344-.765 1.015-1.14.688-.375 1.5-.375 1 0 1.641.515.656.5.844 1.453l-1.031.157q-.141-.625-.516-.938-.375-.328-.906-.328-.797 0-1.297.578-.5.563-.5 1.797 0 1.266.484 1.828.485.563 1.25.563.625 0 1.032-.375.421-.375.546-1.172Zm1.547-.828q0-1.735.953-2.563.797-.687 1.953-.687 1.282 0 2.094.843.828.829.828 2.313 0 1.203-.359 1.89-.36.688-1.063 1.079-.687.375-1.5.375-1.296 0-2.109-.829-.797-.843-.797-2.421Zm1.078 0q0 1.187.516 1.78.531.595 1.313.595.796 0 1.312-.594t.516-1.813q0-1.156-.532-1.75-.515-.593-1.297-.593-.78 0-1.312.593-.516.579-.516 1.782Zm5.891 1.25 1.031-.157q.094.625.485.954.406.328 1.14.328.719 0 1.063-.282.36-.296.36-.703 0-.36-.313-.562-.22-.14-1.078-.36-1.157-.296-1.61-.5-.437-.218-.672-.593-.234-.375-.234-.844 0-.406.187-.766.188-.36.516-.594.25-.171.672-.296.422-.125.922-.125.718 0 1.265.218.563.204.828.563.266.36.36.953l-1.031.14q-.063-.468-.407-.734-.328-.281-.953-.281-.718 0-1.031.25-.313.234-.313.563 0 .203.126.359.14.172.406.281.156.063.937.266 1.125.312 1.563.5.437.187.687.547.25.359.25.906 0 .531-.312 1-.297.453-.875.719-.578.25-1.313.25-1.218 0-1.86-.5-.624-.516-.796-1.5Zm7.375 4.25-.125-.985q.344.094.61.094.343 0 .546-.125.219-.11.36-.313.093-.171.328-.796.015-.079.093-.25l-2.374-6.235h1.14l1.297 3.594q.25.688.453 1.453.188-.734.438-1.422l1.328-3.625h1.047l-2.36 6.328q-.39 1.016-.593 1.407-.282.53-.657.765-.36.25-.86.25-.296 0-.671-.14Zm4.625-4.25 1.031-.157q.094.625.485.954.406.328 1.14.328.719 0 1.063-.282.36-.296.36-.703 0-.36-.313-.562-.22-.14-1.078-.36-1.157-.296-1.61-.5-.437-.218-.672-.593-.234-.375-.234-.844 0-.406.187-.766.188-.36.516-.594.25-.171.672-.296.422-.125.922-.125.718 0 1.265.218.563.204.828.563.266.36.36.953l-1.031.14q-.063-.468-.407-.734-.328-.281-.953-.281-.718 0-1.031.25-.313.234-.313.563 0 .203.126.359.14.172.406.281.156.063.937.266 1.125.312 1.563.5.437.187.687.547.25.359.25.906 0 .531-.312 1-.297.453-.875.719-.578.25-1.313.25-1.218 0-1.86-.5-.624-.516-.796-1.5Zm9.719.921.156.922q-.453.094-.797.094-.578 0-.89-.172-.313-.187-.454-.484-.125-.297-.125-1.25v-3.578h-.765v-.813h.765v-1.547l1.047-.625v2.172h1.063v.813H63.03v3.64q0 .454.047.579.063.124.188.203.125.078.359.078.188 0 .469-.031ZM69.047 99l1.094.125q-.25.953-.954 1.484-.703.532-1.78.532-1.36 0-2.173-.844-.796-.844-.796-2.36 0-1.562.812-2.421.813-.875 2.094-.875 1.25 0 2.031.843.797.844.797 2.391v.281h-4.64q.062 1.031.577 1.578.516.532 1.297.532.578 0 .985-.297.421-.313.656-.969Zm-3.453-1.703h3.469q-.063-.797-.391-1.188-.516-.609-1.313-.609-.734 0-1.234.484-.484.485-.531 1.313ZM71.797 101v-6.219h.937v.875q.297-.469.782-.734.484-.281 1.109-.281.688 0 1.125.28.453.282.625.798.75-1.078 1.922-1.078.937 0 1.422.515.5.5.5 1.578V101h-1.047v-3.922q0-.625-.11-.906-.093-.281-.359-.453t-.64-.172q-.657 0-1.094.437-.422.438-.422 1.407V101h-1.063v-4.047q0-.703-.265-1.047-.25-.36-.828-.36-.454 0-.829.235-.374.235-.546.688-.172.453-.172 1.297V101h-1.047Zm10.203.14 2.484-8.874h.844l-2.484 8.875H82Zm3.922-.14v-8.594h2.969q1 0 1.53.125.735.172 1.25.61.688.578 1.016 1.484.344.89.344 2.031 0 .985-.234 1.735-.219.75-.578 1.25-.36.5-.797.78-.422.282-1.016.438-.594.141-1.375.141h-3.11Zm1.14-1.016h1.829q.859 0 1.343-.156.485-.156.766-.453.406-.39.625-1.078.234-.688.234-1.656 0-1.344-.453-2.063-.437-.734-1.062-.984-.469-.172-1.469-.172h-1.813v6.562ZM99.047 99l1.094.125q-.25.953-.954 1.484-.703.532-1.78.532-1.36 0-2.173-.844-.796-.844-.796-2.36 0-1.562.812-2.421.813-.875 2.094-.875 1.25 0 2.031.843.797.844.797 2.391v.281h-4.64q.062 1.031.577 1.578.516.532 1.297.532.578 0 .985-.297.421-.313.656-.969Zm-3.453-1.703h3.469q-.063-.797-.391-1.188-.516-.609-1.313-.609-.734 0-1.234.484-.484.485-.531 1.313Zm6.203 6.094v-8.61h.953v.797q.344-.469.766-.703.437-.234 1.046-.234.797 0 1.407.406t.906 1.156q.313.75.313 1.64 0 .954-.344 1.72-.328.765-.985 1.171-.656.407-1.375.407-.53 0-.953-.22-.422-.234-.687-.562v3.032h-1.047Zm.953-5.47q0 1.204.484 1.782.485.563 1.172.563.703 0 1.203-.594.5-.594.5-1.844 0-1.187-.484-1.766-.484-.593-1.172-.593-.672 0-1.187.625-.516.625-.516 1.828ZM113.047 99l1.094.125q-.25.953-.954 1.484-.703.532-1.78.532-1.36 0-2.173-.844-.796-.844-.796-2.36 0-1.562.812-2.421.813-.875 2.094-.875 1.25 0 2.031.843.797.844.797 2.391v.281h-4.64q.062 1.031.577 1.578.516.532 1.297.532.578 0 .985-.297.421-.313.656-.969Zm-3.453-1.703h3.469q-.063-.797-.391-1.188-.516-.609-1.313-.609-.734 0-1.234.484-.484.485-.531 1.313Zm6.203 3.703v-6.219h.937v.875q.688-1.015 1.985-1.015.562 0 1.031.203.484.203.719.531.234.328.328.766.047.296.047 1.03V101h-1.047v-3.781q0-.656-.125-.969-.125-.313-.438-.5-.312-.203-.734-.203-.672 0-1.172.437-.484.422-.484 1.61V101h-1.047Zm11.031 0v-.781q-.594.922-1.734.922-.75 0-1.375-.407-.625-.421-.969-1.156-.344-.734-.344-1.687 0-.922.313-1.688.312-.766.937-1.156.625-.406 1.39-.406.563 0 1 .234.438.234.72.61v-3.079h1.046V101h-.984Zm-3.328-3.11q0 1.204.5 1.797.5.579 1.188.579.687 0 1.171-.563.485-.562.485-1.719 0-1.28-.5-1.875-.485-.593-1.203-.593-.704 0-1.172.578-.469.562-.469 1.797ZM134.047 99l1.094.125q-.25.953-.953 1.484-.704.532-1.782.532-1.36 0-2.172-.844-.797-.844-.797-2.36 0-1.562.813-2.421.813-.875 2.094-.875 1.25 0 2.031.843.797.844.797 2.391v.281h-4.64q.062 1.031.577 1.578.516.532 1.297.532.578 0 .985-.297.422-.313.656-.969Zm-3.453-1.703h3.469q-.063-.797-.391-1.188-.516-.609-1.313-.609-.734 0-1.234.484-.484.485-.531 1.313Zm6.203 3.703v-6.219h.937v.875q.688-1.015 1.985-1.015.562 0 1.031.203.484.203.719.531.234.328.328.766.047.296.047 1.03V101h-1.047v-3.781q0-.656-.125-.969-.125-.313-.438-.5-.312-.203-.734-.203-.672 0-1.172.437-.484.422-.484 1.61V101h-1.047Zm11.062-2.281 1.032.14q-.172 1.063-.875 1.672-.703.61-1.72.61-1.28 0-2.062-.829-.765-.843-.765-2.406 0-1 .328-1.75.344-.765 1.016-1.14.687-.375 1.5-.375 1 0 1.64.515.656.5.844 1.453l-1.031.157q-.141-.625-.516-.938-.375-.328-.906-.328-.797 0-1.297.578-.5.563-.5 1.797 0 1.266.484 1.828.485.563 1.25.563.625 0 1.031-.375.422-.375.547-1.172Zm1.938-5.094v-1.219h1.062v1.219h-1.062Zm0 7.375v-6.219h1.062V101h-1.062Zm7.25-2 1.094.125q-.25.953-.953 1.484-.704.532-1.782.532-1.36 0-2.172-.844-.797-.844-.797-2.36 0-1.562.813-2.421.813-.875 2.094-.875 1.25 0 2.031.843.797.844.797 2.391v.281h-4.64q.062 1.031.577 1.578.516.532 1.297.532.578 0 .985-.297.422-.313.656-.969Zm-3.453-1.703h3.469q-.063-.797-.391-1.188-.516-.609-1.313-.609-.734 0-1.234.484-.484.485-.531 1.313Z"/><path fill="#9e9e9e" d="m26.969 111.516-1.047.078q-.14-.625-.39-.906-.438-.454-1.063-.454-.5 0-.89.282-.485.375-.782 1.078-.281.687-.297 1.969.375-.579.922-.86.562-.281 1.172-.281 1.047 0 1.781.781.75.781.75 2 0 .813-.36 1.516-.343.687-.953 1.062-.609.36-1.375.36-1.328 0-2.156-.97-.828-.968-.828-3.187 0-2.5.922-3.625.797-.984 2.156-.984 1.016 0 1.657.578.656.563.78 1.563Zm-4.297 3.703q0 .547.219 1.047.234.484.64.75.422.265.89.265.657 0 1.142-.531.484-.547.484-1.469 0-.89-.485-1.406-.468-.516-1.187-.516-.719 0-1.219.516-.484.516-.484 1.344ZM29.094 118v-1.203h1.203V118h-1.203Zm2.406-2.266 1.063-.14q.171.89.609 1.297.437.39 1.062.39.75 0 1.266-.515.516-.516.516-1.282 0-.718-.485-1.187-.468-.484-1.203-.484-.297 0-.75.124l.125-.937q.11.016.172.016.672 0 1.203-.344.547-.36.547-1.094 0-.578-.39-.953-.391-.39-1.016-.39-.61 0-1.032.39-.406.39-.515 1.156l-1.063-.187q.188-1.047.875-1.625.688-.594 1.703-.594.704 0 1.297.313.594.296.907.812.312.516.312 1.11 0 .546-.297 1.015-.297.453-.875.719.75.172 1.172.734.422.547.422 1.39 0 1.126-.828 1.907-.813.781-2.063.781-1.125 0-1.875-.672-.75-.687-.859-1.75Zm7.203-4.265q0-.922.453-1.563.469-.64 1.344-.64.813 0 1.344.578.531.578.531 1.687 0 1.094-.547 1.688-.531.578-1.312.578-.782 0-1.297-.578-.516-.578-.516-1.75Zm1.828-1.485q-.39 0-.656.344-.25.344-.25 1.25 0 .828.25 1.172.266.328.656.328.407 0 .657-.344.265-.343.265-1.234 0-.844-.266-1.172-.265-.344-.656-.344Zm0 8.329 4.703-9.047h.86l-4.688 9.046h-.875Zm3.719-2.329q0-.921.453-1.562.469-.64 1.36-.64.812 0 1.343.577.532.563.532 1.688 0 1.094-.547 1.687-.532.579-1.328.579-.766 0-1.297-.579-.516-.578-.516-1.75Zm1.844-1.484q-.407 0-.672.344-.25.344-.25 1.25 0 .812.266 1.156.265.344.656.344.39 0 .656-.344t.266-1.25q0-.828-.266-1.156-.266-.344-.656-.344Z"/><path stroke="#757575" stroke-linecap="butt" d="M21 105.5h142l136.545-33.106"/><path fill="#9e9e9e" d="M301.545 72.394a2 2 0 1 0-4 0 2 2 0 0 0 4 0"/><path fill="#1a1a1a" d="M21.578 127.813q0-2.141 1.14-3.344 1.157-1.219 2.97-1.219 1.203 0 2.156.578.953.563 1.453 1.578.5 1.016.5 2.313 0 1.297-.531 2.328-.532 1.031-1.5 1.562-.953.532-2.078.532-1.22 0-2.172-.578-.953-.594-1.453-1.594-.485-1.016-.485-2.156Zm1.172.015q0 1.563.828 2.453.844.89 2.11.89 1.28 0 2.109-.89.828-.906.828-2.578 0-1.047-.36-1.828-.343-.781-1.03-1.203-.688-.438-1.532-.438-1.203 0-2.078.829-.875.828-.875 2.765Zm8.047 6.563v-8.61h.953v.797q.344-.469.766-.703.437-.234 1.047-.234.796 0 1.406.406.61.406.906 1.156.313.75.313 1.64 0 .954-.344 1.72-.328.765-.985 1.171-.656.407-1.375.407-.53 0-.953-.22-.422-.233-.687-.562v3.032h-1.047Zm.953-5.47q0 1.204.484 1.782.485.563 1.172.563.703 0 1.203-.594.5-.594.5-1.844 0-1.187-.484-1.766-.484-.593-1.172-.593-.672 0-1.187.625-.516.625-.516 1.828ZM42.047 130l1.094.125q-.25.953-.953 1.484-.704.532-1.782.532-1.36 0-2.172-.844-.797-.844-.797-2.36 0-1.562.813-2.421.813-.875 2.094-.875 1.25 0 2.031.843.797.844.797 2.391v.281h-4.64q.062 1.031.577 1.578.516.532 1.297.532.578 0 .985-.297.422-.313.656-.969Zm-3.453-1.703h3.468q-.062-.797-.39-1.188-.516-.609-1.313-.609-.734 0-1.234.484-.484.485-.531 1.313ZM44.797 132v-6.219h.937v.875q.688-1.015 1.985-1.015.562 0 1.031.203.484.203.719.531.234.328.328.766.047.296.047 1.03V132h-1.047v-3.781q0-.656-.125-.969-.125-.313-.438-.5-.312-.203-.734-.203-.672 0-1.172.437-.484.422-.484 1.61V132h-1.047Zm9.75-2.766 1.062-.093q.078.656.36 1.062.281.406.86.672.593.25 1.327.25.64 0 1.14-.188.5-.203.735-.53.25-.345.25-.735 0-.406-.234-.703-.234-.313-.766-.516-.36-.14-1.547-.422-1.172-.281-1.64-.531-.625-.328-.922-.797-.297-.484-.297-1.078 0-.64.36-1.203.374-.578 1.078-.86.718-.296 1.578-.296.953 0 1.687.312.734.297 1.125.906.39.594.422 1.344l-1.094.078q-.093-.812-.61-1.219-.5-.421-1.483-.421-1.032 0-1.5.375-.47.375-.47.906 0 .469.329.766.328.296 1.703.609 1.39.312 1.906.547.75.36 1.11.89.359.516.359 1.22 0 .687-.39 1.296-.391.594-1.126.938-.734.328-1.656.328-1.172 0-1.969-.328-.78-.344-1.234-1.032-.438-.687-.453-1.547Zm7.86-.343q0-1.735.952-2.563.797-.687 1.953-.687 1.282 0 2.094.843.828.829.828 2.313 0 1.203-.359 1.89-.36.688-1.063 1.079-.687.375-1.5.375-1.296 0-2.109-.828-.797-.844-.797-2.422Zm1.077 0q0 1.187.516 1.78.531.595 1.313.595.796 0 1.312-.594t.516-1.813q0-1.156-.532-1.75-.515-.593-1.296-.593-.782 0-1.313.593-.516.579-.516 1.782ZM73.875 132v-.922q-.734 1.063-1.984 1.063-.547 0-1.032-.203-.468-.22-.703-.532-.234-.328-.328-.797-.062-.297-.062-.984v-3.844h1.062v3.453q0 .813.063 1.11.093.406.406.656.328.234.812.234.47 0 .875-.234.422-.25.594-.672.188-.422.188-1.219v-3.328h1.046V132h-.937Zm2.906 0v-6.219h.953v.938q.36-.656.657-.86.312-.218.687-.218.531 0 1.078.328l-.36.984q-.39-.234-.765-.234-.36 0-.64.219-.266.203-.375.578-.188.562-.188 1.218V132h-1.047Zm8.078-2.281 1.032.14q-.172 1.063-.875 1.672-.704.61-1.72.61-1.28 0-2.062-.828-.765-.844-.765-2.407 0-1 .328-1.75.344-.765 1.016-1.14.687-.375 1.5-.375 1 0 1.64.515.656.5.844 1.453l-1.031.157q-.141-.625-.516-.938-.375-.328-.906-.328-.797 0-1.297.578-.5.563-.5 1.797 0 1.266.484 1.828.485.563 1.25.563.625 0 1.031-.375.422-.375.547-1.172Zm6.188.281 1.094.125q-.25.953-.954 1.484-.703.532-1.78.532-1.36 0-2.173-.844-.796-.844-.796-2.36 0-1.562.812-2.421.813-.875 2.094-.875 1.25 0 2.031.843.797.844.797 2.391v.281h-4.64q.062 1.031.577 1.578.516.532 1.297.532.578 0 .985-.297.421-.313.656-.969Zm-3.453-1.703h3.469q-.063-.797-.391-1.188-.516-.609-1.313-.609-.734 0-1.234.484-.484.485-.531 1.313Zm15.469.687 1.124.297q-.359 1.39-1.28 2.125-.923.735-2.266.735-1.391 0-2.266-.563-.875-.562-1.328-1.625-.453-1.078-.453-2.312 0-1.344.515-2.344.516-1 1.454-1.516.953-.515 2.093-.515 1.281 0 2.156.656.891.656 1.235 1.844l-1.125.265q-.297-.937-.875-1.36-.563-.437-1.422-.437-.984 0-1.656.485-.656.469-.938 1.265-.265.797-.265 1.657 0 1.093.312 1.906.328.812 1 1.219.672.406 1.469.406.953 0 1.61-.547.671-.547.906-1.64Zm2.343-.093q0-1.735.953-2.563.797-.687 1.954-.687 1.28 0 2.093.843.828.829.828 2.313 0 1.203-.359 1.89-.36.688-1.063 1.079-.687.375-1.5.375-1.296 0-2.109-.828-.797-.844-.797-2.422Zm1.078 0q0 1.187.516 1.78.531.595 1.313.595.796 0 1.312-.594t.516-1.813q0-1.156-.532-1.75-.515-.593-1.296-.593-.782 0-1.313.593-.516.579-.516 1.782Zm6.282 3.109v-8.594h1.062V132h-1.062Zm3 0v-8.594h1.062V132h-1.062Zm7.28-2 1.095.125q-.25.953-.954 1.484-.703.532-1.78.532-1.36 0-2.173-.844-.796-.844-.796-2.36 0-1.562.812-2.421.813-.875 2.094-.875 1.25 0 2.031.843.797.844.797 2.391v.281h-4.64q.062 1.031.577 1.578.516.532 1.297.532.578 0 .985-.297.421-.313.656-.969Zm-3.452-1.703h3.469q-.063-.797-.391-1.188-.516-.609-1.313-.609-.734 0-1.234.484-.484.485-.531 1.313Zm10.265 1.422 1.032.14q-.172 1.063-.875 1.672-.703.61-1.72.61-1.28 0-2.062-.828-.765-.844-.765-2.407 0-1 .328-1.75.344-.765 1.016-1.14.687-.375 1.5-.375 1 0 1.64.515.656.5.844 1.453l-1.031.157q-.141-.625-.516-.938-.375-.328-.906-.328-.797 0-1.297.578-.5.563-.5 1.797 0 1.266.484 1.828.485.563 1.25.563.625 0 1.031-.375.422-.375.547-1.172Zm4.235 1.344.156.921q-.453.094-.797.094-.578 0-.89-.172-.313-.187-.454-.484-.125-.297-.125-1.25v-3.578h-.765v-.813h.765v-1.547l1.047-.625v2.172h1.063v.813h-1.063v3.64q0 .453.047.578.063.125.188.204.125.078.359.078.188 0 .469-.031Zm.703-6.438v-1.219h1.062v1.219h-1.062Zm0 7.375v-6.219h1.062V132h-1.062Zm4.719 0-2.36-6.219h1.11l1.343 3.719q.203.61.391 1.25.14-.484.39-1.172l1.391-3.797h1.078L140.5 132h-.984Zm7.53-2 1.095.125q-.25.953-.953 1.484-.704.532-1.782.532-1.36 0-2.172-.844-.797-.844-.797-2.36 0-1.562.813-2.421.813-.875 2.094-.875 1.25 0 2.031.843.797.844.797 2.391v.281h-4.64q.062 1.031.577 1.578.516.532 1.297.532.578 0 .985-.297.422-.313.656-.969Zm-3.452-1.703h3.469q-.063-.797-.391-1.188-.516-.609-1.313-.609-.734 0-1.234.484-.484.485-.531 1.313Z"/><path fill="#9e9e9e" d="m21.5 146.75 1.11-.094q.124.813.562 1.219.453.406 1.094.406.75 0 1.28-.578.532-.578.532-1.516 0-.906-.515-1.421-.5-.532-1.329-.532-.5 0-.922.235-.406.234-.64.594l-.985-.125.829-4.407h4.28v1H23.36l-.453 2.313q.766-.547 1.61-.547 1.125 0 1.89.781.782.781.782 2.016 0 1.156-.672 2.015-.828 1.032-2.25 1.032-1.172 0-1.922-.657-.735-.656-.844-1.734Zm7.594 2.25v-1.203h1.203V149h-1.203Zm2.406-2.266 1.063-.14q.171.89.609 1.297.437.39 1.062.39.75 0 1.266-.515.516-.516.516-1.282 0-.718-.485-1.187-.468-.484-1.203-.484-.297 0-.75.125l.125-.938q.11.016.172.016.672 0 1.203-.344.547-.36.547-1.094 0-.578-.39-.953-.391-.39-1.016-.39-.61 0-1.032.39-.406.39-.515 1.156l-1.063-.187q.188-1.047.875-1.625.688-.594 1.703-.594.704 0 1.297.313.594.296.907.812.312.516.312 1.11 0 .546-.297 1.015-.297.453-.875.719.75.172 1.172.734.422.547.422 1.39 0 1.126-.828 1.907-.813.781-2.063.781-1.125 0-1.875-.672-.75-.687-.859-1.75Zm7.203-4.265q0-.922.453-1.563.469-.64 1.344-.64.813 0 1.344.578.531.578.531 1.687 0 1.094-.547 1.688-.531.578-1.312.578-.782 0-1.297-.578-.516-.578-.516-1.75Zm1.828-1.485q-.39 0-.656.344-.25.344-.25 1.25 0 .828.25 1.172.266.328.656.328.407 0 .657-.344.265-.343.265-1.234 0-.844-.266-1.172-.265-.344-.656-.344Zm0 8.328 4.703-9.046h.86l-4.688 9.047h-.875Zm3.719-2.328q0-.922.453-1.562.469-.64 1.36-.64.812 0 1.343.577.532.563.532 1.688 0 1.094-.547 1.687-.532.578-1.328.578-.766 0-1.297-.578-.516-.578-.516-1.75Zm1.844-1.484q-.407 0-.672.344-.25.344-.25 1.25 0 .812.266 1.156.265.344.656.344.39 0 .656-.344t.266-1.25q0-.828-.266-1.156-.266-.344-.656-.344Z"/><path stroke="#757575" stroke-linecap="butt" d="M21 136.5h142l83.454-39.854"/><path fill="#9e9e9e" d="M248.454 96.646a2 2 0 1 0-4 0 2 2 0 0 0 4 0"/><path fill="#1a1a1a" d="M21.969 163v-8.594h1.125v3.531h4.468v-3.53h1.141V163h-1.14v-4.047h-4.47V163H21.97Zm13.078-2 1.094.125q-.25.953-.953 1.484-.704.532-1.782.532-1.36 0-2.172-.844-.797-.844-.797-2.36 0-1.562.813-2.421.813-.875 2.094-.875 1.25 0 2.031.843.797.844.797 2.391v.281h-4.64q.062 1.031.577 1.578.516.532 1.297.532.578 0 .985-.297.422-.313.656-.969Zm-3.453-1.703h3.468q-.062-.797-.39-1.188-.516-.609-1.313-.609-.734 0-1.234.484-.484.485-.531 1.313Zm10.265 2.937q-.593.5-1.14.703-.532.204-1.157.204-1.03 0-1.578-.5-.547-.5-.547-1.282 0-.453.204-.828.203-.39.547-.61.343-.233.765-.343.297-.094.938-.172 1.265-.14 1.875-.36v-.265q0-.656-.297-.922-.407-.343-1.203-.343-.735 0-1.094.265-.36.25-.531.906l-1.032-.14q.141-.656.47-1.063.327-.406.937-.625.609-.218 1.406-.218.797 0 1.297.187.5.188.734.469.234.281.328.719.047.265.047.968v1.407q0 1.468.063 1.859.078.39.28.75h-1.108q-.157-.328-.204-.766Zm-.093-2.359q-.578.234-1.72.406-.655.094-.921.219-.266.11-.422.328-.14.219-.14.5 0 .422.312.703.328.281.938.281.609 0 1.078-.265.484-.266.703-.734.172-.36.172-1.047v-.391Zm3 3.125v-8.594h1.062V163h-1.062Zm5.328-.938.156.922q-.453.094-.797.094-.578 0-.89-.172-.313-.187-.454-.484-.125-.297-.125-1.25v-3.578h-.765v-.813h.765v-1.547l1.047-.625v2.172h1.063v.813H49.03v3.64q0 .453.047.578.063.125.188.204.125.078.359.078.188 0 .469-.031Zm.703.938v-8.594h1.047v3.078q.734-.843 1.86-.843.702 0 1.202.28.516.267.735.75.218.47.218 1.392V163h-1.047v-3.938q0-.796-.343-1.156-.344-.36-.969-.36-.469 0-.89.25-.407.235-.594.657-.172.406-.172 1.14V163h-1.047Zm10.328 0v-8.594h1.125V163h-1.125Zm2.672 0v-6.219h.937v.875q.688-1.015 1.985-1.015.562 0 1.031.203.484.203.719.531.234.328.328.766.047.297.047 1.03V163h-1.047v-3.781q0-.656-.125-.969-.125-.313-.438-.5-.312-.203-.734-.203-.672 0-1.172.437-.484.422-.484 1.61V163h-1.047Zm6.578-1.86 1.031-.156q.094.625.485.953.406.329 1.14.329.719 0 1.063-.282.36-.297.36-.703 0-.36-.313-.562-.22-.14-1.079-.36-1.156-.297-1.609-.5-.437-.218-.672-.593-.234-.375-.234-.844 0-.406.187-.766.188-.36.516-.594.25-.171.672-.296.422-.125.922-.125.719 0 1.265.218.563.203.829.563.265.36.359.953l-1.031.14q-.063-.468-.407-.734-.328-.281-.953-.281-.719 0-1.031.25-.313.234-.313.563 0 .203.126.359.14.172.406.281.156.063.937.266 1.125.312 1.563.5.437.187.687.547.25.359.25.906 0 .531-.312 1-.297.453-.875.719-.578.25-1.313.25-1.219 0-1.86-.5-.624-.516-.796-1.5Zm11.5 1.86v-.922q-.734 1.063-1.984 1.063-.547 0-1.032-.203-.468-.22-.703-.532-.234-.328-.328-.797-.062-.297-.062-.984v-3.844h1.062v3.453q0 .813.063 1.11.093.406.406.656.328.234.812.234.47 0 .875-.234.422-.25.594-.672.188-.422.188-1.219v-3.328h1.046V163h-.937Zm2.906 0v-6.219h.953v.938q.36-.656.657-.86.312-.218.687-.218.531 0 1.078.328l-.36.984q-.39-.234-.765-.234-.36 0-.64.219-.266.203-.375.578-.188.562-.188 1.218V163h-1.047Zm8.078-.766q-.593.5-1.14.703-.531.204-1.156.204-1.032 0-1.579-.5-.546-.5-.546-1.282 0-.453.203-.828.203-.39.546-.61.344-.233.766-.343.297-.094.938-.172 1.265-.14 1.875-.36v-.265q0-.656-.297-.922-.406-.343-1.203-.343-.735 0-1.094.265-.36.25-.531.906l-1.032-.14q.141-.656.47-1.063.327-.406.937-.625.609-.218 1.406-.218.797 0 1.297.187.5.188.734.469.234.281.328.719.047.265.047.968v1.407q0 1.468.063 1.859.078.39.28.75h-1.109q-.156-.328-.203-.766Zm-.093-2.359q-.579.234-1.72.406-.655.094-.921.219-.266.11-.422.328-.14.219-.14.5 0 .422.312.703.328.281.938.281.609 0 1.078-.265.484-.266.703-.734.172-.36.172-1.047v-.391Zm3.03 3.125v-6.219h.938v.875q.688-1.015 1.985-1.015.562 0 1.031.203.484.203.719.531.234.328.328.766.047.297.047 1.03V163h-1.047v-3.781q0-.656-.125-.969-.125-.313-.438-.5-.312-.203-.734-.203-.672 0-1.172.437-.484.422-.484 1.61V163h-1.047Zm11.063-2.281 1.032.14q-.172 1.063-.875 1.672-.704.61-1.72.61-1.28 0-2.062-.828-.765-.844-.765-2.407 0-1 .328-1.75.344-.765 1.016-1.14.687-.375 1.5-.375 1 0 1.64.515.656.5.844 1.453l-1.031.157q-.141-.625-.516-.938-.375-.328-.906-.328-.797 0-1.297.578-.5.563-.5 1.797 0 1.266.484 1.828.485.563 1.25.563.625 0 1.031-.375.422-.375.547-1.172Zm6.188.281 1.094.125q-.25.953-.954 1.484-.703.532-1.78.532-1.36 0-2.173-.844-.796-.844-.796-2.36 0-1.562.812-2.421.813-.875 2.094-.875 1.25 0 2.031.843.797.844.797 2.391v.281h-4.64q.062 1.031.577 1.578.516.532 1.297.532.578 0 .985-.297.421-.313.656-.969Zm-3.453-1.703h3.469q-.063-.797-.391-1.188-.516-.609-1.313-.609-.734 0-1.234.484-.484.485-.531 1.313Z"/><path fill="#9e9e9e" d="m21.5 177.75 1.11-.094q.124.813.562 1.219.453.406 1.094.406.75 0 1.28-.578.532-.578.532-1.516 0-.906-.515-1.421-.5-.532-1.329-.532-.5 0-.922.235-.406.234-.64.594l-.985-.125.829-4.407h4.28v1H23.36l-.453 2.313q.766-.547 1.61-.547 1.125 0 1.89.781.782.781.782 2.016 0 1.156-.672 2.015-.828 1.032-2.25 1.032-1.172 0-1.922-.657-.735-.656-.844-1.734Zm7.594 2.25v-1.203h1.203V180h-1.203Zm7.953-1.016V180h-5.688q0-.375.125-.734.22-.578.688-1.141.484-.563 1.39-1.297 1.407-1.156 1.891-1.828.5-.672.5-1.266 0-.625-.453-1.047-.453-.437-1.172-.437-.766 0-1.219.453-.453.453-.468 1.266l-1.078-.11q.109-1.218.828-1.843.734-.641 1.968-.641 1.235 0 1.953.688.72.687.72 1.703 0 .515-.22 1.015-.203.485-.703 1.047-.484.547-1.609 1.5-.953.797-1.234 1.094-.266.281-.438.562h4.219Zm1.656-5.515q0-.922.453-1.563.469-.64 1.344-.64.813 0 1.344.578.531.578.531 1.687 0 1.094-.547 1.688-.531.578-1.312.578-.782 0-1.297-.578-.516-.578-.516-1.75Zm1.828-1.485q-.39 0-.656.344-.25.344-.25 1.25 0 .828.25 1.172.266.328.656.328.407 0 .657-.344.265-.343.265-1.234 0-.844-.266-1.172-.265-.344-.656-.344Zm0 8.328 4.703-9.046h.86l-4.688 9.047h-.875Zm3.719-2.328q0-.922.453-1.562.469-.64 1.36-.64.812 0 1.343.577.532.563.532 1.688 0 1.094-.547 1.687-.532.578-1.328.578-.766 0-1.297-.578-.516-.578-.516-1.75Zm1.844-1.484q-.407 0-.672.344-.25.344-.25 1.25 0 .812.266 1.156.265.344.656.344.39 0 .656-.344t.266-1.25q0-.828-.266-1.156-.266-.344-.656-.344Z"/><path stroke="#757575" stroke-linecap="butt" d="M21 167.5h142l45.64-33.833"/><path fill="#9e9e9e" d="M210.64 133.667a2 2 0 1 0-4 0 2 2 0 0 0 4 0"/><path fill="#1a1a1a" d="M21.922 194v-8.594h3.25q.844 0 1.297.078.64.11 1.062.407.438.297.688.828.265.531.265 1.172 0 1.093-.703 1.859-.687.75-2.515.75h-2.203v3.5h-1.141Zm1.14-4.5h2.22q1.109 0 1.562-.406.468-.422.468-1.172 0-.531-.28-.906-.266-.391-.704-.516-.297-.078-1.062-.078h-2.203v3.078Zm10.797 3.734q-.593.5-1.14.703-.532.204-1.157.204-1.03 0-1.578-.5-.547-.5-.547-1.282 0-.453.204-.828.203-.39.547-.61.343-.233.765-.343.297-.094.938-.172 1.265-.14 1.875-.36v-.265q0-.656-.297-.922-.407-.343-1.203-.343-.735 0-1.094.265-.36.25-.531.906l-1.032-.14q.141-.656.47-1.063.327-.406.937-.625.609-.218 1.406-.218.797 0 1.297.187.5.188.734.469.234.281.328.719.047.265.047.968v1.407q0 1.468.063 1.859.078.39.28.75h-1.108q-.157-.328-.204-.766Zm-.093-2.359q-.578.234-1.72.406-.655.094-.921.219-.266.11-.422.328-.14.219-.14.5 0 .422.312.703.328.281.938.281.609 0 1.078-.265.484-.266.703-.734.172-.36.172-1.047v-.391Zm2.984 5.516-.125-.985q.344.094.61.094.343 0 .546-.125.219-.11.36-.313.093-.171.328-.796.015-.078.093-.25l-2.374-6.235h1.14l1.297 3.594q.25.688.453 1.453.188-.734.438-1.422l1.328-3.625h1.047l-2.36 6.328q-.39 1.016-.593 1.407-.282.53-.657.765-.36.25-.86.25-.296 0-.671-.14ZM41.797 194v-6.219h.937v.875q.297-.469.782-.734.484-.281 1.109-.281.688 0 1.125.28.453.282.625.798.75-1.078 1.922-1.078.937 0 1.422.515.5.5.5 1.578V194h-1.047v-3.922q0-.625-.11-.906-.093-.281-.359-.453t-.64-.172q-.657 0-1.094.437-.422.438-.422 1.407V194h-1.063v-4.047q0-.703-.265-1.047-.25-.36-.828-.36-.453 0-.828.235-.376.235-.547.688-.172.453-.172 1.297V194h-1.047Zm15.25-2 1.094.125q-.25.953-.953 1.484-.704.532-1.782.532-1.36 0-2.172-.844-.797-.844-.797-2.36 0-1.562.813-2.421.813-.875 2.094-.875 1.25 0 2.031.843.797.844.797 2.391v.281h-4.64q.062 1.031.577 1.578.516.532 1.297.532.578 0 .985-.297.422-.313.656-.969Zm-3.453-1.703h3.468q-.062-.797-.39-1.188-.516-.609-1.313-.609-.734 0-1.234.484-.484.485-.531 1.313ZM59.797 194v-6.219h.937v.875q.688-1.015 1.985-1.015.562 0 1.031.203.484.203.719.531.234.328.328.766.047.297.047 1.03V194h-1.047v-3.781q0-.656-.125-.969-.125-.313-.438-.5-.312-.203-.734-.203-.672 0-1.172.437-.484.422-.484 1.61V194h-1.047Zm9.297-.938.156.922q-.453.094-.797.094-.578 0-.89-.172-.313-.187-.454-.484-.125-.297-.125-1.25v-3.578h-.765v-.813h.765v-1.547l1.047-.625v2.172h1.063v.813H68.03v3.64q0 .453.047.578.063.125.188.204.125.078.359.078.188 0 .469-.031Zm3.828.938v-8.594h3.25q.844 0 1.297.078.64.11 1.062.407.438.297.688.828.265.531.265 1.172 0 1.093-.703 1.859-.687.75-2.515.75h-2.204v3.5h-1.14Zm1.14-4.5h2.22q1.109 0 1.562-.406.469-.422.469-1.172 0-.531-.282-.906-.265-.391-.703-.516-.297-.078-1.062-.078h-2.204v3.078Zm6.72 4.5v-6.219h.952v.938q.36-.656.657-.86.312-.218.687-.218.531 0 1.078.328l-.36.984q-.39-.234-.765-.234-.36 0-.64.219-.266.203-.375.578-.188.562-.188 1.218V194h-1.047Zm3.624-3.11q0-1.734.953-2.562.797-.687 1.954-.687 1.28 0 2.093.843.828.828.828 2.313 0 1.203-.359 1.89-.36.688-1.063 1.079-.687.375-1.5.375-1.296 0-2.109-.828-.797-.844-.797-2.422Zm1.078 0q0 1.188.516 1.782.531.594 1.313.594.796 0 1.312-.594t.516-1.813q0-1.156-.532-1.75-.515-.593-1.296-.593-.782 0-1.313.593-.516.578-.516 1.782Zm10.375.829 1.032.14q-.172 1.063-.875 1.672-.704.61-1.72.61-1.28 0-2.062-.828-.765-.844-.765-2.407 0-1 .328-1.75.344-.765 1.016-1.14.687-.375 1.5-.375 1 0 1.64.515.656.5.844 1.453l-1.031.157q-.141-.625-.516-.938-.375-.328-.906-.328-.797 0-1.297.578-.5.563-.5 1.797 0 1.266.484 1.828.485.563 1.25.563.625 0 1.031-.375.422-.375.547-1.172Zm6.188.281 1.094.125q-.25.953-.954 1.484-.703.532-1.78.532-1.36 0-2.173-.844-.796-.844-.796-2.36 0-1.562.812-2.421.813-.875 2.094-.875 1.25 0 2.031.843.797.844.797 2.391v.281h-4.64q.062 1.031.577 1.578.516.532 1.297.532.578 0 .985-.297.421-.313.656-.969Zm-3.453-1.703h3.469q-.063-.797-.391-1.188-.516-.609-1.313-.609-.734 0-1.234.484-.484.485-.531 1.313Zm5.781 1.844 1.031-.157q.094.625.485.953.406.329 1.14.329.719 0 1.063-.282.36-.297.36-.703 0-.36-.313-.562-.22-.14-1.079-.36-1.156-.297-1.609-.5-.437-.218-.672-.593-.234-.375-.234-.844 0-.406.187-.766.188-.36.516-.594.25-.171.672-.296.422-.125.922-.125.719 0 1.265.218.563.203.829.563.265.36.359.953l-1.031.14q-.063-.468-.407-.734-.328-.281-.953-.281-.719 0-1.031.25-.313.234-.313.563 0 .203.126.359.14.172.406.281.156.063.937.266 1.125.312 1.563.5.437.187.687.547.25.359.25.906 0 .531-.312 1-.297.453-.875.719-.578.25-1.313.25-1.219 0-1.86-.5-.624-.516-.796-1.5Zm7 0 1.031-.157q.094.625.485.953.406.329 1.14.329.719 0 1.063-.282.36-.297.36-.703 0-.36-.313-.562-.22-.14-1.079-.36-1.156-.297-1.609-.5-.437-.218-.672-.593-.234-.375-.234-.844 0-.406.187-.766.188-.36.516-.594.25-.171.672-.296.422-.125.922-.125.719 0 1.265.218.563.203.829.563.265.36.359.953l-1.031.14q-.063-.468-.407-.734-.328-.281-.953-.281-.719 0-1.031.25-.313.234-.313.563 0 .203.126.359.14.172.406.281.156.063.937.266 1.125.312 1.563.5.437.187.687.547.25.359.25.906 0 .531-.312 1-.297.453-.875.719-.578.25-1.313.25-1.219 0-1.86-.5-.624-.516-.796-1.5Zm7.031-1.25q0-1.735.953-2.563.797-.687 1.954-.687 1.28 0 2.093.843.828.828.828 2.313 0 1.203-.359 1.89-.36.688-1.063 1.079-.687.375-1.5.375-1.296 0-2.109-.828-.797-.844-.797-2.422Zm1.078 0q0 1.187.516 1.78.531.595 1.313.595.796 0 1.312-.594t.516-1.813q0-1.156-.532-1.75-.515-.593-1.296-.593-.782 0-1.313.593-.516.578-.516 1.782Zm6.297 3.109v-6.219h.953v.938q.36-.656.657-.86.312-.218.687-.218.531 0 1.078.328l-.36.984q-.39-.234-.765-.234-.36 0-.64.219-.266.203-.375.578-.188.562-.188 1.218V194h-1.047Zm7.203 0v-8.594h5.797v1.016h-4.656v2.656h4.031v1.016h-4.031V194h-1.14Zm11.063-2 1.094.125q-.25.953-.953 1.484-.704.532-1.782.532-1.36 0-2.172-.844-.797-.844-.797-2.36 0-1.562.813-2.421.813-.875 2.094-.875 1.25 0 2.031.843.797.844.797 2.391v.281h-4.64q.062 1.031.577 1.578.516.532 1.297.532.578 0 .985-.297.422-.313.656-.969Zm-3.453-1.703h3.469q-.063-.797-.391-1.188-.516-.609-1.313-.609-.734 0-1.234.484-.484.485-.531 1.313ZM151.047 192l1.094.125q-.25.953-.953 1.484-.704.532-1.782.532-1.36 0-2.172-.844-.797-.844-.797-2.36 0-1.562.813-2.421.813-.875 2.094-.875 1.25 0 2.031.843.797.844.797 2.391v.281h-4.64q.062 1.031.577 1.578.516.532 1.297.532.578 0 .985-.297.422-.313.656-.969Zm-3.453-1.703h3.469q-.063-.797-.391-1.188-.516-.609-1.313-.609-.734 0-1.234.484-.484.485-.531 1.313Zm5.781 1.844 1.031-.157q.094.625.485.953.406.329 1.14.329.719 0 1.063-.282.36-.297.36-.703 0-.36-.313-.562-.22-.14-1.078-.36-1.157-.297-1.61-.5-.437-.218-.672-.593-.234-.375-.234-.844 0-.406.187-.766.188-.36.516-.594.25-.171.672-.296.422-.125.922-.125.719 0 1.265.218.563.203.828.563.266.36.36.953l-1.031.14q-.063-.468-.407-.734-.328-.281-.953-.281-.719 0-1.031.25-.313.234-.313.563 0 .203.125.359.141.172.407.281.156.063.937.266 1.125.312 1.563.5.437.187.687.547.25.359.25.906 0 .531-.312 1-.297.453-.875.719-.578.25-1.313.25-1.219 0-1.86-.5-.624-.516-.796-1.5Z"/><path fill="#9e9e9e" d="M25.469 211h-1.047v-6.719q-.39.36-1.016.735-.61.359-1.093.53v-1.015q.875-.422 1.53-1 .673-.594.954-1.156h.672V211Zm3.625 0v-1.203h1.203V211h-1.203Zm2.468-7.469v-1.015h5.563v.828q-.813.875-1.625 2.328-.797 1.437-1.234 2.969-.328 1.078-.407 2.359h-1.093q.015-1.016.39-2.453.39-1.438 1.094-2.766.719-1.328 1.531-2.25h-4.218Zm7.141.938q0-.922.453-1.563.469-.64 1.344-.64.813 0 1.344.578.531.578.531 1.687 0 1.094-.547 1.688-.531.578-1.312.578-.782 0-1.297-.578-.516-.578-.516-1.75Zm1.828-1.485q-.39 0-.656.344-.25.344-.25 1.25 0 .828.25 1.172.266.328.656.328.407 0 .657-.344.265-.343.265-1.234 0-.844-.266-1.172-.265-.344-.656-.344Zm0 8.328 4.703-9.046h.86l-4.688 9.047h-.875Zm3.719-2.328q0-.922.453-1.562.469-.64 1.36-.64.812 0 1.343.577.532.563.532 1.688 0 1.094-.547 1.687-.532.578-1.328.578-.766 0-1.297-.578-.516-.578-.516-1.75Zm1.844-1.484q-.407 0-.672.344-.25.344-.25 1.25 0 .812.266 1.156.265.344.656.344.39 0 .656-.344t.266-1.25q0-.828-.266-1.156-.266-.344-.656-.344Z"/><path stroke="#757575" stroke-linecap="butt" d="M21 198.5h142l28.113-34.398"/><path fill="#9e9e9e" d="M193.113 164.102a2 2 0 1 0-4 0 2 2 0 0 0 4 0"/><path fill="#1a1a1a" d="m28.063 221.984 1.125.297q-.36 1.39-1.282 2.125-.922.735-2.265.735-1.391 0-2.266-.563-.875-.562-1.328-1.625-.453-1.078-.453-2.312 0-1.344.515-2.344.516-1 1.453-1.516.954-.515 2.094-.515 1.282 0 2.157.656.89.656 1.234 1.844l-1.125.265q-.297-.937-.875-1.36-.563-.437-1.422-.437-.984 0-1.656.485-.657.469-.938 1.265-.265.797-.265 1.657 0 1.093.312 1.906.328.812 1 1.219.672.406 1.469.406.953 0 1.61-.547.671-.547.905-1.64Zm2.343-.093q0-1.735.953-2.563.797-.687 1.953-.687 1.282 0 2.094.843.828.828.828 2.313 0 1.203-.359 1.89-.36.688-1.063 1.079-.687.375-1.5.375-1.296 0-2.109-.828-.797-.844-.797-2.422Zm1.078 0q0 1.187.516 1.78.531.595 1.313.595.796 0 1.312-.594t.516-1.813q0-1.156-.532-1.75-.515-.593-1.297-.593-.78 0-1.312.593-.516.578-.516 1.782ZM37.797 225v-6.219h.937v.875q.688-1.015 1.985-1.015.562 0 1.031.203.484.203.719.531.234.328.328.766.047.297.047 1.03V225h-1.047v-3.781q0-.656-.125-.969-.125-.313-.438-.5-.312-.203-.734-.203-.672 0-1.172.437-.484.422-.484 1.61V225h-1.047Zm9.297-.938.156.922q-.453.094-.797.094-.578 0-.89-.172-.313-.187-.454-.484-.125-.297-.125-1.25v-3.578h-.765v-.813h.765v-1.547l1.047-.625v2.172h1.063v.813H46.03v3.64q0 .453.047.578.063.125.188.204.125.078.359.078.188 0 .469-.031Zm.687.938v-6.219h.953v.938q.36-.656.657-.86.312-.218.687-.218.531 0 1.078.328l-.36.984q-.39-.234-.765-.234-.36 0-.64.219-.266.203-.375.578-.188.562-.188 1.218V225h-1.047Zm4.016-7.375v-1.219h1.062v1.219h-1.062Zm0 7.375v-6.219h1.062V225h-1.062Zm3.969 0h-.985v-8.594h1.063v3.063q.672-.828 1.703-.828.578 0 1.078.234.516.219.844.64.343.423.531 1.016.188.594.188 1.266 0 1.594-.797 2.469-.797.875-1.891.875-1.11 0-1.734-.922V225Zm-.016-3.156q0 1.11.313 1.61.5.812 1.343.812.688 0 1.188-.594.515-.594.515-1.797 0-1.219-.484-1.797-.484-.578-1.172-.578-.687 0-1.203.61-.5.593-.5 1.734ZM65.875 225v-.922q-.734 1.063-1.984 1.063-.547 0-1.032-.203-.468-.22-.703-.532-.234-.328-.328-.797-.062-.297-.062-.984v-3.844h1.062v3.453q0 .813.063 1.11.093.406.406.656.328.234.812.234.47 0 .875-.234.422-.25.594-.672.188-.422.188-1.219v-3.328h1.046V225h-.937Zm5.219-.938.156.922q-.453.094-.797.094-.578 0-.89-.172-.313-.187-.454-.484-.125-.297-.125-1.25v-3.578h-.765v-.813h.765v-1.547l1.047-.625v2.172h1.063v.813H70.03v3.64q0 .453.047.578.063.125.188.204.125.078.359.078.188 0 .469-.031Zm.312-2.171q0-1.735.953-2.563.797-.687 1.954-.687 1.28 0 2.093.843.828.828.828 2.313 0 1.203-.359 1.89-.36.688-1.063 1.079-.687.375-1.5.375-1.296 0-2.109-.828-.797-.844-.797-2.422Zm1.078 0q0 1.187.516 1.78.531.595 1.313.595.796 0 1.312-.594t.516-1.813q0-1.156-.532-1.75-.515-.593-1.296-.593-.782 0-1.313.593-.516.578-.516 1.782ZM78.781 225v-6.219h.953v.938q.36-.656.657-.86.312-.218.687-.218.531 0 1.078.328l-.36.984q-.39-.234-.765-.234-.36 0-.64.219-.266.203-.375.578-.188.562-.188 1.218V225h-1.047Zm7.14 0v-8.594h3.25q.845 0 1.298.078.64.11 1.062.407.438.297.688.828.265.531.265 1.172 0 1.093-.703 1.859-.687.75-2.515.75h-2.204v3.5h-1.14Zm1.141-4.5h2.22q1.109 0 1.562-.406.469-.422.469-1.172 0-.531-.282-.906-.265-.391-.703-.516-.297-.078-1.062-.078h-2.204v3.078Zm6.344 1.39q0-1.734.953-2.562.797-.687 1.954-.687 1.28 0 2.093.843.828.828.828 2.313 0 1.203-.359 1.89-.36.688-1.063 1.079-.687.375-1.5.375-1.296 0-2.109-.828-.797-.844-.797-2.422Zm1.078 0q0 1.188.516 1.782.531.594 1.313.594.796 0 1.312-.594t.516-1.813q0-1.156-.532-1.75-.515-.593-1.296-.593-.782 0-1.313.593-.516.578-.516 1.782Zm5.922 0q0-1.734.953-2.562.797-.687 1.954-.687 1.28 0 2.093.843.828.828.828 2.313 0 1.203-.359 1.89-.36.688-1.063 1.079-.687.375-1.5.375-1.296 0-2.109-.828-.797-.844-.797-2.422Zm1.078 0q0 1.188.516 1.782.531.594 1.313.594.796 0 1.312-.594t.516-1.813q0-1.156-.532-1.75-.515-.593-1.296-.593-.782 0-1.313.593-.516.578-.516 1.782Zm6.282 3.11v-8.594h1.062V225h-1.062Z"/><path fill="#9e9e9e" d="m21.656 240.016 1.016-.094q.125.719.484 1.047.375.312.938.312.484 0 .843-.219.375-.234.61-.593.234-.375.39-1 .157-.64.157-1.297v-.219q-.313.5-.86.828-.547.313-1.187.313-1.078 0-1.813-.766-.734-.781-.734-2.047 0-1.312.766-2.11.78-.796 1.937-.796.828 0 1.516.453.703.453 1.062 1.297.36.828.36 2.406 0 1.64-.36 2.625-.343.969-1.062 1.485-.703.5-1.64.5-1.017 0-1.657-.547-.64-.563-.766-1.578Zm4.313-3.797q0-.906-.485-1.438-.468-.531-1.156-.531-.703 0-1.234.578-.516.563-.516 1.484 0 .813.5 1.329.5.515 1.219.515.734 0 1.203-.515.469-.516.469-1.422ZM29.094 242v-1.203h1.203V242h-1.203Zm5.781 0v-2.063h-3.719v-.968l3.922-5.563h.86v5.563h1.156v.969h-1.157V242h-1.062Zm0-3.031v-3.86l-2.688 3.86h2.688Zm3.828-3.5q0-.922.453-1.563.469-.64 1.344-.64.813 0 1.344.578.531.578.531 1.687 0 1.094-.547 1.688-.531.578-1.312.578-.782 0-1.297-.578-.516-.578-.516-1.75Zm1.828-1.485q-.39 0-.656.344-.25.344-.25 1.25 0 .828.25 1.172.266.328.656.328.407 0 .657-.344.265-.343.265-1.234 0-.844-.266-1.172-.265-.344-.656-.344Zm0 8.328 4.703-9.046h.86l-4.688 9.047h-.875Zm3.719-2.328q0-.922.453-1.562.469-.64 1.36-.64.812 0 1.343.577.532.563.532 1.688 0 1.094-.547 1.687-.532.578-1.328.578-.766 0-1.297-.578-.516-.578-.516-1.75Zm1.844-1.484q-.407 0-.672.344-.25.344-.25 1.25 0 .812.266 1.156.265.344.656.344.39 0 .656-.344t.266-1.25q0-.828-.266-1.156-.266-.344-.656-.344Z"/><path stroke="#757575" stroke-linecap="butt" d="M21 229.5h142l14.824-10.726"/><path fill="#9e9e9e" d="M179.824 218.774a2 2 0 1 0-4 0 2 2 0 0 0 4 0"/><path fill="#1a1a1a" d="M24.11 261.605v-7.578h-2.83v-1.015h6.813v1.015H25.25v7.578h-1.14Zm4.671 0v-6.218h.953v.937q.36-.656.657-.86.312-.218.687-.218.531 0 1.078.328l-.36.985q-.39-.235-.765-.235-.36 0-.64.219-.266.203-.375.578-.188.563-.188 1.219v3.265h-1.047Zm4.016-7.375v-1.218h1.062v1.218h-1.062Zm0 7.375v-6.218h1.062v6.218h-1.062Zm7.062-.765q-.593.5-1.14.703-.532.203-1.157.203-1.03 0-1.578-.5-.547-.5-.547-1.281 0-.453.204-.828.203-.39.547-.61.343-.234.765-.343.297-.094.938-.172 1.265-.14 1.875-.36v-.265q0-.657-.297-.922-.407-.344-1.203-.344-.735 0-1.094.266-.36.25-.531.906l-1.032-.14q.141-.657.47-1.063.327-.406.937-.625.609-.219 1.406-.219.797 0 1.297.188.5.187.734.468.234.282.328.72.047.265.047.968v1.406q0 1.469.063 1.86.078.39.28.75h-1.108q-.157-.329-.204-.766Zm-.093-2.36q-.578.235-1.72.407-.655.093-.921.218-.266.11-.422.329-.14.218-.14.5 0 .421.312.703.328.281.938.281.609 0 1.078-.266.484-.265.703-.734.172-.36.172-1.047v-.39Zm2.828 3.641 1.031.156q.063.47.36.688.39.297 1.062.297.734 0 1.125-.297.406-.297.547-.813.093-.328.078-1.359-.688.812-1.719.812-1.281 0-1.984-.921-.703-.938-.703-2.22 0-.89.312-1.64.328-.765.938-1.172.609-.406 1.437-.406 1.11 0 1.828.89v-.75h.969v5.376q0 1.453-.297 2.062-.297.61-.937.953-.641.36-1.578.36-1.11 0-1.797-.5-.688-.5-.672-1.516Zm.875-3.734q0 1.218.484 1.781.484.562 1.219.562.734 0 1.219-.562.5-.563.5-1.75 0-1.14-.516-1.719-.5-.578-1.219-.578-.703 0-1.203.578-.484.563-.484 1.688Zm10.578 1.218 1.094.125q-.25.954-.953 1.485-.704.531-1.782.531-1.36 0-2.172-.844-.797-.843-.797-2.359 0-1.563.813-2.422.813-.875 2.094-.875 1.25 0 2.031.844.797.844.797 2.39v.282h-4.64q.062 1.031.577 1.578.516.531 1.297.531.578 0 .985-.297.422-.312.656-.969Zm-3.453-1.703h3.468q-.062-.797-.39-1.187-.516-.61-1.313-.61-.734 0-1.234.485-.484.484-.531 1.312Zm13.265 2.938q-.593.5-1.14.703-.532.203-1.157.203-1.03 0-1.578-.5-.547-.5-.547-1.281 0-.453.204-.828.203-.39.547-.61.343-.234.765-.343.297-.094.938-.172 1.265-.14 1.875-.36v-.265q0-.657-.297-.922-.407-.344-1.203-.344-.735 0-1.094.266-.36.25-.531.906l-1.032-.14q.141-.657.47-1.063.327-.406.937-.625.609-.219 1.406-.219.797 0 1.297.188.5.187.734.468.234.282.328.72.047.265.047.968v1.406q0 1.469.063 1.86.078.39.28.75h-1.109q-.156-.329-.203-.766Zm-.093-2.36q-.578.235-1.72.407-.655.093-.921.218-.266.11-.422.329-.14.218-.14.5 0 .421.312.703.328.281.938.281.609 0 1.078-.266.484-.265.703-.734.172-.36.172-1.047v-.39Zm3.03 3.125v-6.218h.938v.875q.688-1.016 1.985-1.016.562 0 1.031.203.484.203.719.531.234.329.328.766.047.297.047 1.031v3.828h-1.047v-3.78q0-.657-.125-.97-.125-.312-.438-.5-.312-.203-.734-.203-.672 0-1.172.438-.484.422-.484 1.61v3.405h-1.047Zm11.032 0v-.78q-.594.921-1.734.921-.75 0-1.375-.406-.625-.422-.969-1.156-.344-.735-.344-1.688 0-.922.313-1.687.312-.766.937-1.157.625-.406 1.39-.406.563 0 1 .234.438.235.72.61v-3.078h1.046v8.593h-.984Zm-3.328-3.109q0 1.203.5 1.797.5.578 1.188.578.687 0 1.171-.562.485-.563.485-1.72 0-1.28-.5-1.874-.485-.594-1.203-.594-.704 0-1.172.578-.469.563-.469 1.797Zm9.047.344 1.062-.094q.079.656.36 1.063.281.406.86.671.593.25 1.327.25.64 0 1.14-.187.5-.203.735-.531.25-.344.25-.735 0-.406-.234-.703-.234-.312-.766-.515-.36-.141-1.547-.422-1.171-.282-1.64-.532-.625-.328-.922-.796-.297-.485-.297-1.079 0-.64.36-1.203.374-.578 1.078-.859.718-.297 1.578-.297.953 0 1.687.313.734.296 1.125.906.39.594.422 1.344l-1.094.078q-.094-.813-.61-1.219-.5-.422-1.484-.422-1.03 0-1.5.375-.468.375-.468.906 0 .47.328.766.328.297 1.703.61 1.39.312 1.906.546.75.36 1.11.89.359.516.359 1.22 0 .687-.39 1.296-.391.594-1.126.938-.734.328-1.656.328-1.172 0-1.969-.328-.78-.344-1.234-1.031-.438-.688-.453-1.547Zm12.328 2.765v-.921q-.734 1.062-1.984 1.062-.547 0-1.032-.203-.468-.219-.703-.531-.234-.328-.328-.797-.062-.297-.062-.985v-3.843h1.062v3.453q0 .812.063 1.11.093.405.406.655.328.235.812.235.47 0 .875-.235.422-.25.594-.671.188-.422.188-1.22v-3.327h1.046v6.218h-.937Zm2.922 2.391v-8.61h.953v.798q.344-.47.766-.704.437-.234 1.046-.234.797 0 1.407.406.61.407.906 1.157.313.75.313 1.64 0 .953-.344 1.719-.328.766-.985 1.172-.656.406-1.375.406-.53 0-.953-.219-.422-.234-.687-.562v3.031h-1.047Zm.953-5.469q0 1.203.484 1.782.485.562 1.172.562.703 0 1.203-.594.5-.593.5-1.843 0-1.188-.484-1.766-.484-.594-1.172-.594-.672 0-1.187.625-.516.625-.516 1.828Zm6.047 5.47v-8.61h.953v.797q.344-.47.766-.704.437-.234 1.046-.234.797 0 1.407.406.61.407.906 1.157.313.75.313 1.64 0 .953-.344 1.719-.328.766-.985 1.172-.656.406-1.375.406-.53 0-.953-.219-.422-.234-.687-.562v3.031h-1.047Zm.953-5.47q0 1.203.484 1.782.485.562 1.172.562.703 0 1.203-.594.5-.593.5-1.843 0-1.188-.484-1.766-.484-.594-1.172-.594-.672 0-1.187.625-.516.625-.516 1.828Zm5.656-.03q0-1.735.953-2.563.797-.688 1.954-.688 1.28 0 2.093.844.828.828.828 2.312 0 1.203-.359 1.891-.36.687-1.063 1.078-.687.375-1.5.375-1.296 0-2.109-.828-.797-.844-.797-2.422Zm1.078 0q0 1.187.516 1.78.531.594 1.313.594.796 0 1.312-.594.516-.593.516-1.812 0-1.156-.532-1.75-.515-.594-1.296-.594-.782 0-1.313.594-.516.578-.516 1.781Zm6.297 3.108v-6.218h.953v.937q.36-.656.657-.86.312-.218.687-.218.531 0 1.078.328l-.36.985q-.39-.235-.765-.235-.36 0-.64.219-.266.203-.375.578-.188.563-.188 1.219v3.265h-1.047Zm6.313-.937.156.922q-.453.094-.797.094-.578 0-.89-.172-.313-.188-.454-.485-.125-.297-.125-1.25V256.2h-.765v-.812h.765v-1.547l1.047-.625v2.172h1.063v.812h-1.063v3.64q0 .454.047.579.063.125.188.203.125.078.359.078.188 0 .469-.031Z"/><path fill="#9e9e9e" d="M21.5 274.371q0-1.531.313-2.453.312-.938.921-1.438.625-.5 1.563-.5.687 0 1.203.282.531.281.875.812.344.516.531 1.266.188.75.188 2.031 0 1.516-.313 2.438-.297.921-.922 1.437-.609.5-1.562.5-1.235 0-1.953-.89-.844-1.063-.844-3.485Zm1.078 0q0 2.11.5 2.813.5.703 1.219.703.734 0 1.219-.703.5-.704.5-2.813 0-2.125-.5-2.812-.485-.704-1.235-.704-.718 0-1.156.61-.547.781-.547 2.906Zm6.516 4.234v-1.203h1.203v1.203h-1.203Zm7.953-1.015v1.015h-5.688q0-.375.125-.734.22-.578.688-1.14.484-.563 1.39-1.297 1.407-1.157 1.891-1.829.5-.671.5-1.265 0-.625-.453-1.047-.453-.438-1.172-.438-.766 0-1.219.454-.453.453-.468 1.265l-1.078-.11q.109-1.218.828-1.843.734-.64 1.968-.64 1.235 0 1.953.687.72.687.72 1.703 0 .516-.22 1.016-.203.484-.703 1.047-.484.546-1.609 1.5-.953.796-1.234 1.093-.266.282-.438.563h4.219Zm1.656-5.516q0-.922.453-1.562.469-.64 1.344-.64.813 0 1.344.577.531.578.531 1.688 0 1.093-.547 1.687-.531.578-1.312.578-.782 0-1.297-.578-.516-.578-.516-1.75Zm1.828-1.484q-.39 0-.656.344-.25.343-.25 1.25 0 .828.25 1.171.266.329.656.329.407 0 .657-.344.265-.344.265-1.235 0-.843-.266-1.171-.265-.344-.656-.344Zm0 8.328 4.703-9.047h.86l-4.688 9.047h-.875Zm3.719-2.328q0-.922.453-1.563.469-.64 1.36-.64.812 0 1.343.578.532.562.532 1.687 0 1.094-.547 1.688-.532.578-1.328.578-.766 0-1.297-.578-.516-.578-.516-1.75Zm1.844-1.485q-.407 0-.672.344-.25.344-.25 1.25 0 .813.266 1.156.265.344.656.344.39 0 .656-.344.266-.343.266-1.25 0-.828-.266-1.156-.266-.344-.656-.344Z"/><path stroke="#757575" stroke-linecap="butt" d="M21 266.105h142l19.045.938"/><path fill="#9e9e9e" d="M184.045 267.043a2 2 0 1 0-4 0 2 2 0 0 0 4 0"/><path fill="#1a1a1a" d="M24.11 292.605v-7.578h-2.83v-1.015h6.813v1.015H25.25v7.578h-1.14Zm4.437-2.765 1.062-.094q.078.656.36 1.063.281.406.86.671.593.25 1.327.25.64 0 1.14-.187.5-.203.735-.531.25-.344.25-.735 0-.406-.234-.703-.234-.312-.766-.515-.36-.141-1.547-.422-1.172-.282-1.64-.532-.625-.328-.922-.796-.297-.485-.297-1.079 0-.64.36-1.203.374-.578 1.078-.859.718-.297 1.578-.297.953 0 1.687.313.734.296 1.125.906.39.594.422 1.344l-1.094.078q-.093-.813-.61-1.219-.5-.422-1.483-.422-1.032 0-1.5.375-.47.375-.47.906 0 .47.329.766.328.297 1.703.61 1.39.312 1.906.546.75.36 1.11.89.359.516.359 1.22 0 .687-.39 1.296-.391.594-1.126.938-.734.328-1.656.328-1.172 0-1.969-.328-.78-.344-1.234-1.031-.438-.688-.453-1.547Zm14.515-.25 1.126.297q-.36 1.39-1.282 2.125-.922.734-2.265.734-1.391 0-2.266-.562-.875-.563-1.328-1.625-.453-1.079-.453-2.313 0-1.344.515-2.344.516-1 1.453-1.515.954-.516 2.094-.516 1.282 0 2.157.656.89.657 1.234 1.844l-1.125.266q-.297-.938-.875-1.36-.563-.437-1.422-.437-.984 0-1.656.484-.657.469-.938 1.266-.265.797-.265 1.656 0 1.094.312 1.906.328.813 1 1.22.672.405 1.469.405.953 0 1.61-.547.671-.546.906-1.64Zm5.485.25 1.062-.094q.078.656.36 1.063.281.406.86.671.593.25 1.327.25.64 0 1.14-.187.5-.203.735-.531.25-.344.25-.735 0-.406-.234-.703-.234-.312-.766-.515-.36-.141-1.547-.422-1.172-.282-1.64-.532-.625-.328-.922-.796-.297-.485-.297-1.079 0-.64.36-1.203.374-.578 1.078-.859.718-.297 1.578-.297.953 0 1.687.313.734.296 1.125.906.39.594.422 1.344l-1.094.078q-.093-.813-.61-1.219-.5-.422-1.483-.422-1.032 0-1.5.375-.47.375-.47.906 0 .47.329.766.328.297 1.703.61 1.39.312 1.906.546.75.36 1.11.89.359.516.359 1.22 0 .687-.39 1.296-.391.594-1.126.938-.734.328-1.656.328-1.172 0-1.969-.328-.78-.344-1.234-1.031-.438-.688-.453-1.547Zm10.547 1.828.156.922q-.453.094-.797.094-.578 0-.89-.172-.313-.188-.454-.485-.125-.297-.125-1.25V287.2h-.765v-.812h.765v-1.547l1.047-.625v2.172h1.063v.812H58.03v3.64q0 .454.047.579.063.125.188.203.125.078.359.078.188 0 .469-.031Zm.703-6.438v-1.218h1.062v1.218h-1.062Zm0 7.375v-6.218h1.062v6.218h-1.062Zm3 2.391v-8.61h.953v.798q.344-.47.766-.704.437-.234 1.046-.234.797 0 1.407.406.61.407.906 1.157.313.75.313 1.64 0 .953-.344 1.719-.328.766-.985 1.172-.656.406-1.375.406-.53 0-.953-.219-.422-.234-.687-.562v3.031h-1.047Zm.953-5.469q0 1.203.484 1.782.485.562 1.172.562.703 0 1.203-.594.5-.593.5-1.843 0-1.188-.484-1.766-.484-.594-1.172-.594-.672 0-1.187.625-.516.625-.516 1.828Zm10.297 1.078 1.094.125q-.25.954-.954 1.485-.703.531-1.78.531-1.36 0-2.173-.844-.796-.843-.796-2.359 0-1.563.812-2.422.813-.875 2.094-.875 1.25 0 2.031.844.797.844.797 2.39v.282h-4.64q.062 1.031.577 1.578.516.531 1.297.531.578 0 .985-.297.421-.312.656-.969Zm-3.453-1.703h3.469q-.063-.797-.391-1.187-.516-.61-1.313-.61-.734 0-1.234.485-.484.484-.531 1.312Zm6.203 3.703v-6.218h.937v.875q.688-1.016 1.985-1.016.562 0 1.031.203.484.203.719.531.234.329.328.766.047.297.047 1.031v3.828h-1.047v-3.78q0-.657-.125-.97-.125-.312-.438-.5-.312-.203-.734-.203-.672 0-1.172.438-.484.422-.484 1.61v3.405h-1.047Zm11.031 0v-.78q-.594.921-1.734.921-.75 0-1.375-.406-.625-.422-.969-1.156-.344-.735-.344-1.688 0-.922.313-1.687.312-.766.937-1.157.625-.406 1.39-.406.563 0 1 .234.438.235.72.61v-3.078h1.046v8.593h-.984Zm-3.328-3.109q0 1.203.5 1.797.5.578 1.188.578.687 0 1.171-.562.485-.563.485-1.72 0-1.28-.5-1.874-.485-.594-1.203-.594-.704 0-1.172.578-.469.563-.469 1.797Zm11.313 5.64q-.876-1.109-1.485-2.577-.594-1.485-.594-3.063 0-1.39.438-2.672.531-1.484 1.64-2.953h.75q-.703 1.219-.937 1.734-.36.813-.563 1.688-.25 1.094-.25 2.203 0 2.828 1.75 5.64h-.75Zm4.296-2.53v-7.579h-2.828v-1.015h6.813v1.015h-2.844v7.578h-1.14Zm4.688-7.376v-1.218h1.062v1.218h-1.062Zm0 7.375v-6.218h1.062v6.218h-1.062Zm7.031 0v-.78q-.594.921-1.734.921-.75 0-1.375-.406-.625-.422-.969-1.156-.344-.735-.344-1.688 0-.922.313-1.687.312-.766.937-1.157.625-.406 1.39-.406.563 0 1 .234.438.235.72.61v-3.078h1.046v8.593h-.984Zm-3.328-3.109q0 1.203.5 1.797.5.578 1.188.578.687 0 1.171-.562.485-.563.485-1.72 0-1.28-.5-1.874-.485-.594-1.203-.594-.704 0-1.172.578-.469.563-.469 1.797Zm10.547 1.11 1.094.124q-.25.954-.954 1.485-.703.531-1.78.531-1.36 0-2.173-.844-.796-.843-.796-2.359 0-1.563.812-2.422.813-.875 2.094-.875 1.25 0 2.031.844.797.844.797 2.39v.282h-4.64q.062 1.031.577 1.578.516.531 1.297.531.578 0 .985-.297.421-.312.656-.969Zm-3.453-1.704h3.469q-.063-.797-.391-1.187-.516-.61-1.313-.61-.734 0-1.234.485-.484.484-.531 1.312Zm6.172 3.703v-8.593h1.062v8.593h-1.062Zm3.03-7.375v-1.218h1.063v1.218h-1.062Zm0 7.375v-6.218h1.063v6.218h-1.062Zm3.25 0V287.2h-.937v-.812h.938v-.672q0-.625.11-.922.155-.422.53-.672.391-.25 1.079-.25.453 0 .984.11l-.156.906q-.328-.047-.625-.047-.485 0-.688.203-.187.203-.187.766v.578h1.219v.812h-1.22v5.406h-1.046Zm5.048-.937.156.922q-.453.094-.797.094-.578 0-.89-.172-.313-.188-.454-.485-.125-.297-.125-1.25V287.2h-.765v-.812h.765v-1.547l1.047-.625v2.172h1.063v.812h-1.063v3.64q0 .454.047.579.063.125.188.203.125.078.359.078.188 0 .469-.031Zm1.39 3.469h-.75q1.75-2.813 1.75-5.64 0-1.095-.25-2.188-.203-.875-.562-1.688-.234-.516-.938-1.75h.75q1.094 1.469 1.625 2.953.453 1.281.453 2.672 0 1.578-.609 3.063-.61 1.468-1.469 2.578Z"/><path fill="#9e9e9e" d="m21.5 307.355 1.11-.093q.124.812.562 1.218.453.407 1.094.407.75 0 1.28-.578.532-.579.532-1.516 0-.906-.515-1.422-.5-.531-1.329-.531-.5 0-.922.234-.406.235-.64.594l-.985-.125.829-4.406h4.28v1H23.36l-.453 2.312q.766-.547 1.61-.547 1.125 0 1.89.782.782.78.782 2.015 0 1.156-.672 2.016-.828 1.031-2.25 1.031-1.172 0-1.922-.656-.735-.656-.844-1.735Zm7.594 2.25v-1.203h1.203v1.203h-1.203Zm2.562-1.984 1.016-.094q.125.72.484 1.047.375.313.938.313.484 0 .843-.219.376-.234.61-.594.234-.375.39-1 .157-.64.157-1.297v-.218q-.313.5-.86.828-.547.312-1.187.312-1.078 0-1.813-.765-.734-.782-.734-2.047 0-1.313.766-2.11.78-.797 1.937-.797.828 0 1.516.454.703.453 1.062 1.296.36.829.36 2.407 0 1.64-.36 2.625-.343.968-1.062 1.484-.703.5-1.64.5-1.017 0-1.657-.547-.64-.562-.766-1.578Zm4.313-3.797q0-.906-.485-1.437-.468-.532-1.156-.532-.703 0-1.234.579-.516.562-.516 1.484 0 .812.5 1.328t1.219.516q.734 0 1.203-.516.469-.516.469-1.422Zm2.734-.75q0-.922.453-1.562.469-.64 1.344-.64.813 0 1.344.577.531.578.531 1.688 0 1.093-.547 1.687-.531.578-1.312.578-.782 0-1.297-.578-.516-.578-.516-1.75Zm1.828-1.484q-.39 0-.656.344-.25.343-.25 1.25 0 .828.25 1.171.266.329.656.329.407 0 .657-.344.265-.344.265-1.235 0-.843-.266-1.171-.265-.344-.656-.344Zm0 8.328 4.703-9.047h.86l-4.688 9.047h-.875Zm3.719-2.328q0-.922.453-1.563.469-.64 1.36-.64.812 0 1.343.578.532.562.532 1.687 0 1.094-.547 1.688-.532.578-1.328.578-.766 0-1.297-.578-.516-.578-.516-1.75Zm1.844-1.485q-.407 0-.672.344-.25.344-.25 1.25 0 .813.266 1.156.265.344.656.344.39 0 .656-.344.266-.343.266-1.25 0-.828-.266-1.156-.266-.344-.656-.344Z"/><path stroke="#757575" stroke-linecap="butt" d="M21 297.105h142l29.13-.937"/><path fill="#9e9e9e" d="M194.13 296.168a2 2 0 1 0-4 0 2 2 0 0 0 4 0"/><path fill="#1a1a1a" d="M563.89 298.799v-8.594h1.72l2.03 6.078q.282.86.407 1.281.14-.469.453-1.375l2.063-5.984h1.53v8.594H571v-7.188l-2.5 7.188h-1.031l-2.485-7.313v7.313h-1.093Zm12.97-.766q-.594.5-1.141.703-.532.203-1.157.203-1.03 0-1.578-.5-.547-.5-.547-1.281 0-.453.204-.828.203-.39.547-.61.343-.234.765-.343.297-.094.938-.172 1.265-.14 1.875-.36v-.265q0-.656-.297-.922-.407-.344-1.203-.344-.735 0-1.094.266-.36.25-.531.906l-1.032-.14q.141-.657.47-1.063.327-.406.937-.625.609-.219 1.406-.219.797 0 1.297.188.5.187.734.468.235.282.328.72.047.265.047.968v1.406q0 1.469.063 1.86.078.39.28.75h-1.109q-.156-.329-.203-.766Zm-.094-2.36q-.578.235-1.72.407-.655.094-.921.219-.266.109-.422.328-.14.218-.14.5 0 .422.312.703.328.281.938.281.609 0 1.078-.266.484-.265.703-.734.172-.36.172-1.047v-.39Zm3.03-4.25v-1.218h1.063v1.219h-1.062Zm0 7.376v-6.22h1.063v6.22h-1.062Zm3 0v-6.22h.938v.876q.688-1.016 1.985-1.016.562 0 1.031.203.484.203.719.532.234.328.328.765.047.297.047 1.031v3.829h-1.047v-3.782q0-.656-.125-.968-.125-.313-.438-.5-.312-.204-.734-.204-.672 0-1.172.438-.484.422-.484 1.61v3.406h-1.047Zm9.298-.938.156.922q-.453.094-.797.094-.578 0-.89-.172-.313-.188-.454-.485-.125-.296-.125-1.25v-3.578h-.765v-.812h.765v-1.547l1.047-.625v2.172h1.063v.812h-1.063v3.64q0 .454.047.579.063.125.188.203.125.078.359.078.188 0 .469-.031Zm4.953-1.062 1.094.125q-.25.953-.953 1.484-.704.531-1.782.531-1.36 0-2.172-.844-.797-.843-.797-2.359 0-1.562.813-2.422.813-.875 2.094-.875 1.25 0 2.031.844.797.844.797 2.39v.282h-4.64q.062 1.031.577 1.578.516.531 1.297.531.578 0 .985-.297.422-.312.656-.968Zm-3.453-1.704h3.468q-.062-.796-.39-1.187-.516-.61-1.313-.61-.734 0-1.234.485-.484.484-.531 1.312Zm6.203 3.704v-6.22h.937v.876q.688-1.016 1.985-1.016.562 0 1.031.203.484.203.719.532.234.328.328.765.047.297.047 1.031v3.829h-1.047v-3.782q0-.656-.125-.968-.125-.313-.438-.5-.312-.204-.734-.204-.672 0-1.172.438-.484.422-.484 1.61v3.406h-1.047Zm11.062-.766q-.593.5-1.14.703-.532.203-1.157.203-1.03 0-1.578-.5-.547-.5-.547-1.281 0-.453.204-.828.203-.39.547-.61.343-.234.765-.343.297-.094.938-.172 1.265-.14 1.875-.36v-.265q0-.656-.297-.922-.407-.344-1.203-.344-.735 0-1.094.266-.36.25-.531.906l-1.032-.14q.141-.657.47-1.063.327-.406.937-.625.609-.219 1.406-.219.797 0 1.297.188.5.187.734.468.235.282.328.72.047.265.047.968v1.406q0 1.469.063 1.86.078.39.28.75h-1.109q-.156-.329-.203-.766Zm-.093-2.36q-.578.235-1.72.407-.655.094-.921.219-.266.109-.422.328-.14.218-.14.5 0 .422.312.703.328.281.938.281.609 0 1.078-.266.484-.265.703-.734.172-.36.172-1.047v-.39Zm3.03 3.126v-6.22h.938v.876q.688-1.016 1.985-1.016.562 0 1.031.203.484.203.719.532.234.328.328.765.047.297.047 1.031v3.829h-1.047v-3.782q0-.656-.125-.968-.125-.313-.438-.5-.312-.204-.734-.204-.672 0-1.172.438-.484.422-.484 1.61v3.406h-1.047Zm11.063-2.282 1.032.14q-.172 1.063-.875 1.673-.703.61-1.72.61-1.28 0-2.062-.829-.765-.844-.765-2.406 0-1 .328-1.75.344-.766 1.015-1.14.688-.376 1.5-.376 1 0 1.641.516.656.5.844 1.453l-1.031.156q-.141-.625-.516-.937-.375-.328-.906-.328-.797 0-1.297.578-.5.562-.5 1.797 0 1.265.484 1.828.485.562 1.25.562.625 0 1.032-.375.421-.375.546-1.172Zm6.188.282 1.094.125q-.25.953-.953 1.484-.704.531-1.782.531-1.36 0-2.172-.844-.797-.843-.797-2.359 0-1.562.813-2.422.813-.875 2.094-.875 1.25 0 2.031.844.797.844.797 2.39v.282h-4.64q.062 1.031.577 1.578.516.531 1.297.531.578 0 .985-.297.422-.312.656-.968Zm-3.453-1.704h3.468q-.062-.796-.39-1.187-.516-.61-1.313-.61-.734 0-1.234.485-.484.484-.531 1.312Zm13.265 2.938q-.593.5-1.14.703-.532.203-1.157.203-1.03 0-1.578-.5-.547-.5-.547-1.281 0-.453.204-.828.203-.39.547-.61.343-.234.765-.343.297-.094.938-.172 1.265-.14 1.875-.36v-.265q0-.656-.297-.922-.407-.344-1.203-.344-.735 0-1.094.266-.36.25-.531.906l-1.032-.14q.141-.657.47-1.063.327-.406.937-.625.609-.219 1.406-.219.797 0 1.297.188.5.187.734.468.235.282.328.72.047.265.047.968v1.406q0 1.469.063 1.86.078.39.28.75h-1.109q-.156-.329-.203-.766Zm-.093-2.36q-.578.235-1.72.407-.655.094-.921.219-.266.109-.422.328-.14.218-.14.5 0 .422.312.703.328.281.938.281.609 0 1.078-.266.484-.265.703-.734.172-.36.172-1.047v-.39Zm3.03 3.126v-6.22h.938v.876q.688-1.016 1.985-1.016.562 0 1.031.203.484.203.719.532.234.328.328.765.047.297.047 1.031v3.829h-1.047v-3.782q0-.656-.125-.968-.125-.313-.438-.5-.312-.204-.734-.204-.672 0-1.172.438-.484.422-.484 1.61v3.406h-1.047Zm11.032 0v-.782q-.594.922-1.734.922-.75 0-1.375-.406-.625-.422-.969-1.156-.344-.735-.344-1.688 0-.922.313-1.687.312-.766.937-1.157.625-.406 1.39-.406.563 0 1 .235.438.234.72.609v-3.078h1.047v8.594h-.985Zm-3.328-3.11q0 1.203.5 1.797.5.578 1.188.578.687 0 1.171-.562.485-.563.485-1.72 0-1.28-.5-1.874-.485-.594-1.203-.594-.703 0-1.172.578-.469.563-.469 1.797Z"/><path fill="#9e9e9e" d="m627.969 309.314-1.047.078q-.14-.625-.39-.906-.438-.453-1.063-.453-.5 0-.89.281-.485.375-.782 1.078-.281.688-.297 1.969.375-.578.922-.86.562-.28 1.172-.28 1.047 0 1.781.78.75.782.75 2 0 .813-.36 1.516-.343.688-.952 1.063-.61.36-1.375.36-1.329 0-2.157-.97-.828-.968-.828-3.187 0-2.5.922-3.625.797-.984 2.156-.984 1.016 0 1.657.578.656.562.78 1.562Zm-4.297 3.703q0 .547.219 1.047.234.485.64.75.422.266.89.266.657 0 1.141-.531.485-.547.485-1.47 0-.89-.485-1.405-.468-.516-1.187-.516-.719 0-1.219.516-.484.515-.484 1.343Zm5.828.532 1.11-.094q.124.812.562 1.219.453.406 1.094.406.75 0 1.28-.578.532-.578.532-1.516 0-.906-.515-1.422-.5-.531-1.329-.531-.5 0-.922.234-.406.235-.64.594l-.985-.125.829-4.406h4.28v1h-3.437l-.453 2.312q.766-.547 1.61-.547 1.125 0 1.89.782.782.78.782 2.015 0 1.157-.672 2.016-.828 1.031-2.25 1.031-1.172 0-1.922-.656-.735-.656-.844-1.734Zm7.594 2.25v-1.204h1.203v1.204h-1.203Zm7.953-1.016v1.016h-5.688q0-.375.125-.735.22-.578.688-1.14.484-.563 1.39-1.297 1.407-1.157 1.891-1.828.5-.672.5-1.266 0-.625-.453-1.047-.453-.437-1.172-.437-.765 0-1.219.453-.453.453-.468 1.265l-1.078-.11q.109-1.218.828-1.843.734-.64 1.968-.64 1.235 0 1.953.687.72.688.72 1.703 0 .516-.22 1.016-.203.484-.703 1.047-.484.547-1.609 1.5-.953.797-1.234 1.093-.266.282-.438.563h4.219Zm1.656-5.516q0-.922.453-1.562.469-.64 1.344-.64.813 0 1.344.577.531.578.531 1.688 0 1.094-.547 1.687-.531.578-1.312.578-.782 0-1.297-.578-.516-.578-.516-1.75Zm1.828-1.484q-.39 0-.656.344-.25.343-.25 1.25 0 .828.25 1.172.266.328.656.328.407 0 .657-.344.265-.344.265-1.234 0-.844-.265-1.172-.266-.344-.657-.344Zm0 8.328 4.703-9.047h.86l-4.688 9.047h-.875Zm3.719-2.328q0-.922.453-1.563.469-.64 1.36-.64.812 0 1.343.578.532.562.532 1.687 0 1.094-.547 1.688-.532.578-1.328.578-.766 0-1.297-.578-.516-.578-.516-1.75Zm1.844-1.484q-.407 0-.672.343-.25.344-.25 1.25 0 .813.265 1.157.266.343.657.343.39 0 .656-.343.266-.344.266-1.25 0-.829-.266-1.157-.266-.343-.656-.343Z"/><path stroke="#757575" stroke-linecap="butt" d="M657 303.299H482.394"/><path fill="#9e9e9e" d="M484.394 303.299a2 2 0 1 0-4 0 2 2 0 0 0 4 0"/><path fill="#757575" d="M31.063 38.313V40h-9.454q-.015-.64.203-1.219.36-.968 1.157-1.906t2.297-2.172q2.343-1.906 3.156-3.016.828-1.125.828-2.125 0-1.046-.75-1.765-.75-.719-1.953-.719-1.266 0-2.031.766-.766.765-.766 2.11l-1.813-.188q.188-2.016 1.391-3.078 1.219-1.063 3.266-1.063 2.047 0 3.25 1.14 1.203 1.141 1.203 2.829 0 .86-.36 1.703-.343.828-1.156 1.75-.812.906-2.703 2.516-1.594 1.328-2.047 1.796-.437.47-.734.953h7.015Zm1.765-5.376q0-2.53.516-4.078.531-1.562 1.562-2.39 1.032-.844 2.594-.844 1.156 0 2.016.469.875.453 1.437 1.328.563.875.89 2.14.329 1.25.329 3.375 0 2.516-.531 4.063-.516 1.547-1.547 2.406-1.016.844-2.594.844-2.078 0-3.25-1.484-1.422-1.797-1.422-5.828Zm1.813 0q0 3.532.812 4.704.828 1.156 2.047 1.156 1.203 0 2.031-1.172.828-1.172.828-4.688 0-3.53-.828-4.687-.828-1.172-2.047-1.172-1.218 0-1.937 1.031-.906 1.297-.906 4.828Zm18.422 5.376V40h-9.454q-.015-.64.203-1.219.36-.968 1.157-1.906t2.297-2.172q2.343-1.906 3.156-3.016.828-1.125.828-2.125 0-1.046-.75-1.765-.75-.719-1.953-.719-1.266 0-2.031.766-.766.765-.766 2.11l-1.813-.188q.188-2.016 1.391-3.078 1.219-1.063 3.266-1.063 2.047 0 3.25 1.14 1.203 1.141 1.203 2.829 0 .86-.36 1.703-.343.828-1.156 1.75-.812.906-2.703 2.516-1.594 1.328-2.047 1.796-.437.47-.734.953h7.016Zm1.765-2.063 1.844-.156q.203 1.343.953 2.031.75.672 1.813.672 1.265 0 2.14-.953.875-.953.875-2.547 0-1.5-.844-2.36-.843-.874-2.203-.874-.86 0-1.547.39-.672.375-1.062 1l-1.656-.219 1.39-7.359h7.125v1.688h-5.718l-.766 3.843q1.281-.906 2.703-.906 1.875 0 3.156 1.313 1.297 1.296 1.297 3.328 0 1.953-1.14 3.359-1.376 1.75-3.75 1.75-1.954 0-3.204-1.094Q55 38.063 54.828 36.25ZM72.578 40V25.687h10.36v1.688h-8.454v4.375h7.907v1.688h-7.907v4.874h8.782V40H72.578Zm11.563 0 3.796-5.39-3.5-4.985h2.188l1.594 2.438q.453.687.719 1.156.437-.64.796-1.14l1.75-2.454h2.094L90 34.515 93.86 40h-2.157l-2.14-3.219-.563-.875L86.281 40h-2.14Zm10.171 3.969V29.625h1.61v1.344q.562-.782 1.266-1.172.718-.406 1.734-.406 1.328 0 2.344.687 1.015.688 1.53 1.938.532 1.234.532 2.718 0 1.594-.578 2.875-.563 1.266-1.656 1.953-1.094.672-2.297.672-.875 0-1.578-.375-.688-.375-1.14-.937v5.047h-1.766Zm1.594-9.094q0 2 .813 2.953.812.953 1.969.953 1.171 0 2-.984.843-.984.843-3.078 0-1.969-.828-2.953-.812-1-1.937-1t-2 1.062q-.86 1.047-.86 3.047Zm16.516 1.781 1.812.235q-.421 1.578-1.593 2.468-1.157.875-2.97.875-2.265 0-3.609-1.39-1.328-1.407-1.328-3.938 0-2.625 1.344-4.062 1.344-1.453 3.5-1.453 2.078 0 3.39 1.422 1.329 1.406 1.329 3.984 0 .156-.016.469h-7.734q.094 1.703.969 2.609.875.906 2.171.906.97 0 1.641-.5.688-.515 1.094-1.625Zm-5.781-2.843h5.796q-.109-1.297-.656-1.954-.844-1.015-2.187-1.015-1.203 0-2.031.812-.829.797-.922 2.157ZM116.312 40V29.625h1.594v1.484q1.14-1.718 3.297-1.718.938 0 1.719.343.797.328 1.187.875.391.547.547 1.297.094.5.094 1.719V40h-1.766v-6.313q0-1.078-.203-1.609-.203-.531-.734-.844-.516-.312-1.219-.312-1.125 0-1.937.719-.813.703-.813 2.687V40h-1.766Zm9.297-3.094 1.75-.281q.141 1.047.813 1.61.672.546 1.875.546 1.203 0 1.781-.484.594-.5.594-1.156 0-.594-.516-.938-.36-.234-1.797-.594-1.937-.5-2.687-.843-.734-.36-1.125-.985-.39-.64-.39-1.406 0-.688.312-1.281.328-.594.875-.985.406-.297 1.11-.5.718-.218 1.53-.218 1.22 0 2.141.359.922.344 1.36.953.437.594.609 1.594l-1.719.234q-.125-.797-.688-1.234-.562-.453-1.578-.453-1.218 0-1.734.406-.516.39-.516.922 0 .344.22.625.202.281.671.469.266.093 1.547.437 1.875.5 2.61.828.734.313 1.155.922.422.594.422 1.5 0 .875-.515 1.656-.516.782-1.485 1.203-.968.422-2.187.422-2.016 0-3.078-.843-1.063-.844-1.36-2.485Zm17.813-.25 1.812.235q-.422 1.578-1.593 2.468-1.157.875-2.97.875-2.265 0-3.608-1.39-1.329-1.407-1.329-3.938 0-2.625 1.344-4.062 1.344-1.453 3.5-1.453 2.078 0 3.39 1.422 1.329 1.406 1.329 3.984 0 .156-.016.469h-7.734q.094 1.703.969 2.609.875.906 2.172.906.968 0 1.64-.5.688-.515 1.094-1.625Zm-5.781-2.843h5.797q-.11-1.297-.657-1.954-.844-1.015-2.187-1.015-1.203 0-2.031.812-.829.797-.922 2.157Zm8.968 3.093 1.75-.281q.141 1.047.813 1.61.672.546 1.875.546 1.203 0 1.781-.484.594-.5.594-1.156 0-.594-.516-.938-.36-.234-1.797-.594-1.937-.5-2.687-.843-.734-.36-1.125-.985-.39-.64-.39-1.406 0-.688.312-1.281.328-.594.875-.985.406-.297 1.11-.5.718-.218 1.53-.218 1.22 0 2.141.359.922.344 1.36.953.437.594.609 1.594l-1.719.234q-.125-.797-.688-1.234-.562-.453-1.578-.453-1.218 0-1.734.406-.516.39-.516.922 0 .344.22.625.202.281.671.469.266.093 1.547.437 1.875.5 2.61.828.734.313 1.155.922.422.594.422 1.5 0 .875-.515 1.656-.516.782-1.485 1.203-.968.422-2.187.422-2.016 0-3.078-.843-1.063-.844-1.36-2.485Z"/></svg>