<svg viewBox="0 0 646 400" fill="none" stroke-linecap="square" stroke-miterlimit="10" xmlns="http://www.w3.org/2000/svg"><path fill="#fff" d="M0 0h646v400H0V0Z"/><path fill="#46bdc6" d="M315.755 57.496c2.413-.108 4.83-.163 7.245-.163v161.334Z"/><path fill="#ff6d01" d="M297.425 59.373c6.07-.974 12.19-1.6 18.33-1.877L323 218.666Z"/><path fill="#34a853" d="M296.178 59.579c.415-.07.831-.139 1.247-.206L323 218.667Z"/><path fill="#fbbc04" d="M226.216 89.588a161.333 161.333 0 0 1 69.962-30.01L323 218.668Z"/><path fill="#ea4335" d="M170.032 269.942c-22.105-65.944.54-138.631 56.184-180.354L323 218.667Z"/><path fill="#4285f4" d="M323 57.333c82.383 0 151.532 62.07 160.397 143.974 8.864 81.905-45.404 157.331-125.88 174.957-80.474 17.626-161.302-28.211-187.485-106.322L323 218.667Z"/><path fill="#1a1a1a" d="M20.953 68.333V59.74h6.203v1.015h-5.062v2.625h4.75v1.016h-4.75v2.922h5.265v1.015h-6.406Zm10.14-.937.157.922q-.453.093-.797.093-.578 0-.89-.171-.313-.188-.454-.485-.125-.297-.125-1.25v-3.578h-.765v-.812h.765v-1.547l1.047-.625v2.172h1.063v.812H30.03v3.64q0 .454.047.579.063.125.188.203.125.078.359.078.188 0 .469-.031Zm.704.937V59.74h1.047v3.078q.734-.844 1.86-.844.702 0 1.202.281.516.266.735.75.218.469.218 1.39v3.938h-1.047v-3.937q0-.797-.343-1.156-.344-.36-.969-.36-.469 0-.89.25-.407.235-.594.656-.172.407-.172 1.141v3.406h-1.047Zm7-7.375V59.74h1.062v1.218h-1.062Zm0 7.375v-6.218h1.062v6.218h-1.062Zm7.062-2.28 1.032.14q-.172 1.062-.875 1.672-.703.609-1.72.609-1.28 0-2.062-.828-.765-.844-.765-2.406 0-1 .328-1.75.344-.766 1.016-1.141.687-.375 1.5-.375 1 0 1.64.516.656.5.844 1.453l-1.031.156q-.141-.625-.516-.938-.375-.328-.906-.328-.797 0-1.297.578-.5.563-.5 1.797 0 1.266.484 1.828.485.563 1.25.563.625 0 1.032-.375.421-.375.546-1.172Zm6 1.515q-.593.5-1.14.703-.532.203-1.157.203-1.03 0-1.578-.5-.547-.5-.547-1.281 0-.453.204-.828.203-.391.547-.61.343-.234.765-.344.297-.093.938-.171 1.265-.141 1.875-.36v-.265q0-.657-.297-.922-.407-.344-1.203-.344-.735 0-1.094.266-.36.25-.531.906l-1.032-.14q.141-.657.47-1.063.327-.407.937-.625.609-.219 1.406-.219.797 0 1.297.187.5.188.734.47.234.28.328.718.047.266.047.969v1.406q0 1.469.063 1.86.078.39.28.75h-1.108q-.157-.329-.204-.766Zm-.093-2.36q-.578.235-1.72.407-.655.093-.921.218-.266.11-.422.328-.14.22-.14.5 0 .422.312.704.328.28.938.28.609 0 1.078-.265.484-.265.703-.734.172-.36.172-1.047v-.39Zm3 3.125V59.74h1.062v8.593h-1.062Zm5.218 0 3.297-8.593H64.5l3.516 8.593h-1.282l-1.015-2.609H62.14l-.953 2.61h-1.204Zm2.485-3.53h2.906l-.89-2.376q-.422-1.078-.61-1.781-.172.828-.469 1.64l-.937 2.516Zm9.36 3.53v-.78q-.595.921-1.735.921-.75 0-1.375-.406-.625-.422-.969-1.157-.344-.734-.344-1.687 0-.922.313-1.688.312-.765.937-1.156.625-.406 1.39-.406.563 0 1 .234.438.235.72.61V59.74h1.046v8.593h-.984ZM68.5 65.224q0 1.203.5 1.797.5.578 1.188.578.687 0 1.171-.563.485-.562.485-1.718 0-1.282-.5-1.875-.485-.594-1.203-.594-.704 0-1.172.578-.469.563-.469 1.797Zm5.875 1.25 1.031-.156q.094.625.485.953.406.328 1.14.328.719 0 1.063-.281.36-.297.36-.703 0-.36-.313-.563-.22-.14-1.079-.36-1.156-.296-1.609-.5-.437-.218-.672-.593-.234-.375-.234-.844 0-.406.187-.765.188-.36.516-.594.25-.172.672-.297.422-.125.922-.125.719 0 1.265.219.563.203.829.562.265.36.359.953l-1.031.141q-.063-.469-.407-.734-.328-.282-.953-.282-.719 0-1.031.25-.313.235-.313.563 0 .203.126.36.14.171.406.28.156.063.937.266 1.125.313 1.563.5.437.188.687.547.25.36.25.906 0 .531-.312 1-.297.453-.875.719-.578.25-1.313.25-1.219 0-1.86-.5-.624-.516-.796-1.5Z"/><path fill="#9e9e9e" d="M24.469 85.333h-1.047v-6.718q-.39.359-1.016.734-.61.36-1.093.531v-1.015q.875-.422 1.53-1 .673-.594.954-1.157h.672v8.625Zm3.625 0V84.13h1.203v1.203h-1.203Zm4.031-4.656q-.656-.25-.984-.687-.313-.454-.313-1.063 0-.937.672-1.578.688-.64 1.797-.64 1.125 0 1.812.656.688.656.688 1.593 0 .594-.313 1.032-.312.437-.953.687.797.25 1.203.828.407.578.407 1.375 0 1.094-.782 1.844-.765.75-2.047.75-1.265 0-2.046-.75-.782-.75-.782-1.875 0-.844.422-1.406.438-.563 1.219-.766Zm-.219-1.797q0 .61.39 1 .407.39 1.032.39.61 0 1-.374.39-.39.39-.953 0-.578-.406-.969-.406-.406-1-.406-.609 0-1.015.39-.39.391-.39.922Zm-.328 3.969q0 .453.203.875.219.422.64.656.423.235.907.235.75 0 1.234-.485.5-.484.5-1.234 0-.766-.5-1.266t-1.265-.5q-.75 0-1.234.5-.485.485-.485 1.219Zm6.125-4.047q0-.922.453-1.562.469-.641 1.344-.641.813 0 1.344.578.531.578.531 1.688 0 1.093-.547 1.687-.531.578-1.312.578-.782 0-1.297-.578-.516-.578-.516-1.75Zm1.828-1.484q-.39 0-.656.343-.25.344-.25 1.25 0 .829.25 1.172.266.328.656.328.407 0 .657-.343.265-.344.265-1.235 0-.843-.266-1.172-.265-.343-.656-.343Zm0 8.328 4.703-9.047h.86l-4.688 9.047h-.875Zm3.719-2.328q0-.922.453-1.563.469-.64 1.36-.64.812 0 1.343.578.532.562.532 1.687 0 1.094-.547 1.688-.532.578-1.328.578-.766 0-1.297-.578-.516-.578-.516-1.75Zm1.844-1.485q-.407 0-.672.344-.25.344-.25 1.25 0 .813.266 1.156.265.344.656.344.39 0 .656-.344.266-.343.266-1.25 0-.828-.266-1.156-.266-.344-.656-.344Z"/><path stroke="#757575" stroke-linecap="butt" d="M20 72.833h135.667l151.718-6.635"/><path fill="#9e9e9e" d="M309.385 66.198a2 2 0 1 0-4 0 2 2 0 0 0 4 0"/><path fill="#1a1a1a" d="M23.11 99.333v-7.578h-2.83V90.74h6.813v1.015H24.25v7.578h-1.14Zm4.687-7.375V90.74h1.062v1.218h-1.062Zm0 7.375v-6.218h1.062v6.218h-1.062Zm7.031 0v-.78q-.594.921-1.734.921-.75 0-1.375-.406-.625-.422-.969-1.157-.344-.734-.344-1.687 0-.922.313-1.688.312-.765.937-1.156.625-.406 1.39-.406.563 0 1 .234.438.235.72.61V90.74h1.047v8.593h-.985ZM31.5 96.224q0 1.203.5 1.797.5.578 1.188.578.687 0 1.171-.563.485-.562.485-1.718 0-1.282-.5-1.875-.485-.594-1.203-.594-.703 0-1.172.578-.469.563-.469 1.797Zm10.547 1.11 1.094.124q-.25.953-.953 1.485-.704.531-1.782.531-1.36 0-2.172-.844-.797-.844-.797-2.36 0-1.562.813-2.421.813-.875 2.094-.875 1.25 0 2.031.844.797.843.797 2.39v.282h-4.64q.062 1.03.577 1.578.516.531 1.297.531.578 0 .985-.297.422-.312.656-.969Zm-3.453-1.704h3.468q-.062-.797-.39-1.187-.516-.61-1.313-.61-.734 0-1.234.485-.484.484-.531 1.312Zm6.172 3.703V90.74h1.062v8.593h-1.062Zm3.03-7.375V90.74h1.063v1.218h-1.062Zm0 7.375v-6.218h1.063v6.218h-1.062Zm3.25 0v-5.406h-.937v-.812h.938v-.672q0-.625.11-.922.156-.422.53-.672.391-.25 1.079-.25.453 0 .984.11l-.156.906q-.328-.047-.625-.047-.485 0-.688.203-.187.203-.187.765v.579h1.218v.812h-1.218v5.406h-1.047Zm5.048-.937.156.922q-.453.093-.797.093-.578 0-.89-.171-.313-.188-.454-.485-.125-.297-.125-1.25v-3.578h-.765v-.812h.765v-1.547l1.047-.625v2.172h1.063v.812H55.03v3.64q0 .454.047.579.063.125.188.203.125.078.359.078.188 0 .469-.031Z"/><path fill="#9e9e9e" d="M20.563 108.865v-1.016h5.562v.828q-.813.875-1.625 2.328-.797 1.438-1.234 2.969-.328 1.078-.407 2.36h-1.093q.015-1.016.39-2.454.39-1.437 1.094-2.765.719-1.329 1.531-2.25h-4.218Zm7.53 7.468v-1.203h1.204v1.203h-1.203Zm7.876-6.484-1.047.078q-.14-.625-.39-.906-.438-.453-1.063-.453-.5 0-.89.281-.485.375-.782 1.078-.281.688-.297 1.969.375-.578.922-.86.562-.28 1.172-.28 1.047 0 1.781.78.75.782.75 2 0 .813-.36 1.516-.343.688-.953 1.063-.609.359-1.374.359-1.329 0-2.157-.969-.828-.969-.828-3.187 0-2.5.922-3.625.797-.985 2.156-.985 1.016 0 1.657.578.656.563.78 1.563Zm-4.297 3.703q0 .547.219 1.047.234.484.64.75.422.266.89.266.657 0 1.142-.532.484-.547.484-1.468 0-.891-.484-1.407-.47-.515-1.188-.515-.719 0-1.219.515-.484.516-.484 1.344Zm6.031-3.75q0-.922.453-1.562.469-.641 1.344-.641.813 0 1.344.578.531.578.531 1.688 0 1.093-.547 1.687-.531.578-1.312.578-.782 0-1.297-.578-.516-.578-.516-1.75Zm1.828-1.484q-.39 0-.656.343-.25.344-.25 1.25 0 .829.25 1.172.266.328.656.328.407 0 .657-.343.265-.344.265-1.235 0-.843-.266-1.172-.265-.343-.656-.343Zm0 8.328 4.703-9.047h.86l-4.688 9.047h-.875Zm3.719-2.328q0-.922.453-1.563.469-.64 1.36-.64.812 0 1.343.578.532.562.532 1.687 0 1.094-.547 1.688-.532.578-1.328.578-.766 0-1.297-.578-.516-.578-.516-1.75Zm1.844-1.485q-.407 0-.672.344-.25.344-.25 1.25 0 .813.266 1.156.265.344.656.344.39 0 .656-.344.266-.343.266-1.25 0-.828-.266-1.156-.266-.344-.656-.344Z"/><path stroke="#757575" stroke-linecap="butt" d="M20 103.833h135.667l106.915-26.022"/><path fill="#9e9e9e" d="M264.582 77.811a2 2 0 1 0-4 0 2 2 0 0 0 4 0"/><path fill="#1a1a1a" d="M24.953 165.206v-1l3.625-.016v3.188q-.828.672-1.719 1.016-.89.328-1.828.328-1.265 0-2.312-.532-1.032-.546-1.563-1.562-.515-1.031-.515-2.297 0-1.266.515-2.344.532-1.093 1.516-1.61.984-.53 2.265-.53.938 0 1.688.297.75.296 1.172.843.437.532.656 1.407l-1.015.28q-.204-.655-.5-1.03-.282-.375-.813-.594-.531-.235-1.172-.235-.781 0-1.36.235-.562.234-.921.625-.344.39-.531.86-.328.796-.328 1.718 0 1.156.39 1.937.406.766 1.156 1.141.75.375 1.61.375.734 0 1.437-.281.703-.297 1.063-.61v-1.609h-2.516Zm4.844-4v-1.219h1.062v1.22h-1.062Zm0 7.375v-6.219h1.062v6.22h-1.062Zm5.297-.937.156.921q-.453.094-.797.094-.578 0-.89-.172-.313-.187-.454-.484-.125-.297-.125-1.25v-3.578h-.765v-.813h.765v-1.547l1.047-.625v2.172h1.063v.813H34.03v3.64q0 .454.047.579.063.125.188.203.125.078.359.078.188 0 .469-.031Zm.875.937v-8.594h1.125v3.532h4.468v-3.532h1.141v8.594h-1.14v-4.047h-4.47v4.047H35.97Zm12.906 0v-.922q-.734 1.063-1.984 1.063-.547 0-1.032-.203-.468-.22-.703-.532-.234-.328-.328-.797-.062-.296-.062-.984v-3.844h1.062v3.453q0 .813.063 1.11.093.406.406.656.328.234.812.234.47 0 .875-.234.422-.25.594-.672.188-.422.188-1.219v-3.328h1.047v6.22h-.938Zm3.89 0h-.984v-8.594h1.063v3.063q.672-.828 1.703-.828.578 0 1.078.234.516.219.844.64.343.423.531 1.016.188.594.188 1.266 0 1.594-.797 2.469-.797.875-1.891.875-1.11 0-1.734-.922v.781Zm-.015-3.156q0 1.11.313 1.61.5.812 1.343.812.688 0 1.188-.594.515-.594.515-1.797 0-1.219-.484-1.797-.484-.578-1.172-.578-.687 0-1.203.61-.5.593-.5 1.734Zm8.797.39 1.062-.093q.078.656.36 1.062.281.406.86.672.593.25 1.327.25.64 0 1.14-.187.5-.204.735-.532.25-.343.25-.734 0-.406-.234-.703-.234-.313-.766-.516-.36-.14-1.547-.422-1.171-.28-1.64-.53-.625-.33-.922-.798-.297-.484-.297-1.078 0-.64.36-1.203.374-.578 1.078-.86.718-.296 1.578-.296.953 0 1.687.312.734.297 1.125.906.39.594.422 1.344l-1.094.078q-.094-.812-.61-1.218-.5-.422-1.484-.422-1.03 0-1.5.375-.468.375-.468.906 0 .469.328.766.328.296 1.703.609 1.39.312 1.906.547.75.36 1.11.89.359.516.359 1.22 0 .687-.39 1.296-.391.594-1.126.938-.734.328-1.656.328-1.172 0-1.969-.328-.78-.344-1.234-1.032-.438-.687-.453-1.547Zm8.25 5.157v-8.61h.953v.797q.344-.469.766-.703.437-.234 1.046-.234.797 0 1.407.406t.906 1.156q.313.75.313 1.64 0 .954-.344 1.72-.328.765-.985 1.171-.656.407-1.375.407-.53 0-.953-.22-.422-.233-.687-.562v3.032h-1.047Zm.953-5.47q0 1.204.484 1.782.485.563 1.172.563.703 0 1.203-.594.5-.594.5-1.844 0-1.187-.484-1.765-.484-.594-1.172-.594-.672 0-1.187.625-.516.625-.516 1.828Zm5.656-.03q0-1.735.953-2.563.797-.687 1.954-.687 1.28 0 2.093.843.828.829.828 2.313 0 1.203-.359 1.89-.36.688-1.063 1.079-.687.375-1.5.375-1.296 0-2.109-.828-.797-.844-.797-2.422Zm1.078 0q0 1.187.516 1.78.531.595 1.313.595.796 0 1.312-.594t.516-1.813q0-1.156-.532-1.75-.515-.593-1.296-.593-.782 0-1.313.593-.516.579-.516 1.782Zm6.313 3.11v-6.22h.937v.875q.688-1.015 1.985-1.015.562 0 1.031.203.484.203.719.531.234.328.328.766.047.297.047 1.03v3.83h-1.047V164.8q0-.656-.125-.969-.125-.312-.438-.5-.312-.203-.734-.203-.672 0-1.172.437-.484.422-.484 1.61v3.406h-1.047Zm6.578-1.86 1.031-.157q.094.625.485.954.406.328 1.14.328.719 0 1.063-.282.36-.296.36-.703 0-.36-.313-.562-.22-.14-1.079-.36-1.156-.296-1.609-.5-.437-.218-.672-.593-.234-.375-.234-.844 0-.406.187-.766.188-.36.516-.593.25-.172.672-.297.422-.125.922-.125.719 0 1.265.218.563.204.829.563.265.36.359.953l-1.031.14q-.063-.468-.407-.734-.328-.28-.953-.28-.719 0-1.031.25-.313.233-.313.562 0 .203.126.359.14.172.406.281.156.063.937.266 1.125.312 1.563.5.437.187.687.547.25.36.25.906 0 .531-.312 1-.297.453-.875.719-.578.25-1.313.25-1.219 0-1.86-.5-.624-.516-.796-1.5Zm7.031-1.25q0-1.735.953-2.563.797-.687 1.954-.687 1.28 0 2.093.843.828.829.828 2.313 0 1.203-.359 1.89-.36.688-1.063 1.079-.687.375-1.5.375-1.296 0-2.109-.828-.797-.844-.797-2.422Zm1.078 0q0 1.187.516 1.78.531.595 1.313.595.796 0 1.312-.594t.516-1.813q0-1.156-.532-1.75-.515-.593-1.296-.593-.782 0-1.313.593-.516.579-.516 1.782Zm6.297 3.11v-6.22h.953v.938q.36-.656.657-.86.312-.218.687-.218.531 0 1.078.328l-.36.984q-.39-.234-.765-.234-.36 0-.64.219-.266.203-.375.578-.188.562-.188 1.218v3.266h-1.047Zm3.594-1.86 1.031-.157q.094.625.485.954.406.328 1.14.328.719 0 1.063-.282.36-.296.36-.703 0-.36-.313-.562-.22-.14-1.079-.36-1.156-.296-1.609-.5-.437-.218-.672-.593-.234-.375-.234-.844 0-.406.187-.766.188-.36.516-.593.25-.172.672-.297.422-.125.922-.125.719 0 1.265.218.563.204.829.563.265.36.359.953l-1.031.14q-.063-.468-.407-.734-.328-.28-.953-.28-.719 0-1.031.25-.313.233-.313.562 0 .203.126.359.14.172.406.281.156.063.937.266 1.125.312 1.563.5.437.187.687.547.25.36.25.906 0 .531-.312 1-.297.453-.875.719-.578.25-1.313.25-1.219 0-1.86-.5-.624-.516-.796-1.5Z"/><path fill="#9e9e9e" d="M24.469 185.581h-1.047v-6.719q-.39.36-1.016.735-.61.36-1.093.53v-1.015q.875-.422 1.53-1 .673-.593.954-1.156h.672v8.625Zm3.187-1.984 1.016-.094q.125.719.484 1.047.375.312.938.312.484 0 .843-.218.375-.235.61-.594.234-.375.39-1 .157-.64.157-1.297v-.219q-.313.5-.86.828-.547.313-1.187.313-1.078 0-1.813-.766-.734-.781-.734-2.047 0-1.312.766-2.11.78-.796 1.937-.796.828 0 1.516.453.703.453 1.062 1.297.36.828.36 2.406 0 1.64-.36 2.625-.343.97-1.062 1.485-.703.5-1.64.5-1.017 0-1.657-.547-.64-.563-.766-1.578Zm4.313-3.797q0-.906-.485-1.438-.468-.53-1.156-.53-.703 0-1.234.577-.516.563-.516 1.485 0 .812.5 1.328.5.515 1.219.515.734 0 1.203-.515.469-.516.469-1.422Zm3.125 5.781v-1.203h1.203v1.203h-1.203Zm2.562-1.984 1.016-.094q.125.719.484 1.047.375.312.938.312.484 0 .843-.218.376-.235.61-.594.234-.375.39-1 .157-.64.157-1.297v-.219q-.313.5-.86.828-.547.313-1.187.313-1.078 0-1.813-.766-.734-.781-.734-2.047 0-1.312.766-2.11.78-.796 1.937-.796.828 0 1.516.453.703.453 1.062 1.297.36.828.36 2.406 0 1.64-.36 2.625-.343.97-1.062 1.485-.703.5-1.64.5-1.017 0-1.657-.547-.64-.563-.766-1.578Zm4.313-3.797q0-.906-.485-1.438-.468-.53-1.156-.53-.703 0-1.234.577-.516.563-.516 1.485 0 .812.5 1.328.5.515 1.219.515.734 0 1.203-.515.469-.516.469-1.422Zm2.734-.75q0-.922.453-1.563.469-.64 1.344-.64.813 0 1.344.578.531.578.531 1.687 0 1.094-.547 1.688-.531.578-1.312.578-.782 0-1.297-.578-.516-.578-.516-1.75Zm1.828-1.485q-.39 0-.656.344-.25.344-.25 1.25 0 .828.25 1.172.266.328.656.328.407 0 .657-.344.265-.343.265-1.234 0-.844-.266-1.172-.265-.344-.656-.344Zm0 8.329 4.703-9.047h.86l-4.688 9.047h-.875Zm3.719-2.329q0-.921.453-1.562.469-.64 1.36-.64.812 0 1.343.577.532.563.532 1.688 0 1.094-.547 1.687-.532.579-1.328.579-.766 0-1.297-.579-.516-.578-.516-1.75Zm1.844-1.484q-.407 0-.672.344-.25.344-.25 1.25 0 .812.266 1.156.265.344.656.344.39 0 .656-.344t.266-1.25q0-.828-.266-1.156-.266-.344-.656-.344Z"/><path stroke="#757575" stroke-linecap="butt" d="M20 173.081h156.669"/><path fill="#9e9e9e" d="M178.67 173.081a2 2 0 1 0-4 0 2 2 0 0 0 4 0"/><path fill="#1a1a1a" d="M540.578 299.491q0-2.14 1.14-3.343 1.157-1.22 2.97-1.22 1.203 0 2.156.579.953.562 1.453 1.578.5 1.016.5 2.313 0 1.296-.531 2.328-.532 1.031-1.5 1.562-.953.531-2.078.531-1.22 0-2.172-.578-.953-.593-1.453-1.593-.485-1.016-.485-2.157Zm1.172.016q0 1.562.828 2.453.844.89 2.11.89 1.28 0 2.109-.89.828-.906.828-2.578 0-1.047-.36-1.828-.343-.781-1.03-1.203-.688-.438-1.532-.438-1.203 0-2.078.828-.875.828-.875 2.766Zm8.047 6.562v-8.609h.953v.797q.344-.469.766-.703.437-.235 1.047-.235.796 0 1.406.407.61.406.906 1.156.313.75.313 1.64 0 .954-.344 1.72-.328.765-.985 1.171-.656.406-1.375.406-.53 0-.953-.218-.422-.235-.687-.563v3.031h-1.047Zm.953-5.468q0 1.203.484 1.781.485.562 1.172.562.703 0 1.203-.593.5-.594.5-1.844 0-1.188-.484-1.766-.484-.593-1.172-.593-.672 0-1.187.625-.516.625-.516 1.828Zm10.297 1.078 1.094.125q-.25.953-.953 1.484-.704.531-1.782.531-1.36 0-2.172-.843-.797-.844-.797-2.36 0-1.562.813-2.422.813-.875 2.094-.875 1.25 0 2.031.844.797.844.797 2.39v.282h-4.64q.062 1.031.577 1.578.516.531 1.297.531.578 0 .985-.296.422-.313.656-.97Zm-3.453-1.703h3.468q-.062-.797-.39-1.188-.516-.61-1.313-.61-.734 0-1.234.485-.484.485-.531 1.313Zm6.203 3.703v-6.219h.937v.875q.688-1.016 1.985-1.016.562 0 1.031.204.484.203.719.53.234.329.328.766.047.297.047 1.032v3.828h-1.047v-3.781q0-.657-.125-.97-.125-.312-.438-.5-.312-.202-.734-.202-.672 0-1.172.437-.484.422-.484 1.61v3.406h-1.047Zm16.265-3.016 1.125.297q-.359 1.39-1.28 2.125-.923.734-2.266.734-1.391 0-2.266-.562-.875-.563-1.328-1.625-.453-1.078-.453-2.313 0-1.343.515-2.343.516-1 1.453-1.516.954-.516 2.094-.516 1.282 0 2.157.657.89.656 1.234 1.843l-1.125.266q-.297-.937-.875-1.36-.563-.437-1.422-.437-.984 0-1.656.485-.657.468-.938 1.265-.265.797-.265 1.656 0 1.094.312 1.907.328.812 1 1.218.672.407 1.469.407.953 0 1.61-.547.671-.547.905-1.64Zm2.344-.094q0-1.734.953-2.562.797-.688 1.953-.688 1.282 0 2.094.844.828.828.828 2.313 0 1.203-.359 1.89-.36.688-1.063 1.078-.687.375-1.5.375-1.296 0-2.109-.828-.797-.843-.797-2.422Zm1.078 0q0 1.188.516 1.782.531.593 1.313.593.796 0 1.312-.593.516-.594.516-1.813 0-1.156-.532-1.75-.515-.594-1.297-.594-.78 0-1.312.594-.516.578-.516 1.781Zm6.282 3.11v-8.594h1.062v8.594h-1.062Zm3 0v-8.594h1.062v8.594h-1.062Zm7.28-2 1.095.125q-.25.953-.953 1.484-.704.531-1.782.531-1.36 0-2.172-.843-.797-.844-.797-2.36 0-1.562.813-2.422.813-.875 2.094-.875 1.25 0 2.031.844.797.844.797 2.39v.282h-4.64q.062 1.031.577 1.578.516.531 1.297.531.578 0 .985-.296.422-.313.656-.97Zm-3.452-1.703h3.468q-.062-.797-.39-1.188-.516-.61-1.313-.61-.734 0-1.234.485-.484.485-.531 1.313Zm10.265 1.422 1.032.14q-.172 1.063-.875 1.672-.703.61-1.72.61-1.28 0-2.062-.829-.765-.843-.765-2.406 0-1 .328-1.75.344-.766 1.015-1.14.688-.376 1.5-.376 1 0 1.641.516.656.5.844 1.453l-1.031.156q-.141-.625-.516-.937-.375-.328-.906-.328-.797 0-1.297.578-.5.562-.5 1.797 0 1.265.484 1.828.485.562 1.25.562.625 0 1.032-.375.421-.375.546-1.171Zm4.235 1.343.156.922q-.453.094-.797.094-.578 0-.89-.172-.313-.187-.454-.484-.125-.297-.125-1.25v-3.578h-.765v-.813h.765v-1.547l1.047-.625v2.172h1.063v.813h-1.063v3.64q0 .453.047.578.063.125.188.203.125.079.359.079.188 0 .469-.032Zm.703-6.437v-1.219h1.062v1.219h-1.062Zm0 7.375v-6.219h1.062v6.219h-1.062Zm4.719 0-2.36-6.219h1.11l1.343 3.719q.203.61.391 1.25.14-.485.39-1.172l1.391-3.797h1.078l-2.359 6.219h-.984Zm7.53-2 1.095.125q-.25.953-.953 1.484-.704.531-1.782.531-1.36 0-2.172-.843-.797-.844-.797-2.36 0-1.562.813-2.422.813-.875 2.094-.875 1.25 0 2.031.844.797.844.797 2.39v.282h-4.64q.062 1.031.577 1.578.516.531 1.297.531.578 0 .985-.296.422-.313.656-.97Zm-3.452-1.703h3.468q-.062-.797-.39-1.188-.516-.61-1.313-.61-.734 0-1.234.485-.484.485-.531 1.313Z"/><path fill="#9e9e9e" d="m596.969 314.194-1.047.079q-.14-.625-.39-.907-.438-.453-1.063-.453-.5 0-.89.281-.485.375-.782 1.079-.281.687-.297 1.968.375-.578.922-.859.562-.281 1.172-.281 1.047 0 1.781.781.75.781.75 2 0 .812-.36 1.516-.343.687-.952 1.062-.61.36-1.375.36-1.329 0-2.157-.97-.828-.968-.828-3.187 0-2.5.922-3.625.797-.984 2.156-.984 1.016 0 1.657.578.656.562.78 1.562Zm-4.297 3.704q0 .546.219 1.046.234.485.64.75.422.266.89.266.657 0 1.141-.531.485-.547.485-1.469 0-.89-.485-1.406-.468-.516-1.187-.516-.719 0-1.219.516-.484.515-.484 1.344Zm5.984.796 1.016-.093q.125.718.484 1.047.375.312.938.312.484 0 .843-.219.375-.234.61-.593.234-.375.39-1 .157-.641.157-1.297v-.219q-.313.5-.86.828-.547.313-1.187.313-1.078 0-1.813-.766-.734-.781-.734-2.047 0-1.312.766-2.11.78-.796 1.937-.796.828 0 1.516.453.703.453 1.062 1.297.36.828.36 2.406 0 1.64-.36 2.625-.343.969-1.062 1.484-.703.5-1.64.5-1.016 0-1.657-.546-.64-.563-.766-1.579Zm4.313-3.796q0-.907-.485-1.438-.468-.531-1.156-.531-.703 0-1.234.578-.516.562-.516 1.484 0 .813.5 1.328.5.516 1.219.516.734 0 1.203-.516.469-.515.469-1.421Zm3.125 5.78v-1.202h1.203v1.203h-1.203Zm2.562-1.984 1.016-.093q.125.718.484 1.047.375.312.938.312.484 0 .843-.219.375-.234.61-.593.234-.375.39-1 .157-.641.157-1.297v-.219q-.313.5-.86.828-.547.313-1.187.313-1.078 0-1.813-.766-.734-.781-.734-2.047 0-1.312.766-2.11.78-.796 1.937-.796.828 0 1.516.453.703.453 1.062 1.297.36.828.36 2.406 0 1.64-.36 2.625-.343.969-1.062 1.484-.703.5-1.64.5-1.016 0-1.657-.546-.64-.563-.766-1.579Zm4.313-3.796q0-.907-.485-1.438-.468-.531-1.156-.531-.703 0-1.234.578-.516.562-.516 1.484 0 .813.5 1.328.5.516 1.219.516.734 0 1.203-.516.469-.515.469-1.421Zm2.734-.75q0-.922.453-1.563.469-.64 1.344-.64.813 0 1.344.578.531.578.531 1.687 0 1.094-.547 1.688-.531.578-1.312.578-.782 0-1.297-.578-.516-.579-.516-1.75Zm1.828-1.485q-.39 0-.656.344-.25.344-.25 1.25 0 .828.25 1.172.266.328.656.328.407 0 .657-.344.265-.344.265-1.234 0-.844-.265-1.172-.266-.344-.657-.344Zm0 8.328 4.703-9.047h.86l-4.688 9.047h-.875Zm3.719-2.328q0-.922.453-1.562.469-.64 1.36-.64.812 0 1.343.577.532.563.532 1.688 0 1.093-.547 1.687-.532.578-1.328.578-.766 0-1.297-.578-.516-.578-.516-1.75Zm1.844-1.484q-.407 0-.672.344-.25.343-.25 1.25 0 .812.265 1.156.266.344.657.344.39 0 .656-.344t.266-1.25q0-.828-.266-1.156-.266-.344-.656-.344Z"/><path stroke="#757575" stroke-linecap="butt" d="M626 308.179H447.412"/><path fill="#9e9e9e" d="M449.412 308.179a2 2 0 1 0-4 0 2 2 0 0 0 4 0"/><path fill="#757575" d="M30.063 37.313V39h-9.454q-.015-.64.203-1.219.36-.968 1.157-1.906t2.297-2.172q2.343-1.906 3.156-3.016.828-1.125.828-2.125 0-1.046-.75-1.765-.75-.719-1.953-.719-1.266 0-2.031.766-.766.765-.766 2.11l-1.813-.188q.188-2.016 1.391-3.078 1.219-1.063 3.266-1.063 2.047 0 3.25 1.14 1.203 1.141 1.203 2.829 0 .86-.36 1.703-.343.828-1.156 1.75-.812.906-2.703 2.516-1.594 1.328-2.047 1.796-.437.47-.734.953h7.015Zm1.765-5.376q0-2.53.516-4.078.531-1.562 1.562-2.39 1.032-.844 2.594-.844 1.156 0 2.016.469.875.453 1.437 1.328.563.875.89 2.14.329 1.25.329 3.375 0 2.516-.531 4.063-.516 1.547-1.547 2.406-1.016.844-2.594.844-2.078 0-3.25-1.484-1.422-1.797-1.422-5.828Zm1.813 0q0 3.532.812 4.704.828 1.156 2.047 1.156 1.203 0 2.031-1.172.828-1.172.828-4.688 0-3.53-.828-4.687-.828-1.172-2.047-1.172-1.218 0-1.937 1.031-.906 1.297-.906 4.828Zm18.422 5.375V39h-9.454q-.015-.64.203-1.219.36-.968 1.157-1.906t2.297-2.172q2.343-1.906 3.156-3.016.828-1.125.828-2.125 0-1.046-.75-1.765-.75-.719-1.953-.719-1.266 0-2.031.766-.766.765-.766 2.11l-1.813-.188q.188-2.016 1.391-3.078 1.219-1.063 3.266-1.063 2.047 0 3.25 1.14 1.203 1.141 1.203 2.829 0 .86-.36 1.703-.343.828-1.156 1.75-.812.906-2.703 2.516-1.594 1.328-2.047 1.796-.437.47-.734.953h7.016Zm1.765-2.062 1.844-.156q.203 1.343.953 2.031.75.672 1.813.672 1.265 0 2.14-.953.875-.953.875-2.547 0-1.5-.844-2.36-.843-.875-2.203-.875-.86 0-1.547.391-.672.375-1.062 1l-1.656-.219 1.39-7.359h7.125v1.688h-5.718l-.766 3.843q1.281-.906 2.703-.906 1.875 0 3.156 1.313 1.297 1.296 1.297 3.328 0 1.953-1.14 3.359-1.376 1.75-3.75 1.75-1.954 0-3.204-1.094Q54 37.063 53.828 35.25ZM71.86 39V24.687h1.907V39H71.86Zm5.454 0V28.625h1.593v1.484q1.14-1.718 3.297-1.718.938 0 1.719.343.797.328 1.187.875.391.547.547 1.297.094.5.094 1.719V39h-1.766v-6.313q0-1.078-.203-1.609-.203-.531-.734-.844-.516-.312-1.219-.312-1.125 0-1.937.719-.813.703-.813 2.687V39h-1.766Zm16.78-3.797 1.72.219q-.282 1.797-1.454 2.812-1.156 1-2.859 1-2.125 0-3.422-1.39-1.297-1.39-1.297-3.985 0-1.687.547-2.937.563-1.266 1.703-1.89 1.14-.641 2.485-.641 1.687 0 2.75.859 1.078.86 1.39 2.422l-1.719.265q-.234-1.046-.859-1.562-.625-.531-1.5-.531-1.328 0-2.156.953-.828.953-.828 3 0 2.094.797 3.047.796.937 2.093.937 1.032 0 1.72-.625.702-.64.89-1.953Zm2.579-1.39q0-2.876 1.594-4.266 1.343-1.156 3.265-1.156 2.14 0 3.485 1.406 1.359 1.406 1.359 3.875 0 2-.594 3.156-.594 1.14-1.75 1.781-1.14.625-2.5.625-2.187 0-3.531-1.39-1.328-1.407-1.328-4.032Zm1.797 0q0 2 .86 2.984.874.984 2.202.984 1.313 0 2.172-.984.875-1 .875-3.047 0-1.922-.875-2.906-.875-1-2.172-1-1.328 0-2.203 1-.86.984-.86 2.968ZM108.313 39V28.625h1.578v1.453q.484-.75 1.296-1.219.813-.468 1.844-.468 1.156 0 1.89.484.735.469 1.048 1.328 1.234-1.812 3.203-1.812 1.547 0 2.375.859.828.86.828 2.625V39h-1.75v-6.531q0-1.063-.172-1.516-.172-.469-.625-.75-.437-.281-1.047-.281-1.094 0-1.828.734-.719.719-.719 2.313V39h-1.75v-6.734q0-1.172-.437-1.75-.422-.594-1.406-.594-.735 0-1.375.39-.625.391-.907 1.141-.28.75-.28 2.172V39h-1.766Zm23.109-3.344 1.812.235q-.422 1.578-1.593 2.468-1.157.875-2.97.875-2.265 0-3.608-1.39-1.329-1.407-1.329-3.938 0-2.625 1.344-4.062 1.344-1.453 3.5-1.453 2.078 0 3.39 1.422 1.329 1.406 1.329 3.984 0 .156-.016.469h-7.734q.094 1.703.969 2.609.875.906 2.171.906.97 0 1.641-.5.688-.515 1.094-1.625Zm-5.781-2.843h5.796q-.109-1.297-.656-1.954-.844-1.015-2.187-1.015-1.203 0-2.031.812-.829.797-.922 2.157Zm15.265 1.593 1.781-.156q.125 1.063.579 1.75.468.688 1.437 1.125.984.422 2.219.422 1.078 0 1.906-.313.828-.328 1.234-.89.407-.563.407-1.235 0-.672-.39-1.172-.392-.5-1.282-.843-.578-.235-2.563-.703-1.968-.47-2.75-.891-1.03-.531-1.53-1.328t-.5-1.781q0-1.094.608-2.032.61-.937 1.797-1.422 1.188-.5 2.625-.5 1.594 0 2.813.516t1.86 1.516q.655.984.702 2.25l-1.812.14q-.14-1.359-.984-2.047-.844-.703-2.5-.703-1.72 0-2.516.641-.781.625-.781 1.5 0 .781.562 1.281.547.5 2.86 1.016 2.312.515 3.171.906 1.25.578 1.844 1.469.594.875.594 2.031 0 1.14-.656 2.156-.657 1.016-1.891 1.578-1.219.563-2.75.563-1.938 0-3.25-.563-1.313-.578-2.063-1.718-.75-1.14-.78-2.563Zm12.766-.593q0-2.876 1.594-4.266 1.343-1.156 3.265-1.156 2.14 0 3.485 1.406 1.359 1.406 1.359 3.875 0 2-.594 3.156-.594 1.14-1.75 1.781-1.14.625-2.5.625-2.187 0-3.531-1.39-1.328-1.407-1.328-4.032Zm1.797 0q0 2 .86 2.984.874.984 2.202.984 1.313 0 2.172-.984.875-1 .875-3.047 0-1.922-.875-2.906-.875-1-2.172-1-1.328 0-2.203 1-.86.984-.86 2.968ZM172.109 39v-1.531q-1.203 1.765-3.28 1.765-.923 0-1.72-.343-.797-.36-1.187-.891-.375-.531-.531-1.313-.11-.515-.11-1.64v-6.422h1.75v5.75q0 1.375.11 1.86.172.687.703 1.093.547.39 1.328.39.797 0 1.484-.406.703-.406.985-1.093.297-.703.297-2.032v-5.562h1.75V39h-1.579Zm3.188 0V28.625h1.578v1.578q.61-1.11 1.125-1.453.516-.36 1.125-.36.89 0 1.813.563l-.61 1.64q-.64-.39-1.281-.39-.578 0-1.047.36-.453.343-.656.953-.281.937-.281 2.047V39h-1.766Zm13.797-3.797 1.719.219q-.282 1.797-1.454 2.812-1.156 1-2.859 1-2.125 0-3.422-1.39-1.297-1.39-1.297-3.985 0-1.687.547-2.937.563-1.266 1.703-1.89 1.14-.641 2.485-.641 1.687 0 2.75.859 1.078.86 1.39 2.422l-1.719.265q-.234-1.046-.859-1.562-.625-.531-1.5-.531-1.328 0-2.156.953-.828.953-.828 3 0 2.094.797 3.047.797.937 2.093.937 1.032 0 1.72-.625.702-.64.89-1.953Zm10.328.453 1.812.235q-.422 1.578-1.593 2.468-1.157.875-2.97.875-2.265 0-3.608-1.39-1.329-1.407-1.329-3.938 0-2.625 1.344-4.062 1.344-1.453 3.5-1.453 2.078 0 3.39 1.422 1.329 1.406 1.329 3.984 0 .156-.016.469h-7.734q.094 1.703.969 2.609.875.906 2.172.906.968 0 1.64-.5.688-.515 1.094-1.625Zm-5.781-2.843h5.797q-.11-1.297-.657-1.954-.844-1.015-2.187-1.015-1.203 0-2.031.812-.829.797-.922 2.157Zm8.968 3.093 1.75-.281q.141 1.047.813 1.61.672.546 1.875.546 1.203 0 1.781-.484.594-.5.594-1.156 0-.594-.516-.938-.36-.234-1.797-.594-1.937-.5-2.687-.843-.734-.36-1.125-.985-.39-.64-.39-1.406 0-.688.312-1.281.328-.594.875-.985.406-.297 1.11-.5.718-.218 1.53-.218 1.22 0 2.141.359.922.344 1.36.953.437.594.609 1.594l-1.719.234q-.125-.797-.688-1.234-.562-.453-1.578-.453-1.218 0-1.734.406-.516.39-.516.922 0 .344.22.625.202.281.671.469.266.093 1.547.437 1.875.5 2.61.828.734.313 1.155.922.422.594.422 1.5 0 .875-.515 1.656-.516.782-1.485 1.203-.968.422-2.187.422-2.016 0-3.078-.843-1.063-.844-1.36-2.485Z"/></svg>