<svg viewBox="0 0 600 371" fill="none" stroke-linecap="square" stroke-miterlimit="10" xmlns="http://www.w3.org/2000/svg"><path fill="#fff" d="M0 0h600v371H0V0Z"/><path stroke="#333" stroke-linecap="butt" d="M45.5 54.5v246"/><path stroke="#ccc" stroke-linecap="butt" d="M179.5 54.5v246m134-246v246m134-246v246m134-246v246"/><clipPath id="a"><path d="M45.55 54.917h535.9V300.45H45.55V54.917Z"/></clipPath><path clip-path="url(#a)" d="M46 101V71h433a2 2 0 0 1 2 2v26a2 2 0 0 1-2 2Z"/><path fill="#4b32c3" clip-path="url(#a)" d="M46 101V71h433a2 2 0 0 1 2 2v26a2 2 0 0 1-2 2Z"/><path clip-path="url(#a)" d="M46 147v-30h357a2 2 0 0 1 2 2v26a2 2 0 0 1-2 2Z"/><path fill="#4b32c3" clip-path="url(#a)" d="M46 147v-30h357a2 2 0 0 1 2 2v26a2 2 0 0 1-2 2Z"/><path clip-path="url(#a)" d="M46 193v-30h47a2 2 0 0 1 2 2v26a2 2 0 0 1-2 2Z"/><path fill="#4b32c3" clip-path="url(#a)" d="M46 193v-30h47a2 2 0 0 1 2 2v26a2 2 0 0 1-2 2Z"/><path clip-path="url(#a)" d="M46 239v-30h16a2 2 0 0 1 2 2v26a2 2 0 0 1-2 2Z"/><path fill="#4b32c3" clip-path="url(#a)" d="M46 239v-30h16a2 2 0 0 1 2 2v26a2 2 0 0 1-2 2Z"/><path clip-path="url(#a)" d="M46 284v-30h7a2 2 0 0 1 2 2v26a2 2 0 0 1-2 2Z"/><path fill="#4b32c3" clip-path="url(#a)" d="M46 284v-30h7a2 2 0 0 1 2 2v26a2 2 0 0 1-2 2Z"/><path fill="#000" d="M184.297 349.45v-6.219h.937v.875q.688-1.015 1.985-1.015.562 0 1.031.203.484.203.719.531.234.328.328.766.047.296.047 1.03v3.829h-1.047v-3.781q0-.656-.125-.969-.125-.313-.438-.5-.312-.203-.734-.203-.672 0-1.172.437-.484.422-.484 1.61v3.406h-1.047Zm7 2.39v-8.609h.953v.797q.344-.469.766-.703.437-.234 1.047-.234.796 0 1.406.406.61.406.906 1.156.313.75.313 1.64 0 .954-.344 1.72-.328.765-.985 1.171-.656.407-1.375.407-.53 0-.953-.22-.422-.233-.687-.562v3.032h-1.047Zm.953-5.468q0 1.203.484 1.781.485.563 1.172.563.703 0 1.203-.594.5-.594.5-1.844 0-1.187-.484-1.766-.484-.593-1.172-.593-.672 0-1.187.625-.516.625-.516 1.828Zm6.047 3.078v-6.219h.937v.875q.297-.469.782-.734.484-.281 1.109-.281.688 0 1.125.28.453.282.625.798.75-1.078 1.922-1.078.937 0 1.422.515.5.5.5 1.578v4.266h-1.047v-3.922q0-.625-.11-.906-.093-.281-.359-.453t-.64-.172q-.657 0-1.094.437-.422.438-.422 1.407v3.609h-1.063v-4.047q0-.703-.265-1.047-.25-.36-.828-.36-.453 0-.828.235-.375.235-.547.688-.172.453-.172 1.297v3.234h-1.047Zm15.625 0-2.281-8.594h1.172l1.312 5.64q.203.876.36 1.75.327-1.374.39-1.593l1.625-5.797h1.375l1.234 4.344q.453 1.625.672 3.047.156-.813.422-1.875l1.344-5.516h1.14l-2.343 8.594h-1.11l-1.797-6.547q-.234-.812-.28-1-.126.578-.25 1l-1.813 6.547h-1.172Zm13.625-2 1.094.125q-.25.953-.953 1.484-.704.532-1.782.532-1.36 0-2.172-.844-.797-.844-.797-2.36 0-1.562.813-2.421.813-.875 2.094-.875 1.25 0 2.031.843.797.844.797 2.391v.281h-4.64q.062 1.031.577 1.578.516.532 1.297.532.578 0 .985-.297.422-.313.656-.969Zm-3.453-1.703h3.469q-.063-.797-.391-1.188-.516-.609-1.313-.609-.734 0-1.234.484-.484.485-.531 1.313Zm10.453 1.703 1.094.125q-.25.953-.953 1.484-.704.532-1.782.532-1.36 0-2.172-.844-.797-.844-.797-2.36 0-1.562.813-2.421.813-.875 2.094-.875 1.25 0 2.031.843.797.844.797 2.391v.281h-4.64q.062 1.031.577 1.578.516.532 1.297.532.578 0 .985-.297.422-.313.656-.969Zm-3.453-1.703h3.469q-.063-.797-.391-1.188-.516-.609-1.313-.609-.734 0-1.234.484-.484.485-.531 1.313Zm6.203 3.703v-8.594h1.062v4.906l2.485-2.53h1.375l-2.39 2.296 2.624 3.922h-1.297l-2.062-3.188-.735.72v2.468h-1.062Zm5.969 0v-8.594h1.062v8.594h-1.062Zm2.984 2.39-.125-.984q.344.094.61.094.343 0 .546-.125.219-.11.36-.313.093-.171.328-.796.015-.079.094-.25l-2.375-6.235h1.14l1.297 3.594q.25.688.453 1.453.188-.734.438-1.422l1.328-3.625h1.047l-2.36 6.328q-.39 1.016-.594 1.407-.28.53-.656.765-.36.25-.86.25-.296 0-.671-.14Zm8.172-2.39v-8.594h2.969q1 0 1.53.125.735.172 1.25.61.688.578 1.017 1.484.343.89.343 2.031 0 .985-.234 1.735-.219.75-.578 1.25-.36.5-.797.78-.422.282-1.016.438-.594.141-1.375.141h-3.11Zm1.14-1.016h1.829q.859 0 1.343-.156.485-.156.766-.453.406-.39.625-1.078.234-.688.234-1.656 0-1.344-.453-2.063-.437-.734-1.062-.984-.469-.172-1.469-.172h-1.813v6.562Zm7.344-2.093q0-1.735.953-2.563.797-.687 1.954-.687 1.28 0 2.093.843.828.828.828 2.313 0 1.203-.359 1.89-.36.688-1.063 1.079-.687.375-1.5.375-1.296 0-2.109-.829-.797-.843-.797-2.421Zm1.078 0q0 1.187.516 1.78.531.595 1.313.595.796 0 1.312-.594t.516-1.813q0-1.156-.532-1.75-.515-.593-1.296-.593-.782 0-1.313.593-.516.578-.516 1.782Zm7.454 3.109-1.907-6.219h1.094l.984 3.594.375 1.328q.032-.094.329-1.281l.984-3.64h1.078l.938 3.609.312 1.187.36-1.203 1.062-3.594h1.031l-1.953 6.219h-1.094l-.984-3.734-.25-1.047-1.25 4.781h-1.11Zm7.859 0v-6.219h.937v.875q.688-1.015 1.985-1.015.562 0 1.031.203.484.203.719.531.234.328.328.766.047.296.047 1.03v3.829h-1.047v-3.781q0-.656-.125-.969-.125-.313-.438-.5-.312-.203-.734-.203-.672 0-1.172.437-.484.422-.484 1.61v3.406h-1.047Zm6.969 0v-8.594h1.062v8.594h-1.062Zm2.64-3.11q0-1.734.953-2.562.797-.687 1.954-.687 1.28 0 2.093.843.828.828.828 2.313 0 1.203-.359 1.89-.36.688-1.063 1.079-.687.375-1.5.375-1.296 0-2.109-.829-.797-.843-.797-2.421Zm1.078 0q0 1.188.516 1.782.531.594 1.313.594.796 0 1.312-.594t.516-1.813q0-1.156-.532-1.75-.515-.593-1.296-.593-.782 0-1.313.593-.516.578-.516 1.782Zm10.375 2.344q-.593.5-1.14.703-.531.204-1.156.204-1.032 0-1.579-.5-.546-.5-.546-1.282 0-.453.203-.828.203-.39.546-.61.344-.233.766-.343.297-.094.938-.172 1.265-.14 1.875-.36v-.265q0-.656-.297-.922-.406-.343-1.203-.343-.735 0-1.094.265-.36.25-.531.906l-1.032-.14q.141-.656.47-1.063.327-.406.937-.625.609-.218 1.406-.218.797 0 1.297.187.5.188.734.469.235.281.328.719.047.265.047.968v1.407q0 1.468.063 1.859.078.39.28.75h-1.108q-.157-.328-.204-.766Zm-.093-2.359q-.579.234-1.72.406-.655.094-.921.219-.266.11-.422.328-.14.219-.14.5 0 .422.312.703.328.281.938.281.609 0 1.078-.265.484-.266.703-.735.172-.359.172-1.046v-.391Zm7.062 3.125v-.781q-.594.922-1.734.922-.75 0-1.375-.407-.625-.422-.969-1.156t-.344-1.687q0-.922.313-1.688.312-.766.937-1.156.625-.406 1.39-.406.563 0 1 .234.438.234.72.61v-3.079h1.046v8.594h-.984ZM304 346.34q0 1.204.5 1.798.5.578 1.188.578.687 0 1.171-.563.485-.562.485-1.719 0-1.28-.5-1.875-.485-.593-1.203-.593-.704 0-1.172.578-.469.562-.469 1.797Zm5.875 1.25 1.031-.156q.094.625.485.953.406.329 1.14.329.719 0 1.063-.282.36-.297.36-.703 0-.36-.313-.562-.22-.14-1.079-.36-1.156-.297-1.609-.5-.437-.218-.672-.593-.234-.375-.234-.844 0-.406.187-.766.188-.36.516-.594.25-.171.672-.296.422-.125.922-.125.719 0 1.265.218.563.203.829.563.265.36.359.953l-1.031.14q-.063-.468-.407-.734-.328-.281-.953-.281-.719 0-1.031.25-.313.234-.313.563 0 .203.125.359.141.172.407.281.156.063.937.266 1.125.312 1.563.5.437.187.687.547.25.359.25.906 0 .531-.312 1-.297.453-.875.719-.578.25-1.313.25-1.219 0-1.86-.5-.624-.516-.796-1.5Zm14.484 1.094q-.593.5-1.14.703-.531.204-1.156.204-1.032 0-1.579-.5-.546-.5-.546-1.282 0-.453.203-.828.203-.39.546-.61.344-.233.766-.343.297-.094.938-.172 1.265-.14 1.875-.36v-.265q0-.656-.297-.922-.406-.343-1.203-.343-.735 0-1.094.265-.36.25-.531.906l-1.032-.14q.141-.656.47-1.063.327-.406.937-.625.609-.218 1.406-.218.797 0 1.297.187.5.188.734.469.235.281.328.719.047.265.047.968v1.407q0 1.468.063 1.859.078.39.28.75h-1.108q-.157-.328-.204-.766Zm-.093-2.359q-.579.234-1.72.406-.655.094-.921.219-.266.11-.422.328-.14.219-.14.5 0 .422.312.703.328.281.938.281.609 0 1.078-.265.484-.266.703-.735.172-.359.172-1.046v-.391Zm2.609 1.266 1.031-.157q.094.625.485.953.406.329 1.14.329.719 0 1.063-.282.36-.297.36-.703 0-.36-.313-.562-.22-.14-1.079-.36-1.156-.297-1.609-.5-.437-.218-.672-.593-.234-.375-.234-.844 0-.406.187-.766.188-.36.516-.594.25-.171.672-.296.422-.125.922-.125.719 0 1.265.218.563.203.829.563.265.36.359.953l-1.031.14q-.063-.468-.407-.734-.328-.281-.953-.281-.719 0-1.031.25-.313.234-.313.563 0 .203.125.359.141.172.407.281.156.063.937.266 1.125.312 1.563.5.437.187.687.547.25.359.25.906 0 .531-.312 1-.297.453-.875.719-.578.25-1.313.25-1.219 0-1.86-.5-.624-.516-.796-1.5Zm10.031-1.25q0-1.735.953-2.563.797-.687 1.954-.687 1.28 0 2.093.843.828.828.828 2.313 0 1.203-.359 1.89-.36.688-1.063 1.079-.687.375-1.5.375-1.296 0-2.109-.829-.797-.843-.797-2.421Zm1.078 0q0 1.187.516 1.78.531.595 1.313.595.796 0 1.312-.594t.516-1.813q0-1.156-.532-1.75-.515-.593-1.296-.593-.782 0-1.313.593-.516.578-.516 1.782Zm6.563 3.109v-5.406h-.938v-.813h.938v-.672q0-.625.11-.922.156-.421.53-.671.391-.25 1.079-.25.453 0 .984.109l-.156.906q-.328-.047-.625-.047-.485 0-.688.203-.187.204-.187.766v.578h1.219v.813h-1.22v5.406h-1.046Zm5.297-2.438 1.031-.14q.031.984.36 1.344.327.359.921.359.422 0 .735-.188.312-.203.421-.53.125-.345.125-1.079v-5.922h1.125v5.86q0 1.078-.265 1.671-.25.594-.813.907-.562.297-1.328.297-1.125 0-1.734-.641-.594-.656-.578-1.938Zm10.515 1.672q-.593.5-1.14.703-.531.204-1.156.204-1.032 0-1.579-.5-.546-.5-.546-1.282 0-.453.203-.828.203-.39.546-.61.344-.233.766-.343.297-.094.938-.172 1.265-.14 1.875-.36v-.265q0-.656-.297-.922-.406-.343-1.203-.343-.735 0-1.094.265-.36.25-.531.906l-1.032-.14q.141-.656.47-1.063.327-.406.937-.625.609-.218 1.406-.218.797 0 1.297.187.5.188.734.469.235.281.328.719.047.265.047.968v1.407q0 1.468.063 1.859.078.39.28.75h-1.108q-.157-.328-.204-.766Zm-.093-2.359q-.579.234-1.72.406-.655.094-.921.219-.266.11-.422.328-.14.219-.14.5 0 .422.312.703.328.281.938.281.609 0 1.078-.265.484-.266.703-.735.172-.359.172-1.046v-.391Zm3.03 3.125v-6.219h.938v.875q.688-1.015 1.985-1.015.562 0 1.031.203.484.203.719.531.234.328.328.766.047.296.047 1.03v3.829h-1.047v-3.781q0-.656-.125-.969-.125-.313-.438-.5-.312-.203-.734-.203-.672 0-1.172.437-.484.422-.484 1.61v3.406h-1.047Zm11.079 0v-.922q-.734 1.063-1.984 1.063-.547 0-1.032-.204-.468-.218-.703-.53-.234-.329-.328-.798-.062-.297-.062-.984v-3.844h1.062v3.453q0 .813.063 1.11.093.406.406.656.328.234.812.234.47 0 .875-.234.422-.25.594-.672.188-.422.188-1.219v-3.328h1.046v6.219h-.937Zm6.984-.766q-.593.5-1.14.703-.531.204-1.156.204-1.032 0-1.579-.5-.546-.5-.546-1.282 0-.453.203-.828.203-.39.546-.61.344-.233.766-.343.297-.094.938-.172 1.265-.14 1.875-.36v-.265q0-.656-.297-.922-.406-.343-1.203-.343-.735 0-1.094.265-.36.25-.531.906l-1.032-.14q.141-.656.47-1.063.327-.406.937-.625.609-.218 1.406-.218.797 0 1.297.187.5.188.734.469.235.281.328.719.047.265.047.968v1.407q0 1.468.063 1.859.078.39.28.75h-1.108q-.157-.328-.204-.766Zm-.093-2.359q-.579.234-1.72.406-.655.094-.921.219-.266.11-.422.328-.14.219-.14.5 0 .422.312.703.328.281.938.281.609 0 1.078-.265.484-.266.703-.735.172-.359.172-1.046v-.391Zm3.015 3.125v-6.219h.953v.938q.36-.656.657-.86.312-.218.687-.218.531 0 1.078.328l-.36.984q-.39-.234-.765-.234-.36 0-.64.219-.266.203-.375.578-.188.562-.188 1.218v3.266h-1.047Zm3.969 2.39-.125-.984q.344.094.61.094.343 0 .546-.125.219-.11.36-.313.093-.171.328-.796.015-.079.094-.25l-2.375-6.235h1.14l1.297 3.594q.25.688.453 1.453.188-.734.438-1.422l1.328-3.625h1.047l-2.36 6.328q-.39 1.016-.594 1.407-.28.53-.656.765-.36.25-.86.25-.296 0-.671-.14Zm11.719-2.39h-1.047v-6.719q-.39.36-1.016.735-.61.359-1.094.53v-1.015q.875-.422 1.532-1 .672-.594.953-1.156h.672v8.625Zm6.406 0v-2.063h-3.719v-.968l3.922-5.563h.86v5.563h1.156v.969h-1.156v2.062h-1.063Zm0-3.031v-3.86l-2.688 3.86h2.688Zm4.188 3.031v-1.203h1.203v1.203q0 .656-.235 1.063-.234.421-.734.64l-.297-.453q.328-.14.484-.438.157-.28.188-.812h-.61Zm10.984-1.016v1.016h-5.688q0-.375.125-.734.22-.579.688-1.141.484-.563 1.39-1.297 1.407-1.156 1.891-1.828.5-.672.5-1.266 0-.625-.453-1.047-.453-.437-1.172-.437-.765 0-1.219.453-.453.453-.468 1.266l-1.079-.11q.11-1.218.829-1.843.734-.641 1.968-.641 1.235 0 1.954.688.718.687.718 1.703 0 .515-.219 1.015-.203.485-.703 1.047-.484.547-1.609 1.5-.953.797-1.234 1.094-.266.281-.438.562h4.219Zm1.453-3.218q0-1.532.313-2.454.312-.937.921-1.437.625-.5 1.563-.5.687 0 1.203.281.531.281.875.813.344.515.531 1.265.188.75.188 2.032 0 1.515-.313 2.437-.297.922-.922 1.438-.609.5-1.562.5-1.235 0-1.953-.891-.844-1.063-.844-3.484Zm1.078 0q0 2.109.5 2.812.5.703 1.219.703.734 0 1.219-.703.5-.703.5-2.812 0-2.125-.5-2.813-.485-.703-1.235-.703-.719 0-1.156.61-.547.78-.547 2.906Zm11.469 3.218v1.016h-5.688q0-.375.125-.734.22-.579.688-1.141.484-.563 1.39-1.297 1.407-1.156 1.891-1.828.5-.672.5-1.266 0-.625-.453-1.047-.453-.437-1.172-.437-.765 0-1.219.453-.453.453-.468 1.266l-1.079-.11q.11-1.218.829-1.843.734-.641 1.968-.641 1.235 0 1.954.688.718.687.718 1.703 0 .515-.219 1.015-.203.485-.703 1.047-.484.547-1.609 1.5-.953.797-1.234 1.094-.266.281-.438.562h4.219Zm6.922-5.468-1.047.078q-.14-.625-.39-.906-.438-.454-1.063-.454-.5 0-.89.282-.485.375-.782 1.078-.281.687-.297 1.969.375-.579.922-.86.562-.281 1.172-.281 1.047 0 1.781.781.75.781.75 2 0 .813-.36 1.516-.343.687-.952 1.062-.61.36-1.375.36-1.329 0-2.157-.97-.828-.968-.828-3.187 0-2.5.922-3.625.797-.984 2.156-.984 1.016 0 1.656.578.657.563.782 1.563Zm-4.297 3.703q0 .547.219 1.047.234.484.64.75.422.265.89.265.657 0 1.142-.531.484-.547.484-1.469 0-.89-.485-1.406-.468-.516-1.187-.516-.719 0-1.219.516-.484.516-.484 1.344ZM25.206 87.91l1.016-.093q.125.719.484 1.047.375.312.938.312.484 0 .844-.218.375-.235.609-.594.234-.375.39-1 .157-.64.157-1.297v-.219q-.313.5-.86.828-.546.313-1.187.313-1.078 0-1.813-.766-.734-.781-.734-2.047 0-1.312.766-2.109.78-.797 1.937-.797.828 0 1.516.453.703.453 1.062 1.297.36.828.36 2.406 0 1.641-.36 2.625-.343.97-1.062 1.485-.703.5-1.64.5-1.017 0-1.657-.547-.64-.563-.766-1.578Zm4.313-3.796q0-.906-.485-1.438-.468-.53-1.156-.53-.703 0-1.234.577-.516.563-.516 1.485 0 .812.5 1.328.5.515 1.219.515.734 0 1.203-.515.469-.516.469-1.422Zm3.125 5.781v-1.203h1.203v1.203h-1.203Zm2 0 2.265-3.234-2.093-2.985h1.312l.953 1.454q.266.421.438.703.25-.391.468-.688l1.047-1.469H40.3l-2.156 2.922 2.312 3.297h-1.281l-1.281-1.937-.344-.516-1.64 2.453h-1.266Zm-7.969 41.238q-.656-.25-.984-.688-.313-.453-.313-1.062 0-.938.672-1.578.688-.64 1.797-.64 1.125 0 1.812.655.688.657.688 1.594 0 .594-.313 1.032-.312.437-.953.687.797.25 1.203.828.407.578.407 1.375 0 1.094-.782 1.844-.765.75-2.046.75-1.266 0-2.047-.75-.782-.75-.782-1.875 0-.844.422-1.406.438-.563 1.219-.766Zm-.219-1.797q0 .61.39 1 .407.39 1.032.39.61 0 1-.374.39-.39.39-.953 0-.578-.405-.97-.407-.405-1-.405-.61 0-1.016.39-.39.39-.39.922Zm-.328 3.969q0 .453.203.875.219.422.64.656.423.234.907.234.75 0 1.235-.484.5-.484.5-1.234 0-.766-.5-1.266t-1.266-.5q-.75 0-1.235.5-.484.484-.484 1.219Zm6.516 2.484v-1.203h1.203v1.203h-1.203Zm2 0 2.265-3.234-2.093-2.984h1.312l.953 1.453q.266.422.438.703.25-.39.468-.688l1.047-1.468H40.3l-2.156 2.921 2.312 3.297h-1.281l-1.281-1.937-.344-.516-1.64 2.453h-1.266Zm-9.531 38.426v-1.016h5.562v.828q-.813.875-1.625 2.328-.797 1.438-1.234 2.969-.328 1.078-.407 2.36h-1.093q.015-1.016.39-2.454.39-1.437 1.094-2.765.719-1.329 1.531-2.25h-4.218Zm7.53 7.468v-1.203h1.204v1.203h-1.203Zm2 0 2.266-3.234-2.093-2.984h1.312l.953 1.453q.266.422.438.703.25-.39.468-.688l1.047-1.468H40.3l-2.156 2.921 2.312 3.297h-1.281l-1.281-1.937-.344-.516-1.64 2.453h-1.266Zm-4.124 39.41-1.047.078q-.14-.625-.39-.906-.438-.453-1.063-.453-.5 0-.89.281-.485.375-.782 1.078-.281.688-.297 1.969.375-.578.922-.86.562-.28 1.172-.28 1.047 0 1.781.78.75.782.75 2 0 .813-.36 1.516-.343.688-.953 1.063-.609.359-1.374.359-1.329 0-2.157-.969-.828-.968-.828-3.187 0-2.5.922-3.625.797-.985 2.156-.985 1.016 0 1.657.579.656.562.78 1.562Zm-4.297 3.703q0 .547.219 1.047.234.484.64.75.422.266.89.266.657 0 1.142-.532.484-.546.484-1.468 0-.891-.485-1.407-.468-.515-1.187-.515-.719 0-1.219.515-.484.516-.484 1.344Zm6.422 2.781v-1.203h1.203v1.203h-1.203Zm2 0 2.265-3.234-2.093-2.984h1.312l.953 1.453q.266.422.438.703.25-.39.468-.688l1.047-1.468H40.3l-2.156 2.922 2.312 3.296h-1.281l-1.281-1.937-.344-.516-1.64 2.453h-1.266Zm-9.594 43.644 1.11-.093q.124.812.562 1.219.453.406 1.094.406.75 0 1.28-.578.532-.579.532-1.516 0-.906-.515-1.422-.5-.531-1.329-.531-.5 0-.921.234-.407.235-.641.594l-.985-.125.829-4.406h4.28v1H26.91l-.453 2.312q.766-.547 1.61-.547 1.125 0 1.89.782.782.78.782 2.015 0 1.156-.672 2.016-.828 1.031-2.25 1.031-1.172 0-1.922-.656-.735-.656-.844-1.735Zm7.594 2.25v-1.203h1.203v1.204h-1.203Zm2 0 2.265-3.234-2.093-2.984h1.312l.953 1.453q.266.422.438.703.25-.39.468-.688l1.047-1.468H40.3l-2.156 2.922 2.312 3.296h-1.281l-1.281-1.937-.344-.516-1.64 2.454h-1.266Zm7.906 39.745q0-1.532.313-2.454.312-.937.921-1.437.625-.5 1.563-.5.687 0 1.203.281.531.281.875.813.344.515.531 1.265.188.75.188 2.032 0 1.515-.313 2.437-.297.922-.922 1.438-.609.5-1.562.5-1.235 0-1.953-.891-.844-1.063-.844-3.484Zm1.078 0q0 2.109.5 2.812.5.703 1.219.703.734 0 1.219-.703.5-.703.5-2.812 0-2.125-.5-2.813-.485-.703-1.235-.703-.719 0-1.156.61-.547.78-.547 2.906Zm112.366 4.234h-1.047v-6.719q-.39.36-1.016.735-.61.359-1.094.53v-1.015q.876-.422 1.532-1 .672-.594.953-1.156h.672v8.625Zm3.031-4.234q0-1.532.313-2.454.312-.937.921-1.437.625-.5 1.563-.5.687 0 1.203.281.531.281.875.813.344.515.531 1.265.188.75.188 2.032 0 1.515-.313 2.437-.297.922-.922 1.438-.609.5-1.562.5-1.234 0-1.953-.891-.844-1.063-.844-3.484Zm1.078 0q0 2.109.5 2.812.5.703 1.219.703.734 0 1.219-.703.5-.703.5-2.812 0-2.125-.5-2.813-.485-.703-1.235-.703-.719 0-1.156.61-.547.78-.547 2.906Zm5.922 0q0-1.532.313-2.454.312-.937.921-1.437.625-.5 1.563-.5.687 0 1.203.281.531.281.875.813.344.515.531 1.265.188.75.188 2.032 0 1.515-.313 2.437-.297.922-.922 1.438-.609.5-1.562.5-1.234 0-1.953-.891-.844-1.063-.844-3.484Zm1.078 0q0 2.109.5 2.812.5.703 1.219.703.734 0 1.219-.703.5-.703.5-2.812 0-2.125-.5-2.813-.485-.703-1.235-.703-.719 0-1.156.61-.547.78-.547 2.906Zm5.922 0q0-1.532.313-2.454.312-.937.921-1.437.625-.5 1.563-.5.687 0 1.203.281.531.281.875.813.344.515.531 1.265.188.75.188 2.032 0 1.515-.313 2.437-.297.922-.922 1.438-.609.5-1.562.5-1.234 0-1.953-.891-.844-1.063-.844-3.484Zm1.078 0q0 2.109.5 2.812.5.703 1.219.703.734 0 1.219-.703.5-.703.5-2.812 0-2.125-.5-2.813-.485-.703-1.235-.703-.719 0-1.156.61-.547.78-.547 2.906Zm5.922 0q0-1.532.313-2.454.312-.937.921-1.437.625-.5 1.563-.5.687 0 1.203.281.531.281.875.813.344.515.531 1.265.188.75.188 2.032 0 1.515-.313 2.437-.297.922-.922 1.438-.609.5-1.562.5-1.234 0-1.953-.891-.844-1.063-.844-3.484Zm1.078 0q0 2.109.5 2.812.5.703 1.219.703.734 0 1.219-.703.5-.703.5-2.812 0-2.125-.5-2.813-.485-.703-1.235-.703-.719 0-1.156.61-.547.78-.547 2.906Zm5.922 0q0-1.532.313-2.454.312-.937.921-1.437.625-.5 1.563-.5.687 0 1.203.281.531.281.875.813.344.515.531 1.265.188.75.188 2.032 0 1.515-.313 2.437-.297.922-.922 1.438-.609.5-1.562.5-1.234 0-1.953-.891-.844-1.063-.844-3.484Zm1.078 0q0 2.109.5 2.812.5.703 1.219.703.734 0 1.219-.703.5-.703.5-2.812 0-2.125-.5-2.813-.485-.703-1.235-.703-.719 0-1.156.61-.547.78-.547 2.906Zm5.922 0q0-1.532.313-2.454.312-.937.921-1.437.625-.5 1.563-.5.687 0 1.203.281.531.281.875.813.344.515.531 1.265.188.75.188 2.032 0 1.515-.313 2.437-.297.922-.922 1.438-.609.5-1.562.5-1.234 0-1.953-.891-.844-1.063-.844-3.484Zm1.078 0q0 2.109.5 2.812.5.703 1.219.703.734 0 1.219-.703.5-.703.5-2.812 0-2.125-.5-2.813-.485-.703-1.235-.703-.719 0-1.156.61-.547.78-.547 2.906Zm5.922 0q0-1.532.313-2.454.312-.937.921-1.437.625-.5 1.563-.5.687 0 1.203.281.531.281.875.813.344.515.531 1.265.188.75.188 2.032 0 1.515-.313 2.437-.297.922-.922 1.438-.609.5-1.562.5-1.234 0-1.953-.891-.844-1.063-.844-3.484Zm1.078 0q0 2.109.5 2.812.5.703 1.219.703.734 0 1.219-.703.5-.703.5-2.812 0-2.125-.5-2.813-.485-.703-1.235-.703-.719 0-1.156.61-.547.78-.547 2.906Zm89.444 3.218v1.016h-5.688q0-.375.125-.734.22-.579.688-1.141.484-.563 1.39-1.297 1.407-1.156 1.891-1.828.5-.672.5-1.266 0-.625-.453-1.047-.453-.437-1.172-.437-.765 0-1.219.453-.453.453-.468 1.266l-1.079-.11q.11-1.218.829-1.843.734-.641 1.968-.641 1.235 0 1.954.688.718.687.718 1.703 0 .515-.219 1.015-.203.485-.703 1.047-.484.547-1.609 1.5-.953.797-1.234 1.094-.266.281-.438.562h4.219Zm1.453-3.218q0-1.532.313-2.454.312-.937.921-1.437.625-.5 1.563-.5.687 0 1.203.281.531.281.875.813.344.515.531 1.265.188.75.188 2.032 0 1.515-.313 2.437-.297.922-.922 1.438-.609.5-1.562.5-1.235 0-1.953-.891-.844-1.063-.844-3.484Zm1.078 0q0 2.109.5 2.812.5.703 1.219.703.734 0 1.219-.703.5-.703.5-2.812 0-2.125-.5-2.813-.485-.703-1.235-.703-.719 0-1.156.61-.547.78-.547 2.906Zm5.922 0q0-1.532.313-2.454.312-.937.921-1.437.625-.5 1.563-.5.687 0 1.203.281.531.281.875.813.344.515.531 1.265.188.75.188 2.032 0 1.515-.313 2.437-.297.922-.922 1.438-.609.5-1.562.5-1.235 0-1.953-.891-.844-1.063-.844-3.484Zm1.078 0q0 2.109.5 2.812.5.703 1.219.703.734 0 1.219-.703.5-.703.5-2.812 0-2.125-.5-2.813-.485-.703-1.235-.703-.719 0-1.156.61-.547.78-.547 2.906Zm5.922 0q0-1.532.313-2.454.312-.937.921-1.437.625-.5 1.563-.5.687 0 1.203.281.531.281.875.813.344.515.531 1.265.188.75.188 2.032 0 1.515-.313 2.437-.297.922-.922 1.438-.609.5-1.562.5-1.235 0-1.953-.891-.844-1.063-.844-3.484Zm1.078 0q0 2.109.5 2.812.5.703 1.219.703.734 0 1.219-.703.5-.703.5-2.812 0-2.125-.5-2.813-.485-.703-1.235-.703-.719 0-1.156.61-.547.78-.547 2.906Zm5.922 0q0-1.532.313-2.454.312-.937.921-1.437.625-.5 1.563-.5.687 0 1.203.281.531.281.875.813.344.515.531 1.265.188.75.188 2.032 0 1.515-.313 2.437-.297.922-.922 1.438-.609.5-1.562.5-1.235 0-1.953-.891-.844-1.063-.844-3.484Zm1.078 0q0 2.109.5 2.812.5.703 1.219.703.734 0 1.219-.703.5-.703.5-2.812 0-2.125-.5-2.813-.485-.703-1.235-.703-.719 0-1.156.61-.547.78-.547 2.906Zm5.922 0q0-1.532.313-2.454.312-.937.921-1.437.625-.5 1.563-.5.687 0 1.203.281.531.281.875.813.344.515.531 1.265.188.75.188 2.032 0 1.515-.313 2.437-.297.922-.922 1.438-.609.5-1.562.5-1.235 0-1.953-.891-.844-1.063-.844-3.484Zm1.078 0q0 2.109.5 2.812.5.703 1.219.703.734 0 1.219-.703.5-.703.5-2.812 0-2.125-.5-2.813-.485-.703-1.235-.703-.719 0-1.156.61-.547.78-.547 2.906Zm5.922 0q0-1.532.313-2.454.312-.937.921-1.437.625-.5 1.563-.5.687 0 1.203.281.531.281.875.813.344.515.531 1.265.188.75.188 2.032 0 1.515-.313 2.437-.297.922-.922 1.438-.609.5-1.562.5-1.235 0-1.953-.891-.844-1.063-.844-3.484Zm1.078 0q0 2.109.5 2.812.5.703 1.219.703.734 0 1.219-.703.5-.703.5-2.812 0-2.125-.5-2.813-.485-.703-1.235-.703-.719 0-1.156.61-.547.78-.547 2.906Zm5.922 0q0-1.532.313-2.454.312-.937.921-1.437.625-.5 1.563-.5.687 0 1.203.281.531.281.875.813.344.515.531 1.265.188.75.188 2.032 0 1.515-.313 2.437-.297.922-.922 1.438-.609.5-1.562.5-1.235 0-1.953-.891-.844-1.063-.844-3.484Zm1.078 0q0 2.109.5 2.812.5.703 1.219.703.734 0 1.219-.703.5-.703.5-2.812 0-2.125-.5-2.813-.485-.703-1.235-.703-.719 0-1.156.61-.547.78-.547 2.906Zm83.897 1.968 1.063-.14q.171.89.609 1.297.437.39 1.062.39.75 0 1.266-.515.516-.516.516-1.282 0-.718-.485-1.187-.468-.485-1.203-.485-.297 0-.75.125l.125-.937q.11.016.172.016.672 0 1.203-.344.547-.36.547-1.094 0-.578-.39-.953-.391-.39-1.016-.39-.61 0-1.031.39-.407.39-.516 1.156l-1.063-.187q.188-1.047.875-1.625.688-.594 1.704-.594.703 0 1.296.313.594.296.907.812.312.516.312 1.11 0 .546-.297 1.015-.297.453-.875.719.75.172 1.172.734.422.547.422 1.39 0 1.126-.828 1.907-.813.781-2.063.781-1.125 0-1.875-.672-.75-.687-.859-1.75Zm7-1.968q0-1.532.313-2.454.312-.937.921-1.437.625-.5 1.563-.5.687 0 1.203.281.531.281.875.813.344.515.531 1.265.188.75.188 2.032 0 1.515-.313 2.437-.297.922-.922 1.438-.609.5-1.562.5-1.234 0-1.953-.891-.844-1.063-.844-3.484Zm1.078 0q0 2.109.5 2.812.5.703 1.219.703.734 0 1.219-.703.5-.703.5-2.812 0-2.125-.5-2.813-.485-.703-1.235-.703-.718 0-1.156.61-.547.78-.547 2.906Zm5.922 0q0-1.532.313-2.454.312-.937.921-1.437.625-.5 1.563-.5.687 0 1.203.281.531.281.875.813.344.515.531 1.265.188.75.188 2.032 0 1.515-.313 2.437-.297.922-.922 1.438-.609.5-1.562.5-1.234 0-1.953-.891-.844-1.063-.844-3.484Zm1.078 0q0 2.109.5 2.812.5.703 1.219.703.734 0 1.219-.703.5-.703.5-2.812 0-2.125-.5-2.813-.485-.703-1.235-.703-.718 0-1.156.61-.547.78-.547 2.906Zm5.922 0q0-1.532.313-2.454.312-.937.921-1.437.625-.5 1.563-.5.687 0 1.203.281.531.281.875.813.344.515.531 1.265.188.75.188 2.032 0 1.515-.313 2.437-.297.922-.922 1.438-.609.5-1.562.5-1.234 0-1.953-.891-.844-1.063-.844-3.484Zm1.078 0q0 2.109.5 2.812.5.703 1.219.703.734 0 1.219-.703.5-.703.5-2.812 0-2.125-.5-2.813-.485-.703-1.235-.703-.718 0-1.156.61-.547.78-.547 2.906Zm5.922 0q0-1.532.313-2.454.312-.937.921-1.437.625-.5 1.563-.5.687 0 1.203.281.531.281.875.813.344.515.531 1.265.188.75.188 2.032 0 1.515-.313 2.437-.297.922-.922 1.438-.609.5-1.562.5-1.234 0-1.953-.891-.844-1.063-.844-3.484Zm1.078 0q0 2.109.5 2.812.5.703 1.219.703.734 0 1.219-.703.5-.703.5-2.812 0-2.125-.5-2.813-.485-.703-1.235-.703-.718 0-1.156.61-.547.78-.547 2.906Zm5.922 0q0-1.532.313-2.454.312-.937.921-1.437.625-.5 1.563-.5.687 0 1.203.281.531.281.875.813.344.515.531 1.265.188.75.188 2.032 0 1.515-.313 2.437-.297.922-.922 1.438-.609.5-1.562.5-1.234 0-1.953-.891-.844-1.063-.844-3.484Zm1.078 0q0 2.109.5 2.812.5.703 1.219.703.734 0 1.219-.703.5-.703.5-2.812 0-2.125-.5-2.813-.485-.703-1.235-.703-.718 0-1.156.61-.547.78-.547 2.906Zm5.922 0q0-1.532.313-2.454.312-.937.921-1.437.625-.5 1.563-.5.687 0 1.203.281.531.281.875.813.344.515.531 1.265.188.75.188 2.032 0 1.515-.313 2.437-.297.922-.922 1.438-.609.5-1.562.5-1.234 0-1.953-.891-.844-1.063-.844-3.484Zm1.078 0q0 2.109.5 2.812.5.703 1.219.703.734 0 1.219-.703.5-.703.5-2.812 0-2.125-.5-2.813-.485-.703-1.235-.703-.718 0-1.156.61-.547.78-.547 2.906Zm5.922 0q0-1.532.313-2.454.312-.937.921-1.437.625-.5 1.563-.5.687 0 1.203.281.531.281.875.813.344.515.531 1.265.188.75.188 2.032 0 1.515-.313 2.437-.297.922-.922 1.438-.609.5-1.562.5-1.234 0-1.953-.891-.844-1.063-.844-3.484Zm1.078 0q0 2.109.5 2.812.5.703 1.219.703.734 0 1.219-.703.5-.703.5-2.812 0-2.125-.5-2.813-.485-.703-1.235-.703-.718 0-1.156.61-.547.78-.547 2.906Z"/><path fill="#757575" d="M20.097 37.55V23.238h4.922q1.672 0 2.562.203 1.219.28 2.094 1.015 1.125.969 1.688 2.453.562 1.485.562 3.407 0 1.625-.375 2.89-.375 1.25-.984 2.078-.594.828-1.297 1.313-.703.469-1.703.719-1 .234-2.313.234h-5.156Zm1.89-1.688h3.063q1.406 0 2.203-.265.813-.266 1.297-.75.672-.672 1.047-1.797.375-1.14.375-2.766 0-2.25-.735-3.453-.734-1.203-1.796-1.61-.75-.296-2.438-.296h-3.015v10.937Zm11.235-3.5q0-2.875 1.594-4.265 1.343-1.156 3.265-1.156 2.14 0 3.485 1.406 1.359 1.406 1.359 3.875 0 2-.594 3.156-.594 1.14-1.75 1.781-1.14.625-2.5.625-2.187 0-3.531-1.39-1.328-1.407-1.328-4.032Zm1.797 0q0 2 .86 2.985.874.984 2.202.984 1.313 0 2.172-.984.875-1 .875-3.047 0-1.922-.875-2.906-.875-1-2.172-1-1.328 0-2.203 1-.86.984-.86 2.968Zm11.765 5.188-3.172-10.375h1.813l1.656 5.984.61 2.235q.046-.172.53-2.14l1.657-6.079h1.813l1.546 6.016.516 1.984.594-2 1.781-6h1.703L54.597 37.55h-1.828l-1.657-6.219-.39-1.765-2.11 7.984h-1.828Zm13.078 0V27.175h1.594v1.484q1.14-1.718 3.297-1.718.938 0 1.719.343.797.329 1.187.875.391.547.547 1.297.094.5.094 1.719v6.375h-1.766v-6.312q0-1.079-.203-1.61-.203-.531-.734-.844-.516-.312-1.219-.312-1.125 0-1.937.719-.813.703-.813 2.687v5.672h-1.766Zm9.97 0V23.238h1.75V37.55h-1.75Zm3.39-5.188q0-2.875 1.594-4.265 1.343-1.156 3.265-1.156 2.14 0 3.485 1.406 1.359 1.406 1.359 3.875 0 2-.594 3.156-.594 1.14-1.75 1.781-1.14.625-2.5.625-2.187 0-3.531-1.39-1.328-1.407-1.328-4.032Zm1.797 0q0 2 .86 2.985.874.984 2.202.984 1.313 0 2.172-.984.875-1 .875-3.047 0-1.922-.875-2.906-.875-1-2.172-1-1.328 0-2.203 1-.86.984-.86 2.968Zm16.625 3.907q-.985.828-1.89 1.172-.907.343-1.938.343-1.704 0-2.625-.828-.922-.844-.922-2.14 0-.766.343-1.391.36-.625.922-1 .563-.39 1.266-.594.516-.125 1.563-.265 2.124-.25 3.124-.594.016-.36.016-.469 0-1.062-.5-1.515-.672-.594-2-.594-1.25 0-1.844.437-.578.438-.859 1.547l-1.719-.234q.235-1.11.766-1.781.531-.688 1.547-1.047 1.015-.375 2.36-.375 1.327 0 2.155.312.828.313 1.22.797.39.469.546 1.188.094.453.094 1.625v2.343q0 2.453.11 3.11.108.64.452 1.234h-1.844q-.265-.547-.343-1.281Zm-.157-3.922q-.953.39-2.874.656-1.079.156-1.532.36-.437.187-.687.562-.25.375-.25.844 0 .703.531 1.172.531.468 1.563.468 1.015 0 1.796-.437.797-.453 1.172-1.219.281-.61.281-1.766v-.64Zm11.11 5.203v-1.313q-.984 1.547-2.906 1.547-1.235 0-2.282-.687-1.03-.688-1.609-1.906-.563-1.22-.563-2.813 0-1.562.516-2.828.516-1.266 1.547-1.938 1.047-.671 2.313-.671.937 0 1.671.406.735.39 1.203 1.015v-5.124h1.735V37.55h-1.625Zm-5.563-5.172q0 1.984.844 2.969.844.984 1.984.984 1.157 0 1.954-.937.812-.938.812-2.875 0-2.125-.828-3.125-.813-1-2.016-1-1.172 0-1.968.969-.782.953-.782 3.015Zm9.125 2.078 1.75-.281q.141 1.047.813 1.61.672.546 1.875.546 1.203 0 1.781-.484.594-.5.594-1.156 0-.594-.516-.938-.36-.234-1.797-.594-1.937-.5-2.687-.843-.734-.36-1.125-.985-.39-.64-.39-1.406 0-.688.312-1.281.328-.594.875-.985.406-.296 1.11-.5.718-.218 1.53-.218 1.22 0 2.141.359.922.344 1.36.953.437.594.609 1.594l-1.719.234q-.125-.797-.688-1.234-.562-.453-1.578-.453-1.218 0-1.734.406-.516.39-.516.922 0 .344.22.625.202.281.671.469.266.093 1.547.437 1.875.5 2.61.828.734.313 1.156.922.421.594.421 1.5 0 .875-.515 1.656-.516.782-1.485 1.203-.968.422-2.187.422-2.016 0-3.078-.843-1.063-.844-1.36-2.485Zm18.328 3.094h-1.624V23.238h1.75v5.109q1.124-1.406 2.843-1.406.953 0 1.813.39t1.406 1.094q.547.688.86 1.672.312.984.312 2.11 0 2.671-1.313 4.124-1.312 1.453-3.156 1.453t-2.89-1.53v1.296Zm-.015-5.266q0 1.86.5 2.703.844 1.344 2.25 1.344 1.156 0 1.984-1 .844-1 .844-2.984 0-2.031-.813-2.985-.796-.968-1.937-.968-1.156 0-2 1-.828 1-.828 2.89Zm9.312 9.266-.187-1.656q.578.156 1 .156.594 0 .937-.203.36-.188.579-.531.171-.266.546-1.313.047-.156.157-.437l-3.938-10.391h1.89l2.157 6.016q.422 1.14.75 2.39.313-1.203.719-2.36l2.219-6.046h1.765l-3.953 10.547q-.625 1.719-.984 2.36-.47.874-1.078 1.265-.594.406-1.438.406-.516 0-1.14-.203Zm16.344-4V23.238h6.344q1.906 0 2.906.39 1 .375 1.594 1.36.594.968.594 2.156 0 1.515-.985 2.562-.984 1.047-3.047 1.328.75.36 1.141.72.828.75 1.578 1.905l2.485 3.891h-2.375l-1.907-2.984q-.828-1.282-1.36-1.97-.53-.687-.968-.952-.422-.281-.86-.39-.327-.063-1.046-.063h-2.203v6.359h-1.89Zm1.89-8h4.079q1.297 0 2.016-.266.734-.265 1.109-.859.39-.594.39-1.281 0-1.016-.734-1.672-.734-.656-2.328-.656h-4.531v4.734Zm18.954 4.656 1.812.235q-.421 1.578-1.593 2.468-1.157.875-2.97.875-2.265 0-3.608-1.39-1.329-1.407-1.329-3.938 0-2.625 1.344-4.062 1.344-1.453 3.5-1.453 2.078 0 3.39 1.422 1.329 1.406 1.329 3.984 0 .156-.016.469h-7.734q.094 1.703.969 2.609.875.906 2.172.906.968 0 1.64-.5.688-.515 1.094-1.625Zm-5.781-2.844h5.797q-.11-1.296-.657-1.953-.843-1.015-2.187-1.015-1.203 0-2.031.812-.829.797-.922 2.157Zm9.64 6.188V23.238h1.75V37.55h-1.75Zm11.14-3.344 1.813.235q-.421 1.578-1.593 2.468-1.157.875-2.97.875-2.265 0-3.608-1.39-1.329-1.407-1.329-3.938 0-2.625 1.344-4.062 1.344-1.453 3.5-1.453 2.078 0 3.39 1.422 1.329 1.406 1.329 3.984 0 .156-.016.469h-7.734q.094 1.703.969 2.609.875.906 2.172.906.968 0 1.64-.5.688-.515 1.094-1.625Zm-5.78-2.844h5.797q-.11-1.296-.657-1.953-.843-1.015-2.187-1.015-1.203 0-2.031.812-.829.797-.922 2.157Zm16.453 4.907q-.985.828-1.89 1.172-.907.343-1.938.343-1.703 0-2.625-.828-.922-.844-.922-2.14 0-.766.344-1.391.359-.625.921-1 .563-.39 1.266-.594.516-.125 1.563-.265 2.125-.25 3.125-.594.015-.36.015-.469 0-1.062-.5-1.515-.672-.594-2-.594-1.25 0-1.844.437-.578.438-.859 1.547l-1.719-.234q.235-1.11.766-1.781.531-.688 1.547-1.047 1.015-.375 2.36-.375 1.327 0 2.155.312.829.313 1.22.797.39.469.546 1.188.094.453.094 1.625v2.343q0 2.453.11 3.11.109.64.452 1.234h-1.843q-.266-.547-.344-1.281Zm-.156-3.922q-.954.39-2.875.656-1.079.156-1.532.36-.437.187-.687.562-.25.375-.25.844 0 .703.531 1.172.531.468 1.563.468 1.015 0 1.796-.437.797-.453 1.172-1.219.282-.61.282-1.766v-.64Zm3.671 2.11 1.75-.282q.141 1.047.813 1.61.672.546 1.875.546 1.203 0 1.781-.484.594-.5.594-1.156 0-.594-.516-.938-.36-.234-1.797-.594-1.937-.5-2.687-.843-.734-.36-1.125-.985-.39-.64-.39-1.406 0-.688.312-1.281.328-.594.875-.985.406-.296 1.11-.5.718-.218 1.53-.218 1.22 0 2.141.359.922.344 1.36.953.437.594.609 1.594l-1.719.234q-.125-.797-.688-1.234-.562-.453-1.578-.453-1.218 0-1.734.406-.516.39-.516.922 0 .344.22.625.202.281.671.469.266.093 1.547.437 1.875.5 2.61.828.734.313 1.156.922.421.594.421 1.5 0 .875-.515 1.656-.516.782-1.485 1.203-.968.422-2.187.422-2.016 0-3.078-.843-1.063-.844-1.36-2.485Zm17.813-.25 1.812.234q-.421 1.578-1.593 2.468-1.157.875-2.97.875-2.265 0-3.608-1.39-1.329-1.407-1.329-3.938 0-2.625 1.344-4.062 1.344-1.453 3.5-1.453 2.078 0 3.39 1.422 1.329 1.406 1.329 3.984 0 .156-.016.469h-7.734q.094 1.703.969 2.609.875.906 2.172.906.968 0 1.64-.5.688-.515 1.094-1.625Zm-5.781-2.845h5.797q-.11-1.296-.657-1.953-.843-1.015-2.187-1.015-1.203 0-2.031.812-.829.797-.922 2.157Zm15.828 6.188V23.238h1.89v12.624h7.047v1.688h-8.937Zm10.86-12.297v-2.015h1.765v2.015h-1.766Zm0 12.297V27.175h1.765V37.55h-1.766Zm3.984 0V27.175h1.593v1.484q1.14-1.718 3.297-1.718.938 0 1.719.343.797.329 1.187.875.391.547.547 1.297.094.5.094 1.719v6.375h-1.766v-6.312q0-1.079-.203-1.61-.203-.531-.734-.844-.516-.312-1.219-.312-1.125 0-1.937.719-.813.703-.813 2.687v5.672h-1.765Zm17.109-3.344 1.812.235q-.421 1.578-1.593 2.468-1.157.875-2.97.875-2.265 0-3.608-1.39-1.329-1.407-1.329-3.938 0-2.625 1.344-4.062 1.344-1.453 3.5-1.453 2.078 0 3.39 1.422 1.329 1.406 1.329 3.984 0 .156-.016.469h-7.734q.094 1.703.969 2.609.875.906 2.172.906.968 0 1.64-.5.688-.515 1.094-1.625Zm-5.781-2.844h5.797q-.11-1.296-.657-1.953-.844-1.015-2.187-1.015-1.203 0-2.031.812-.829.797-.922 2.157Z"/></svg>