<svg width="21" height="18" viewBox="0 0 21 18" fill="none" xmlns="http://www.w3.org/2000/svg">
<path d="M10.4998 6.66666V9.99999M10.4998 13.3333H10.5081M9.0748 2.38333L2.01647 14.1667C1.87094 14.4187 1.79394 14.7044 1.79313 14.9954C1.79231 15.2864 1.86771 15.5726 2.01183 15.8254C2.15594 16.0783 2.36374 16.2889 2.61456 16.4365C2.86538 16.5841 3.15047 16.6635 3.44147 16.6667H17.5581C17.8491 16.6635 18.1342 16.5841 18.385 16.4365C18.6359 16.2889 18.8437 16.0783 18.9878 15.8254C19.1319 15.5726 19.2073 15.2864 19.2065 14.9954C19.2057 14.7044 19.1287 14.4187 18.9831 14.1667L11.9248 2.38333C11.7762 2.13841 11.5671 1.93593 11.3175 1.7954C11.0679 1.65487 10.7862 1.58104 10.4998 1.58104C10.2134 1.58104 9.93175 1.65487 9.68214 1.7954C9.43254 1.93593 9.22336 2.13841 9.0748 2.38333Z" stroke="#DC6803" stroke-width="1.66667" stroke-linecap="round" stroke-linejoin="round"/>
</svg>
